<svg width="137" height="24" viewBox="0 0 137 24" fill="none" xmlns="http://www.w3.org/2000/svg">
<path fill-rule="evenodd" clip-rule="evenodd" d="M60.991 24H58.9382C57.361 24 56.1317 23.5562 55.2502 22.6686C54.3689 21.7809 53.9281 20.5405 53.9281 18.9474V11.6415C53.9281 10.0484 54.3689 8.80797 55.2502 7.92034C56.1317 7.03272 57.361 6.5889 58.9382 6.5889H60.991C62.8002 6.5889 63.9948 7.19203 64.5746 8.39829H64.7138V0C64.7138 0 67.3052 0.375 67.3052 3.375C67.3052 6.375 67.2188 23.522 67.2188 23.522C67.2188 23.8407 67.0681 24 66.7665 24H65.1661C64.8646 24 64.7138 23.8407 64.7138 23.522V22.1906H64.5746C63.9948 23.3969 62.8002 24 60.991 24ZM64.7138 11.9146V18.6743C64.7138 19.6757 64.4354 20.4495 63.8788 20.9957C63.3221 21.542 62.5219 21.8151 61.4781 21.8151H59.3557C57.4306 21.8151 56.4679 20.825 56.4679 18.845V11.744C56.4679 9.76387 57.4306 8.77383 59.3557 8.77383H61.4781C62.5219 8.77383 63.3221 9.04694 63.8788 9.59317C64.4354 10.1394 64.7138 10.9132 64.7138 11.9146Z" fill="#024639" fill-opacity="0.8"/>
<path fill-rule="evenodd" clip-rule="evenodd" d="M0.626265 24H6.81933C10.1363 24 11.7947 22.6344 11.7947 19.9033C11.7947 18.5832 11.5743 17.5477 11.1336 16.7966C10.7161 16.0455 9.90424 15.4424 8.69813 14.9872L4.59261 13.1778C3.2705 12.6771 2.60944 11.9488 2.60944 10.9929V10.4125C2.60944 9.95729 2.81819 9.55903 3.2357 9.21764C3.67641 8.87624 4.31427 8.70555 5.14929 8.70555H10.403C10.7277 8.70555 10.8901 8.55761 10.8901 8.26173V7.06686C10.8901 6.74822 10.7277 6.5889 10.403 6.5889H4.69699C1.56566 6.5889 0 7.98862 0 10.788C0 11.8578 0.255145 12.7226 0.765435 13.3826C1.27572 14.0199 2.12234 14.5775 3.30529 15.0555L7.41081 16.7624C8.59375 17.2177 9.18522 18.0483 9.18522 19.2546V19.9033C9.18522 21.2233 8.28062 21.8834 6.47141 21.8834H0.626265C0.301535 21.8834 0.13917 22.0313 0.13917 22.3272V23.522C0.13917 23.8407 0.301535 24 0.626265 24ZM22.0451 24H29.4211C29.7459 24 29.9082 23.852 29.9082 23.5562V22.3272C29.9082 22.0085 29.7459 21.8492 29.4211 21.8492H22.3235C20.3751 21.8492 19.4009 20.8592 19.4009 18.8791V16.7966C19.4009 16.5917 19.5169 16.4893 19.7488 16.4893H29.5951C29.9199 16.4893 30.0822 16.3186 30.0822 15.9772V11.6415C30.0822 10.0484 29.6299 8.80797 28.7253 7.92034C27.8207 7.03272 26.5682 6.5889 24.9677 6.5889H22.0451C20.4447 6.5889 19.1805 7.03272 18.2527 7.92034C17.3481 8.80797 16.8958 10.0484 16.8958 11.6415V18.9474C16.8958 20.5405 17.3481 21.7809 18.2527 22.6686C19.1805 23.5562 20.4447 24 22.0451 24ZM27.264 14.6799H19.7488C19.5169 14.6799 19.4009 14.5661 19.4009 14.3386V11.7098C19.4009 9.75246 20.3751 8.77383 22.3235 8.77383H24.6894C26.6377 8.77383 27.6119 9.75246 27.6119 11.7098V14.3386C27.6119 14.5661 27.4959 14.6799 27.264 14.6799ZM40.5613 24H47.9373C48.262 24 48.4244 23.852 48.4244 23.5562V22.3272C48.4244 22.0085 48.262 21.8492 47.9373 21.8492H40.8396C38.8913 21.8492 37.9171 20.8592 37.9171 18.8791V16.7966C37.9171 16.5917 38.033 16.4893 38.265 16.4893H48.1113C48.436 16.4893 48.5984 16.3186 48.5984 15.9772V11.6415C48.5984 10.0484 48.1461 8.80797 47.2415 7.92034C46.3369 7.03272 45.0843 6.5889 43.4839 6.5889H40.5613C38.9609 6.5889 37.6967 7.03272 36.7689 7.92034C35.8643 8.80797 35.412 10.0484 35.412 11.6415V18.9474C35.412 20.5405 35.8643 21.7809 36.7689 22.6686C37.6967 23.5562 38.9609 24 40.5613 24ZM45.7802 14.6799H38.265C38.033 14.6799 37.9171 14.5661 37.9171 14.3386V11.7098C37.9171 9.75246 38.8913 8.77383 40.8396 8.77383H43.2055C45.1539 8.77383 46.1281 9.75246 46.1281 11.7098V14.3386C46.1281 14.5661 46.0121 14.6799 45.7802 14.6799ZM83.7371 23.5562V22.293C83.7371 21.9744 83.5748 21.8151 83.25 21.8151H78.4835C76.5583 21.8151 75.5957 20.825 75.5957 18.845V11.744C75.5957 9.76387 76.5583 8.77383 78.4835 8.77383H83.25C83.5748 8.77383 83.7371 8.62589 83.7371 8.33001V7.06686C83.7371 6.74822 83.5748 6.5889 83.25 6.5889H78.2051C76.6047 6.5889 75.3406 7.03272 74.4127 7.92034C73.5081 8.80797 73.0558 10.0484 73.0558 11.6415V18.9474C73.0558 20.5405 73.5081 21.7809 74.4127 22.6686C75.3406 23.5562 76.6047 24 78.2051 24H83.25C83.5748 24 83.7371 23.852 83.7371 23.5562ZM93.4935 24H95.3027C97.0887 24 98.2717 23.3969 98.8515 22.1906H98.9907V23.522C98.9907 23.8407 99.1527 24 99.4778 24H101.043C101.368 24 101.531 23.8407 101.531 23.522V7.06686C101.531 6.74822 101.368 6.5889 101.043 6.5889H93.4935C91.893 6.5889 90.6288 7.03272 89.7011 7.92034C88.7965 8.80797 88.3442 10.0484 88.3442 11.6415V18.9474C88.3442 20.5405 88.7965 21.7809 89.7011 22.6686C90.6288 23.5562 91.893 24 93.4935 24ZM98.9907 9.08108V18.6743C98.9907 19.6757 98.7123 20.4495 98.1556 20.9957C97.599 21.542 96.7987 21.8151 95.755 21.8151H93.7718C91.8466 21.8151 90.884 20.825 90.884 18.845V11.744C90.884 9.76387 91.8466 8.77383 93.7718 8.77383H98.6427C98.8744 8.77383 98.9907 8.87624 98.9907 9.08108ZM107.544 24H113.737C117.054 24 118.712 22.6344 118.712 19.9033C118.712 18.5832 118.492 17.5477 118.051 16.7966C117.633 16.0455 116.822 15.4424 115.616 14.9872L111.51 13.1778C110.188 12.6771 109.527 11.9488 109.527 10.9929V10.4125C109.527 9.95729 109.736 9.55903 110.153 9.21764C110.594 8.87624 111.232 8.70555 112.067 8.70555H117.32C117.645 8.70555 117.807 8.55761 117.807 8.26173V7.06686C117.807 6.74822 117.645 6.5889 117.32 6.5889H111.614C108.483 6.5889 106.917 7.98862 106.917 10.788C106.917 11.8578 107.173 12.7226 107.683 13.3826C108.194 14.0199 109.04 14.5775 110.223 15.0555L114.328 16.7624C115.511 17.2177 116.103 18.0483 116.103 19.2546V19.9033C116.103 21.2233 115.198 21.8834 113.389 21.8834H107.544C107.22 21.8834 107.057 22.0313 107.057 22.3272V23.522C107.057 23.8407 107.22 24 107.544 24ZM128.963 24H136.339C136.664 24 136.826 23.852 136.826 23.5562V22.3272C136.826 22.0085 136.664 21.8492 136.339 21.8492H129.241C127.293 21.8492 126.319 20.8592 126.319 18.8791V16.7966C126.319 16.5917 126.435 16.4893 126.667 16.4893H136.513C136.838 16.4893 137 16.3186 137 15.9772V11.6415C137 10.0484 136.548 8.80797 135.643 7.92034C134.738 7.03272 133.486 6.5889 131.885 6.5889H128.963C127.362 6.5889 126.098 7.03272 125.171 7.92034C124.266 8.80797 123.814 10.0484 123.814 11.6415V18.9474C123.814 20.5405 124.266 21.7809 125.171 22.6686C126.098 23.5562 127.362 24 128.963 24ZM134.182 14.6799H126.667C126.435 14.6799 126.319 14.5661 126.319 14.3386V11.7098C126.319 9.75246 127.293 8.77383 129.241 8.77383H131.607C133.556 8.77383 134.53 9.75246 134.53 11.7098V14.3386C134.53 14.5661 134.413 14.6799 134.182 14.6799Z" fill="#024639" fill-opacity="0.8"/>
</svg>
