<svg width="254" height="70" viewBox="0 0 254 70" fill="none" xmlns="http://www.w3.org/2000/svg">
<path fill-rule="evenodd" clip-rule="evenodd" d="M143.991 25H141.938C140.361 25 139.132 24.5562 138.25 23.6686C137.369 22.7809 136.928 21.5405 136.928 19.9474V12.6415C136.928 11.0484 137.369 9.80797 138.25 8.92034C139.132 8.03272 140.361 7.5889 141.938 7.5889H143.991C145.8 7.5889 146.995 8.19203 147.575 9.39829H147.714V1C147.714 1 150.305 1.375 150.305 4.375C150.305 7.375 150.219 24.522 150.219 24.522C150.219 24.8407 150.068 25 149.767 25H148.166C147.865 25 147.714 24.8407 147.714 24.522V23.1906H147.575C146.995 24.3969 145.8 25 143.991 25ZM147.714 12.9146V19.6743C147.714 20.6757 147.435 21.4495 146.879 21.9957C146.322 22.542 145.522 22.8151 144.478 22.8151H142.356C140.431 22.8151 139.468 21.825 139.468 19.845V12.744C139.468 10.7639 140.431 9.77383 142.356 9.77383H144.478C145.522 9.77383 146.322 10.0469 146.879 10.5932C147.435 11.1394 147.714 11.9132 147.714 12.9146Z" fill="#024639" fill-opacity="0.8"/>
<path fill-rule="evenodd" clip-rule="evenodd" d="M83.6263 25H89.8193C93.1363 25 94.7947 23.6344 94.7947 20.9033C94.7947 19.5832 94.5743 18.5477 94.1336 17.7966C93.7161 17.0455 92.9042 16.4424 91.6981 15.9872L87.5926 14.1778C86.2705 13.6771 85.6094 12.9488 85.6094 11.9929V11.4125C85.6094 10.9573 85.8182 10.559 86.2357 10.2176C86.6764 9.87624 87.3143 9.70555 88.1493 9.70555H93.403C93.7277 9.70555 93.8901 9.55761 93.8901 9.26173V8.06686C93.8901 7.74822 93.7277 7.5889 93.403 7.5889H87.697C84.5657 7.5889 83 8.98862 83 11.788C83 12.8578 83.2551 13.7226 83.7654 14.3826C84.2757 15.0199 85.1223 15.5775 86.3053 16.0555L90.4108 17.7624C91.5938 18.2177 92.1852 19.0483 92.1852 20.2546V20.9033C92.1852 22.2233 91.2806 22.8834 89.4714 22.8834H83.6263C83.3015 22.8834 83.1392 23.0313 83.1392 23.3272V24.522C83.1392 24.8407 83.3015 25 83.6263 25ZM105.045 25H112.421C112.746 25 112.908 24.852 112.908 24.5562V23.3272C112.908 23.0085 112.746 22.8492 112.421 22.8492H105.323C103.375 22.8492 102.401 21.8592 102.401 19.8791V17.7966C102.401 17.5917 102.517 17.4893 102.749 17.4893H112.595C112.92 17.4893 113.082 17.3186 113.082 16.9772V12.6415C113.082 11.0484 112.63 9.80797 111.725 8.92034C110.821 8.03272 109.568 7.5889 107.968 7.5889H105.045C103.445 7.5889 102.181 8.03272 101.253 8.92034C100.348 9.80797 99.8958 11.0484 99.8958 12.6415V19.9474C99.8958 21.5405 100.348 22.7809 101.253 23.6686C102.181 24.5562 103.445 25 105.045 25ZM110.264 15.6799H102.749C102.517 15.6799 102.401 15.5661 102.401 15.3386V12.7098C102.401 10.7525 103.375 9.77383 105.323 9.77383H107.689C109.638 9.77383 110.612 10.7525 110.612 12.7098V15.3386C110.612 15.5661 110.496 15.6799 110.264 15.6799ZM123.561 25H130.937C131.262 25 131.424 24.852 131.424 24.5562V23.3272C131.424 23.0085 131.262 22.8492 130.937 22.8492H123.84C121.891 22.8492 120.917 21.8592 120.917 19.8791V17.7966C120.917 17.5917 121.033 17.4893 121.265 17.4893H131.111C131.436 17.4893 131.598 17.3186 131.598 16.9772V12.6415C131.598 11.0484 131.146 9.80797 130.241 8.92034C129.337 8.03272 128.084 7.5889 126.484 7.5889H123.561C121.961 7.5889 120.697 8.03272 119.769 8.92034C118.864 9.80797 118.412 11.0484 118.412 12.6415V19.9474C118.412 21.5405 118.864 22.7809 119.769 23.6686C120.697 24.5562 121.961 25 123.561 25ZM128.78 15.6799H121.265C121.033 15.6799 120.917 15.5661 120.917 15.3386V12.7098C120.917 10.7525 121.891 9.77383 123.84 9.77383H126.206C128.154 9.77383 129.128 10.7525 129.128 12.7098V15.3386C129.128 15.5661 129.012 15.6799 128.78 15.6799ZM166.737 24.5562V23.293C166.737 22.9744 166.575 22.8151 166.25 22.8151H161.483C159.558 22.8151 158.596 21.825 158.596 19.845V12.744C158.596 10.7639 159.558 9.77383 161.483 9.77383H166.25C166.575 9.77383 166.737 9.62589 166.737 9.33001V8.06686C166.737 7.74822 166.575 7.5889 166.25 7.5889H161.205C159.605 7.5889 158.341 8.03272 157.413 8.92034C156.508 9.80797 156.056 11.0484 156.056 12.6415V19.9474C156.056 21.5405 156.508 22.7809 157.413 23.6686C158.341 24.5562 159.605 25 161.205 25H166.25C166.575 25 166.737 24.852 166.737 24.5562ZM176.493 25H178.303C180.089 25 181.272 24.3969 181.852 23.1906H181.991V24.522C181.991 24.8407 182.153 25 182.478 25H184.043C184.368 25 184.531 24.8407 184.531 24.522V8.06686C184.531 7.74822 184.368 7.5889 184.043 7.5889H176.493C174.893 7.5889 173.629 8.03272 172.701 8.92034C171.796 9.80797 171.344 11.0484 171.344 12.6415V19.9474C171.344 21.5405 171.796 22.7809 172.701 23.6686C173.629 24.5562 174.893 25 176.493 25ZM181.991 10.0811V19.6743C181.991 20.6757 181.712 21.4495 181.156 21.9957C180.599 22.542 179.799 22.8151 178.755 22.8151H176.772C174.847 22.8151 173.884 21.825 173.884 19.845V12.744C173.884 10.7639 174.847 9.77383 176.772 9.77383H181.643C181.874 9.77383 181.991 9.87624 181.991 10.0811ZM190.544 25H196.737C200.054 25 201.712 23.6344 201.712 20.9033C201.712 19.5832 201.492 18.5477 201.051 17.7966C200.633 17.0455 199.822 16.4424 198.616 15.9872L194.51 14.1778C193.188 13.6771 192.527 12.9488 192.527 11.9929V11.4125C192.527 10.9573 192.736 10.559 193.153 10.2176C193.594 9.87624 194.232 9.70555 195.067 9.70555H200.32C200.645 9.70555 200.807 9.55761 200.807 9.26173V8.06686C200.807 7.74822 200.645 7.5889 200.32 7.5889H194.614C191.483 7.5889 189.917 8.98862 189.917 11.788C189.917 12.8578 190.173 13.7226 190.683 14.3826C191.194 15.0199 192.04 15.5775 193.223 16.0555L197.328 17.7624C198.511 18.2177 199.103 19.0483 199.103 20.2546V20.9033C199.103 22.2233 198.198 22.8834 196.389 22.8834H190.544C190.22 22.8834 190.057 23.0313 190.057 23.3272V24.522C190.057 24.8407 190.22 25 190.544 25ZM211.963 25H219.339C219.664 25 219.826 24.852 219.826 24.5562V23.3272C219.826 23.0085 219.664 22.8492 219.339 22.8492H212.241C210.293 22.8492 209.319 21.8592 209.319 19.8791V17.7966C209.319 17.5917 209.435 17.4893 209.667 17.4893H219.513C219.838 17.4893 220 17.3186 220 16.9772V12.6415C220 11.0484 219.548 9.80797 218.643 8.92034C217.738 8.03272 216.486 7.5889 214.885 7.5889H211.963C210.362 7.5889 209.098 8.03272 208.171 8.92034C207.266 9.80797 206.814 11.0484 206.814 12.6415V19.9474C206.814 21.5405 207.266 22.7809 208.171 23.6686C209.098 24.5562 210.362 25 211.963 25ZM217.182 15.6799H209.667C209.435 15.6799 209.319 15.5661 209.319 15.3386V12.7098C209.319 10.7525 210.293 9.77383 212.241 9.77383H214.607C216.556 9.77383 217.53 10.7525 217.53 12.7098V15.3386C217.53 15.5661 217.413 15.6799 217.182 15.6799Z" fill="#024639" fill-opacity="0.8"/>
<path fill-rule="evenodd" clip-rule="evenodd" d="M99.8569 61.0568C99.8569 61.6828 99.5472 61.9971 98.928 61.9971H95.1663C94.547 61.9971 94.2374 61.6828 94.2374 61.0568V59.5791H94.0596C93.7356 60.3851 93.1593 60.9911 92.3336 61.3941C91.5079 61.7971 90.6363 62 89.7217 62H87.9068C85.6332 62 83.9158 61.3741 82.7489 60.1193C81.582 58.8646 81 57.0582 81 54.6974V46.4545C81 44.0965 81.582 42.2872 82.7489 41.0325C83.913 39.7778 85.6332 39.1518 87.9068 39.1518H89.7217C90.6363 39.1518 91.5079 39.3548 92.3336 39.7578C93.1593 40.1608 93.7356 40.7667 94.0596 41.5727H94.2374V30C97.3711 30 99.9142 32.4466 99.9171 35.4591C99.92 38.4716 99.8598 61.0597 99.8598 61.0597L99.8569 61.0568ZM91.1811 44.0765C93.2167 44.0765 94.2345 45.2111 94.2345 47.4805V53.6656C94.2345 55.935 93.2167 57.0697 91.1811 57.0697H89.1884C88.2423 57.0697 87.58 56.8667 87.1958 56.4637C86.8116 56.0607 86.6195 55.3834 86.6195 54.4259V46.7203C86.6195 45.7656 86.8116 45.0854 87.1958 44.6824C87.58 44.2794 88.2423 44.0765 89.1884 44.0765H91.1811Z" fill="#024639"/>
<path d="M122.102 62H112.82C110.608 62 108.9 61.412 107.696 60.236C106.492 59.06 105.89 57.366 105.89 55.154V47.426C105.89 45.214 106.492 43.52 107.696 42.344C108.9 41.168 110.608 40.58 112.82 40.58H116.138C118.35 40.58 120.058 41.168 121.262 42.344C122.466 43.52 123.068 45.214 123.068 47.426V52.76C123.068 53.348 122.774 53.642 122.186 53.642H111.644C111.308 53.642 111.14 53.796 111.14 54.104V55.028C111.14 55.896 111.322 56.526 111.686 56.918C112.078 57.282 112.722 57.464 113.618 57.464H122.102C122.69 57.464 122.984 57.772 122.984 58.388V61.16C122.984 61.468 122.914 61.692 122.774 61.832C122.662 61.944 122.438 62 122.102 62ZM111.644 50.072H117.356C117.664 50.072 117.818 49.918 117.818 49.61V47.594C117.818 46.698 117.636 46.068 117.272 45.704C116.908 45.34 116.278 45.158 115.382 45.158H113.618C112.722 45.158 112.092 45.34 111.728 45.704C111.364 46.068 111.182 46.698 111.182 47.594V49.61C111.182 49.918 111.336 50.072 111.644 50.072Z" fill="#024639"/>
<path d="M142.394 58.262V61.16C142.394 61.468 142.324 61.692 142.184 61.832C142.072 61.944 141.848 62 141.512 62H135.254C133.042 62 131.334 61.412 130.13 60.236C128.926 59.06 128.324 57.366 128.324 55.154V47.426C128.324 45.214 128.926 43.52 130.13 42.344C131.334 41.168 133.042 40.58 135.254 40.58H141.512C142.1 40.58 142.394 40.874 142.394 41.462V44.36C142.394 44.668 142.324 44.892 142.184 45.032C142.072 45.144 141.848 45.2 141.512 45.2H136.094C135.226 45.2 134.596 45.396 134.204 45.788C133.84 46.152 133.658 46.782 133.658 47.678V54.902C133.658 55.798 133.84 56.442 134.204 56.834C134.596 57.198 135.226 57.38 136.094 57.38H141.512C142.1 57.38 142.394 57.674 142.394 58.262Z" fill="#024639"/>
<path d="M147.901 36.968V33.314C147.901 32.754 148.181 32.474 148.741 32.474H152.395C152.955 32.474 153.235 32.74 153.235 33.272V36.968C153.235 37.528 152.955 37.808 152.395 37.808H148.741C148.181 37.808 147.901 37.528 147.901 36.968ZM147.901 61.118V41.462C147.901 40.874 148.181 40.58 148.741 40.58H152.353C152.941 40.58 153.235 40.874 153.235 41.462V61.118C153.235 61.482 153.165 61.72 153.025 61.832C152.913 61.944 152.703 62 152.395 62H148.783C148.195 62 147.901 61.706 147.901 61.118Z" fill="#024639"/>
<path d="M167.854 62H159.874C159.314 62 159.034 61.706 159.034 61.118V58.43C159.034 58.122 159.09 57.912 159.202 57.8C159.314 57.66 159.538 57.59 159.874 57.59H166.888C168.26 57.59 168.946 57.17 168.946 56.33V56.12C168.946 55.448 168.372 54.804 167.224 54.188L163.066 51.878C161.638 51.15 160.588 50.366 159.916 49.526C159.244 48.686 158.908 47.608 158.908 46.292C158.908 44.332 159.426 42.89 160.462 41.966C161.498 41.042 163.122 40.58 165.334 40.58H172.348C172.908 40.58 173.188 40.874 173.188 41.462V44.192C173.188 44.5 173.132 44.724 173.02 44.864C172.908 44.976 172.684 45.032 172.348 45.032H166.51C165.138 45.032 164.452 45.382 164.452 46.082V46.292C164.452 46.908 165.054 47.538 166.258 48.182L170.5 50.702C171.956 51.486 172.978 52.298 173.566 53.138C174.154 53.95 174.448 55.028 174.448 56.372C174.448 60.124 172.25 62 167.854 62Z" fill="#024639"/>
<path d="M180.054 36.968V33.314C180.054 32.754 180.334 32.474 180.894 32.474H184.548C185.108 32.474 185.388 32.74 185.388 33.272V36.968C185.388 37.528 185.108 37.808 184.548 37.808H180.894C180.334 37.808 180.054 37.528 180.054 36.968ZM180.054 61.118V41.462C180.054 40.874 180.334 40.58 180.894 40.58H184.506C185.094 40.58 185.388 40.874 185.388 41.462V61.118C185.388 61.482 185.318 61.72 185.178 61.832C185.066 61.944 184.856 62 184.548 62H180.936C180.348 62 180.054 61.706 180.054 61.118Z" fill="#024639"/>
<path d="M202.149 62H198.411C196.199 62 194.491 61.412 193.287 60.236C192.083 59.06 191.481 57.366 191.481 55.154V47.426C191.481 45.214 192.083 43.52 193.287 42.344C194.491 41.168 196.199 40.58 198.411 40.58H202.149C204.333 40.58 206.027 41.182 207.231 42.386C208.463 43.562 209.079 45.242 209.079 47.426V55.154C209.079 57.338 208.463 59.032 207.231 60.236C206.027 61.412 204.333 62 202.149 62ZM199.209 57.422H201.351C202.247 57.422 202.877 57.24 203.241 56.876C203.633 56.512 203.829 55.882 203.829 54.986V47.594C203.829 46.698 203.633 46.068 203.241 45.704C202.877 45.34 202.247 45.158 201.351 45.158H199.209C198.313 45.158 197.683 45.34 197.319 45.704C196.955 46.068 196.773 46.698 196.773 47.594V54.986C196.773 55.882 196.955 56.512 197.319 56.876C197.683 57.24 198.313 57.422 199.209 57.422Z" fill="#024639"/>
<path d="M219.403 62H215.833C215.245 62 214.951 61.706 214.951 61.118V41.462C214.951 40.874 215.245 40.58 215.833 40.58H219.403C219.991 40.58 220.285 40.874 220.285 41.462V42.848H220.453C221.069 41.336 222.441 40.58 224.569 40.58H225.913C230.309 40.58 232.507 42.862 232.507 47.426V61.118C232.507 61.706 232.199 62 231.583 62H228.055C227.467 62 227.173 61.706 227.173 61.118V47.678C227.173 46.782 226.977 46.152 226.585 45.788C226.221 45.396 225.591 45.2 224.695 45.2H223.183C221.251 45.2 220.285 46.264 220.285 48.392V61.118C220.285 61.706 219.991 62 219.403 62Z" fill="#024639"/>
<path d="M246.721 62H238.741C238.181 62 237.901 61.706 237.901 61.118V58.43C237.901 58.122 237.957 57.912 238.069 57.8C238.181 57.66 238.405 57.59 238.741 57.59H245.755C247.127 57.59 247.813 57.17 247.813 56.33V56.12C247.813 55.448 247.239 54.804 246.091 54.188L241.933 51.878C240.505 51.15 239.455 50.366 238.783 49.526C238.111 48.686 237.775 47.608 237.775 46.292C237.775 44.332 238.293 42.89 239.329 41.966C240.365 41.042 241.989 40.58 244.201 40.58H251.215C251.775 40.58 252.055 40.874 252.055 41.462V44.192C252.055 44.5 251.999 44.724 251.887 44.864C251.775 44.976 251.551 45.032 251.215 45.032H245.377C244.005 45.032 243.319 45.382 243.319 46.082V46.292C243.319 46.908 243.921 47.538 245.125 48.182L249.367 50.702C250.823 51.486 251.845 52.298 252.433 53.138C253.021 53.95 253.315 55.028 253.315 56.372C253.315 60.124 251.117 62 246.721 62Z" fill="#024639"/>
<path fill-rule="evenodd" clip-rule="evenodd" d="M64.0001 20.5165L49.4835 5.99986C41.4837 -1.99995 28.5163 -1.99995 20.5165 5.99986L5.99986 20.5165C-1.99995 28.5163 -1.99995 41.4837 5.99986 49.4835L20.5165 64.0001C28.5163 72 41.4837 72 49.4835 64.0001L64.0001 49.4835C72 41.4837 72 28.5163 64.0001 20.5165ZM27.7417 56.7386L20.4866 49.4921C24.494 45.489 30.9894 45.489 34.9968 49.4921L42.2519 56.7386C38.2445 60.7417 31.7491 60.7417 27.7417 56.7386ZM47.0851 51.9033L22.9128 27.7566C20.2391 25.0851 20.2348 20.7555 22.9064 18.0881L47.0787 42.2348C49.7524 44.9064 49.7567 49.236 47.0851 51.9033ZM34.9947 20.493L27.7396 13.2464C31.747 9.24332 38.2424 9.24332 42.2498 13.2464L49.5049 20.493C45.4975 24.4961 39.002 24.4961 34.9947 20.493Z" fill="#024639"/>
<path d="M34.9947 20.493L27.7396 13.2464C31.747 9.24332 38.2424 9.24332 42.2498 13.2464L49.5049 20.493C45.4975 24.4961 39.002 24.4961 34.9947 20.493Z" fill="#48DC76"/>
<path d="M47.0851 51.9033L22.9128 27.7566C20.2391 25.0851 20.2348 20.7555 22.9064 18.0881L47.0787 42.2348C49.7524 44.9064 49.7567 49.236 47.0851 51.9033Z" fill="#48DC76"/>
<path d="M27.7417 56.7386L20.4866 49.4921C24.494 45.489 30.9894 45.489 34.9968 49.4921L42.2519 56.7386C38.2445 60.7417 31.7491 60.7417 27.7417 56.7386Z" fill="#48DC76"/>
</svg>
