<svg width="220" height="70" viewBox="0 0 220 70" fill="none" xmlns="http://www.w3.org/2000/svg">
<path fill-rule="evenodd" clip-rule="evenodd" d="M143.991 25H141.938C140.361 25 139.132 24.5562 138.25 23.6686C137.369 22.7809 136.928 21.5405 136.928 19.9474V12.6415C136.928 11.0484 137.369 9.80797 138.25 8.92034C139.132 8.03272 140.361 7.5889 141.938 7.5889H143.991C145.8 7.5889 146.995 8.19203 147.575 9.39829H147.714V1C147.714 1 150.305 1.375 150.305 4.375C150.305 7.375 150.219 24.522 150.219 24.522C150.219 24.8407 150.068 25 149.767 25H148.166C147.865 25 147.714 24.8407 147.714 24.522V23.1906H147.575C146.995 24.3969 145.8 25 143.991 25ZM147.714 12.9146V19.6743C147.714 20.6757 147.435 21.4495 146.879 21.9957C146.322 22.542 145.522 22.8151 144.478 22.8151H142.356C140.431 22.8151 139.468 21.825 139.468 19.845V12.744C139.468 10.7639 140.431 9.77383 142.356 9.77383H144.478C145.522 9.77383 146.322 10.0469 146.879 10.5932C147.435 11.1394 147.714 11.9132 147.714 12.9146Z" fill="#024639" fill-opacity="0.8"/>
<path fill-rule="evenodd" clip-rule="evenodd" d="M83.6263 25H89.8193C93.1363 25 94.7947 23.6344 94.7947 20.9033C94.7947 19.5832 94.5743 18.5477 94.1336 17.7966C93.7161 17.0455 92.9042 16.4424 91.6981 15.9872L87.5926 14.1778C86.2705 13.6771 85.6094 12.9488 85.6094 11.9929V11.4125C85.6094 10.9573 85.8182 10.559 86.2357 10.2176C86.6764 9.87624 87.3143 9.70555 88.1493 9.70555H93.403C93.7277 9.70555 93.8901 9.55761 93.8901 9.26173V8.06686C93.8901 7.74822 93.7277 7.5889 93.403 7.5889H87.697C84.5657 7.5889 83 8.98862 83 11.788C83 12.8578 83.2551 13.7226 83.7654 14.3826C84.2757 15.0199 85.1223 15.5775 86.3053 16.0555L90.4108 17.7624C91.5938 18.2177 92.1852 19.0483 92.1852 20.2546V20.9033C92.1852 22.2233 91.2806 22.8834 89.4714 22.8834H83.6263C83.3015 22.8834 83.1392 23.0313 83.1392 23.3272V24.522C83.1392 24.8407 83.3015 25 83.6263 25ZM105.045 25H112.421C112.746 25 112.908 24.852 112.908 24.5562V23.3272C112.908 23.0085 112.746 22.8492 112.421 22.8492H105.323C103.375 22.8492 102.401 21.8592 102.401 19.8791V17.7966C102.401 17.5917 102.517 17.4893 102.749 17.4893H112.595C112.92 17.4893 113.082 17.3186 113.082 16.9772V12.6415C113.082 11.0484 112.63 9.80797 111.725 8.92034C110.821 8.03272 109.568 7.5889 107.968 7.5889H105.045C103.445 7.5889 102.181 8.03272 101.253 8.92034C100.348 9.80797 99.8958 11.0484 99.8958 12.6415V19.9474C99.8958 21.5405 100.348 22.7809 101.253 23.6686C102.181 24.5562 103.445 25 105.045 25ZM110.264 15.6799H102.749C102.517 15.6799 102.401 15.5661 102.401 15.3386V12.7098C102.401 10.7525 103.375 9.77383 105.323 9.77383H107.689C109.638 9.77383 110.612 10.7525 110.612 12.7098V15.3386C110.612 15.5661 110.496 15.6799 110.264 15.6799ZM123.561 25H130.937C131.262 25 131.424 24.852 131.424 24.5562V23.3272C131.424 23.0085 131.262 22.8492 130.937 22.8492H123.84C121.891 22.8492 120.917 21.8592 120.917 19.8791V17.7966C120.917 17.5917 121.033 17.4893 121.265 17.4893H131.111C131.436 17.4893 131.598 17.3186 131.598 16.9772V12.6415C131.598 11.0484 131.146 9.80797 130.241 8.92034C129.337 8.03272 128.084 7.5889 126.484 7.5889H123.561C121.961 7.5889 120.697 8.03272 119.769 8.92034C118.864 9.80797 118.412 11.0484 118.412 12.6415V19.9474C118.412 21.5405 118.864 22.7809 119.769 23.6686C120.697 24.5562 121.961 25 123.561 25ZM128.78 15.6799H121.265C121.033 15.6799 120.917 15.5661 120.917 15.3386V12.7098C120.917 10.7525 121.891 9.77383 123.84 9.77383H126.206C128.154 9.77383 129.128 10.7525 129.128 12.7098V15.3386C129.128 15.5661 129.012 15.6799 128.78 15.6799ZM166.737 24.5562V23.293C166.737 22.9744 166.575 22.8151 166.25 22.8151H161.483C159.558 22.8151 158.596 21.825 158.596 19.845V12.744C158.596 10.7639 159.558 9.77383 161.483 9.77383H166.25C166.575 9.77383 166.737 9.62589 166.737 9.33001V8.06686C166.737 7.74822 166.575 7.5889 166.25 7.5889H161.205C159.605 7.5889 158.341 8.03272 157.413 8.92034C156.508 9.80797 156.056 11.0484 156.056 12.6415V19.9474C156.056 21.5405 156.508 22.7809 157.413 23.6686C158.341 24.5562 159.605 25 161.205 25H166.25C166.575 25 166.737 24.852 166.737 24.5562ZM176.493 25H178.303C180.089 25 181.272 24.3969 181.852 23.1906H181.991V24.522C181.991 24.8407 182.153 25 182.478 25H184.043C184.368 25 184.531 24.8407 184.531 24.522V8.06686C184.531 7.74822 184.368 7.5889 184.043 7.5889H176.493C174.893 7.5889 173.629 8.03272 172.701 8.92034C171.796 9.80797 171.344 11.0484 171.344 12.6415V19.9474C171.344 21.5405 171.796 22.7809 172.701 23.6686C173.629 24.5562 174.893 25 176.493 25ZM181.991 10.0811V19.6743C181.991 20.6757 181.712 21.4495 181.156 21.9957C180.599 22.542 179.799 22.8151 178.755 22.8151H176.772C174.847 22.8151 173.884 21.825 173.884 19.845V12.744C173.884 10.7639 174.847 9.77383 176.772 9.77383H181.643C181.874 9.77383 181.991 9.87624 181.991 10.0811ZM190.544 25H196.737C200.054 25 201.712 23.6344 201.712 20.9033C201.712 19.5832 201.492 18.5477 201.051 17.7966C200.633 17.0455 199.822 16.4424 198.616 15.9872L194.51 14.1778C193.188 13.6771 192.527 12.9488 192.527 11.9929V11.4125C192.527 10.9573 192.736 10.559 193.153 10.2176C193.594 9.87624 194.232 9.70555 195.067 9.70555H200.32C200.645 9.70555 200.807 9.55761 200.807 9.26173V8.06686C200.807 7.74822 200.645 7.5889 200.32 7.5889H194.614C191.483 7.5889 189.917 8.98862 189.917 11.788C189.917 12.8578 190.173 13.7226 190.683 14.3826C191.194 15.0199 192.04 15.5775 193.223 16.0555L197.328 17.7624C198.511 18.2177 199.103 19.0483 199.103 20.2546V20.9033C199.103 22.2233 198.198 22.8834 196.389 22.8834H190.544C190.22 22.8834 190.057 23.0313 190.057 23.3272V24.522C190.057 24.8407 190.22 25 190.544 25ZM211.963 25H219.339C219.664 25 219.826 24.852 219.826 24.5562V23.3272C219.826 23.0085 219.664 22.8492 219.339 22.8492H212.241C210.293 22.8492 209.319 21.8592 209.319 19.8791V17.7966C209.319 17.5917 209.435 17.4893 209.667 17.4893H219.513C219.838 17.4893 220 17.3186 220 16.9772V12.6415C220 11.0484 219.548 9.80797 218.643 8.92034C217.738 8.03272 216.486 7.5889 214.885 7.5889H211.963C210.362 7.5889 209.098 8.03272 208.171 8.92034C207.266 9.80797 206.814 11.0484 206.814 12.6415V19.9474C206.814 21.5405 207.266 22.7809 208.171 23.6686C209.098 24.5562 210.362 25 211.963 25ZM217.182 15.6799H209.667C209.435 15.6799 209.319 15.5661 209.319 15.3386V12.7098C209.319 10.7525 210.293 9.77383 212.241 9.77383H214.607C216.556 9.77383 217.53 10.7525 217.53 12.7098V15.3386C217.53 15.5661 217.413 15.6799 217.182 15.6799Z" fill="#024639" fill-opacity="0.8"/>
<path fill-rule="evenodd" clip-rule="evenodd" d="M101.857 60.0568C101.857 60.6828 101.547 60.9971 100.928 60.9971H97.1663C96.547 60.9971 96.2374 60.6828 96.2374 60.0568V58.5791H96.0596C95.7356 59.3851 95.1593 59.9911 94.3336 60.3941C93.5079 60.7971 92.6363 61 91.7217 61H89.9068C87.6332 61 85.9158 60.3741 84.7489 59.1193C83.582 57.8646 83 56.0582 83 53.6974V45.4545C83 43.0965 83.582 41.2872 84.7489 40.0325C85.913 38.7778 87.6332 38.1518 89.9068 38.1518H91.7217C92.6363 38.1518 93.5079 38.3548 94.3336 38.7578C95.1593 39.1608 95.7356 39.7667 96.0596 40.5727H96.2374V29C99.3711 29 101.914 31.4466 101.917 34.4591C101.92 37.4716 101.86 60.0597 101.86 60.0597L101.857 60.0568ZM93.1811 43.0765C95.2167 43.0765 96.2345 44.2111 96.2345 46.4805V52.6656C96.2345 54.935 95.2167 56.0697 93.1811 56.0697H91.1884C90.2423 56.0697 89.58 55.8667 89.1958 55.4637C88.8116 55.0607 88.6195 54.3834 88.6195 53.4259V45.7203C88.6195 44.7656 88.8116 44.0854 89.1958 43.6824C89.58 43.2794 90.2423 43.0765 91.1884 43.0765H93.1811Z" fill="#024639"/>
<path d="M123.102 61H113.82C111.608 61 109.9 60.412 108.696 59.236C107.492 58.06 106.89 56.366 106.89 54.154V46.426C106.89 44.214 107.492 42.52 108.696 41.344C109.9 40.168 111.608 39.58 113.82 39.58H117.138C119.35 39.58 121.058 40.168 122.262 41.344C123.466 42.52 124.068 44.214 124.068 46.426V51.76C124.068 52.348 123.774 52.642 123.186 52.642H112.644C112.308 52.642 112.14 52.796 112.14 53.104V54.028C112.14 54.896 112.322 55.526 112.686 55.918C113.078 56.282 113.722 56.464 114.618 56.464H123.102C123.69 56.464 123.984 56.772 123.984 57.388V60.16C123.984 60.468 123.914 60.692 123.774 60.832C123.662 60.944 123.438 61 123.102 61ZM112.644 49.072H118.356C118.664 49.072 118.818 48.918 118.818 48.61V46.594C118.818 45.698 118.636 45.068 118.272 44.704C117.908 44.34 117.278 44.158 116.382 44.158H114.618C113.722 44.158 113.092 44.34 112.728 44.704C112.364 45.068 112.182 45.698 112.182 46.594V48.61C112.182 48.918 112.336 49.072 112.644 49.072Z" fill="#024639"/>
<path d="M137.85 61H129.87C129.31 61 129.03 60.706 129.03 60.118V57.43C129.03 57.122 129.086 56.912 129.198 56.8C129.31 56.66 129.534 56.59 129.87 56.59H136.884C138.256 56.59 138.942 56.17 138.942 55.33V55.12C138.942 54.448 138.368 53.804 137.22 53.188L133.062 50.878C131.634 50.15 130.584 49.366 129.912 48.526C129.24 47.686 128.904 46.608 128.904 45.292C128.904 43.332 129.422 41.89 130.458 40.966C131.494 40.042 133.118 39.58 135.33 39.58H142.344C142.904 39.58 143.184 39.874 143.184 40.462V43.192C143.184 43.5 143.128 43.724 143.016 43.864C142.904 43.976 142.68 44.032 142.344 44.032H136.506C135.134 44.032 134.448 44.382 134.448 45.082V45.292C134.448 45.908 135.05 46.538 136.254 47.182L140.496 49.702C141.952 50.486 142.974 51.298 143.562 52.138C144.15 52.95 144.444 54.028 144.444 55.372C144.444 59.124 142.246 61 137.85 61Z" fill="#024639"/>
<path d="M150.05 35.968V32.314C150.05 31.754 150.33 31.474 150.89 31.474H154.544C155.104 31.474 155.384 31.74 155.384 32.272V35.968C155.384 36.528 155.104 36.808 154.544 36.808H150.89C150.33 36.808 150.05 36.528 150.05 35.968ZM150.05 60.118V40.462C150.05 39.874 150.33 39.58 150.89 39.58H154.502C155.09 39.58 155.384 39.874 155.384 40.462V60.118C155.384 60.482 155.314 60.72 155.174 60.832C155.062 60.944 154.852 61 154.544 61H150.932C150.344 61 150.05 60.706 150.05 60.118Z" fill="#024639"/>
<path d="M169.457 60.034H168.071C165.915 60.034 164.277 59.446 163.157 58.27C162.065 57.094 161.519 55.4 161.519 53.188V46.426C161.519 44.214 162.121 42.52 163.325 41.344C164.529 40.168 166.237 39.58 168.449 39.58H178.151C178.767 39.58 179.075 39.874 179.075 40.462V61.168C179.075 63.352 178.459 65.032 177.227 66.208C176.023 67.384 174.329 67.972 172.145 67.972H164.081C163.745 67.972 163.507 67.902 163.367 67.762C163.255 67.65 163.199 67.44 163.199 67.132V64.234C163.199 63.646 163.493 63.352 164.081 63.352H171.263C172.159 63.352 172.789 63.156 173.153 62.764C173.545 62.4 173.741 61.784 173.741 60.916V57.724H173.573C173.265 58.48 172.719 59.054 171.935 59.446C171.151 59.838 170.325 60.034 169.457 60.034ZM173.741 52.222V44.662C173.741 44.354 173.573 44.2 173.237 44.2H169.289C168.393 44.2 167.763 44.396 167.399 44.788C167.035 45.152 166.853 45.782 166.853 46.678V52.936C166.853 53.832 167.035 54.462 167.399 54.826C167.763 55.19 168.393 55.372 169.289 55.372H170.843C172.775 55.372 173.741 54.322 173.741 52.222Z" fill="#024639"/>
<path d="M189.808 61H186.238C185.65 61 185.356 60.706 185.356 60.118V40.462C185.356 39.874 185.65 39.58 186.238 39.58H189.808C190.396 39.58 190.69 39.874 190.69 40.462V41.848H190.858C191.474 40.336 192.846 39.58 194.974 39.58H196.318C200.714 39.58 202.912 41.862 202.912 46.426V60.118C202.912 60.706 202.604 61 201.988 61H198.46C197.872 61 197.578 60.706 197.578 60.118V46.678C197.578 45.782 197.382 45.152 196.99 44.788C196.626 44.396 195.996 44.2 195.1 44.2H193.588C191.656 44.2 190.69 45.264 190.69 47.392V60.118C190.69 60.706 190.396 61 189.808 61Z" fill="#024639"/>
<path fill-rule="evenodd" clip-rule="evenodd" d="M64.0001 20.5165L49.4835 5.99986C41.4837 -1.99995 28.5163 -1.99995 20.5165 5.99986L5.99986 20.5165C-1.99995 28.5163 -1.99995 41.4837 5.99986 49.4835L20.5165 64.0001C28.5163 72 41.4837 72 49.4835 64.0001L64.0001 49.4835C72 41.4837 72 28.5163 64.0001 20.5165ZM27.7417 56.7386L20.4866 49.4921C24.494 45.489 30.9894 45.489 34.9968 49.4921L42.2519 56.7386C38.2445 60.7417 31.7491 60.7417 27.7417 56.7386ZM47.0851 51.9033L22.9128 27.7566C20.2391 25.0851 20.2348 20.7555 22.9064 18.0881L47.0787 42.2348C49.7524 44.9064 49.7567 49.236 47.0851 51.9033ZM34.9947 20.493L27.7396 13.2464C31.747 9.24332 38.2424 9.24332 42.2498 13.2464L49.5049 20.493C45.4975 24.4961 39.002 24.4961 34.9947 20.493Z" fill="#024639"/>
<path d="M34.9947 20.493L27.7396 13.2464C31.747 9.24332 38.2424 9.24332 42.2498 13.2464L49.5049 20.493C45.4975 24.4961 39.002 24.4961 34.9947 20.493Z" fill="#48DC76"/>
<path d="M47.0851 51.9033L22.9128 27.7566C20.2391 25.0851 20.2348 20.7555 22.9064 18.0881L47.0787 42.2348C49.7524 44.9064 49.7567 49.236 47.0851 51.9033Z" fill="#48DC76"/>
<path d="M27.7417 56.7386L20.4866 49.4921C24.494 45.489 30.9894 45.489 34.9968 49.4921L42.2519 56.7386C38.2445 60.7417 31.7491 60.7417 27.7417 56.7386Z" fill="#48DC76"/>
</svg>
