<svg width="277" height="607" viewBox="0 0 277 607" fill="none" xmlns="http://www.w3.org/2000/svg">
<path fill-rule="evenodd" clip-rule="evenodd" d="M150.857 48.3602L116.64 14.1425C97.783 -4.71418 67.217 -4.71418 48.3603 14.1425L14.1425 48.3602C-4.71418 67.217 -4.71418 97.783 14.1425 116.64L48.3603 150.857C67.217 169.714 97.783 169.714 116.64 150.857L150.857 116.64C169.714 97.783 169.714 67.217 150.857 48.3602ZM65.3911 133.741L48.2898 116.66C57.7358 107.224 73.0465 107.224 82.4924 116.66L99.5938 133.741C90.1478 143.177 74.8371 143.177 65.3911 133.741ZM110.986 122.344L54.0087 65.4264C47.7064 59.1291 47.6963 48.9236 53.9936 42.6363L110.971 99.5535C117.273 105.851 117.284 116.056 110.986 122.344ZM82.4874 48.3049L65.3861 31.2237C74.8321 21.7878 90.1428 21.7878 99.5888 31.2237L116.69 48.3049C107.244 57.7408 91.9334 57.7408 82.4874 48.3049Z" fill="#024639"/>
<path d="M82.4874 48.3049L65.3861 31.2237C74.8321 21.7878 90.1428 21.7878 99.5888 31.2237L116.69 48.3049C107.244 57.7408 91.9334 57.7408 82.4874 48.3049Z" fill="#48DC76"/>
<path d="M110.986 122.344L54.0087 65.4264C47.7064 59.1291 47.6963 48.9236 53.9936 42.6363L110.971 99.5535C117.273 105.851 117.284 116.056 110.986 122.344Z" fill="#48DC76"/>
<path d="M65.3911 133.741L48.2898 116.66C57.7358 107.224 73.0465 107.224 82.4924 116.66L99.5938 133.741C90.1478 143.177 74.8371 143.177 65.3911 133.741Z" fill="#48DC76"/>
<path fill-rule="evenodd" clip-rule="evenodd" d="M262.857 159.36L228.64 125.143C209.783 106.286 179.217 106.286 160.36 125.143L126.143 159.36C107.286 178.217 107.286 208.783 126.143 227.64L160.36 261.857C179.217 280.714 209.783 280.714 228.64 261.857L262.857 227.64C281.714 208.783 281.714 178.217 262.857 159.36ZM183.643 222.785L184.164 216.25C185.541 198.991 172.868 183.798 155.643 182.058C155.643 182.058 154.058 207.089 160.36 213.387C160.36 213.387 166.143 222.785 183.643 222.785ZM203.143 200.855V238.766C203.143 245.624 196.866 250.765 190.143 249.415L190.783 182.513C190.985 161.482 207.627 144.296 228.64 143.418C228.64 143.418 235.643 197.2 203.143 200.855Z" fill="#48DC76"/>
<path d="M183.643 222.785L184.164 216.25C185.541 198.991 172.868 183.798 155.643 182.058C155.643 182.058 154.058 207.089 160.36 213.387C160.36 213.387 166.143 222.785 183.643 222.785Z" fill="white"/>
<path d="M183.643 222.785L184.164 216.25C185.541 198.991 172.868 183.798 155.643 182.058C155.643 182.058 154.058 207.089 160.36 213.387C160.36 213.387 166.143 222.785 183.643 222.785Z" fill="white"/>
<path d="M190.143 249.415L190.783 182.513C190.985 161.482 207.627 144.296 228.64 143.418C228.64 143.418 235.643 197.2 203.143 200.855V238.766C203.143 245.624 196.866 250.765 190.143 249.415Z" fill="white"/>
<path fill-rule="evenodd" clip-rule="evenodd" d="M150.857 490.36L116.64 456.143C97.783 437.286 67.217 437.286 48.3603 456.143L14.1425 490.36C-4.71418 509.217 -4.71418 539.783 14.1425 558.64L48.3603 592.857C67.217 611.714 97.783 611.714 116.64 592.857L150.857 558.64C169.714 539.783 169.714 509.217 150.857 490.36Z" fill="#D04BFE"/>
<path d="M29.8482 540.717C29.8482 533.534 24.1954 527.622 17.0191 527.301L16.0245 527.257C16.0245 527.257 15.4559 534.372 19.7983 537.775C19.7983 537.775 23.8066 540.717 29.8482 540.717Z" fill="white"/>
<path d="M31.1427 559.054L31.4047 541.461C31.5901 529.015 41.5567 518.928 54 518.594C54 518.594 54 535.919 38.8613 537.775V552.268C38.8613 556.395 35.2355 559.582 31.1427 559.054Z" fill="white"/>
<path d="M33.2809 489C33.8393 489 34.3976 489 34.9941 489.025C35.7963 489.096 36.499 489.369 37.1356 489.759C38.8527 490.811 39.882 492.324 40.0303 494.384C40.0375 494.485 40.0859 494.582 40.1247 494.713C41.5632 493.922 43.0568 493.824 44.554 494.251C46.0766 494.685 47.2459 495.641 48.0121 497.055C48.7064 498.337 48.9389 499.707 48.6205 501.129C48.2569 502.754 47.3944 504.062 45.9461 504.944C48.5743 506.608 49.408 509.87 48.2029 512.46C47.5434 513.878 46.5055 514.901 45.065 515.465C43.4 516.116 41.7432 516.031 40.112 515.196C40.0787 515.33 40.0351 515.433 40.0302 515.537C39.986 516.471 39.7054 517.336 39.2137 518.119C38.4944 519.264 37.5115 520.108 36.232 520.565C35.8365 520.707 35.4206 520.79 35.014 520.9C34.3937 520.9 33.7735 520.9 33.1172 520.877C33.0365 520.832 32.9942 520.8 32.9469 520.789C31.7266 520.513 30.6953 519.914 29.8537 518.979C29.1181 518.162 28.646 517.216 28.4549 516.131C28.4021 515.831 28.3701 515.527 28.3218 515.175C26.9754 515.906 25.6079 516.037 24.1943 515.727C22.7514 515.41 21.5263 514.659 20.7651 513.41C18.7647 510.128 19.5055 507.303 22.3986 504.906C21.0502 504.029 20.19 502.796 19.826 501.221C19.4572 499.626 19.7391 498.138 20.5906 496.753C21.2729 495.642 22.227 494.845 23.4373 494.4C25.0807 493.798 26.7092 493.878 28.3075 494.707C28.341 494.569 28.3836 494.466 28.3886 494.361C28.4332 493.427 28.7138 492.563 29.2057 491.781C29.9251 490.636 30.9093 489.796 32.1866 489.333C32.5446 489.203 32.9158 489.11 33.2809 489ZM31.5735 500.337C30.7655 500.773 30.1429 501.409 29.6805 502.194C28.9628 503.414 28.6968 504.727 29.0366 506.119C29.3871 507.554 30.1617 508.698 31.4342 509.48C32.5376 510.158 33.7312 510.451 35.0023 510.234C36.2299 510.024 37.3044 509.479 38.1372 508.506C39.2562 507.199 39.7319 505.717 39.4112 503.997C39.1348 502.516 38.3811 501.348 37.1392 500.519C36.1017 499.827 34.9639 499.505 33.7002 499.645C32.9524 499.729 32.2649 499.952 31.5735 500.337Z" fill="white"/>
<path d="M124.848 540.717C124.848 533.534 119.195 527.622 112.019 527.301L111.024 527.257C111.024 527.257 110.456 534.372 114.798 537.775C114.798 537.775 118.807 540.717 124.848 540.717Z" fill="white"/>
<path d="M126.143 559.054L126.405 541.461C126.59 529.015 136.557 518.928 149 518.594C149 518.594 149 535.919 133.861 537.775V552.268C133.861 556.395 130.236 559.582 126.143 559.054Z" fill="white"/>
<path d="M128.281 489C128.839 489 129.398 489 129.994 489.025C130.796 489.096 131.499 489.369 132.136 489.759C133.853 490.811 134.882 492.324 135.03 494.384C135.037 494.485 135.086 494.582 135.125 494.713C136.563 493.922 138.057 493.824 139.554 494.251C141.077 494.685 142.246 495.641 143.012 497.055C143.706 498.337 143.939 499.707 143.621 501.129C143.257 502.754 142.394 504.062 140.946 504.944C143.574 506.608 144.408 509.87 143.203 512.46C142.543 513.878 141.506 514.901 140.065 515.465C138.4 516.116 136.743 516.031 135.112 515.196C135.079 515.33 135.035 515.433 135.03 515.537C134.986 516.471 134.705 517.336 134.214 518.119C133.494 519.264 132.511 520.108 131.232 520.565C130.836 520.707 130.421 520.79 130.014 520.9C129.394 520.9 128.773 520.9 128.117 520.877C128.037 520.832 127.994 520.8 127.947 520.789C126.727 520.513 125.695 519.914 124.854 518.979C124.118 518.162 123.646 517.216 123.455 516.131C123.402 515.831 123.37 515.527 123.322 515.175C121.975 515.906 120.608 516.037 119.194 515.727C117.751 515.41 116.526 514.659 115.765 513.41C113.765 510.128 114.506 507.303 117.399 504.906C116.05 504.029 115.19 502.796 114.826 501.221C114.457 499.626 114.739 498.138 115.591 496.753C116.273 495.642 117.227 494.845 118.437 494.4C120.081 493.798 121.709 493.878 123.307 494.707C123.341 494.569 123.384 494.466 123.389 494.361C123.433 493.427 123.714 492.563 124.206 491.781C124.925 490.636 125.909 489.796 127.187 489.333C127.545 489.203 127.916 489.11 128.281 489ZM126.574 500.337C125.765 500.773 125.143 501.409 124.681 502.194C123.963 503.414 123.697 504.727 124.037 506.119C124.387 507.554 125.162 508.698 126.434 509.48C127.538 510.158 128.731 510.451 130.002 510.234C131.23 510.024 132.304 509.479 133.137 508.506C134.256 507.199 134.732 505.717 134.411 503.997C134.135 502.516 133.381 501.348 132.139 500.519C131.102 499.827 129.964 499.505 128.7 499.645C127.952 499.729 127.265 499.952 126.574 500.337Z" fill="white"/>
<path d="M75.7293 547.653C75.7293 536.053 66.623 526.458 55.0367 525.898C55.0367 525.898 54.1856 537.398 60.6856 542.898C60.6856 542.898 66.6856 547.653 75.7293 547.653Z" fill="white"/>
<path d="M77.6669 577.288L78.0957 546.202C78.3528 527.564 93.2501 512.439 111.882 511.898C111.882 511.898 111.882 539.898 89.2208 542.898V567.233C89.2208 573.397 83.7721 578.139 77.6669 577.288Z" fill="white"/>
<path d="M79.7913 463C80.6898 463 81.5884 463 82.5483 463.04C83.8393 463.157 84.9702 463.601 85.9948 464.237C88.7582 465.953 90.4147 468.418 90.6533 471.777C90.6649 471.94 90.7429 472.099 90.8053 472.313C93.1204 471.023 95.524 470.863 97.9336 471.559C100.384 472.267 102.266 473.825 103.499 476.131C104.616 478.22 104.99 480.453 104.478 482.772C103.893 485.42 102.505 487.552 100.174 488.991C104.404 491.703 105.745 497.019 103.806 501.242C102.745 503.553 101.074 505.221 98.7559 506.139C96.0764 507.201 93.4099 507.063 90.7849 505.702C90.7312 505.921 90.6611 506.088 90.6532 506.258C90.5821 507.781 90.1305 509.189 89.3391 510.466C88.1815 512.333 86.5997 513.708 84.5406 514.454C83.904 514.684 83.2347 514.821 82.5803 515C81.5821 515 80.584 515 79.5278 514.963C79.3979 514.889 79.3297 514.836 79.2537 514.819C77.2898 514.369 75.63 513.393 74.2757 511.869C73.0917 510.536 72.332 508.995 72.0245 507.226C71.9395 506.736 71.888 506.241 71.8102 505.668C69.6435 506.859 67.4426 507.072 65.1677 506.566C62.8455 506.05 60.8739 504.827 59.6489 502.791C56.4295 497.44 57.6218 492.835 62.2777 488.928C60.1078 487.498 58.7234 485.488 58.1375 482.921C57.5439 480.321 57.9976 477.896 59.368 475.637C60.4661 473.828 62.0016 472.527 63.9494 471.803C66.5942 470.82 69.215 470.951 71.7872 472.303C71.8412 472.078 71.9097 471.91 71.9177 471.739C71.9895 470.217 72.4412 468.809 73.2327 467.533C74.3905 465.666 75.9745 464.297 78.03 463.542C78.6063 463.331 79.2036 463.179 79.7913 463ZM77.0435 481.48C75.743 482.191 74.741 483.227 73.997 484.508C72.8419 486.496 72.4137 488.636 72.9607 490.905C73.5247 493.244 74.7713 495.109 76.8192 496.384C78.595 497.489 80.5158 497.967 82.5615 497.613C84.5371 497.271 86.2664 496.383 87.6067 494.797C89.4075 492.665 90.1732 490.249 89.657 487.447C89.2122 485.032 87.9991 483.128 86.0005 481.777C84.3309 480.648 82.4998 480.124 80.466 480.353C79.2626 480.488 78.1561 480.852 77.0435 481.48Z" fill="white"/>
<path fill-rule="evenodd" clip-rule="evenodd" d="M262.857 381.36L228.64 347.143C209.783 328.286 179.217 328.286 160.36 347.143L126.143 381.36C107.286 400.217 107.286 430.783 126.143 449.64L160.36 483.857C179.217 502.714 209.783 502.714 228.64 483.857L262.857 449.64C281.714 430.783 281.714 400.217 262.857 381.36Z" fill="#FFA800"/>
<path d="M189.044 436.755C189.044 425.155 179.937 415.56 168.351 415C168.351 415 167.5 426.5 174 432C174 432 180 436.755 189.044 436.755Z" fill="white"/>
<path d="M190.981 466.389L191.41 435.303C191.667 416.666 206.565 401.54 225.196 401C225.196 401 225.196 429 202.535 432V456.334C202.535 462.499 197.087 467.24 190.981 466.389Z" fill="white"/>
<path d="M193.106 352.102C194.004 352.102 194.903 352.102 195.863 352.142C197.154 352.259 198.285 352.702 199.309 353.339C202.073 355.054 203.729 357.519 203.968 360.878C203.979 361.042 204.057 361.201 204.12 361.414C206.435 360.125 208.839 359.965 211.248 360.661C213.698 361.368 215.58 362.926 216.813 365.232C217.931 367.322 218.305 369.555 217.792 371.874C217.207 374.522 215.819 376.653 213.488 378.092C217.718 380.805 219.06 386.121 217.12 390.344C216.059 392.655 214.389 394.322 212.07 395.241C209.391 396.303 206.724 396.165 204.099 394.803C204.046 395.022 203.976 395.189 203.968 395.359C203.897 396.882 203.445 398.291 202.654 399.567C201.496 401.434 199.914 402.81 197.855 403.556C197.218 403.786 196.549 403.922 195.895 404.102C194.897 404.102 193.898 404.102 192.842 404.064C192.712 403.991 192.644 403.938 192.568 403.92C190.604 403.47 188.944 402.494 187.59 400.97C186.406 399.638 185.646 398.096 185.339 396.327C185.254 395.838 185.202 395.343 185.125 394.769C182.958 395.961 180.757 396.174 178.482 395.668C176.16 395.152 174.188 393.929 172.963 391.893C169.744 386.542 170.936 381.937 175.592 378.03C173.422 376.6 172.038 374.59 171.452 372.023C170.858 369.423 171.312 366.997 172.682 364.739C173.781 362.929 175.316 361.629 177.264 360.905C179.909 359.922 182.529 360.052 185.102 361.405C185.156 361.179 185.224 361.012 185.232 360.841C185.304 359.318 185.756 357.91 186.547 356.634C187.705 354.768 189.289 353.398 191.344 352.644C191.921 352.433 192.518 352.281 193.106 352.102ZM190.358 370.582C189.057 371.293 188.055 372.329 187.311 373.609C186.156 375.597 185.728 377.738 186.275 380.006C186.839 382.346 188.086 384.211 190.134 385.486C191.909 386.591 193.83 387.069 195.876 386.714C197.852 386.372 199.581 385.485 200.921 383.898C202.722 381.767 203.488 379.351 202.971 376.548C202.527 374.134 201.314 372.23 199.315 370.879C197.645 369.75 195.814 369.225 193.78 369.454C192.577 369.59 191.471 369.954 190.358 370.582Z" fill="white"/>
<path fill-rule="evenodd" clip-rule="evenodd" d="M116.64 235.143L150.857 269.36C169.714 288.217 169.714 318.783 150.857 337.64L116.64 371.857C97.783 390.714 67.217 390.714 48.3602 371.857L14.1425 337.64C-4.71418 318.783 -4.71418 288.217 14.1425 269.36L48.3602 235.143C67.217 216.286 97.783 216.286 116.64 235.143ZM59.8628 265.888C68.9991 267.917 75.5 276.02 75.5 285.378V287.102C65.8994 288.127 61.4289 281.466 61.4289 281.466C57.4045 276.299 59.8628 265.888 59.8628 265.888ZM80.0417 318.667C85.5668 318.667 90.0457 314.189 90.0457 308.664V281.466C114.192 278.861 107.206 248.466 107.206 248.466C92.8843 249.954 81.6171 261.368 80.3136 275.708L80.0417 278.699V318.667ZM55.5 357.804C55.5 356.074 43.7083 340.189 43.7083 340.189C43.7083 340.189 56.6363 327.422 64.4472 325.329C78.5666 321.546 93.918 323.402 95.0192 323.69C97.0192 324.212 98.0335 326.217 96.5284 327.789C95.0232 329.361 79.6527 329.428 78.0295 330.966C76.4064 332.503 77.6477 333.821 79.1426 335.065C80.6374 336.309 92.618 336.17 96.5284 335.065C104.188 332.9 116.64 323.581 121.352 319.71C126.064 315.839 128.816 320.098 125.316 325.841C123.463 328.883 110.78 342.125 101.673 345.313C95.0192 347.642 80.606 349.81 66.6643 347.642C62.3044 351.611 55.5 359.533 55.5 357.804Z" fill="#1E6735"/>
<path d="M107.206 248.466C107.206 248.466 114.192 278.861 90.0457 281.466V308.664C90.0457 314.189 85.5668 318.667 80.0417 318.667V278.699L80.3136 275.708C81.6171 261.368 92.8843 249.954 107.206 248.466Z" fill="white"/>
<path d="M75.5 287.102V285.378C75.5 276.02 68.9991 267.917 59.8628 265.888C59.8628 265.888 57.4045 276.299 61.4289 281.466C61.4289 281.466 65.8994 288.127 75.5 287.102Z" fill="white"/>
<path d="M43.7083 340.189C43.7083 340.189 55.5 356.074 55.5 357.804C55.5 359.533 62.3044 351.611 66.6643 347.642C80.606 349.81 95.0192 347.642 101.673 345.313C110.78 342.125 123.463 328.883 125.316 325.841C128.816 320.098 126.064 315.839 121.352 319.71C116.64 323.581 104.188 332.9 96.5284 335.065C92.618 336.17 80.6374 336.309 79.1426 335.065C77.6477 333.821 76.4064 332.503 78.0295 330.966C79.6527 329.428 95.0232 329.361 96.5284 327.789C98.0335 326.217 97.0192 324.212 95.0192 323.69C93.918 323.402 78.5666 321.546 64.4472 325.329C56.6363 327.422 43.7083 340.189 43.7083 340.189Z" fill="white"/>
</svg>
