<svg width="178" height="38" viewBox="0 0 178 38" fill="none" xmlns="http://www.w3.org/2000/svg">
<path d="M38.3604 27.391H30.1904C29.6171 27.391 29.3304 27.09 29.3304 26.488V23.736C29.3304 23.4207 29.3878 23.2057 29.5024 23.091C29.6171 22.9477 29.8464 22.876 30.1904 22.876H37.3714C38.7761 22.876 39.4784 22.446 39.4784 21.586V21.371C39.4784 20.683 38.8908 20.0237 37.7154 19.393L33.4584 17.028C31.9964 16.2827 30.9214 15.48 30.2334 14.62C29.5454 13.76 29.2014 12.6563 29.2014 11.309C29.2014 9.30234 29.7318 7.82601 30.7924 6.88001C31.8531 5.934 33.5158 5.461 35.7804 5.461H42.9614C43.5348 5.461 43.8214 5.762 43.8214 6.36401V9.15901C43.8214 9.47434 43.7641 9.70367 43.6494 9.84701C43.5348 9.96167 43.3054 10.019 42.9614 10.019H36.9844C35.5798 10.019 34.8774 10.3773 34.8774 11.094V11.309C34.8774 11.9397 35.4938 12.5847 36.7264 13.244L41.0694 15.824C42.5601 16.6267 43.6064 17.458 44.2084 18.318C44.8104 19.1493 45.1114 20.253 45.1114 21.629C45.1114 25.4703 42.8611 27.391 38.3604 27.391ZM77.5304 27.391H73.8754C73.2734 27.391 72.9724 27.09 72.9724 26.488V6.36401C72.9724 5.762 73.2734 5.461 73.8754 5.461H77.5304C78.1324 5.461 78.4334 5.762 78.4334 6.36401V7.82601H78.6054C78.9208 7.05201 79.4798 6.46434 80.2824 6.06301C81.0851 5.66167 81.9308 5.461 82.8194 5.461H84.3674C84.9408 5.461 85.2274 5.762 85.2274 6.36401V9.33101C85.2274 9.67501 85.1558 9.91867 85.0124 10.062C84.8978 10.1767 84.6828 10.2197 84.3674 10.191H81.4004C79.4224 10.191 78.4334 11.309 78.4334 13.545V26.488C78.4334 27.09 78.1324 27.391 77.5304 27.391ZM100.176 27.391H96.3486C94.084 27.391 92.3353 26.789 91.1026 25.585C89.87 24.381 89.2536 22.6467 89.2536 20.382V12.47C89.2536 10.2053 89.87 8.47101 91.1026 7.26701C92.3353 6.063 94.084 5.461 96.3486 5.461H100.176C102.412 5.461 104.146 6.07734 105.379 7.31001C106.64 8.51401 107.271 10.234 107.271 12.47V20.382C107.271 22.618 106.64 24.3523 105.379 25.585C104.146 26.789 102.412 27.391 100.176 27.391ZM97.1656 22.704H99.3586C100.276 22.704 100.921 22.5177 101.294 22.145C101.695 21.7723 101.896 21.1273 101.896 20.21V12.642C101.896 11.7247 101.695 11.0797 101.294 10.707C100.921 10.3343 100.276 10.148 99.3586 10.148H97.1656C96.2483 10.148 95.6033 10.3343 95.2306 10.707C94.858 11.0797 94.6716 11.7247 94.6716 12.642V20.21C94.6716 21.1273 94.858 21.7723 95.2306 22.145C95.6033 22.5177 96.2483 22.704 97.1656 22.704ZM121.194 27.391H119.775C117.567 27.391 115.89 26.789 114.744 25.585C113.626 24.381 113.067 22.6467 113.067 20.382V6.36401C113.067 5.762 113.368 5.461 113.97 5.461H117.625C118.227 5.461 118.528 5.762 118.528 6.36401V20.124C118.528 21.0413 118.714 21.7007 119.087 22.102C119.488 22.4747 120.133 22.661 121.022 22.661H122.613C124.591 22.661 125.58 21.5717 125.58 19.393V6.36401C125.58 5.762 125.881 5.461 126.483 5.461H130.095C130.725 5.461 131.041 5.762 131.041 6.36401V26.488C131.041 27.09 130.725 27.391 130.095 27.391H126.483C125.881 27.391 125.58 27.09 125.58 26.488V25.069H125.408C125.092 25.843 124.533 26.4307 123.731 26.832C122.928 27.2047 122.082 27.391 121.194 27.391ZM137.982 10.191H136.262C135.918 10.191 135.675 10.1337 135.531 10.019C135.417 9.90434 135.359 9.67501 135.359 9.33101V6.36401C135.359 5.762 135.66 5.461 136.262 5.461H137.982C138.298 5.461 138.455 5.30334 138.455 4.98801V0.903004C138.455 0.301005 138.771 5.42402e-06 139.401 5.42402e-06H143.013C143.615 5.42402e-06 143.916 0.301005 143.916 0.903004V4.98801C143.916 5.30334 144.088 5.461 144.432 5.461H147.786C148.388 5.461 148.689 5.762 148.689 6.36401V9.33101C148.689 9.64634 148.618 9.87567 148.474 10.019C148.36 10.1337 148.13 10.191 147.786 10.191H144.432C144.088 10.191 143.916 10.3487 143.916 10.664V20.167C143.916 21.0557 144.117 21.7007 144.518 22.102C144.92 22.4747 145.579 22.661 146.496 22.661H148.216C148.818 22.661 149.119 22.962 149.119 23.564V26.531C149.119 26.8463 149.048 27.0757 148.904 27.219C148.79 27.3337 148.56 27.391 148.216 27.391H145.593C143.329 27.391 141.566 26.789 140.304 25.585C139.072 24.381 138.455 22.661 138.455 20.425V10.664C138.455 10.3487 138.298 10.191 137.982 10.191Z" fill="#024639"/>
<path fill-rule="evenodd" clip-rule="evenodd" d="M49.003 6.33412C49.003 5.70818 49.3126 5.39379 49.9319 5.39379L53.6935 5.39379C54.3128 5.39379 54.6225 5.70818 54.6225 6.33412V7.8118H54.8002C55.1242 7.0058 55.7005 6.39987 56.5262 5.99686C57.352 5.59386 58.2235 5.39093 59.1382 5.39093H60.953C63.2266 5.39093 64.944 6.01686 66.1109 7.2716C67.2778 8.52633 67.8599 10.3327 67.8599 12.6935V20.9365C67.8599 23.2945 67.2778 25.1037 66.1109 26.3584C64.9469 27.6132 63.2266 28.2391 60.953 28.2391H59.1382C58.2235 28.2391 57.352 28.0362 56.5262 27.6332C55.7005 27.2302 55.1242 26.6242 54.8002 25.8182H54.6225L54.6254 32.891C54.6225 36.8909 49.0001 37.391 49.0001 37.391V6.33127L49.003 6.33412ZM54.6254 19.9104C54.6254 22.1798 55.6432 23.3145 57.6788 23.3145H59.6714C60.6176 23.3145 61.2799 23.1115 61.6641 22.7085C62.0483 22.3055 62.2404 21.6253 62.2404 20.6707V12.9651C62.2404 12.0076 62.0483 11.3302 61.6641 10.9272C61.2799 10.5242 60.6176 10.3213 59.6714 10.3213H57.6788C55.6432 10.3213 54.6254 11.4559 54.6254 13.7253V19.9076V19.9104Z" fill="#024639"/>
</svg>
