<svg width="70" height="70" viewBox="0 0 70 70" fill="none" xmlns="http://www.w3.org/2000/svg">
<path fill-rule="evenodd" clip-rule="evenodd" d="M64.0001 20.5165L49.4835 5.99986C41.4837 -1.99995 28.5163 -1.99995 20.5165 5.99986L5.99986 20.5165C-1.99995 28.5163 -1.99995 41.4837 5.99986 49.4835L20.5165 64.0001C28.5163 72 41.4837 72 49.4835 64.0001L64.0001 49.4835C72 41.4837 72 28.5163 64.0001 20.5165ZM30.3938 47.4241L30.6151 44.6514C31.1993 37.3296 25.8229 30.8842 18.515 30.1456C18.515 30.1456 17.8428 40.7652 20.5165 43.4368C20.5165 43.4368 22.9696 47.4241 30.3938 47.4241ZM38.6665 38.1203V54.2039C38.6665 57.1132 36.0037 59.2944 33.1514 58.7216L33.4232 30.3388C33.5086 21.4168 40.5688 14.1256 49.4835 13.7532C49.4835 13.7532 52.4544 36.5697 38.6665 38.1203Z" fill="#48DC76"/>
<path d="M30.3938 47.4241L30.6151 44.6514C31.1993 37.3296 25.8229 30.8842 18.515 30.1456C18.515 30.1456 17.8428 40.7652 20.5165 43.4368C20.5165 43.4368 22.9696 47.4241 30.3938 47.4241Z" fill="white"/>
<path d="M30.3938 47.4241L30.6151 44.6514C31.1993 37.3296 25.8229 30.8842 18.515 30.1456C18.515 30.1456 17.8428 40.7652 20.5165 43.4368C20.5165 43.4368 22.9696 47.4241 30.3938 47.4241Z" fill="white"/>
<path d="M33.1514 58.7216L33.4232 30.3388C33.5086 21.4168 40.5688 14.1256 49.4835 13.7532C49.4835 13.7532 52.4544 36.5697 38.6665 38.1203V54.2039C38.6665 57.1132 36.0037 59.2944 33.1514 58.7216Z" fill="white"/>
</svg>
