<svg width="193" height="40" viewBox="0 0 193 40" fill="none" xmlns="http://www.w3.org/2000/svg">
<path fill-rule="evenodd" clip-rule="evenodd" d="M63.003 8.94318C63.003 8.31724 63.3126 8.00284 63.9319 8.00284L67.6935 8.00284C68.3128 8.00284 68.6225 8.31724 68.6225 8.94318V10.4209H68.8002C69.1242 9.61486 69.7005 9.00892 70.5262 8.60592C71.352 8.20292 72.2235 7.99999 73.1382 7.99999H74.953C77.2266 7.99999 78.944 8.62592 80.1109 9.88065C81.2778 11.1354 81.8599 12.9417 81.8599 15.3026V23.5455C81.8599 25.9035 81.2778 27.7127 80.1109 28.9675C78.9469 30.2222 77.2266 30.8481 74.953 30.8481H73.1382C72.2235 30.8481 71.352 30.6452 70.5262 30.2422C69.7005 29.8392 69.1242 29.2333 68.8002 28.4273H68.6225L68.6254 35.5001C68.6225 39.5 63.0001 40.0001 63.0001 40.0001V8.94032L63.003 8.94318ZM68.6254 22.5195C68.6254 24.7888 69.6432 25.9235 71.6788 25.9235H73.6714C74.6176 25.9235 75.2799 25.7206 75.6641 25.3176C76.0483 24.9146 76.2404 24.2344 76.2404 23.2797V15.5741C76.2404 14.6166 76.0483 13.9392 75.6641 13.5362C75.2799 13.1332 74.6176 12.9303 73.6714 12.9303H71.6788C69.6432 12.9303 68.6254 14.065 68.6254 16.3344V22.5166V22.5195Z" fill="#024639"/>
<path fill-rule="evenodd" clip-rule="evenodd" d="M0.00299072 8.94318C0.00299072 8.31724 0.312622 8.00284 0.931915 8.00284L4.69354 8.00284C5.31284 8.00284 5.62247 8.31724 5.62247 8.94318V10.4209H5.80023C6.12421 9.61486 6.70052 9.00892 7.52625 8.60592C8.35197 8.20292 9.22355 7.99999 10.1382 7.99999H11.953C14.2266 7.99999 15.944 8.62592 17.1109 9.88065C18.2778 11.1354 18.8599 12.9417 18.8599 15.3026V23.5455C18.8599 25.9035 18.2778 27.7127 17.1109 28.9675C15.9469 30.2222 14.2266 30.8481 11.953 30.8481H10.1382C9.22355 30.8481 8.35197 30.6452 7.52625 30.2422C6.70052 29.8392 6.12421 29.2333 5.80023 28.4273H5.62247L5.62537 35.5001C5.62247 39.5 0.00012207 40.0001 0.00012207 40.0001L0.00012207 8.94032L0.00299072 8.94318ZM5.62537 22.5195C5.62537 24.7888 6.64316 25.9235 8.6788 25.9235H10.6714C11.6176 25.9235 12.2799 25.7206 12.6641 25.3176C13.0483 24.9146 13.2404 24.2344 13.2404 23.2797L13.2404 15.5741C13.2404 14.6166 13.0483 13.9392 12.6641 13.5362C12.2799 13.1332 11.6176 12.9303 10.6714 12.9303H8.6788C6.64316 12.9303 5.62537 14.065 5.62537 16.3344L5.62537 22.5166V22.5195Z" fill="#024639"/>
<path d="M94.828 30H93.82C91.608 30 89.9 29.412 88.696 28.236C87.492 27.06 86.89 25.366 86.89 23.154V15.426C86.89 13.214 87.492 11.52 88.696 10.344C89.9 9.168 91.608 8.58 93.82 8.58H103.522C104.138 8.58 104.446 8.874 104.446 9.462V29.118C104.446 29.706 104.138 30 103.522 30H99.994C99.406 30 99.112 29.706 99.112 29.118V27.732H98.944C98.636 28.488 98.09 29.062 97.306 29.454C96.522 29.818 95.696 30 94.828 30ZM99.112 22.188V13.662C99.112 13.354 98.944 13.2 98.608 13.2H94.66C93.764 13.2 93.134 13.396 92.77 13.788C92.406 14.152 92.224 14.782 92.224 15.678V22.902C92.224 23.798 92.406 24.442 92.77 24.834C93.134 25.198 93.764 25.38 94.66 25.38H96.214C98.146 25.38 99.112 24.316 99.112 22.188ZM118.288 29.034H116.902C114.746 29.034 113.108 28.446 111.988 27.27C110.896 26.094 110.35 24.4 110.35 22.188V15.426C110.35 13.214 110.952 11.52 112.156 10.344C113.36 9.168 115.068 8.58 117.28 8.58H126.982C127.598 8.58 127.906 8.874 127.906 9.462V30.168C127.906 32.352 127.29 34.032 126.058 35.208C124.854 36.384 123.16 36.972 120.976 36.972H112.912C112.576 36.972 112.338 36.902 112.198 36.762C112.086 36.65 112.03 36.44 112.03 36.132V33.234C112.03 32.646 112.324 32.352 112.912 32.352H120.094C120.99 32.352 121.62 32.156 121.984 31.764C122.376 31.4 122.572 30.784 122.572 29.916V26.724H122.404C122.096 27.48 121.55 28.054 120.766 28.446C119.982 28.838 119.156 29.034 118.288 29.034ZM122.572 21.222V13.662C122.572 13.354 122.404 13.2 122.068 13.2H118.12C117.224 13.2 116.594 13.396 116.23 13.788C115.866 14.152 115.684 14.782 115.684 15.678V21.936C115.684 22.832 115.866 23.462 116.23 23.826C116.594 24.19 117.224 24.372 118.12 24.372H119.674C121.606 24.372 122.572 23.322 122.572 21.222ZM141.706 30H140.698C138.486 30 136.778 29.412 135.574 28.236C134.37 27.06 133.768 25.366 133.768 23.154V15.426C133.768 13.214 134.37 11.52 135.574 10.344C136.778 9.168 138.486 8.58 140.698 8.58H150.4C151.016 8.58 151.324 8.874 151.324 9.462V29.118C151.324 29.706 151.016 30 150.4 30H146.872C146.284 30 145.99 29.706 145.99 29.118V27.732H145.822C145.514 28.488 144.968 29.062 144.184 29.454C143.4 29.818 142.574 30 141.706 30ZM145.99 22.188V13.662C145.99 13.354 145.822 13.2 145.486 13.2H141.538C140.642 13.2 140.012 13.396 139.648 13.788C139.284 14.152 139.102 14.782 139.102 15.678V22.902C139.102 23.798 139.284 24.442 139.648 24.834C140.012 25.198 140.642 25.38 141.538 25.38H143.092C145.024 25.38 145.99 24.316 145.99 22.188Z" fill="#024639"/>
<path d="M190.102 30H180.82C178.608 30 176.9 29.412 175.696 28.236C174.492 27.06 173.89 25.366 173.89 23.154V15.426C173.89 13.214 174.492 11.52 175.696 10.344C176.9 9.168 178.608 8.58 180.82 8.58H184.138C186.35 8.58 188.058 9.168 189.262 10.344C190.466 11.52 191.068 13.214 191.068 15.426V20.76C191.068 21.348 190.774 21.642 190.186 21.642H179.644C179.308 21.642 179.14 21.796 179.14 22.104V23.028C179.14 23.896 179.322 24.526 179.686 24.918C180.078 25.282 180.722 25.464 181.618 25.464H190.102C190.69 25.464 190.984 25.772 190.984 26.388V29.16C190.984 29.468 190.914 29.692 190.774 29.832C190.662 29.944 190.438 30 190.102 30ZM179.644 18.072H185.356C185.664 18.072 185.818 17.918 185.818 17.61V15.594C185.818 14.698 185.636 14.068 185.272 13.704C184.908 13.34 184.278 13.158 183.382 13.158H181.618C180.722 13.158 180.092 13.34 179.728 13.704C179.364 14.068 179.182 14.698 179.182 15.594V17.61C179.182 17.918 179.336 18.072 179.644 18.072Z" fill="#024639"/>
<path d="M28.762 30H25.192C24.604 30 24.31 29.706 24.31 29.118V9.462C24.31 8.874 24.604 8.58 25.192 8.58H28.762C29.35 8.58 29.644 8.874 29.644 9.462V10.89H29.812C30.12 10.134 30.666 9.56 31.45 9.168C32.234 8.776 33.06 8.58 33.928 8.58H35.44C36 8.58 36.28 8.874 36.28 9.462V12.36C36.28 12.696 36.21 12.934 36.07 13.074C35.958 13.186 35.748 13.228 35.44 13.2H32.542C30.61 13.2 29.644 14.292 29.644 16.476V29.118C29.644 29.706 29.35 30 28.762 30ZM50.8806 30H47.1426C44.9306 30 43.2226 29.412 42.0186 28.236C40.8146 27.06 40.2126 25.366 40.2126 23.154V15.426C40.2126 13.214 40.8146 11.52 42.0186 10.344C43.2226 9.168 44.9306 8.58 47.1426 8.58H50.8806C53.0646 8.58 54.7586 9.182 55.9626 10.386C57.1946 11.562 57.8106 13.242 57.8106 15.426V23.154C57.8106 25.338 57.1946 27.032 55.9626 28.236C54.7586 29.412 53.0646 30 50.8806 30ZM47.9406 25.422H50.0826C50.9786 25.422 51.6086 25.24 51.9726 24.876C52.3646 24.512 52.5606 23.882 52.5606 22.986V15.594C52.5606 14.698 52.3646 14.068 51.9726 13.704C51.6086 13.34 50.9786 13.158 50.0826 13.158H47.9406C47.0446 13.158 46.4146 13.34 46.0506 13.704C45.6866 14.068 45.5046 14.698 45.5046 15.594V22.986C45.5046 23.882 45.6866 24.512 46.0506 24.876C46.4146 25.24 47.0446 25.422 47.9406 25.422Z" fill="#024639"/>
<path d="M157.562 12.954H155.882C155.546 12.954 155.308 12.898 155.168 12.786C155.056 12.674 155 12.45 155 12.114V9.21603C155 8.62803 155.294 8.33403 155.882 8.33403H157.562C157.87 8.33403 158.024 8.18003 158.024 7.87203V5C158 2.99998 159 0 163.358 0V3.93601V7.87203C163.358 8.18003 163.526 8.33403 163.862 8.33403H167.138C167.726 8.33403 168.02 8.62803 168.02 9.21603V12.114C168.02 12.422 167.95 12.646 167.81 12.786C167.698 12.898 167.474 12.954 167.138 12.954H163.862C163.526 12.954 163.358 13.108 163.358 13.416V22.698C163.358 23.566 163.554 24.196 163.946 24.588C164.338 24.952 164.982 25.134 165.878 25.134H167.558C168.146 25.134 168.44 25.428 168.44 26.016V28.914C168.44 29.222 168.37 29.446 168.23 29.586C168.118 29.698 167.894 30 167.558 30H165C162.788 30 161.062 29.166 159.83 27.99C158.626 26.814 158.024 25.134 158.024 22.95V13.416C158.024 13.108 157.87 12.954 157.562 12.954Z" fill="#024639"/>
</svg>
