<svg width="70" height="70" viewBox="0 0 70 70" fill="none" xmlns="http://www.w3.org/2000/svg">
<path fill-rule="evenodd" clip-rule="evenodd" d="M49.4835 5.99986L64.0001 20.5165C72 28.5163 72 41.4837 64.0001 49.4835L49.4835 64.0001C41.4837 71.9999 28.5163 71.9999 20.5165 64.0001L5.99986 49.4835C-1.99995 41.4837 -1.99995 28.5163 5.99986 20.5165L20.5165 5.99986C28.5163 -1.99995 41.4837 -1.99995 49.4835 5.99986ZM25.3963 19.0434C29.2723 19.9041 32.0303 23.3416 32.0303 27.312V28.0435C27.9573 28.4783 26.0608 25.6522 26.0608 25.6522C24.3534 23.4602 25.3963 19.0434 25.3963 19.0434ZM33.9571 41.4347C36.3011 41.4347 38.2012 39.5345 38.2012 37.1906V25.6522C48.4451 24.5471 45.4815 11.6521 45.4815 11.6521C39.4055 12.2836 34.6254 17.1259 34.0724 23.2095L33.9571 24.4782V41.4347ZM23.5455 58.038C23.5455 57.3043 18.5429 50.5651 18.5429 50.5651C18.5429 50.5651 24.0275 45.1487 27.3412 44.2608C33.3313 42.6557 39.844 43.4434 40.3112 43.5654C41.1597 43.7869 41.59 44.6376 40.9514 45.3045C40.3129 45.9713 33.792 45.9999 33.1034 46.6521C32.4148 47.3043 32.9415 47.8634 33.5756 48.3912C34.2098 48.9191 39.2925 48.8602 40.9514 48.3912C44.201 47.4726 49.4835 43.5191 51.4826 41.8768C53.4816 40.2346 54.6493 42.0415 53.1644 44.4782C52.378 45.7687 46.9977 51.3866 43.1339 52.739C40.3112 53.7271 34.1965 54.6467 28.2818 53.7271C26.4322 55.4106 23.5455 58.7717 23.5455 58.038Z" fill="#1E6735"/>
<path d="M45.4815 11.6521C45.4815 11.6521 48.4451 24.5471 38.2012 25.6522V37.1906C38.2012 39.5345 36.3011 41.4347 33.9571 41.4347V24.4782L34.0724 23.2095C34.6254 17.1259 39.4055 12.2836 45.4815 11.6521Z" fill="white"/>
<path d="M32.0303 28.0435V27.312C32.0303 23.3416 29.2723 19.9041 25.3963 19.0434C25.3963 19.0434 24.3534 23.4602 26.0608 25.6522C26.0608 25.6522 27.9573 28.4783 32.0303 28.0435Z" fill="white"/>
<path d="M18.5429 50.5651C18.5429 50.5651 23.5455 57.3043 23.5455 58.038C23.5455 58.7717 26.4322 55.4106 28.2818 53.7271C34.1965 54.6467 40.3112 53.7271 43.1339 52.739C46.9977 51.3866 52.378 45.7687 53.1644 44.4782C54.6493 42.0415 53.4816 40.2346 51.4826 41.8768C49.4835 43.5191 44.201 47.4726 40.9514 48.3912C39.2925 48.8602 34.2098 48.9191 33.5756 48.3912C32.9415 47.8634 32.4148 47.3043 33.1034 46.6521C33.792 45.9999 40.3129 45.9713 40.9514 45.3045C41.59 44.6376 41.1597 43.7869 40.3112 43.5654C39.844 43.4434 33.3313 42.6557 27.3412 44.2608C24.0275 45.1487 18.5429 50.5651 18.5429 50.5651Z" fill="white"/>
</svg>
