<svg width="278" height="74" viewBox="0 0 278 74" fill="none" xmlns="http://www.w3.org/2000/svg">
<path fill-rule="evenodd" clip-rule="evenodd" d="M85.003 42.9432C85.003 42.3172 85.3126 42.0028 85.9319 42.0028H89.6935C90.3128 42.0028 90.6225 42.3172 90.6225 42.9432V44.4209H90.8002C91.1242 43.6149 91.7005 43.0089 92.5262 42.6059C93.352 42.2029 94.2235 42 95.1382 42H96.953C99.2266 42 100.944 42.6259 102.111 43.8807C103.278 45.1354 103.86 46.9417 103.86 49.3026V57.5455C103.86 59.9035 103.278 61.7127 102.111 62.9675C100.947 64.2222 99.2266 64.8481 96.953 64.8481H95.1382C94.2235 64.8481 93.352 64.6452 92.5262 64.2422C91.7005 63.8392 91.1242 63.2333 90.8002 62.4273H90.6225L90.6254 69.5001C90.6225 73.5 85.0001 74.0001 85.0001 74.0001V42.9403L85.003 42.9432ZM90.6254 56.5195C90.6254 58.7888 91.6432 59.9235 93.6788 59.9235H95.6714C96.6176 59.9235 97.2799 59.7206 97.6641 59.3176C98.0483 58.9146 98.2404 58.2344 98.2404 57.2797V49.5741C98.2404 48.6166 98.0483 47.9392 97.6641 47.5362C97.2799 47.1332 96.6176 46.9303 95.6714 46.9303H93.6788C91.6432 46.9303 90.6254 48.065 90.6254 50.3344V56.5166V56.5195Z" fill="#024639"/>
<path fill-rule="evenodd" clip-rule="evenodd" d="M148.003 42.9432C148.003 42.3172 148.313 42.0028 148.932 42.0028H152.694C153.313 42.0028 153.622 42.3172 153.622 42.9432V44.4209H153.8C154.124 43.6149 154.701 43.0089 155.526 42.6059C156.352 42.2029 157.224 42 158.138 42H159.953C162.227 42 163.944 42.6259 165.111 43.8807C166.278 45.1354 166.86 46.9417 166.86 49.3026V57.5455C166.86 59.9035 166.278 61.7127 165.111 62.9675C163.947 64.2222 162.227 64.8481 159.953 64.8481H158.138C157.224 64.8481 156.352 64.6452 155.526 64.2422C154.701 63.8392 154.124 63.2333 153.8 62.4273H153.622L153.625 69.5001C153.622 73.5 148 74.0001 148 74.0001V42.9403L148.003 42.9432ZM153.625 56.5195C153.625 58.7888 154.643 59.9235 156.679 59.9235H158.671C159.618 59.9235 160.28 59.7206 160.664 59.3176C161.048 58.9146 161.24 58.2344 161.24 57.2797V49.5741C161.24 48.6166 161.048 47.9392 160.664 47.5362C160.28 47.1332 159.618 46.9303 158.671 46.9303H156.679C154.643 46.9303 153.625 48.065 153.625 50.3344V56.5166V56.5195Z" fill="#024639"/>
<g clip-path="url(#clip0_1661_5334)">
<path fill-rule="evenodd" clip-rule="evenodd" d="M143.991 30H141.938C140.361 30 139.132 29.5562 138.25 28.6686C137.369 27.7809 136.928 26.5405 136.928 24.9474V17.6415C136.928 16.0484 137.369 14.808 138.25 13.9203C139.132 13.0327 140.361 12.5889 141.938 12.5889H143.991C145.8 12.5889 146.995 13.192 147.575 14.3983H147.714V6C147.714 6 150.305 6.375 150.305 9.375C150.305 12.375 150.219 29.522 150.219 29.522C150.219 29.8407 150.068 30 149.767 30H148.166C147.865 30 147.714 29.8407 147.714 29.522V28.1906H147.575C146.995 29.3969 145.8 30 143.991 30ZM147.714 17.9146V24.6743C147.714 25.6757 147.435 26.4495 146.879 26.9957C146.322 27.542 145.522 27.8151 144.478 27.8151H142.356C140.431 27.8151 139.468 26.825 139.468 24.845V17.744C139.468 15.7639 140.431 14.7738 142.356 14.7738H144.478C145.522 14.7738 146.322 15.0469 146.879 15.5932C147.435 16.1394 147.714 16.9132 147.714 17.9146Z" fill="#024639" fill-opacity="0.8"/>
<path fill-rule="evenodd" clip-rule="evenodd" d="M83.6263 30H89.8193C93.1363 30 94.7947 28.6344 94.7947 25.9033C94.7947 24.5832 94.5743 23.5477 94.1336 22.7966C93.7161 22.0455 92.9042 21.4424 91.6981 20.9872L87.5926 19.1778C86.2705 18.6771 85.6094 17.9488 85.6094 16.9929V16.4125C85.6094 15.9573 85.8182 15.559 86.2357 15.2176C86.6764 14.8762 87.3143 14.7055 88.1493 14.7055H93.403C93.7277 14.7055 93.8901 14.5576 93.8901 14.2617V13.0669C93.8901 12.7482 93.7277 12.5889 93.403 12.5889H87.697C84.5657 12.5889 83 13.9886 83 16.788C83 17.8578 83.2551 18.7226 83.7654 19.3826C84.2757 20.0199 85.1223 20.5775 86.3053 21.0555L90.4108 22.7624C91.5938 23.2177 92.1852 24.0483 92.1852 25.2546V25.9033C92.1852 27.2233 91.2806 27.8834 89.4714 27.8834H83.6263C83.3015 27.8834 83.1392 28.0313 83.1392 28.3272V29.522C83.1392 29.8407 83.3015 30 83.6263 30ZM105.045 30H112.421C112.746 30 112.908 29.852 112.908 29.5562V28.3272C112.908 28.0085 112.746 27.8492 112.421 27.8492H105.323C103.375 27.8492 102.401 26.8592 102.401 24.8791V22.7966C102.401 22.5917 102.517 22.4893 102.749 22.4893H112.595C112.92 22.4893 113.082 22.3186 113.082 21.9772V17.6415C113.082 16.0484 112.63 14.808 111.725 13.9203C110.821 13.0327 109.568 12.5889 107.968 12.5889H105.045C103.445 12.5889 102.181 13.0327 101.253 13.9203C100.348 14.808 99.8958 16.0484 99.8958 17.6415V24.9474C99.8958 26.5405 100.348 27.7809 101.253 28.6686C102.181 29.5562 103.445 30 105.045 30ZM110.264 20.6799H102.749C102.517 20.6799 102.401 20.5661 102.401 20.3386V17.7098C102.401 15.7525 103.375 14.7738 105.323 14.7738H107.689C109.638 14.7738 110.612 15.7525 110.612 17.7098V20.3386C110.612 20.5661 110.496 20.6799 110.264 20.6799ZM123.561 30H130.937C131.262 30 131.424 29.852 131.424 29.5562V28.3272C131.424 28.0085 131.262 27.8492 130.937 27.8492H123.84C121.891 27.8492 120.917 26.8592 120.917 24.8791V22.7966C120.917 22.5917 121.033 22.4893 121.265 22.4893H131.111C131.436 22.4893 131.598 22.3186 131.598 21.9772V17.6415C131.598 16.0484 131.146 14.808 130.241 13.9203C129.337 13.0327 128.084 12.5889 126.484 12.5889H123.561C121.961 12.5889 120.697 13.0327 119.769 13.9203C118.864 14.808 118.412 16.0484 118.412 17.6415V24.9474C118.412 26.5405 118.864 27.7809 119.769 28.6686C120.697 29.5562 121.961 30 123.561 30ZM128.78 20.6799H121.265C121.033 20.6799 120.917 20.5661 120.917 20.3386V17.7098C120.917 15.7525 121.891 14.7738 123.84 14.7738H126.206C128.154 14.7738 129.128 15.7525 129.128 17.7098V20.3386C129.128 20.5661 129.012 20.6799 128.78 20.6799ZM166.737 29.5562V28.293C166.737 27.9744 166.575 27.8151 166.25 27.8151H161.483C159.558 27.8151 158.596 26.825 158.596 24.845V17.744C158.596 15.7639 159.558 14.7738 161.483 14.7738H166.25C166.575 14.7738 166.737 14.6259 166.737 14.33V13.0669C166.737 12.7482 166.575 12.5889 166.25 12.5889H161.205C159.605 12.5889 158.341 13.0327 157.413 13.9203C156.508 14.808 156.056 16.0484 156.056 17.6415V24.9474C156.056 26.5405 156.508 27.7809 157.413 28.6686C158.341 29.5562 159.605 30 161.205 30H166.25C166.575 30 166.737 29.852 166.737 29.5562ZM176.493 30H178.303C180.089 30 181.272 29.3969 181.852 28.1906H181.991V29.522C181.991 29.8407 182.153 30 182.478 30H184.043C184.368 30 184.531 29.8407 184.531 29.522V13.0669C184.531 12.7482 184.368 12.5889 184.043 12.5889H176.493C174.893 12.5889 173.629 13.0327 172.701 13.9203C171.796 14.808 171.344 16.0484 171.344 17.6415V24.9474C171.344 26.5405 171.796 27.7809 172.701 28.6686C173.629 29.5562 174.893 30 176.493 30ZM181.991 15.0811V24.6743C181.991 25.6757 181.712 26.4495 181.156 26.9957C180.599 27.542 179.799 27.8151 178.755 27.8151H176.772C174.847 27.8151 173.884 26.825 173.884 24.845V17.744C173.884 15.7639 174.847 14.7738 176.772 14.7738H181.643C181.874 14.7738 181.991 14.8762 181.991 15.0811ZM190.544 30H196.737C200.054 30 201.712 28.6344 201.712 25.9033C201.712 24.5832 201.492 23.5477 201.051 22.7966C200.633 22.0455 199.822 21.4424 198.616 20.9872L194.51 19.1778C193.188 18.6771 192.527 17.9488 192.527 16.9929V16.4125C192.527 15.9573 192.736 15.559 193.153 15.2176C193.594 14.8762 194.232 14.7055 195.067 14.7055H200.32C200.645 14.7055 200.807 14.5576 200.807 14.2617V13.0669C200.807 12.7482 200.645 12.5889 200.32 12.5889H194.614C191.483 12.5889 189.917 13.9886 189.917 16.788C189.917 17.8578 190.173 18.7226 190.683 19.3826C191.194 20.0199 192.04 20.5775 193.223 21.0555L197.328 22.7624C198.511 23.2177 199.103 24.0483 199.103 25.2546V25.9033C199.103 27.2233 198.198 27.8834 196.389 27.8834H190.544C190.22 27.8834 190.057 28.0313 190.057 28.3272V29.522C190.057 29.8407 190.22 30 190.544 30ZM211.963 30H219.339C219.664 30 219.826 29.852 219.826 29.5562V28.3272C219.826 28.0085 219.664 27.8492 219.339 27.8492H212.241C210.293 27.8492 209.319 26.8592 209.319 24.8791V22.7966C209.319 22.5917 209.435 22.4893 209.667 22.4893H219.513C219.838 22.4893 220 22.3186 220 21.9772V17.6415C220 16.0484 219.548 14.808 218.643 13.9203C217.738 13.0327 216.486 12.5889 214.885 12.5889H211.963C210.362 12.5889 209.098 13.0327 208.171 13.9203C207.266 14.808 206.814 16.0484 206.814 17.6415V24.9474C206.814 26.5405 207.266 27.7809 208.171 28.6686C209.098 29.5562 210.362 30 211.963 30ZM217.182 20.6799H209.667C209.435 20.6799 209.319 20.5661 209.319 20.3386V17.7098C209.319 15.7525 210.293 14.7738 212.241 14.7738H214.607C216.556 14.7738 217.53 15.7525 217.53 17.7098V20.3386C217.53 20.5661 217.413 20.6799 217.182 20.6799Z" fill="#024639" fill-opacity="0.8"/>
</g>
<path d="M179.828 64H178.82C176.608 64 174.9 63.412 173.696 62.236C172.492 61.06 171.89 59.366 171.89 57.154V49.426C171.89 47.214 172.492 45.52 173.696 44.344C174.9 43.168 176.608 42.58 178.82 42.58H188.522C189.138 42.58 189.446 42.874 189.446 43.462V63.118C189.446 63.706 189.138 64 188.522 64H184.994C184.406 64 184.112 63.706 184.112 63.118V61.732H183.944C183.636 62.488 183.09 63.062 182.306 63.454C181.522 63.818 180.696 64 179.828 64ZM184.112 56.188V47.662C184.112 47.354 183.944 47.2 183.608 47.2H179.66C178.764 47.2 178.134 47.396 177.77 47.788C177.406 48.152 177.224 48.782 177.224 49.678V56.902C177.224 57.798 177.406 58.442 177.77 58.834C178.134 59.198 178.764 59.38 179.66 59.38H181.214C183.146 59.38 184.112 58.316 184.112 56.188ZM203.288 63.034H201.902C199.746 63.034 198.108 62.446 196.988 61.27C195.896 60.094 195.35 58.4 195.35 56.188V49.426C195.35 47.214 195.952 45.52 197.156 44.344C198.36 43.168 200.068 42.58 202.28 42.58H211.982C212.598 42.58 212.906 42.874 212.906 43.462V64.168C212.906 66.352 212.29 68.032 211.058 69.208C209.854 70.384 208.16 70.972 205.976 70.972H197.912C197.576 70.972 197.338 70.902 197.198 70.762C197.086 70.65 197.03 70.44 197.03 70.132V67.234C197.03 66.646 197.324 66.352 197.912 66.352H205.094C205.99 66.352 206.62 66.156 206.984 65.764C207.376 65.4 207.572 64.784 207.572 63.916V60.724H207.404C207.096 61.48 206.55 62.054 205.766 62.446C204.982 62.838 204.156 63.034 203.288 63.034ZM207.572 55.222V47.662C207.572 47.354 207.404 47.2 207.068 47.2H203.12C202.224 47.2 201.594 47.396 201.23 47.788C200.866 48.152 200.684 48.782 200.684 49.678V55.936C200.684 56.832 200.866 57.462 201.23 57.826C201.594 58.19 202.224 58.372 203.12 58.372H204.674C206.606 58.372 207.572 57.322 207.572 55.222ZM226.706 64H225.698C223.486 64 221.778 63.412 220.574 62.236C219.37 61.06 218.768 59.366 218.768 57.154V49.426C218.768 47.214 219.37 45.52 220.574 44.344C221.778 43.168 223.486 42.58 225.698 42.58H235.4C236.016 42.58 236.324 42.874 236.324 43.462V63.118C236.324 63.706 236.016 64 235.4 64H231.872C231.284 64 230.99 63.706 230.99 63.118V61.732H230.822C230.514 62.488 229.968 63.062 229.184 63.454C228.4 63.818 227.574 64 226.706 64ZM230.99 56.188V47.662C230.99 47.354 230.822 47.2 230.486 47.2H226.538C225.642 47.2 225.012 47.396 224.648 47.788C224.284 48.152 224.102 48.782 224.102 49.678V56.902C224.102 57.798 224.284 58.442 224.648 58.834C225.012 59.198 225.642 59.38 226.538 59.38H228.092C230.024 59.38 230.99 58.316 230.99 56.188Z" fill="#024639"/>
<path d="M275.102 64H265.82C263.608 64 261.9 63.412 260.696 62.236C259.492 61.06 258.89 59.366 258.89 57.154V49.426C258.89 47.214 259.492 45.52 260.696 44.344C261.9 43.168 263.608 42.58 265.82 42.58H269.138C271.35 42.58 273.058 43.168 274.262 44.344C275.466 45.52 276.068 47.214 276.068 49.426V54.76C276.068 55.348 275.774 55.642 275.186 55.642H264.644C264.308 55.642 264.14 55.796 264.14 56.104V57.028C264.14 57.896 264.322 58.526 264.686 58.918C265.078 59.282 265.722 59.464 266.618 59.464H275.102C275.69 59.464 275.984 59.772 275.984 60.388V63.16C275.984 63.468 275.914 63.692 275.774 63.832C275.662 63.944 275.438 64 275.102 64ZM264.644 52.072H270.356C270.664 52.072 270.818 51.918 270.818 51.61V49.594C270.818 48.698 270.636 48.068 270.272 47.704C269.908 47.34 269.278 47.158 268.382 47.158H266.618C265.722 47.158 265.092 47.34 264.728 47.704C264.364 48.068 264.182 48.698 264.182 49.594V51.61C264.182 51.918 264.336 52.072 264.644 52.072Z" fill="#024639"/>
<path d="M113.762 64H110.192C109.604 64 109.31 63.706 109.31 63.118V43.462C109.31 42.874 109.604 42.58 110.192 42.58H113.762C114.35 42.58 114.644 42.874 114.644 43.462V44.89H114.812C115.12 44.134 115.666 43.56 116.45 43.168C117.234 42.776 118.06 42.58 118.928 42.58H120.44C121 42.58 121.28 42.874 121.28 43.462V46.36C121.28 46.696 121.21 46.934 121.07 47.074C120.958 47.186 120.748 47.228 120.44 47.2H117.542C115.61 47.2 114.644 48.292 114.644 50.476V63.118C114.644 63.706 114.35 64 113.762 64ZM135.881 64H132.143C129.931 64 128.223 63.412 127.019 62.236C125.815 61.06 125.213 59.366 125.213 57.154V49.426C125.213 47.214 125.815 45.52 127.019 44.344C128.223 43.168 129.931 42.58 132.143 42.58H135.881C138.065 42.58 139.759 43.182 140.963 44.386C142.195 45.562 142.811 47.242 142.811 49.426V57.154C142.811 59.338 142.195 61.032 140.963 62.236C139.759 63.412 138.065 64 135.881 64ZM132.941 59.422H135.083C135.979 59.422 136.609 59.24 136.973 58.876C137.365 58.512 137.561 57.882 137.561 56.986V49.594C137.561 48.698 137.365 48.068 136.973 47.704C136.609 47.34 135.979 47.158 135.083 47.158H132.941C132.045 47.158 131.415 47.34 131.051 47.704C130.687 48.068 130.505 48.698 130.505 49.594V56.986C130.505 57.882 130.687 58.512 131.051 58.876C131.415 59.24 132.045 59.422 132.941 59.422Z" fill="#024639"/>
<path d="M242.562 46.954H240.882C240.546 46.954 240.308 46.898 240.168 46.786C240.056 46.674 240 46.45 240 46.114V43.216C240 42.628 240.294 42.334 240.882 42.334H242.562C242.87 42.334 243.024 42.18 243.024 41.872V39C243 37 244 34 248.358 34V37.936V41.872C248.358 42.18 248.526 42.334 248.862 42.334H252.138C252.726 42.334 253.02 42.628 253.02 43.216V46.114C253.02 46.422 252.95 46.646 252.81 46.786C252.698 46.898 252.474 46.954 252.138 46.954H248.862C248.526 46.954 248.358 47.108 248.358 47.416V56.698C248.358 57.566 248.554 58.196 248.946 58.588C249.338 58.952 249.982 59.134 250.878 59.134H252.558C253.146 59.134 253.44 59.428 253.44 60.016V62.914C253.44 63.222 253.37 63.446 253.23 63.586C253.118 63.698 252.894 64 252.558 64H250C247.788 64 246.062 63.166 244.83 61.99C243.626 60.814 243.024 59.134 243.024 56.95V47.416C243.024 47.108 242.87 46.954 242.562 46.954Z" fill="#024639"/>
<path fill-rule="evenodd" clip-rule="evenodd" d="M49.4835 5.99986L64.0001 20.5165C72 28.5163 72 41.4837 64.0001 49.4835L49.4835 64.0001C41.4837 71.9999 28.5163 71.9999 20.5165 64.0001L5.99986 49.4835C-1.99995 41.4837 -1.99995 28.5163 5.99986 20.5165L20.5165 5.99986C28.5163 -1.99995 41.4837 -1.99995 49.4835 5.99986ZM25.3963 19.0434C29.2723 19.9041 32.0303 23.3416 32.0303 27.312V28.0435C27.9573 28.4783 26.0608 25.6522 26.0608 25.6522C24.3534 23.4602 25.3963 19.0434 25.3963 19.0434ZM33.9571 41.4347C36.3011 41.4347 38.2012 39.5345 38.2012 37.1906V25.6522C48.4451 24.5471 45.4815 11.6521 45.4815 11.6521C39.4055 12.2836 34.6254 17.1259 34.0724 23.2095L33.9571 24.4782V41.4347ZM23.5455 58.038C23.5455 57.3043 18.5429 50.5651 18.5429 50.5651C18.5429 50.5651 24.0275 45.1487 27.3412 44.2608C33.3313 42.6557 39.844 43.4434 40.3112 43.5654C41.1597 43.7869 41.59 44.6376 40.9514 45.3045C40.3129 45.9713 33.792 45.9999 33.1034 46.6521C32.4148 47.3043 32.9415 47.8634 33.5756 48.3912C34.2098 48.9191 39.2925 48.8602 40.9514 48.3912C44.201 47.4726 49.4835 43.5191 51.4826 41.8768C53.4816 40.2346 54.6493 42.0415 53.1644 44.4782C52.378 45.7687 46.9977 51.3866 43.1339 52.739C40.3112 53.7271 34.1965 54.6467 28.2818 53.7271C26.4322 55.4106 23.5455 58.7717 23.5455 58.038Z" fill="#1E6735"/>
<path d="M45.4815 11.6521C45.4815 11.6521 48.4451 24.5471 38.2012 25.6522V37.1906C38.2012 39.5345 36.3011 41.4347 33.9571 41.4347V24.4782L34.0724 23.2095C34.6254 17.1259 39.4055 12.2836 45.4815 11.6521Z" fill="white"/>
<path d="M32.0303 28.0435V27.312C32.0303 23.3416 29.2723 19.9041 25.3963 19.0434C25.3963 19.0434 24.3534 23.4602 26.0608 25.6522C26.0608 25.6522 27.9573 28.4783 32.0303 28.0435Z" fill="white"/>
<path d="M18.5429 50.5651C18.5429 50.5651 23.5455 57.3043 23.5455 58.038C23.5455 58.7717 26.4322 55.4106 28.2818 53.7271C34.1965 54.6467 40.3112 53.7271 43.1339 52.739C46.9977 51.3866 52.378 45.7687 53.1644 44.4782C54.6493 42.0415 53.4816 40.2346 51.4826 41.8768C49.4835 43.5191 44.201 47.4726 40.9514 48.3912C39.2925 48.8602 34.2098 48.9191 33.5756 48.3912C32.9415 47.8634 32.4148 47.3043 33.1034 46.6521C33.792 45.9999 40.3129 45.9713 40.9514 45.3045C41.59 44.6376 41.1597 43.7869 40.3112 43.5654C39.844 43.4434 33.3313 42.6557 27.3412 44.2608C24.0275 45.1487 18.5429 50.5651 18.5429 50.5651Z" fill="white"/>
<defs>
<clipPath id="clip0_1661_5334">
<rect width="137" height="24" fill="white" transform="translate(83 6)"/>
</clipPath>
</defs>
</svg>
