<?xml version="1.0" standalone="no"?>
<!DOCTYPE svg PUBLIC "-//W3C//DTD SVG 20010904//EN"
 "http://www.w3.org/TR/2001/REC-SVG-20010904/DTD/svg10.dtd">
<svg version="1.0" xmlns="http://www.w3.org/2000/svg"
 width="720.000000pt" height="405.000000pt" viewBox="0 0 720.000000 405.000000"
 preserveAspectRatio="xMidYMid meet">

<g transform="translate(0.000000,405.000000) scale(0.100000,-0.100000)"
fill="#000000" stroke="none">
<path d="M340 3637 c0 -14 12 -32 30 -45 17 -13 30 -29 30 -37 0 -18 -41 -20
-59 -2 -10 10 -11 8 -5 -6 9 -24 63 -19 78 6 9 16 5 24 -28 51 -22 19 -36 38
-32 45 4 6 2 11 -3 11 -6 0 -11 -10 -11 -23z"/>
<path d="M395 3650 c3 -5 8 -10 11 -10 2 0 4 5 4 10 0 6 -5 10 -11 10 -5 0 -7
-4 -4 -10z"/>
<path d="M485 3652 c21 -14 55 -70 55 -90 0 -11 -6 -23 -12 -25 -7 -3 3 -5 22
-5 19 0 29 2 23 5 -21 8 -15 47 12 87 18 27 21 36 10 36 -8 0 -15 -6 -15 -13
0 -7 -6 -22 -14 -32 -14 -19 -15 -18 -33 13 -11 19 -26 32 -38 32 -11 0 -15
-3 -10 -8z"/>
<path d="M680 3637 c0 -14 12 -32 30 -45 17 -13 30 -29 30 -37 0 -18 -41 -20
-59 -2 -10 10 -11 8 -5 -6 9 -24 63 -19 78 6 9 16 5 24 -28 51 -22 19 -36 38
-32 45 4 6 2 11 -3 11 -6 0 -11 -10 -11 -23z"/>
<path d="M735 3650 c3 -5 8 -10 11 -10 2 0 4 5 4 10 0 6 -5 10 -11 10 -5 0 -7
-4 -4 -10z"/>
<path d="M821 3643 c0 -11 3 -13 6 -5 2 6 16 12 29 12 22 0 24 -4 24 -48 0
-26 -5 -53 -12 -60 -9 -9 -4 -12 23 -11 18 0 28 3 22 6 -8 3 -13 25 -13 59 0
47 3 54 19 54 11 0 22 -6 24 -12 3 -8 6 -6 6 5 1 14 -8 17 -64 17 -56 0 -65
-3 -64 -17z"/>
<path d="M1028 3608 c4 -42 1 -54 -13 -65 -17 -11 -12 -13 37 -13 43 0 57 4
62 16 5 14 4 15 -8 5 -24 -20 -61 -10 -64 18 -3 21 -1 23 27 19 26 -4 31 -1
31 15 0 16 -3 17 -15 7 -20 -16 -45 -5 -45 20 0 15 7 20 29 20 16 0 32 -6 34
-12 3 -8 6 -6 6 5 1 14 -7 17 -43 17 l-43 0 5 -52z"/>
<path d="M1192 3603 c-2 -32 -9 -61 -15 -65 -8 -5 -4 -8 8 -8 18 0 20 5 17 34
-8 69 3 74 33 16 l28 -55 22 48 c32 68 38 69 34 9 -4 -50 -3 -52 21 -52 15 0
20 3 13 8 -6 4 -13 33 -15 65 -2 32 -8 57 -14 57 -6 0 -21 -23 -34 -51 l-24
-51 -25 51 c-14 28 -30 51 -36 51 -5 0 -12 -26 -13 -57z"/>
<path d="M1525 3595 l0 -65 43 0 c48 0 92 33 92 70 0 22 -33 60 -52 60 -8 0
-6 -4 3 -10 47 -28 24 -110 -31 -110 -30 0 -30 0 -30 60 0 41 -4 60 -12 60 -9
0 -13 -20 -13 -65z"/>
<path d="M1739 3604 c2 -40 -1 -59 -10 -65 -9 -5 8 -9 44 -9 48 0 57 3 56 18
0 10 -3 12 -6 5 -2 -7 -18 -13 -34 -13 -24 0 -29 4 -29 25 0 20 5 25 25 25 14
0 25 4 25 9 0 4 -11 6 -25 3 -22 -4 -25 -1 -25 23 0 25 3 27 30 23 17 -3 30
-1 30 4 0 4 -19 8 -42 8 l-43 0 4 -56z"/>
<path d="M1900 3637 c0 -14 12 -32 30 -45 17 -13 30 -29 30 -37 0 -18 -41 -20
-59 -2 -10 10 -11 8 -5 -6 9 -24 63 -19 78 6 9 16 5 24 -28 51 -22 19 -36 38
-32 45 4 6 2 11 -3 11 -6 0 -11 -10 -11 -23z"/>
<path d="M1955 3650 c3 -5 8 -10 11 -10 2 0 4 5 4 10 0 6 -5 10 -11 10 -5 0
-7 -4 -4 -10z"/>
<path d="M2055 3595 c0 -51 3 -65 15 -65 12 0 15 14 15 65 0 51 -3 65 -15 65
-12 0 -15 -14 -15 -65z"/>
<path d="M2187 3648 c-28 -22 -32 -73 -8 -97 12 -12 28 -21 36 -21 9 0 6 8
-11 26 -20 19 -24 31 -19 52 3 15 13 33 22 40 9 6 12 12 7 12 -6 0 -18 -6 -27
-12z"/>
<path d="M2260 3656 c0 -2 7 -9 15 -16 12 -10 15 -10 15 4 0 9 -7 16 -15 16
-8 0 -15 -2 -15 -4z"/>
<path d="M2365 3595 c0 -58 2 -65 20 -65 15 0 16 3 7 12 -13 13 -17 88 -5 88
4 0 31 -23 59 -51 l52 -52 4 67 c2 40 -1 66 -7 66 -6 0 -9 -19 -7 -45 2 -25 1
-45 -3 -45 -4 0 -25 20 -47 45 -57 65 -73 61 -73 -20z"/>
<path d="M2258 3583 c18 -7 15 -43 -5 -43 -9 0 -14 -3 -10 -6 12 -13 45 8 50
31 4 22 1 25 -22 24 -14 0 -20 -3 -13 -6z"/>
<path d="M1510 2680 l0 -520 -160 0 c-104 0 -160 4 -160 10 0 7 -6 7 -19 0
-11 -5 -22 -10 -25 -10 -3 0 -6 63 -6 140 0 151 -8 187 -52 227 -13 13 -39 25
-58 28 l-35 5 40 -19 c22 -10 51 -31 65 -46 l25 -27 3 -296 c2 -163 0 -312 -3
-330 -8 -43 -58 -99 -96 -107 -17 -4 -28 -9 -25 -12 10 -11 74 19 102 48 l29
30 3 170 c2 93 6 169 8 169 3 0 14 -5 25 -10 13 -7 19 -7 19 0 0 6 56 10 160
10 l160 0 0 -314 0 -314 -22 -7 -23 -8 23 -4 22 -4 0 -690 0 -689 2145 0 2145
0 0 934 0 934 83 66 c45 36 87 66 93 66 6 0 16 10 22 23 8 17 11 -13 11 -131
1 -162 6 -186 53 -229 13 -13 39 -25 58 -29 32 -6 31 -4 -17 20 -83 43 -83 44
-83 398 0 291 1 304 21 338 23 37 36 48 84 67 19 7 23 12 12 12 -25 1 -67 -22
-97 -54 -24 -26 -25 -31 -28 -196 l-3 -169 -30 15 c-17 9 -29 11 -29 5 0 -6
-30 -10 -75 -10 l-75 0 0 515 0 515 -2145 0 -2145 0 0 -520z m4250 485 l-23
-25 -2081 0 -2080 0 -25 23 -26 22 23 -26 22 -25 0 -487 0 -487 -25 0 -25 0 0
508 c0 280 3 512 7 515 3 4 963 7 2131 7 l2125 0 -23 -25z m30 -495 l0 -500
-25 0 -25 0 0 477 c0 476 0 477 22 500 12 13 23 23 25 23 2 0 3 -225 3 -500z
m-62 -22 l2 -478 -230 0 c-152 0 -230 4 -230 10 0 7 -6 7 -19 0 -11 -5 -22
-10 -24 -10 -3 0 -7 71 -9 158 -5 238 -1 235 -321 230 -244 -3 -254 -6 -282
-64 -11 -24 -15 -69 -15 -178 0 -80 -4 -146 -8 -146 -4 0 -13 5 -20 12 -8 8
-15 8 -24 1 -8 -7 -71 -9 -179 -5 l-167 5 -4 156 c-4 167 -10 192 -61 239 -14
13 -42 28 -64 33 -50 11 -2106 11 -2157 -1 -45 -10 -81 -34 -110 -74 -19 -25
-21 -44 -24 -202 l-4 -174 -99 0 -99 0 0 478 c0 263 3 482 7 485 3 4 936 6
2072 5 l2066 -3 3 -477z m-1629 -63 c16 -8 40 -28 55 -45 26 -31 26 -33 26
-196 l0 -164 -35 0 c-19 0 -35 5 -35 10 0 7 -6 7 -19 0 -11 -5 -22 -10 -25
-10 -2 0 -6 76 -8 170 -4 227 7 215 -208 215 -153 0 -160 -1 -182 -23 l-23
-23 0 -349 0 -349 23 -23 c18 -19 36 -23 97 -26 41 -2 75 -6 75 -9 0 -2 -5
-13 -10 -24 -10 -17 -7 -19 20 -19 27 0 30 2 20 19 -5 11 -10 22 -10 24 0 3
34 7 75 9 61 3 79 7 97 26 22 21 23 31 26 192 2 94 6 170 8 170 3 0 14 -5 25
-10 13 -7 19 -7 19 0 0 5 16 10 35 10 l35 0 0 -185 c0 -204 -4 -221 -60 -269
-30 -25 -37 -26 -145 -26 -81 0 -115 4 -119 13 -5 10 -7 10 -12 0 -4 -10 -208
-13 -970 -13 -1059 0 -994 -4 -1048 60 -26 31 -26 32 -26 211 0 98 2 179 4
179 2 0 11 3 19 6 13 5 16 -18 19 -160 3 -185 12 -212 78 -229 19 -5 116 -7
216 -5 167 3 185 5 211 24 15 11 31 32 34 45 11 39 10 610 -1 650 -19 69 -31
74 -223 77 -201 4 -248 -1 -285 -33 l-27 -23 -3 -166 c-4 -160 -4 -165 -23
-156 -17 10 -19 23 -19 171 0 176 5 196 60 243 l32 26 1089 0 c937 0 1094 -2
1118 -15z m-75 -51 c14 -13 16 -60 16 -364 0 -304 -2 -351 -16 -364 -23 -24
-325 -24 -348 0 -14 13 -16 60 -16 364 0 304 2 351 16 364 23 24 325 24 348 0z
m1150 -20 l26 -27 0 -322 0 -322 -26 -27 -27 -26 -237 0 -237 0 -27 26 -26 27
0 322 0 322 26 27 27 26 237 0 237 0 27 -26z m-2830 -15 l26 -20 0 -333 c0
-322 -1 -334 -21 -360 l-20 -26 -208 0 c-196 0 -210 1 -235 21 l-26 20 0 333
c0 322 1 334 21 360 l20 26 208 0 c196 0 210 -1 235 -21z m2106 -348 c63 -4
122 -4 132 1 15 7 17 -7 20 -150 2 -118 7 -163 18 -180 26 -39 70 -52 179 -52
56 0 101 -3 101 -6 0 -3 -5 -14 -10 -25 -8 -14 -7 -19 1 -19 14 0 3 -381 -11
-390 -5 -3 -5 -12 0 -20 6 -8 10 -18 10 -22 0 -3 -84 -8 -187 -10 -205 -3
-234 -10 -270 -65 -16 -24 -18 -57 -18 -318 0 -259 2 -294 18 -322 37 -69 29
-68 457 -68 350 0 388 2 417 18 67 36 68 39 68 362 0 399 7 388 -253 393 -127
3 -162 7 -160 17 2 7 174 150 383 318 l380 305 3 -857 c1 -471 0 -862 -3 -869
-3 -10 -423 -12 -2072 -10 l-2068 3 -3 653 -2 652 30 0 c16 0 30 5 30 10 0 6
-13 10 -30 10 l-30 0 0 315 0 315 100 0 100 0 0 -152 c1 -207 12 -249 84 -302
27 -20 42 -21 549 -26 l522 -5 -135 -70 c-74 -38 -142 -72 -150 -74 -8 -2 -17
-7 -20 -11 -8 -12 -308 -160 -324 -160 -7 0 -19 -6 -25 -14 -9 -11 -47 -15
-149 -18 -113 -2 -142 -6 -169 -22 -57 -35 -58 -41 -58 -370 0 -279 1 -303 19
-333 34 -56 44 -58 335 -58 242 0 269 2 297 19 42 25 55 49 61 112 6 59 6 59
34 44 14 -8 19 -7 19 1 0 9 64 10 273 4 149 -4 284 -8 298 -7 25 1 27 -2 32
-57 11 -125 32 -133 315 -129 239 3 249 6 278 66 22 47 17 635 -6 670 -27 40
-69 52 -183 52 -95 0 -107 2 -120 20 -8 12 -18 20 -23 18 -5 -2 -63 32 -129
74 -66 43 -112 78 -102 78 9 0 17 5 17 10 0 6 -14 10 -32 10 -22 0 -63 20
-135 66 -57 36 -103 70 -103 75 0 5 163 9 394 9 306 0 395 -3 399 -12 4 -10 8
-10 14 -2 4 7 53 13 113 16 111 5 147 16 188 61 34 37 41 83 42 270 l0 167 68
-1 c37 0 119 -4 182 -8z m801 -11 c13 -7 19 -7 19 0 0 6 78 10 230 10 l231 0
-3 -102 -3 -103 -370 -298 c-425 -343 -407 -329 -429 -321 -14 5 -15 26 -9
198 3 105 10 193 14 196 4 3 4 12 -1 20 -6 8 -10 18 -10 21 0 4 51 9 113 11
175 6 187 21 187 237 0 78 3 141 6 141 3 0 14 -5 25 -10z m539 -62 c0 -52 -4
-76 -17 -90 -9 -10 -20 -18 -25 -18 -4 0 -8 41 -8 90 0 89 0 90 25 90 24 0 25
-2 25 -72z m160 59 c0 -11 -97 -96 -137 -121 -10 -5 -13 10 -13 63 l0 71 75 0
c55 0 75 -3 75 -13z m-4380 -979 l0 -982 -22 -25 -23 -26 26 23 25 22 2080 0
2081 0 23 -25 24 -25 -2130 2 -2129 3 -2 1008 -3 1007 25 0 25 0 0 -982z
m4220 -110 l0 -911 -25 23 -25 23 0 873 0 872 23 15 c12 9 23 16 25 16 1 1 2
-409 2 -911z m-2782 591 c7 -12 16 -19 19 -16 6 7 17 0 288 -179 l210 -139
-90 -6 c-162 -10 -165 -17 -165 -338 l0 -242 -21 12 c-14 7 -24 7 -28 1 -8
-12 -551 -3 -551 10 0 5 -9 4 -19 -2 -11 -5 -22 -10 -25 -10 -2 0 -6 109 -8
243 -4 324 -7 328 -192 335 l-108 4 171 89 c95 49 178 89 186 89 7 0 15 4 17
9 5 13 245 131 252 124 4 -4 13 3 22 15 19 27 26 27 42 1z m-465 -360 c57 -29
57 -29 57 -357 0 -315 -2 -330 -44 -364 -19 -16 -50 -18 -289 -18 -279 0 -296
2 -329 44 -16 19 -18 52 -18 324 0 315 2 330 44 364 19 16 50 18 289 18 178 0
276 -4 290 -11z m1291 -25 l26 -27 0 -322 0 -322 -26 -27 -27 -26 -232 0 -232
0 -27 26 -26 27 0 322 0 322 26 27 27 26 232 0 232 0 27 -26z m1466 -9 c60
-31 60 -32 60 -348 0 -309 -3 -327 -52 -361 -33 -23 -774 -24 -818 -1 -60 31
-60 32 -60 348 0 309 3 327 52 361 33 23 774 24 818 1z"/>
<path d="M4073 3030 c-3 -11 -12 -21 -19 -21 -8 -1 -19 -2 -26 -3 -6 0 -12
-13 -12 -28 -2 -33 10 -37 19 -8 8 25 25 26 25 2 0 -12 7 -18 24 -17 25 0 50
15 26 15 -10 0 -10 3 -1 14 13 15 -1 32 -18 22 -4 -3 -6 6 -3 19 5 30 -8 34
-15 5z"/>
<path d="M3066 3024 c-4 -10 1 -25 10 -36 20 -21 11 -37 -11 -18 -12 10 -15
10 -15 -4 0 -21 48 -22 57 -1 3 9 -2 24 -11 34 -22 24 -20 34 4 26 11 -4 20
-2 20 4 0 18 -47 13 -54 -5z"/>
<path d="M3260 3027 c0 -7 -9 -18 -20 -25 -29 -18 -26 -49 5 -49 14 0 25 5 25
12 0 7 3 27 6 44 4 20 3 31 -5 31 -6 0 -11 -6 -11 -13z m-13 -49 c-3 -8 -6 -5
-6 6 -1 11 2 17 5 13 3 -3 4 -12 1 -19z"/>
<path d="M3542 3008 c-2 -17 -8 -38 -14 -45 -8 -10 -5 -13 15 -13 21 0 24 4
19 22 -4 18 -2 20 16 16 14 -4 22 -2 22 7 0 8 -8 11 -20 8 -16 -4 -19 -2 -14
12 4 10 14 15 25 12 11 -3 19 -1 19 4 0 5 -15 9 -33 9 -30 0 -33 -3 -35 -32z"/>
<path d="M3132 2998 c-17 -17 -15 -48 3 -48 9 0 12 6 9 15 -4 8 -1 15 5 15 6
0 11 7 11 15 0 18 -12 19 -28 3z"/>
<path d="M3180 2995 c-16 -19 -6 -45 17 -45 15 0 16 2 3 10 -13 9 -13 12 3 21
9 5 17 14 17 19 0 15 -26 12 -40 -5z"/>
<path d="M3292 2998 c-16 -16 -15 -48 2 -48 9 0 12 8 8 26 -3 19 -1 25 7 20 6
-4 11 -2 11 3 0 14 -13 14 -28 -1z"/>
<path d="M3342 2998 c-27 -27 -14 -45 33 -46 33 -2 45 2 45 12 0 8 3 21 6 30
4 11 1 16 -11 16 -13 0 -16 -6 -13 -24 4 -17 1 -23 -9 -19 -7 3 -13 14 -13 24
0 21 -20 25 -38 7z m18 -13 c0 -8 -4 -15 -10 -15 -5 0 -7 7 -4 15 4 8 8 15 10
15 2 0 4 -7 4 -15z"/>
<path d="M3441 2988 c-10 -28 -6 -38 17 -38 15 0 15 2 2 10 -13 9 -13 12 3 21
21 12 22 29 2 29 -9 0 -19 -10 -24 -22z"/>
<path d="M3610 2977 l0 -32 20 25 c19 24 20 24 20 4 0 -16 6 -21 25 -21 21 0
25 4 25 28 0 30 -17 38 -38 17 -7 -7 -12 -8 -12 -2 0 5 -9 10 -20 11 -16 1
-20 -4 -20 -30z m70 8 c0 -8 -4 -15 -10 -15 -5 0 -7 7 -4 15 4 8 8 15 10 15 2
0 4 -7 4 -15z"/>
<path d="M3714 3001 c-8 -9 -4 -51 6 -51 6 0 10 6 10 14 0 8 5 18 11 22 8 4 9
0 4 -15 -3 -11 -2 -21 3 -21 5 0 13 10 17 23 l8 22 4 -22 c6 -33 23 -28 23 6
0 27 -2 29 -41 27 -22 0 -43 -3 -45 -5z"/>
<path d="M3820 2994 c-16 -18 -5 -44 17 -44 15 0 16 2 3 10 -13 9 -13 11 0 20
22 14 30 12 30 -8 0 -13 8 -18 28 -17 15 0 26 3 25 8 -2 4 -3 16 -3 27 0 11
-4 20 -10 20 -5 0 -10 -6 -10 -14 0 -8 -4 -17 -9 -20 -5 -4 -7 2 -4 12 4 15
-1 19 -26 20 -16 0 -35 -6 -41 -14z"/>
<path d="M3930 2989 c0 -11 5 -17 10 -14 6 3 10 -1 10 -9 0 -9 6 -16 13 -16
19 0 37 21 37 42 0 21 -20 24 -38 6 -9 -9 -12 -9 -12 0 0 7 -4 12 -10 12 -5 0
-10 -9 -10 -21z m47 -21 c-3 -7 -5 -2 -5 12 0 14 2 19 5 13 2 -7 2 -19 0 -25z"/>
<path d="M2475 2135 c0 -44 1 -45 32 -45 29 0 63 28 63 52 0 17 -34 38 -63 38
-31 0 -32 -1 -32 -45z m70 24 c13 -19 -4 -59 -25 -59 -16 0 -20 7 -20 35 0 28
4 35 19 35 11 0 23 -5 26 -11z"/>
<path d="M2908 2135 c4 -43 22 -65 22 -26 0 11 8 22 18 24 16 4 16 5 0 6 -10
0 -18 8 -18 17 0 11 6 15 20 11 11 -3 20 -1 20 4 0 5 -15 9 -33 9 -32 0 -32 0
-29 -45z"/>
<path d="M3451 2138 c-1 -28 3 -48 10 -48 5 0 7 5 4 10 -3 6 -1 10 4 10 6 0
11 -4 11 -10 0 -5 8 -10 17 -10 15 0 15 2 -2 14 -16 12 -17 16 -6 30 8 10 9
16 3 16 -6 0 -14 -6 -19 -12 -5 -9 -10 -3 -14 17 -6 25 -7 23 -8 -17z"/>
<path d="M2580 2111 c0 -29 -5 -41 -17 -44 -14 -4 -12 -5 5 -6 20 -1 22 4 22
44 0 25 -2 45 -5 45 -3 0 -5 -18 -5 -39z"/>
<path d="M2614 2139 c-4 -7 -3 -9 4 -5 6 3 13 2 16 -3 3 -5 -1 -11 -9 -15 -29
-11 -15 -26 23 -26 37 0 38 1 34 30 -2 17 -8 30 -12 30 -4 0 -5 -11 -2 -25 2
-14 0 -25 -6 -25 -6 0 -12 10 -14 22 -3 25 -23 35 -34 17z"/>
<path d="M2699 2137 c7 -9 11 -24 7 -32 -5 -15 13 -20 58 -15 14 1 17 -3 12
-17 -6 -14 -4 -15 5 -6 13 13 4 33 -17 33 -8 0 -14 9 -14 20 0 11 5 20 11 20
6 0 9 -7 5 -15 -3 -8 -1 -15 3 -15 17 0 20 28 4 34 -20 8 -43 -11 -36 -30 3
-8 0 -14 -5 -14 -6 0 -12 10 -14 22 -2 12 -10 24 -18 26 -13 5 -13 3 -1 -11z"/>
<path d="M2804 2135 c-9 -23 3 -45 25 -45 23 0 35 28 20 46 -15 18 -38 18 -45
-1z m36 -15 c0 -11 -7 -20 -15 -20 -8 0 -15 9 -15 20 0 11 7 20 15 20 8 0 15
-9 15 -20z"/>
<path d="M2980 2118 c0 -15 4 -28 8 -28 5 0 8 10 8 22 -1 17 5 23 22 24 27 2
38 -11 17 -20 -29 -11 -15 -26 23 -26 37 0 38 1 34 30 -2 17 -8 30 -12 30 -4
0 -5 -11 -2 -25 2 -14 0 -25 -6 -25 -6 0 -12 10 -14 23 -2 18 -10 22 -40 23
-35 1 -38 -1 -38 -28z"/>
<path d="M3109 2137 c7 -9 11 -24 7 -32 -3 -8 -1 -15 5 -15 16 0 6 53 -11 58
-13 5 -13 3 -1 -11z"/>
<path d="M3148 2134 c5 -11 7 -25 5 -31 -3 -7 1 -13 7 -13 16 0 8 52 -8 58
-11 3 -12 0 -4 -14z"/>
<path d="M3184 2136 c-9 -23 3 -46 23 -46 15 0 15 2 -3 15 -18 14 -18 14 4 15
14 0 22 5 20 13 -7 18 -37 21 -44 3z"/>
<path d="M3245 2119 c15 -28 18 -29 29 -14 12 17 13 17 20 -1 6 -16 9 -16 16
-4 6 8 10 20 10 25 0 6 -5 3 -10 -5 -9 -13 -10 -13 -11 0 -1 8 -1 18 0 23 0 4
-6 7 -14 7 -8 0 -12 -6 -9 -14 3 -8 1 -17 -5 -21 -10 -5 -15 7 -12 28 0 4 -6
7 -14 7 -14 0 -14 -4 0 -31z"/>
<path d="M3340 2136 c-18 -22 -5 -48 22 -44 17 2 23 10 23 28 0 29 -26 38 -45
16z m38 -19 c2 -10 -3 -17 -12 -17 -10 0 -16 9 -16 21 0 24 23 21 28 -4z"/>
<path d="M3405 2119 c0 -16 5 -29 12 -29 7 0 10 7 7 15 -4 8 -1 21 4 28 8 10
7 13 -6 14 -12 1 -17 -7 -17 -28z"/>
<path d="M2730 2070 c0 -6 7 -10 15 -10 8 0 15 2 15 4 0 2 -7 6 -15 10 -8 3
-15 1 -15 -4z"/>
<path d="M3790 2245 c-6 -15 -13 -32 -16 -36 -3 -5 0 -9 5 -9 6 0 11 7 11 15
0 8 5 15 10 15 6 0 13 -7 16 -15 4 -8 10 -15 15 -15 9 0 -8 47 -23 64 -4 5
-12 -3 -18 -19z"/>
<path d="M3850 2236 c0 -20 4 -36 10 -36 5 0 7 6 4 14 -3 8 3 16 16 19 27 7
21 31 -8 35 -19 3 -22 -1 -22 -32z m30 14 c0 -5 -4 -10 -10 -10 -5 0 -10 5
-10 10 0 6 5 10 10 10 6 0 10 -4 10 -10z"/>
<path d="M3910 2235 c0 -19 3 -35 8 -35 4 0 7 16 7 35 0 19 -3 35 -7 35 -5 0
-8 -16 -8 -35z"/>
<path d="M3750 2105 c0 -35 0 -35 44 -35 41 0 44 2 38 22 -4 16 -7 18 -11 7
-3 -7 -19 -16 -35 -17 -27 -4 -28 -2 -24 27 2 17 1 31 -4 31 -4 0 -8 -16 -8
-35z"/>
<path d="M3840 2114 c0 -6 7 -19 15 -30 8 -10 14 -14 14 -9 0 6 -6 19 -14 29
-8 11 -15 15 -15 10z"/>
<path d="M3945 2112 c-12 -8 -16 -42 -5 -42 4 0 10 11 12 25 3 14 5 25 4 25 0
0 -5 -4 -11 -8z"/>
<path d="M3891 2093 c-1 -16 5 -23 17 -23 10 0 13 3 6 8 -6 4 -14 14 -17 22
-4 10 -6 8 -6 -7z"/>
<path d="M4793 2283 c3 -5 12 -26 22 -48 15 -36 17 -38 29 -22 13 16 14 16 20
1 4 -10 10 -14 15 -8 16 16 40 84 30 84 -5 0 -9 -4 -9 -9 0 -5 -5 -22 -11 -38
-10 -26 -12 -26 -19 -8 -4 11 -3 28 2 38 7 14 4 17 -17 17 -23 0 -24 -2 -15
-20 7 -13 7 -26 2 -36 -8 -14 -11 -11 -20 14 -6 17 -8 33 -5 36 4 3 -1 6 -11
6 -9 0 -15 -3 -13 -7z"/>
<path d="M4971 2248 c-1 -44 1 -48 23 -48 26 0 39 20 30 45 -4 8 -14 15 -24
15 -10 0 -21 8 -23 18 -3 9 -5 -4 -6 -30z m42 -13 c8 -18 -11 -31 -25 -17 -11
11 -3 32 12 32 4 0 10 -7 13 -15z"/>
<path d="M4914 2246 c-9 -23 3 -46 23 -46 15 0 15 2 -3 15 -18 14 -18 14 4 15
14 0 22 5 20 13 -7 18 -37 21 -44 3z"/>
<path d="M4745 2119 c-4 -6 2 -21 14 -33 26 -28 27 -40 1 -33 -11 3 -20 1 -20
-4 0 -5 11 -9 25 -9 35 0 45 29 17 48 -28 18 -29 36 -2 29 11 -3 18 -1 14 4
-7 12 -41 11 -49 -2z"/>
<path d="M4814 2086 c-9 -23 3 -46 23 -46 15 0 15 2 -3 15 -18 14 -18 14 4 15
14 0 22 5 20 13 -7 18 -37 21 -44 3z"/>
<path d="M4870 2070 c0 -19 5 -30 14 -30 9 0 12 8 8 26 -3 19 -1 25 7 20 6 -4
11 -2 11 3 0 6 -9 11 -20 11 -16 0 -20 -7 -20 -30z"/>
<path d="M4920 2093 c1 -5 7 -19 14 -32 l14 -24 15 29 16 29 1 -27 c0 -23 4
-28 23 -27 16 1 18 2 5 6 -24 6 -23 19 3 26 30 8 14 26 -21 25 -18 -1 -30 -6
-30 -15 0 -7 -4 -13 -10 -13 -5 0 -10 7 -10 15 0 8 -4 15 -10 15 -5 0 -10 -3
-10 -7z"/>
<path d="M5040 2068 c0 -15 4 -28 10 -28 5 0 7 7 3 16 -4 10 1 22 12 30 16 12
16 13 -4 11 -16 -1 -21 -8 -21 -29z"/>
<path d="M1996 2224 c-9 -22 -8 -24 9 -24 8 0 15 -7 15 -15 0 -8 4 -15 9 -15
11 0 -6 57 -19 65 -4 3 -11 -2 -14 -11z"/>
<path d="M2080 2230 c-1 -8 -2 -23 -1 -32 1 -10 -2 -18 -8 -18 -5 0 -12 8 -14
18 -4 13 -5 11 -6 -5 -1 -20 4 -23 32 -23 26 0 33 4 33 20 0 25 -15 27 -17 3
-1 -10 -5 -2 -9 17 -4 19 -8 28 -10 20z"/>
<path d="M2130 2197 c0 -15 4 -27 8 -27 10 0 9 36 -1 46 -4 4 -7 -5 -7 -19z"/>
<path d="M2161 2198 c-1 -22 4 -28 19 -28 14 0 20 6 19 23 -1 16 -2 18 -6 5
-6 -25 -21 -22 -26 5 -4 19 -4 18 -6 -5z"/>
<path d="M2240 2195 c0 -14 4 -25 9 -25 4 0 6 11 3 25 -2 14 -6 25 -8 25 -2 0
-4 -11 -4 -25z"/>
<path d="M2210 2190 c0 -11 4 -20 8 -20 4 0 8 9 8 20 0 11 -4 20 -8 20 -4 0
-8 -9 -8 -20z"/>
<path d="M1975 2180 c-3 -5 -1 -10 4 -10 6 0 11 5 11 10 0 6 -2 10 -4 10 -3 0
-8 -4 -11 -10z"/>
<path d="M1958 2075 c2 -19 8 -35 13 -35 5 0 6 6 3 14 -3 8 2 16 13 19 16 4
16 5 1 6 -10 0 -18 5 -18 10 0 5 8 12 18 14 11 3 8 5 -8 6 -24 1 -26 -2 -22
-34z"/>
<path d="M2054 2079 c-4 -8 -3 -9 4 -5 7 4 12 1 12 -9 0 -9 -4 -13 -10 -10 -5
3 -10 1 -10 -4 0 -6 7 -11 15 -11 8 0 15 9 15 19 0 24 -16 36 -26 20z"/>
<path d="M2092 2068 c2 -12 10 -23 18 -25 11 -4 12 -2 2 5 -7 5 -10 16 -6 25
3 10 1 17 -6 17 -6 0 -10 -10 -8 -22z"/>
<path d="M2157 2070 c3 -11 0 -20 -6 -20 -6 0 -11 7 -11 15 0 8 -4 15 -9 15
-5 0 -7 -9 -4 -20 7 -26 43 -27 43 -1 0 11 -4 22 -9 25 -5 4 -7 -3 -4 -14z"/>
<path d="M2180 2064 c0 -13 4 -24 10 -24 5 0 7 6 4 14 -3 8 -1 17 4 20 5 3 12
-3 15 -14 3 -11 11 -20 19 -20 9 0 9 3 2 8 -6 4 -13 13 -16 21 -2 8 -12 15
-21 17 -12 1 -17 -5 -17 -22z"/>
<path d="M2250 2068 c25 -24 38 -29 25 -9 -3 6 -16 16 -28 22 -20 11 -20 9 3
-13z"/>
<path d="M2011 2063 c-1 -16 5 -23 17 -23 10 0 13 3 6 8 -6 4 -14 14 -17 22
-4 10 -6 8 -6 -7z"/>
<path d="M3840 1570 c0 -16 5 -30 10 -30 6 0 10 14 10 30 0 17 -4 30 -10 30
-5 0 -10 -13 -10 -30z"/>
<path d="M1680 1500 c0 -5 16 -10 36 -10 21 0 33 4 29 10 -3 6 -19 10 -36 10
-16 0 -29 -4 -29 -10z"/>
<path d="M1790 1500 c0 -5 14 -10 30 -10 17 0 30 5 30 10 0 6 -13 10 -30 10
-16 0 -30 -4 -30 -10z"/>
<path d="M1890 1500 c0 -5 16 -10 36 -10 21 0 33 4 29 10 -3 6 -19 10 -36 10
-16 0 -29 -4 -29 -10z"/>
<path d="M2000 1500 c0 -5 14 -10 30 -10 17 0 30 5 30 10 0 6 -13 10 -30 10
-16 0 -30 -4 -30 -10z"/>
<path d="M2100 1500 c0 -5 16 -10 36 -10 21 0 33 4 29 10 -3 6 -19 10 -36 10
-16 0 -29 -4 -29 -10z"/>
<path d="M2210 1500 c0 -5 14 -10 30 -10 17 0 30 5 30 10 0 6 -13 10 -30 10
-16 0 -30 -4 -30 -10z"/>
<path d="M2310 1500 c0 -5 16 -10 36 -10 21 0 33 4 29 10 -3 6 -19 10 -36 10
-16 0 -29 -4 -29 -10z"/>
<path d="M2420 1500 c0 -5 14 -10 30 -10 17 0 30 5 30 10 0 6 -13 10 -30 10
-16 0 -30 -4 -30 -10z"/>
<path d="M2520 1500 c0 -5 16 -10 36 -10 21 0 33 4 29 10 -3 6 -19 10 -36 10
-16 0 -29 -4 -29 -10z"/>
<path d="M3360 1500 c0 -5 16 -10 36 -10 21 0 33 4 29 10 -3 6 -19 10 -36 10
-16 0 -29 -4 -29 -10z"/>
<path d="M3470 1500 c0 -5 14 -10 30 -10 17 0 30 5 30 10 0 6 -13 10 -30 10
-16 0 -30 -4 -30 -10z"/>
<path d="M3570 1500 c0 -5 16 -10 36 -10 21 0 33 4 29 10 -3 6 -19 10 -36 10
-16 0 -29 -4 -29 -10z"/>
<path d="M3680 1500 c0 -5 14 -10 30 -10 17 0 30 5 30 10 0 6 -13 10 -30 10
-16 0 -30 -4 -30 -10z"/>
<path d="M3780 1500 c0 -5 16 -10 36 -10 21 0 33 4 29 10 -3 6 -19 10 -36 10
-16 0 -29 -4 -29 -10z"/>
<path d="M2730 1500 c0 -5 16 -10 36 -10 21 0 33 4 29 10 -3 6 -19 10 -36 10
-16 0 -29 -4 -29 -10z"/>
<path d="M2840 1500 c0 -5 14 -10 30 -10 17 0 30 5 30 10 0 6 -13 10 -30 10
-16 0 -30 -4 -30 -10z"/>
<path d="M2940 1500 c0 -5 16 -10 36 -10 21 0 33 4 29 10 -3 6 -19 10 -36 10
-16 0 -29 -4 -29 -10z"/>
<path d="M3050 1500 c0 -5 14 -10 30 -10 17 0 30 5 30 10 0 6 -13 10 -30 10
-16 0 -30 -4 -30 -10z"/>
<path d="M3150 1500 c0 -5 16 -10 36 -10 21 0 33 4 29 10 -3 6 -19 10 -36 10
-16 0 -29 -4 -29 -10z"/>
<path d="M2125 995 l0 -44 60 2 c54 2 60 4 63 25 5 35 -27 41 -52 9 -12 -15
-30 -27 -40 -27 -15 0 -17 7 -14 40 2 23 -1 40 -7 40 -5 0 -10 -20 -10 -45z
m113 -18 c2 -10 -3 -17 -12 -17 -10 0 -16 9 -16 21 0 24 23 21 28 -4z"/>
<path d="M2382 1003 c-2 -42 -22 -63 -22 -24 0 25 -18 37 -33 22 -9 -9 -8 -11
6 -6 22 9 22 -4 0 -21 -24 -17 -12 -26 28 -22 l34 3 -6 45 -6 45 -1 -42z"/>
<path d="M2271 996 c-15 -17 -4 -46 18 -45 10 0 11 2 4 6 -19 7 -16 41 5 46
14 4 14 5 1 6 -9 0 -22 -5 -28 -13z"/>
<path d="M2035 835 c0 -43 1 -45 31 -45 35 0 54 16 54 45 0 29 -19 45 -54 45
-30 0 -31 -2 -31 -45z m64 21 c17 -20 -3 -56 -29 -56 -16 0 -20 7 -20 35 0 28
4 35 19 35 10 0 24 -6 30 -14z"/>
<path d="M2281 838 c-1 -44 1 -48 23 -48 26 0 39 20 30 45 -4 8 -14 15 -24 15
-10 0 -21 8 -23 18 -3 9 -5 -4 -6 -30z m42 -13 c8 -18 -11 -31 -25 -17 -11 11
-3 32 12 32 4 0 10 -7 13 -15z"/>
<path d="M2190 825 c0 -27 4 -35 18 -34 10 0 12 3 5 6 -16 6 -17 40 -1 45 7 3
6 7 -5 11 -14 5 -17 0 -17 -28z"/>
<path d="M2135 841 c-3 -7 0 -8 9 -5 9 3 16 2 16 -4 0 -5 -7 -12 -15 -16 -24
-9 -18 -26 9 -26 21 0 23 3 17 27 -8 29 -25 40 -36 24z"/>
<path d="M2234 838 c-4 -7 -3 -8 4 -4 7 4 12 3 12 -3 0 -5 -4 -13 -10 -16 -17
-11 -11 -25 11 -25 15 0 19 4 15 16 -3 9 -6 22 -6 30 0 17 -16 19 -26 2z"/>
<path d="M2354 838 c-4 -7 -3 -8 4 -4 7 4 12 3 12 -3 0 -5 -4 -13 -10 -16 -17
-11 -11 -25 11 -25 15 0 19 4 15 16 -3 9 -6 22 -6 30 0 17 -16 19 -26 2z"/>
<path d="M2400 838 c1 -20 30 -56 30 -37 0 8 -6 21 -12 28 -10 11 -10 13 0 7
6 -4 12 -2 12 3 0 6 -7 11 -15 11 -8 0 -15 -6 -15 -12z"/>
<path d="M2444 836 c-9 -23 3 -46 23 -46 15 0 15 2 -3 15 -18 14 -18 14 4 15
14 0 22 5 20 13 -7 18 -37 21 -44 3z"/>
<path d="M3460 1021 c0 -5 10 -7 21 -4 20 6 21 3 17 -36 -2 -24 1 -41 7 -41 6
0 9 17 7 41 -4 39 -3 42 17 36 11 -3 21 -1 21 4 0 5 -20 9 -45 9 -25 0 -45 -4
-45 -9z"/>
<path d="M3630 985 c0 -43 12 -60 23 -32 4 10 6 10 6 0 1 -7 9 -13 18 -13 14
0 13 3 -5 23 -12 13 -22 33 -22 45 0 12 -4 22 -10 22 -5 0 -10 -20 -10 -45z"/>
<path d="M3544 988 c-4 -7 -3 -8 4 -4 7 4 12 3 12 -3 0 -5 -4 -13 -10 -16 -17
-11 -11 -25 11 -25 15 0 19 4 15 16 -3 9 -6 22 -6 30 0 17 -16 19 -26 2z"/>
<path d="M3590 988 c1 -20 30 -56 30 -37 0 8 -6 21 -12 28 -10 11 -10 13 0 7
6 -4 12 -2 12 3 0 6 -7 11 -15 11 -8 0 -15 -6 -15 -12z"/>
<path d="M3660 990 c0 -5 7 -7 15 -4 8 4 15 8 15 10 0 2 -7 4 -15 4 -8 0 -15
-4 -15 -10z"/>
<path d="M3375 825 c0 -26 5 -45 11 -45 7 0 9 15 7 40 -3 32 -1 40 13 40 12 0
15 -6 11 -22 -7 -25 17 -58 41 -58 12 0 11 3 -4 14 -11 9 -19 26 -19 43 0 24
-4 28 -30 31 -29 3 -30 2 -30 -43z"/>
<path d="M3481 813 c-1 -30 2 -33 27 -33 26 0 28 3 24 30 -2 17 -8 30 -12 30
-4 0 -5 -11 -2 -25 3 -18 0 -25 -11 -25 -9 0 -17 11 -20 28 -4 25 -4 25 -6 -5z"/>
<path d="M3550 808 c0 -15 4 -28 8 -28 5 0 8 10 8 21 -1 12 5 24 13 27 10 3
13 -2 9 -22 -3 -16 -1 -26 7 -26 7 0 10 11 7 30 -3 24 -9 29 -28 28 -19 -2
-24 -8 -24 -30z"/>
<path d="M3620 808 c0 -15 4 -28 8 -28 5 0 8 10 8 21 -1 12 5 24 13 27 10 3
13 -2 9 -22 -3 -16 -1 -26 7 -26 7 0 10 11 7 30 -3 24 -9 29 -28 28 -19 -2
-24 -8 -24 -30z"/>
<path d="M3697 833 c-4 -3 -7 -17 -7 -30 0 -18 5 -23 23 -22 16 1 18 2 5 6
-24 6 -23 19 3 26 12 3 18 10 14 16 -7 12 -28 14 -38 4z"/>
<path d="M3750 808 c0 -15 4 -28 10 -28 5 0 7 7 3 16 -4 10 1 22 12 30 16 12
16 13 -4 11 -16 -1 -21 -8 -21 -29z"/>
<path d="M4835 965 c0 -25 5 -45 10 -45 6 0 10 20 10 45 0 25 -4 45 -10 45 -5
0 -10 -20 -10 -45z"/>
<path d="M4875 965 c0 -44 1 -45 32 -45 29 0 63 28 63 52 0 17 -34 38 -63 38
-31 0 -32 -1 -32 -45z m70 24 c13 -19 -4 -59 -25 -59 -16 0 -20 7 -20 35 0 28
4 35 19 35 11 0 23 -5 26 -11z"/>
<path d="M5208 824 c-7 -7 4 -64 12 -64 5 0 6 9 3 21 -3 12 0 24 6 29 10 5 9
9 -2 13 -8 3 -17 4 -19 1z"/>
<path d="M4560 790 c0 -16 5 -30 10 -30 6 0 10 14 10 30 0 17 -4 30 -10 30 -5
0 -10 -13 -10 -30z"/>
<path d="M4598 790 c2 -16 9 -30 14 -30 13 0 6 53 -8 57 -7 2 -9 -8 -6 -27z"/>
<path d="M4638 790 c4 -27 8 -30 38 -30 32 0 34 2 28 28 -9 36 -12 38 -27 22
-8 -9 -9 -11 0 -6 7 4 11 0 10 -12 -2 -29 -37 -26 -37 4 0 13 -4 24 -8 24 -5
0 -7 -13 -4 -30z"/>
<path d="M4720 790 c0 -16 5 -30 10 -30 6 0 10 14 10 30 0 17 -4 30 -10 30 -5
0 -10 -13 -10 -30z"/>
<path d="M4758 790 c2 -16 8 -30 13 -30 10 0 12 21 3 44 -10 27 -21 18 -16
-14z"/>
<path d="M4795 810 c-3 -6 -3 -10 2 -9 22 4 25 -2 7 -15 -26 -19 -15 -26 40
-28 39 0 46 -3 41 -17 -5 -12 -3 -13 6 -4 13 13 4 33 -17 33 -8 0 -14 9 -14
20 0 11 5 20 11 20 6 0 9 -7 5 -15 -3 -8 -1 -15 3 -15 17 0 20 28 4 34 -20 8
-43 -11 -36 -30 3 -8 0 -14 -5 -14 -6 0 -12 10 -14 22 -3 24 -23 35 -33 18z"/>
<path d="M4917 813 c-4 -3 -7 -17 -7 -30 0 -18 5 -23 23 -22 16 1 18 2 5 6
-24 6 -23 19 3 26 12 3 18 10 14 16 -7 12 -28 14 -38 4z"/>
<path d="M4970 789 c0 -16 4 -29 8 -29 5 0 8 10 8 21 -1 12 5 24 13 27 10 3
13 -2 9 -22 -3 -16 -1 -26 7 -26 6 0 11 10 11 21 -1 12 5 24 13 27 10 3 13 -2
9 -22 -4 -17 -1 -26 8 -26 9 0 10 8 5 28 -7 24 -12 27 -49 28 -40 1 -42 -1
-42 -27z"/>
<path d="M5081 807 c-16 -20 -3 -47 23 -46 16 1 17 2 4 6 -22 6 -24 23 -2 23
9 0 14 5 12 12 -6 18 -24 20 -37 5z"/>
<path d="M5135 790 c0 -16 5 -30 11 -30 6 0 9 13 6 30 -2 17 -7 30 -11 30 -3
0 -6 -13 -6 -30z"/>
<path d="M5169 807 c7 -9 11 -24 7 -32 -3 -9 0 -15 8 -15 19 0 6 52 -15 58
-12 5 -12 3 0 -11z"/>
<path d="M4840 740 c0 -6 7 -10 15 -10 8 0 15 2 15 4 0 2 -7 6 -15 10 -8 3
-15 1 -15 -4z"/>
<path d="M6737 2556 c83 -43 83 -44 83 -398 0 -291 -1 -304 -21 -338 -23 -37
-36 -48 -84 -67 -19 -7 -23 -12 -12 -12 25 -1 67 22 97 54 l25 27 3 321 c2
219 -1 329 -8 348 -17 40 -61 78 -100 85 -32 6 -31 4 17 -20z"/>
<path d="M395 2546 c-16 -7 -41 -26 -55 -41 l-25 -27 -3 -311 c-2 -196 1 -325
7 -347 14 -47 58 -88 101 -95 l35 -5 -40 19 c-22 10 -51 31 -65 46 l-25 27 -3
301 c-2 189 1 315 7 337 12 41 53 83 96 98 17 6 23 11 15 11 -8 0 -28 -6 -45
-13z"/>
<path d="M6205 2245 c0 -29 4 -45 13 -45 7 0 12 15 12 40 0 22 4 40 8 40 16 0
21 -13 12 -31 -8 -14 -5 -21 12 -33 28 -20 49 -21 22 -2 -11 9 -19 26 -19 43
0 24 -4 28 -30 31 -29 3 -30 2 -30 -43z"/>
<path d="M6511 2253 c-1 -45 -21 -62 -21 -18 0 14 -4 25 -8 25 -5 0 -7 -13 -4
-30 3 -23 9 -30 26 -30 19 0 22 4 18 38 -5 56 -10 62 -11 15z"/>
<path d="M576 2263 c-10 -10 -7 -25 4 -18 6 3 10 1 10 -4 0 -6 -6 -11 -13 -11
-8 0 -19 -11 -25 -25 -6 -14 -8 -25 -3 -25 5 0 11 9 14 20 3 11 12 20 21 20 9
0 16 -8 16 -20 0 -11 6 -20 14 -20 13 0 13 4 0 28 -7 15 -14 32 -14 39 0 15
-15 25 -24 16z"/>
<path d="M676 2255 c4 -9 0 -15 -9 -15 -21 0 -38 -25 -31 -44 4 -11 18 -16 45
-16 37 0 39 2 39 30 0 17 -5 30 -10 30 -6 0 -8 -11 -4 -25 4 -15 2 -25 -5 -25
-6 0 -11 17 -11 40 0 22 -4 40 -10 40 -5 0 -7 -7 -4 -15z m0 -36 c10 -17 -13
-36 -27 -22 -12 12 -4 33 11 33 5 0 12 -5 16 -11z"/>
<path d="M6321 2246 c-15 -17 -4 -46 18 -45 10 0 11 2 4 6 -7 2 -13 14 -13 25
0 14 5 18 16 14 8 -3 12 -2 9 4 -9 14 -21 12 -34 -4z"/>
<path d="M6399 2247 c6 -8 7 -18 3 -23 -4 -4 1 -2 11 5 14 11 15 16 5 22 -20
13 -32 10 -19 -4z"/>
<path d="M6443 2236 c1 -17 9 -31 17 -33 10 -3 11 -2 4 4 -7 4 -14 19 -17 33
-4 22 -5 21 -4 -4z"/>
<path d="M6545 2251 c-3 -7 0 -8 9 -5 9 3 16 2 16 -4 0 -5 -7 -12 -15 -16 -22
-8 -18 -26 6 -26 16 0 20 5 17 27 -3 28 -22 41 -33 24z"/>
<path d="M6598 2228 c-3 -18 0 -28 8 -28 8 0 11 6 8 15 -4 8 -1 21 5 28 8 10
7 14 -3 14 -8 0 -16 -13 -18 -29z"/>
<path d="M6372 2213 c1 -24 5 -43 10 -43 4 0 7 6 6 13 -2 6 4 12 12 12 8 0 14
-7 12 -15 -3 -11 -1 -12 8 -3 16 15 4 33 -21 33 -11 0 -18 4 -15 8 2 4 1 14
-5 22 -6 10 -8 2 -7 -27z"/>
<path d="M738 2210 c2 -16 8 -30 12 -30 12 0 5 53 -7 57 -5 2 -8 -10 -5 -27z"/>
<path d="M778 2210 c3 -23 9 -30 26 -30 20 0 22 4 17 33 -5 31 -6 31 -9 5 -4
-35 -22 -37 -22 -3 0 14 -4 25 -8 25 -5 0 -7 -13 -4 -30z"/>
<path d="M848 2210 c-3 -19 0 -30 7 -30 7 0 10 11 7 30 -2 17 -5 30 -7 30 -2
0 -5 -13 -7 -30z"/>
<path d="M879 2232 c8 -6 12 -19 8 -31 -3 -12 -1 -21 5 -21 15 0 5 53 -12 57
-12 4 -13 3 -1 -5z"/>
<path d="M6278 2095 c2 -19 10 -39 18 -45 16 -15 57 -9 60 8 1 7 0 8 -3 2 -2
-5 -15 -10 -29 -10 -25 0 -42 35 -30 65 3 8 0 15 -7 15 -9 0 -12 -11 -9 -35z"/>
<path d="M6355 2120 c3 -5 8 -10 11 -10 2 0 4 5 4 10 0 6 -5 10 -11 10 -5 0
-7 -4 -4 -10z"/>
<path d="M589 2068 c5 -35 10 -44 29 -46 13 -2 29 1 36 8 17 13 26 80 11 80
-5 0 -10 -17 -10 -37 0 -34 -3 -38 -25 -38 -22 0 -25 4 -25 38 0 20 -5 37 -11
37 -6 0 -8 -16 -5 -42z"/>
<path d="M6385 2090 c-3 -5 1 -20 9 -32 13 -18 16 -19 16 -6 0 9 -5 20 -11 24
-8 4 -7 9 2 15 10 6 10 9 2 9 -6 0 -15 -4 -18 -10z"/>
<path d="M6445 2090 c3 -5 11 -10 16 -10 6 0 7 5 4 10 -3 6 -11 10 -16 10 -6
0 -7 -4 -4 -10z"/>
<path d="M6484 2070 c1 -36 16 -40 16 -5 0 30 11 32 35 5 17 -19 17 -20 0 -20
-10 0 -16 -3 -12 -6 3 -4 14 -4 23 0 16 6 16 8 0 25 -13 14 -14 20 -4 23 7 3
-3 5 -23 6 -34 1 -36 -1 -35 -28z"/>
<path d="M686 2071 c-3 -5 1 -15 10 -22 14 -12 14 -14 -3 -20 -16 -7 -16 -8
-1 -8 24 -1 31 14 12 29 -12 11 -12 15 -2 21 9 6 9 9 1 9 -6 0 -14 -4 -17 -9z"/>
<path d="M734 2065 c-9 -23 3 -45 23 -44 17 1 17 2 1 6 -10 2 -18 14 -18 25 0
14 5 18 15 14 8 -3 15 -1 15 4 0 16 -30 11 -36 -5z"/>
<path d="M790 2048 c0 -15 4 -28 10 -28 5 0 7 7 4 15 -4 8 -1 21 5 28 8 10 7
14 -4 14 -10 0 -15 -10 -15 -29z"/>
<path d="M835 2070 c-3 -5 1 -20 9 -32 13 -18 16 -19 16 -6 0 9 -5 20 -11 24
-8 4 -7 9 2 15 10 6 10 9 2 9 -6 0 -15 -4 -18 -10z"/>
<path d="M6420 2065 c0 -9 7 -18 15 -22 23 -8 24 0 3 20 -15 14 -18 15 -18 2z"/>
<path d="M215 1500 c-4 -6 7 -10 24 -10 17 0 31 5 31 10 0 6 -11 10 -24 10
-14 0 -28 -4 -31 -10z"/>
<path d="M320 1500 c0 -5 14 -10 30 -10 17 0 30 5 30 10 0 6 -13 10 -30 10
-16 0 -30 -4 -30 -10z"/>
<path d="M425 1500 c-4 -6 7 -10 24 -10 17 0 31 5 31 10 0 6 -11 10 -24 10
-14 0 -28 -4 -31 -10z"/>
<path d="M530 1500 c0 -5 14 -10 30 -10 17 0 30 5 30 10 0 6 -13 10 -30 10
-16 0 -30 -4 -30 -10z"/>
<path d="M635 1500 c-4 -6 7 -10 24 -10 17 0 31 5 31 10 0 6 -11 10 -24 10
-14 0 -28 -4 -31 -10z"/>
<path d="M740 1500 c0 -5 14 -10 30 -10 17 0 30 5 30 10 0 6 -13 10 -30 10
-16 0 -30 -4 -30 -10z"/>
<path d="M845 1500 c-4 -6 7 -10 24 -10 17 0 31 5 31 10 0 6 -11 10 -24 10
-14 0 -28 -4 -31 -10z"/>
<path d="M950 1500 c0 -5 14 -10 30 -10 17 0 30 5 30 10 0 6 -13 10 -30 10
-16 0 -30 -4 -30 -10z"/>
<path d="M1055 1500 c-4 -6 7 -10 24 -10 17 0 31 5 31 10 0 6 -11 10 -24 10
-14 0 -28 -4 -31 -10z"/>
<path d="M1160 1500 c0 -5 14 -10 30 -10 17 0 30 5 30 10 0 6 -13 10 -30 10
-16 0 -30 -4 -30 -10z"/>
<path d="M1265 1500 c-4 -6 7 -10 24 -10 17 0 31 5 31 10 0 6 -11 10 -24 10
-14 0 -28 -4 -31 -10z"/>
<path d="M1370 1500 c0 -5 14 -10 30 -10 17 0 30 5 30 10 0 6 -13 10 -30 10
-16 0 -30 -4 -30 -10z"/>
<path d="M190 1436 c0 -14 5 -28 10 -31 6 -4 10 7 10 24 0 17 -4 31 -10 31 -5
0 -10 -11 -10 -24z"/>
<path d="M197 1353 c-11 -10 -8 -53 3 -53 6 0 10 14 10 30 0 31 -2 35 -13 23z"/>
<path d="M190 1226 c0 -14 5 -28 10 -31 6 -4 10 7 10 24 0 17 -4 31 -10 31 -5
0 -10 -11 -10 -24z"/>
<path d="M425 1206 c-16 -7 -41 -26 -55 -41 -24 -26 -25 -32 -28 -191 l-3
-164 -30 0 c-16 0 -29 -4 -29 -10 0 -5 14 -10 30 -10 l30 0 0 -145 c0 -156 8
-192 52 -232 13 -13 39 -25 58 -28 l35 -5 -40 19 c-22 10 -51 31 -65 46 l-25
27 -3 301 c-2 189 1 315 7 337 12 41 53 83 96 98 17 6 23 11 15 11 -8 0 -28
-6 -45 -13z"/>
<path d="M1065 1201 c22 -10 51 -31 65 -46 l25 -27 3 -296 c2 -163 0 -312 -3
-330 -8 -43 -58 -99 -96 -107 -17 -4 -28 -9 -25 -12 10 -11 74 19 102 48 l29
30 3 312 c2 196 -1 325 -7 347 -14 47 -58 88 -101 95 l-35 5 40 -19z"/>
<path d="M197 1143 c-11 -10 -8 -53 3 -53 6 0 10 14 10 30 0 31 -2 35 -13 23z"/>
<path d="M190 1016 c0 -14 5 -28 10 -31 6 -4 10 7 10 24 0 17 -4 31 -10 31 -5
0 -10 -11 -10 -24z"/>
<path d="M197 933 c-11 -10 -8 -53 3 -53 6 0 10 14 10 30 0 31 -2 35 -13 23z"/>
<path d="M535 885 c0 -44 1 -45 33 -45 17 0 32 4 32 9 0 4 -11 6 -25 3 -18 -3
-25 0 -25 12 0 9 8 16 20 16 11 0 20 4 20 9 0 5 -9 7 -20 4 -14 -4 -20 0 -20
12 0 13 6 16 25 13 13 -3 22 -1 19 3 -3 5 -17 9 -32 9 -25 0 -27 -3 -27 -45z"/>
<path d="M951 893 c-1 -41 -21 -64 -21 -24 0 11 -4 22 -9 25 -4 3 -7 -6 -5
-20 2 -19 -1 -24 -12 -20 -8 3 -14 1 -14 -4 0 -6 17 -10 38 -10 38 0 38 0 34
38 -5 56 -10 62 -11 15z"/>
<path d="M680 875 c0 -27 4 -35 18 -34 10 0 12 3 5 6 -16 6 -17 40 -1 45 7 3
6 7 -5 11 -14 5 -17 0 -17 -28z"/>
<path d="M628 870 c9 -16 23 -30 31 -30 11 0 11 3 1 15 -10 12 -10 18 0 30 8
9 8 15 2 15 -6 0 -13 -6 -16 -12 -5 -10 -7 -10 -12 0 -3 6 -10 12 -14 12 -5 0
-1 -13 8 -30z"/>
<path d="M721 886 c-15 -17 -4 -46 18 -45 10 0 11 2 4 6 -7 2 -13 14 -13 25 0
14 5 18 16 14 8 -3 12 -2 9 4 -9 14 -21 12 -34 -4z"/>
<path d="M778 868 c-3 -18 0 -28 8 -28 8 0 11 6 8 15 -4 8 -1 21 5 28 8 10 7
14 -3 14 -8 0 -16 -13 -18 -29z"/>
<path d="M828 870 c-3 -19 0 -30 7 -30 7 0 10 11 7 30 -2 17 -5 30 -7 30 -2 0
-5 -13 -7 -30z"/>
<path d="M859 892 c8 -6 12 -19 8 -31 -3 -12 -1 -21 5 -21 15 0 5 53 -12 57
-12 4 -13 3 -1 -5z"/>
<path d="M615 850 c-3 -5 -1 -10 4 -10 6 0 11 5 11 10 0 6 -2 10 -4 10 -3 0
-8 -4 -11 -10z"/>
<path d="M190 815 c0 -18 24 -30 40 -20 8 5 5 11 -7 21 -24 18 -33 17 -33 -1z"/>
<path d="M525 725 c0 -25 5 -45 10 -45 6 0 9 19 7 45 -2 25 -7 45 -11 45 -3 0
-6 -20 -6 -45z"/>
<path d="M578 754 c27 -18 28 -31 5 -57 -17 -19 -17 -20 5 -8 37 19 24 81 -17
81 -11 0 -9 -5 7 -16z"/>
<path d="M771 728 c-1 -41 2 -48 18 -48 10 0 24 6 30 14 15 18 3 46 -19 46
-10 0 -21 8 -23 18 -3 9 -5 -4 -6 -30z m42 -13 c8 -18 -11 -31 -25 -17 -11 11
-3 32 12 32 4 0 10 -7 13 -15z"/>
<path d="M680 715 c0 -27 4 -35 18 -34 10 0 12 3 5 6 -16 6 -17 40 -1 45 7 3
6 7 -5 11 -14 5 -17 0 -17 -28z"/>
<path d="M646 714 c2 -19 -1 -24 -12 -20 -8 3 -14 1 -14 -4 0 -6 11 -10 24
-10 19 0 22 4 18 25 -6 34 -20 41 -16 9z"/>
<path d="M724 728 c-4 -7 -3 -8 4 -4 7 4 12 3 12 -3 0 -5 -4 -13 -10 -16 -16
-10 -11 -25 8 -25 15 0 18 6 14 30 -4 31 -16 38 -28 18z"/>
<path d="M844 728 c-4 -7 -3 -8 4 -4 7 4 12 3 12 -3 0 -5 -4 -13 -10 -16 -16
-10 -11 -25 8 -25 15 0 18 6 14 30 -4 31 -16 38 -28 18z"/>
<path d="M895 730 c-3 -5 1 -20 9 -32 13 -18 16 -19 16 -6 0 9 -5 20 -11 24
-8 4 -7 9 2 15 10 6 10 9 2 9 -6 0 -15 -4 -18 -10z"/>
<path d="M955 730 c3 -5 11 -10 16 -10 6 0 7 5 4 10 -3 6 -11 10 -16 10 -6 0
-7 -4 -4 -10z"/>
<path d="M930 705 c0 -9 7 -18 15 -22 23 -8 24 0 3 20 -15 14 -18 15 -18 2z"/>
</g>
</svg>
