<svg width="253" height="70" viewBox="0 0 253 70" fill="none" xmlns="http://www.w3.org/2000/svg">
<path fill-rule="evenodd" clip-rule="evenodd" d="M251.073 25.6372H240.01C239.658 25.6372 239.481 25.7926 239.481 26.0981V27.0225C239.481 27.8907 239.678 28.515 240.075 28.8928C240.472 29.2706 241.14 29.4609 242.081 29.4609H250.983C251.6 29.4609 251.91 29.769 251.91 30.3853V33.1586C251.91 33.4668 251.845 33.6838 251.713 33.8098C251.58 33.9357 251.338 34 250.986 34H241.244C238.923 34 237.131 33.4132 235.867 32.2369C234.602 31.0606 233.971 29.3671 233.971 27.1538V19.4234C233.971 17.2128 234.602 15.5166 235.867 14.3403C237.129 13.164 238.923 12.5772 241.244 12.5772H244.726C247.048 12.5772 248.839 13.164 250.104 14.3403C251.366 15.5166 252 17.2101 252 19.4234V24.7583C252 25.3451 251.69 25.6399 251.073 25.6399V25.6372ZM246.49 19.5895C246.49 18.6945 246.298 18.0622 245.918 17.7004C245.535 17.336 244.876 17.1538 243.935 17.1538H242.084C241.143 17.1538 240.481 17.336 240.101 17.7004C239.717 18.0648 239.529 18.6945 239.529 19.5895V21.6045C239.529 21.9126 239.689 22.0654 240.013 22.0654H246.008C246.332 22.0654 246.493 21.9126 246.493 21.6045V19.5895H246.49ZM222.533 33.9812H214.138C213.55 33.9812 213.254 33.6865 213.254 33.0997V30.4121C213.254 30.104 213.313 29.8869 213.431 29.761C213.55 29.635 213.783 29.5734 214.138 29.5734H221.516C222.959 29.5734 223.683 29.1527 223.683 28.314V28.105C223.683 27.4325 223.08 26.7894 221.871 26.1731L217.496 23.8633C215.995 23.1372 214.89 22.3521 214.183 21.5134C213.476 20.6747 213.124 19.5975 213.124 18.2819C213.124 16.3231 213.668 14.8816 214.758 13.9598C215.848 13.0354 217.555 12.5745 219.882 12.5745H227.26C227.849 12.5745 228.145 12.8692 228.145 13.4561V16.1838C228.145 16.492 228.086 16.709 227.967 16.8349C227.849 16.9609 227.615 17.0225 227.26 17.0225H221.119C219.677 17.0225 218.953 17.3735 218.953 18.0729V18.2819C218.953 18.8982 219.587 19.5279 220.851 20.171L225.314 22.6897C226.846 23.4721 227.92 24.2787 228.539 25.104C229.159 25.9293 229.466 27.0145 229.466 28.3569C229.466 32.1083 227.153 33.9812 222.53 33.9812H222.533ZM207.645 33.9973H203.912C203.29 33.9973 202.98 33.7026 202.98 33.1158V31.7304H202.802C202.476 32.4861 201.898 33.0541 201.07 33.4319C200.239 33.8098 199.366 34 198.447 34H197.379C195.038 34 193.23 33.4132 191.957 32.2369C190.683 31.0606 190.044 29.3671 190.044 27.1538V19.4234C190.044 17.2128 190.68 15.5166 191.957 14.3403C193.23 13.164 195.038 12.5772 197.379 12.5772H207.648C208.299 12.5772 208.625 12.8719 208.625 13.4587V33.1184C208.625 33.7053 208.299 34 207.648 34L207.645 33.9973ZM202.977 17.6576C202.977 17.3494 202.8 17.1967 202.445 17.1967H198.267C197.317 17.1967 196.653 17.3869 196.267 17.7647C195.881 18.1426 195.689 18.7803 195.689 19.6752V26.8993C195.689 27.7969 195.881 28.4319 196.267 28.8098C196.653 29.1876 197.317 29.3778 198.267 29.3778H199.912C201.957 29.3778 202.98 28.314 202.98 26.1865V17.6602L202.977 17.6576ZM185.167 33.9973H179.215C176.91 33.9973 175.133 33.4105 173.879 32.2342C172.626 31.0579 171.997 29.3644 171.997 27.1511V19.4207C171.997 17.2101 172.623 15.5139 173.879 14.3376C175.133 13.1613 176.91 12.5745 179.215 12.5745H185.167C185.779 12.5745 186.086 12.8692 186.086 13.4561V16.3553C186.086 16.6634 186.021 16.8805 185.889 17.0064C185.756 17.1324 185.517 17.1967 185.167 17.1967H180.088C179.184 17.1967 178.536 17.3869 178.142 17.7647C177.747 18.1426 177.55 18.7803 177.55 19.6752V26.8993C177.55 27.7969 177.747 28.4319 178.142 28.8098C178.536 29.1876 179.184 29.3778 180.088 29.3778H185.167C185.779 29.3778 186.086 29.6726 186.086 30.2594V33.1586C186.086 33.4668 186.021 33.6838 185.889 33.8098C185.756 33.9357 185.517 34 185.167 34V33.9973ZM167.445 33.1158C167.445 33.7026 167.141 33.9973 166.532 33.9973H162.836C162.228 33.9973 161.924 33.7026 161.924 33.1158V31.7304H161.749C161.431 32.4861 160.864 33.0541 160.053 33.4319C159.242 33.8098 158.385 34 157.487 34H155.703C153.469 34 151.782 33.4132 150.636 32.2369C149.489 31.0606 148.917 29.3671 148.917 27.1538V19.426C148.917 17.2154 149.489 15.5193 150.636 14.343C151.779 13.1667 153.469 12.5798 155.703 12.5798H157.487C158.385 12.5798 159.242 12.7701 160.053 13.1479C160.864 13.5257 161.431 14.0938 161.749 14.8494H161.924V4C165.003 4 167.501 6.29368 167.504 9.1179C167.507 11.9421 167.448 33.1184 167.448 33.1184L167.445 33.1158ZM161.921 20.388C161.921 18.2605 160.921 17.1967 158.921 17.1967H156.963C156.033 17.1967 155.382 17.3869 155.005 17.7647C154.627 18.1426 154.439 18.7803 154.439 19.6752V26.8993C154.439 27.7969 154.627 28.4319 155.005 28.8098C155.382 29.1876 156.033 29.3778 156.963 29.3778H158.921C160.921 29.3778 161.921 28.314 161.921 26.1865V20.3907V20.388ZM143.483 25.6372H132.42C132.068 25.6372 131.891 25.7926 131.891 26.0981V27.0225C131.891 27.8907 132.088 28.515 132.485 28.8928C132.882 29.2706 133.55 29.4609 134.491 29.4609H143.393C144.01 29.4609 144.32 29.769 144.32 30.3853V33.1586C144.32 33.4668 144.255 33.6838 144.122 33.8098C143.99 33.9357 143.748 34 143.396 34H133.654C131.333 34 129.541 33.4132 128.276 32.2369C127.011 31.0606 126.38 29.3671 126.38 27.1538V19.4234C126.38 17.2128 127.011 15.5166 128.276 14.3403C129.538 13.164 131.333 12.5772 133.654 12.5772H137.136C139.457 12.5772 141.249 13.164 142.514 14.3403C143.776 15.5166 144.41 17.2101 144.41 19.4234V24.7583C144.41 25.3451 144.1 25.6399 143.483 25.6399V25.6372ZM138.9 19.5895C138.9 18.6945 138.708 18.0622 138.328 17.7004C137.945 17.336 137.285 17.1538 136.344 17.1538H134.494C133.553 17.1538 132.891 17.336 132.51 17.7004C132.127 18.0648 131.938 18.6945 131.938 19.5895V21.6045C131.938 21.9126 132.099 22.0654 132.423 22.0654H138.418C138.742 22.0654 138.902 21.9126 138.902 21.6045V19.5895H138.9ZM120.946 25.6372H109.883C109.531 25.6372 109.354 25.7926 109.354 26.0981V27.0225C109.354 27.8907 109.551 28.515 109.948 28.8928C110.345 29.2706 111.013 29.4609 111.954 29.4609H120.856C121.473 29.4609 121.783 29.769 121.783 30.3853V33.1586C121.783 33.4668 121.718 33.6838 121.586 33.8098C121.453 33.9357 121.211 34 120.859 34H111.117C108.796 34 107.004 33.4132 105.74 32.2369C104.475 31.0606 103.844 29.3671 103.844 27.1538V19.4234C103.844 17.2128 104.475 15.5166 105.74 14.3403C107.002 13.164 108.796 12.5772 111.117 12.5772H114.599C116.921 12.5772 118.712 13.164 119.977 14.3403C121.239 15.5166 121.873 17.2101 121.873 19.4234V24.7583C121.873 25.3451 121.563 25.6399 120.946 25.6399V25.6372ZM116.363 19.5895C116.363 18.6945 116.171 18.0622 115.791 17.7004C115.408 17.336 114.749 17.1538 113.808 17.1538H111.957C111.016 17.1538 110.354 17.336 109.974 17.7004C109.591 18.0648 109.402 18.6945 109.402 19.5895V21.6045C109.402 21.9126 109.562 22.0654 109.886 22.0654H115.881C116.205 22.0654 116.366 21.9126 116.366 21.6045V19.5895H116.363ZM92.3978 33.9973H84.0113C83.4226 33.9973 83.1296 33.7026 83.1296 33.1158V30.4282C83.1296 30.12 83.1887 29.903 83.3071 29.7771C83.4254 29.6511 83.6592 29.5868 84.0142 29.5868H91.3837C92.826 29.5868 93.5472 29.1661 93.5472 28.3274V28.1184C93.5472 27.4459 92.9443 26.8028 91.7386 26.1865L87.3693 23.8767C85.8678 23.1479 84.7663 22.3655 84.0592 21.5241C83.3521 20.6827 83 19.6056 83 18.2899C83 16.3312 83.5437 14.8869 84.6339 13.9625C85.7213 13.038 87.4285 12.5772 89.7526 12.5772H97.1221C97.7108 12.5772 98.0038 12.8719 98.0038 13.4587V16.1892C98.0038 16.4973 97.9447 16.7144 97.8263 16.8403C97.708 16.9662 97.4742 17.0306 97.1193 17.0306H90.9836C89.5413 17.0306 88.8201 17.3816 88.8201 18.0809V18.2899C88.8201 18.9062 89.4511 19.5359 90.7188 20.179L95.1755 22.7004C96.7051 23.4855 97.7785 24.2894 98.3982 25.1147C99.0152 25.94 99.325 27.0252 99.325 28.3703C99.325 32.1243 97.015 34 92.395 34L92.3978 33.9973Z" fill="#024639"/>
<path d="M84.48 68.11H82.905C82.5783 68.11 82.415 67.9467 82.415 67.62V45.64C82.415 45.3133 82.5783 45.15 82.905 45.15H84.48C84.8067 45.15 84.97 45.3133 84.97 45.64V47.005H85.11C85.6933 45.7683 86.8833 45.15 88.68 45.15H90.78C92.3667 45.15 93.5917 45.605 94.455 46.515C95.3417 47.425 95.785 48.6967 95.785 50.33V57.82C95.785 59.4533 95.3417 60.725 94.455 61.635C93.5917 62.545 92.3667 63 90.78 63H88.68C86.8833 63 85.6933 62.3817 85.11 61.145H84.97V67.62C84.97 67.9467 84.8067 68.11 84.48 68.11ZM88.225 60.76H90.29C92.2733 60.76 93.265 59.745 93.265 57.715V50.435C93.265 48.405 92.2733 47.39 90.29 47.39H88.225C87.175 47.39 86.37 47.67 85.81 48.23C85.25 48.79 84.97 49.5833 84.97 50.61V57.54C84.97 58.5667 85.25 59.36 85.81 59.92C86.37 60.48 87.175 60.76 88.225 60.76ZM103.722 63H102.147C101.82 63 101.657 62.8367 101.657 62.51V45.64C101.657 45.3133 101.82 45.15 102.147 45.15H103.722C104.048 45.15 104.212 45.3133 104.212 45.64V47.04H104.352C104.585 46.5267 105.028 46.0833 105.682 45.71C106.335 45.3367 107.105 45.15 107.992 45.15H109.357C109.66 45.15 109.812 45.3133 109.812 45.64V46.935C109.812 47.0983 109.777 47.2267 109.707 47.32C109.637 47.39 109.52 47.4133 109.357 47.39H107.467C106.417 47.39 105.612 47.705 105.052 48.335C104.492 48.965 104.212 49.8283 104.212 50.925V62.51C104.212 62.8367 104.048 63 103.722 63ZM122.21 63H119.2C117.59 63 116.319 62.545 115.385 61.635C114.475 60.725 114.02 59.4533 114.02 57.82V50.33C114.02 48.6967 114.475 47.425 115.385 46.515C116.319 45.605 117.59 45.15 119.2 45.15H122.21C123.82 45.15 125.08 45.605 125.99 46.515C126.924 47.425 127.39 48.6967 127.39 50.33V57.82C127.39 59.4533 126.924 60.725 125.99 61.635C125.08 62.545 123.82 63 122.21 63ZM119.48 60.76H121.93C123.89 60.76 124.87 59.7567 124.87 57.75V50.4C124.87 48.3933 123.89 47.39 121.93 47.39H119.48C117.52 47.39 116.54 48.3933 116.54 50.4V57.75C116.54 59.7567 117.52 60.76 119.48 60.76ZM133.445 42.21V38.92C133.445 38.5933 133.597 38.43 133.9 38.43H135.51C135.837 38.43 136 38.5933 136 38.92V42.21C136 42.5367 135.837 42.7 135.51 42.7H133.9C133.597 42.7 133.445 42.5367 133.445 42.21ZM130.82 68.18H129.385C129.059 68.18 128.895 68.0167 128.895 67.69V66.395C128.895 66.0683 129.059 65.905 129.385 65.905H130.19C132.36 65.905 133.445 64.8083 133.445 62.615V45.64C133.445 45.3133 133.609 45.15 133.935 45.15H135.51C135.837 45.15 136 45.3133 136 45.64V62.965C136 64.575 135.534 65.8467 134.6 66.78C133.69 67.7133 132.43 68.18 130.82 68.18ZM154.645 63H147.225C145.615 63 144.343 62.545 143.41 61.635C142.5 60.725 142.045 59.4533 142.045 57.82V50.33C142.045 48.6967 142.5 47.425 143.41 46.515C144.343 45.605 145.615 45.15 147.225 45.15H150.165C151.775 45.15 153.035 45.605 153.945 46.515C154.855 47.425 155.31 48.6967 155.31 50.33V54.775C155.31 55.125 155.147 55.3 154.82 55.3H144.915C144.682 55.3 144.565 55.405 144.565 55.615V57.75C144.565 59.78 145.545 60.795 147.505 60.795H154.645C154.972 60.795 155.135 60.9583 155.135 61.285V62.545C155.135 62.8483 154.972 63 154.645 63ZM144.915 53.445H152.475C152.708 53.445 152.825 53.3283 152.825 53.095V50.4C152.825 48.3933 151.845 47.39 149.885 47.39H147.505C145.545 47.39 144.565 48.3933 144.565 50.4V53.095C144.565 53.3283 144.682 53.445 144.915 53.445ZM171.416 61.25V62.545C171.416 62.8483 171.253 63 170.926 63H165.851C164.241 63 162.97 62.545 162.036 61.635C161.126 60.725 160.671 59.4533 160.671 57.82V50.33C160.671 48.6967 161.126 47.425 162.036 46.515C162.97 45.605 164.241 45.15 165.851 45.15H170.926C171.253 45.15 171.416 45.3133 171.416 45.64V46.935C171.416 47.2383 171.253 47.39 170.926 47.39H166.131C164.195 47.39 163.226 48.405 163.226 50.435V57.715C163.226 59.745 164.195 60.76 166.131 60.76H170.926C171.253 60.76 171.416 60.9233 171.416 61.25ZM177.066 47.39H175.141C174.814 47.39 174.651 47.2383 174.651 46.935V45.64C174.651 45.3133 174.814 45.15 175.141 45.15H177.066C177.299 45.15 177.416 45.045 177.416 44.835V41.825C177.416 41.4983 177.579 41.335 177.906 41.335H179.481C179.784 41.335 179.936 41.4983 179.936 41.825V44.835C179.936 45.045 180.064 45.15 180.321 45.15H184.031C184.381 45.15 184.556 45.3133 184.556 45.64V46.935C184.556 47.2383 184.381 47.39 184.031 47.39H180.321C180.064 47.39 179.936 47.495 179.936 47.705V57.785C179.936 59.7683 180.963 60.76 183.016 60.76H184.381C184.731 60.76 184.906 60.9233 184.906 61.25V62.545C184.906 62.8483 184.731 63 184.381 63H182.701C181.091 63 179.808 62.5567 178.851 61.67C177.894 60.76 177.416 59.5 177.416 57.89V47.705C177.416 47.495 177.299 47.39 177.066 47.39Z" fill="#024639" fill-opacity="0.8"/>
<path fill-rule="evenodd" clip-rule="evenodd" d="M64.0001 20.5165L49.4835 5.99986C41.4837 -1.99995 28.5163 -1.99995 20.5165 5.99986L5.99986 20.5165C-1.99995 28.5163 -1.99995 41.4837 5.99986 49.4835L20.5165 64.0001C28.5163 72 41.4837 72 49.4835 64.0001L64.0001 49.4835C72 41.4837 72 28.5163 64.0001 20.5165ZM27.7417 56.7386L20.4866 49.4921C24.494 45.489 30.9894 45.489 34.9968 49.4921L42.2519 56.7386C38.2445 60.7417 31.7491 60.7417 27.7417 56.7386ZM47.0851 51.9033L22.9128 27.7566C20.2391 25.0851 20.2348 20.7555 22.9064 18.0881L47.0787 42.2348C49.7524 44.9064 49.7567 49.236 47.0851 51.9033ZM34.9947 20.493L27.7396 13.2464C31.7469 9.24332 38.2424 9.24332 42.2498 13.2464L49.5049 20.493C45.4975 24.4961 39.002 24.4961 34.9947 20.493Z" fill="#024639"/>
<path d="M34.9947 20.493L27.7396 13.2464C31.7469 9.24332 38.2424 9.24332 42.2498 13.2464L49.5049 20.493C45.4975 24.4961 39.002 24.4961 34.9947 20.493Z" fill="#48DC76"/>
<path d="M47.0851 51.9033L22.9128 27.7566C20.2391 25.0851 20.2348 20.7555 22.9064 18.0881L47.0787 42.2348C49.7524 44.9064 49.7567 49.236 47.0851 51.9033Z" fill="#48DC76"/>
<path d="M27.7417 56.7386L20.4866 49.4921C24.494 45.489 30.9894 45.489 34.9968 49.4921L42.2519 56.7386C38.2445 60.7417 31.7491 60.7417 27.7417 56.7386Z" fill="#48DC76"/>
</svg>
