<svg width="220" height="70" viewBox="0 0 220 70" fill="none" xmlns="http://www.w3.org/2000/svg">
<path fill-rule="evenodd" clip-rule="evenodd" d="M143.991 25H141.938C140.361 25 139.132 24.5562 138.25 23.6686C137.369 22.7809 136.928 21.5405 136.928 19.9474V12.6415C136.928 11.0484 137.369 9.80797 138.25 8.92034C139.132 8.03272 140.361 7.5889 141.938 7.5889H143.991C145.8 7.5889 146.995 8.19203 147.575 9.39829H147.714V1C147.714 1 150.305 1.375 150.305 4.375C150.305 7.375 150.219 24.522 150.219 24.522C150.219 24.8407 150.068 25 149.767 25H148.166C147.865 25 147.714 24.8407 147.714 24.522V23.1906H147.575C146.995 24.3969 145.8 25 143.991 25ZM147.714 12.9146V19.6743C147.714 20.6757 147.435 21.4495 146.879 21.9957C146.322 22.542 145.522 22.8151 144.478 22.8151H142.356C140.431 22.8151 139.468 21.825 139.468 19.845V12.744C139.468 10.7639 140.431 9.77383 142.356 9.77383H144.478C145.522 9.77383 146.322 10.0469 146.879 10.5932C147.435 11.1394 147.714 11.9132 147.714 12.9146Z" fill="#024639" fill-opacity="0.8"/>
<path fill-rule="evenodd" clip-rule="evenodd" d="M83.6263 25H89.8193C93.1363 25 94.7947 23.6344 94.7947 20.9033C94.7947 19.5832 94.5743 18.5477 94.1336 17.7966C93.7161 17.0455 92.9042 16.4424 91.6981 15.9872L87.5926 14.1778C86.2705 13.6771 85.6094 12.9488 85.6094 11.9929V11.4125C85.6094 10.9573 85.8182 10.559 86.2357 10.2176C86.6764 9.87624 87.3143 9.70555 88.1493 9.70555H93.403C93.7277 9.70555 93.8901 9.55761 93.8901 9.26173V8.06686C93.8901 7.74822 93.7277 7.5889 93.403 7.5889H87.697C84.5657 7.5889 83 8.98862 83 11.788C83 12.8578 83.2551 13.7226 83.7654 14.3826C84.2757 15.0199 85.1223 15.5775 86.3053 16.0555L90.4108 17.7624C91.5938 18.2177 92.1852 19.0483 92.1852 20.2546V20.9033C92.1852 22.2233 91.2806 22.8834 89.4714 22.8834H83.6263C83.3015 22.8834 83.1392 23.0313 83.1392 23.3272V24.522C83.1392 24.8407 83.3015 25 83.6263 25ZM105.045 25H112.421C112.746 25 112.908 24.852 112.908 24.5562V23.3272C112.908 23.0085 112.746 22.8492 112.421 22.8492H105.323C103.375 22.8492 102.401 21.8592 102.401 19.8791V17.7966C102.401 17.5917 102.517 17.4893 102.749 17.4893H112.595C112.92 17.4893 113.082 17.3186 113.082 16.9772V12.6415C113.082 11.0484 112.63 9.80797 111.725 8.92034C110.821 8.03272 109.568 7.5889 107.968 7.5889H105.045C103.445 7.5889 102.181 8.03272 101.253 8.92034C100.348 9.80797 99.8958 11.0484 99.8958 12.6415V19.9474C99.8958 21.5405 100.348 22.7809 101.253 23.6686C102.181 24.5562 103.445 25 105.045 25ZM110.264 15.6799H102.749C102.517 15.6799 102.401 15.5661 102.401 15.3386V12.7098C102.401 10.7525 103.375 9.77383 105.323 9.77383H107.689C109.638 9.77383 110.612 10.7525 110.612 12.7098V15.3386C110.612 15.5661 110.496 15.6799 110.264 15.6799ZM123.561 25H130.937C131.262 25 131.424 24.852 131.424 24.5562V23.3272C131.424 23.0085 131.262 22.8492 130.937 22.8492H123.84C121.891 22.8492 120.917 21.8592 120.917 19.8791V17.7966C120.917 17.5917 121.033 17.4893 121.265 17.4893H131.111C131.436 17.4893 131.598 17.3186 131.598 16.9772V12.6415C131.598 11.0484 131.146 9.80797 130.241 8.92034C129.337 8.03272 128.084 7.5889 126.484 7.5889H123.561C121.961 7.5889 120.697 8.03272 119.769 8.92034C118.864 9.80797 118.412 11.0484 118.412 12.6415V19.9474C118.412 21.5405 118.864 22.7809 119.769 23.6686C120.697 24.5562 121.961 25 123.561 25ZM128.78 15.6799H121.265C121.033 15.6799 120.917 15.5661 120.917 15.3386V12.7098C120.917 10.7525 121.891 9.77383 123.84 9.77383H126.206C128.154 9.77383 129.128 10.7525 129.128 12.7098V15.3386C129.128 15.5661 129.012 15.6799 128.78 15.6799ZM166.737 24.5562V23.293C166.737 22.9744 166.575 22.8151 166.25 22.8151H161.483C159.558 22.8151 158.596 21.825 158.596 19.845V12.744C158.596 10.7639 159.558 9.77383 161.483 9.77383H166.25C166.575 9.77383 166.737 9.62589 166.737 9.33001V8.06686C166.737 7.74822 166.575 7.5889 166.25 7.5889H161.205C159.605 7.5889 158.341 8.03272 157.413 8.92034C156.508 9.80797 156.056 11.0484 156.056 12.6415V19.9474C156.056 21.5405 156.508 22.7809 157.413 23.6686C158.341 24.5562 159.605 25 161.205 25H166.25C166.575 25 166.737 24.852 166.737 24.5562ZM176.493 25H178.303C180.089 25 181.272 24.3969 181.852 23.1906H181.991V24.522C181.991 24.8407 182.153 25 182.478 25H184.043C184.368 25 184.531 24.8407 184.531 24.522V8.06686C184.531 7.74822 184.368 7.5889 184.043 7.5889H176.493C174.893 7.5889 173.629 8.03272 172.701 8.92034C171.796 9.80797 171.344 11.0484 171.344 12.6415V19.9474C171.344 21.5405 171.796 22.7809 172.701 23.6686C173.629 24.5562 174.893 25 176.493 25ZM181.991 10.0811V19.6743C181.991 20.6757 181.712 21.4495 181.156 21.9957C180.599 22.542 179.799 22.8151 178.755 22.8151H176.772C174.847 22.8151 173.884 21.825 173.884 19.845V12.744C173.884 10.7639 174.847 9.77383 176.772 9.77383H181.643C181.874 9.77383 181.991 9.87624 181.991 10.0811ZM190.544 25H196.737C200.054 25 201.712 23.6344 201.712 20.9033C201.712 19.5832 201.492 18.5477 201.051 17.7966C200.633 17.0455 199.822 16.4424 198.616 15.9872L194.51 14.1778C193.188 13.6771 192.527 12.9488 192.527 11.9929V11.4125C192.527 10.9573 192.736 10.559 193.153 10.2176C193.594 9.87624 194.232 9.70555 195.067 9.70555H200.32C200.645 9.70555 200.807 9.55761 200.807 9.26173V8.06686C200.807 7.74822 200.645 7.5889 200.32 7.5889H194.614C191.483 7.5889 189.917 8.98862 189.917 11.788C189.917 12.8578 190.173 13.7226 190.683 14.3826C191.194 15.0199 192.04 15.5775 193.223 16.0555L197.328 17.7624C198.511 18.2177 199.103 19.0483 199.103 20.2546V20.9033C199.103 22.2233 198.198 22.8834 196.389 22.8834H190.544C190.22 22.8834 190.057 23.0313 190.057 23.3272V24.522C190.057 24.8407 190.22 25 190.544 25ZM211.963 25H219.339C219.664 25 219.826 24.852 219.826 24.5562V23.3272C219.826 23.0085 219.664 22.8492 219.339 22.8492H212.241C210.293 22.8492 209.319 21.8592 209.319 19.8791V17.7966C209.319 17.5917 209.435 17.4893 209.667 17.4893H219.513C219.838 17.4893 220 17.3186 220 16.9772V12.6415C220 11.0484 219.548 9.80797 218.643 8.92034C217.738 8.03272 216.486 7.5889 214.885 7.5889H211.963C210.362 7.5889 209.098 8.03272 208.171 8.92034C207.266 9.80797 206.814 11.0484 206.814 12.6415V19.9474C206.814 21.5405 207.266 22.7809 208.171 23.6686C209.098 24.5562 210.362 25 211.963 25ZM217.182 15.6799H209.667C209.435 15.6799 209.319 15.5661 209.319 15.3386V12.7098C209.319 10.7525 210.293 9.77383 212.241 9.77383H214.607C216.556 9.77383 217.53 10.7525 217.53 12.7098V15.3386C217.53 15.5661 217.413 15.6799 217.182 15.6799Z" fill="#024639" fill-opacity="0.8"/>
<path fill-rule="evenodd" clip-rule="evenodd" d="M64.0001 20.5165L49.4835 5.99986C41.4837 -1.99995 28.5163 -1.99995 20.5165 5.99986L5.99986 20.5165C-1.99995 28.5163 -1.99995 41.4837 5.99986 49.4835L20.5165 64.0001C28.5163 72 41.4837 72 49.4835 64.0001L64.0001 49.4835C72 41.4837 72 28.5163 64.0001 20.5165ZM27.7417 56.7386L20.4866 49.4921C24.494 45.489 30.9894 45.489 34.9968 49.4921L42.2519 56.7386C38.2445 60.7417 31.7491 60.7417 27.7417 56.7386ZM47.0851 51.9033L22.9128 27.7566C20.2391 25.0851 20.2348 20.7555 22.9064 18.0881L47.0787 42.2348C49.7524 44.9064 49.7567 49.236 47.0851 51.9033ZM34.9947 20.493L27.7396 13.2464C31.747 9.24332 38.2424 9.24332 42.2498 13.2464L49.5049 20.493C45.4975 24.4961 39.002 24.4961 34.9947 20.493Z" fill="#024639"/>
<path d="M34.9947 20.493L27.7396 13.2464C31.747 9.24332 38.2424 9.24332 42.2498 13.2464L49.5049 20.493C45.4975 24.4961 39.002 24.4961 34.9947 20.493Z" fill="#48DC76"/>
<path d="M47.0851 51.9033L22.9128 27.7566C20.2391 25.0851 20.2348 20.7555 22.9064 18.0881L47.0787 42.2348C49.7524 44.9064 49.7567 49.236 47.0851 51.9033Z" fill="#48DC76"/>
<path d="M27.7417 56.7386L20.4866 49.4921C24.494 45.489 30.9894 45.489 34.9968 49.4921L42.2519 56.7386C38.2445 60.7417 31.7491 60.7417 27.7417 56.7386Z" fill="#48DC76"/>
<path d="M113.102 61H103.82C101.608 61 99.9 60.412 98.696 59.236C97.492 58.06 96.89 56.366 96.89 54.154V46.426C96.89 44.214 97.492 42.52 98.696 41.344C99.9 40.168 101.608 39.58 103.82 39.58H107.138C109.35 39.58 111.058 40.168 112.262 41.344C113.466 42.52 114.068 44.214 114.068 46.426V51.76C114.068 52.348 113.774 52.642 113.186 52.642H102.644C102.308 52.642 102.14 52.796 102.14 53.104V54.028C102.14 54.896 102.322 55.526 102.686 55.918C103.078 56.282 103.722 56.464 104.618 56.464H113.102C113.69 56.464 113.984 56.772 113.984 57.388V60.16C113.984 60.468 113.914 60.692 113.774 60.832C113.662 60.944 113.438 61 113.102 61ZM102.644 49.072H108.356C108.664 49.072 108.818 48.918 108.818 48.61V46.594C108.818 45.698 108.636 45.068 108.272 44.704C107.908 44.34 107.278 44.158 106.382 44.158H104.618C103.722 44.158 103.092 44.34 102.728 44.704C102.364 45.068 102.182 45.698 102.182 46.594V48.61C102.182 48.918 102.336 49.072 102.644 49.072Z" fill="#024639"/>
<path d="M127.262 61H126.254C124.042 61 122.334 60.412 121.13 59.236C119.926 58.06 119.324 56.366 119.324 54.154V46.426C119.324 44.214 119.926 42.52 121.13 41.344C122.334 40.168 124.042 39.58 126.254 39.58H135.956C136.572 39.58 136.88 39.874 136.88 40.462V60.118C136.88 60.706 136.572 61 135.956 61H132.428C131.84 61 131.546 60.706 131.546 60.118V58.732H131.378C131.07 59.488 130.524 60.062 129.74 60.454C128.956 60.818 128.13 61 127.262 61ZM131.546 53.188V44.662C131.546 44.354 131.378 44.2 131.042 44.2H127.094C126.198 44.2 125.568 44.396 125.204 44.788C124.84 45.152 124.658 45.782 124.658 46.678V53.902C124.658 54.798 124.84 55.442 125.204 55.834C125.568 56.198 126.198 56.38 127.094 56.38H128.648C130.58 56.38 131.546 55.316 131.546 53.188Z" fill="#024639"/>
<path d="M147.614 61H144.044C143.456 61 143.162 60.706 143.162 60.118V40.462C143.162 39.874 143.456 39.58 144.044 39.58H147.614C148.202 39.58 148.496 39.874 148.496 40.462V41.89H148.664C148.972 41.134 149.518 40.56 150.302 40.168C151.086 39.776 151.912 39.58 152.78 39.58H154.292C154.852 39.58 155.132 39.874 155.132 40.462V43.36C155.132 43.696 155.062 43.934 154.922 44.074C154.81 44.186 154.6 44.228 154.292 44.2H151.394C149.462 44.2 148.496 45.292 148.496 47.476V60.118C148.496 60.706 148.202 61 147.614 61Z" fill="#024639"/>
<path d="M163.937 61H160.367C159.779 61 159.485 60.706 159.485 60.118V40.462C159.485 39.874 159.779 39.58 160.367 39.58H163.937C164.525 39.58 164.819 39.874 164.819 40.462V41.848H164.987C165.603 40.336 166.975 39.58 169.103 39.58H170.447C174.843 39.58 177.041 41.862 177.041 46.426V60.118C177.041 60.706 176.733 61 176.117 61H172.589C172.001 61 171.707 60.706 171.707 60.118V46.678C171.707 45.782 171.511 45.152 171.119 44.788C170.755 44.396 170.125 44.2 169.229 44.2H167.717C165.785 44.2 164.819 45.264 164.819 47.392V60.118C164.819 60.706 164.525 61 163.937 61Z" fill="#024639"/>
<path d="M89.6935 60.9971C90.3127 60.9971 90.6224 60.6827 90.6224 60.0568L90.6252 60.0597C90.6252 60.0597 90.6252 39.0125 90.6224 36C90.6195 32.9875 88.1366 31 85.0029 31V40.5727V60.0568C85.0029 60.6827 85.3125 60.9971 85.9318 60.9971H89.6935Z" fill="#024639"/>
</svg>
