<svg width="220" height="70" viewBox="0 0 220 70" fill="none" xmlns="http://www.w3.org/2000/svg">
<path d="M114.102 65H104.82C102.608 65 100.9 64.412 99.696 63.236C98.492 62.06 97.89 60.366 97.89 58.154V50.426C97.89 48.214 98.492 46.52 99.696 45.344C100.9 44.168 102.608 43.58 104.82 43.58H108.138C110.35 43.58 112.058 44.168 113.262 45.344C114.466 46.52 115.068 48.214 115.068 50.426V55.76C115.068 56.348 114.774 56.642 114.186 56.642H103.644C103.308 56.642 103.14 56.796 103.14 57.104V58.028C103.14 58.896 103.322 59.526 103.686 59.918C104.078 60.282 104.722 60.464 105.618 60.464H114.102C114.69 60.464 114.984 60.772 114.984 61.388V64.16C114.984 64.468 114.914 64.692 114.774 64.832C114.662 64.944 114.438 65 114.102 65ZM103.644 53.072H109.356C109.664 53.072 109.818 52.918 109.818 52.61V50.594C109.818 49.698 109.636 49.068 109.272 48.704C108.908 48.34 108.278 48.158 107.382 48.158H105.618C104.722 48.158 104.092 48.34 103.728 48.704C103.364 49.068 103.182 49.698 103.182 50.594V52.61C103.182 52.918 103.336 53.072 103.644 53.072ZM128.262 65H127.254C125.042 65 123.334 64.412 122.13 63.236C120.926 62.06 120.324 60.366 120.324 58.154V50.426C120.324 48.214 120.926 46.52 122.13 45.344C123.334 44.168 125.042 43.58 127.254 43.58H136.956C137.572 43.58 137.88 43.874 137.88 44.462V64.118C137.88 64.706 137.572 65 136.956 65H133.428C132.84 65 132.546 64.706 132.546 64.118V62.732H132.378C132.07 63.488 131.524 64.062 130.74 64.454C129.956 64.818 129.13 65 128.262 65ZM132.546 57.188V48.662C132.546 48.354 132.378 48.2 132.042 48.2H128.094C127.198 48.2 126.568 48.396 126.204 48.788C125.84 49.152 125.658 49.782 125.658 50.678V57.902C125.658 58.798 125.84 59.442 126.204 59.834C126.568 60.198 127.198 60.38 128.094 60.38H129.648C131.58 60.38 132.546 59.316 132.546 57.188ZM148.614 65H145.044C144.456 65 144.162 64.706 144.162 64.118V44.462C144.162 43.874 144.456 43.58 145.044 43.58H148.614C149.202 43.58 149.496 43.874 149.496 44.462V45.848H149.664C150 45.176 150.56 44.63 151.344 44.21C152.156 43.79 153.08 43.58 154.116 43.58H155.292C157.728 43.58 159.478 44.476 160.542 46.268C161.494 44.476 163.132 43.58 165.456 43.58H166.674C168.83 43.58 170.454 44.168 171.546 45.344C172.666 46.52 173.226 48.214 173.226 50.426V64.118C173.226 64.706 172.932 65 172.344 65H168.774C168.186 65 167.892 64.706 167.892 64.118V50.678C167.892 49.782 167.71 49.152 167.346 48.788C166.982 48.396 166.352 48.2 165.456 48.2H164.406C162.474 48.2 161.508 49.278 161.508 51.434V64.118C161.508 64.706 161.2 65 160.584 65H157.056C156.468 65 156.174 64.706 156.174 64.118V50.678C156.174 49.782 155.978 49.152 155.586 48.788C155.222 48.396 154.592 48.2 153.696 48.2H152.394C150.462 48.2 149.496 49.264 149.496 51.392V64.118C149.496 64.706 149.202 65 148.614 65Z" fill="#024639"/>
<path d="M83.562 47.954H81.882C81.546 47.954 81.308 47.898 81.168 47.786C81.056 47.674 81 47.45 81 47.114V44.216C81 43.628 81.294 43.334 81.882 43.334H83.562C83.87 43.334 84.024 43.18 84.024 42.872V40C84 38 85 35 89.358 35V42.872C89.358 43.18 89.526 43.334 89.862 43.334H93.138C93.726 43.334 94.02 43.628 94.02 44.216V47.114C94.02 47.422 93.95 47.646 93.81 47.786C93.698 47.898 93.474 47.954 93.138 47.954H89.862C89.526 47.954 89.358 48.108 89.358 48.416V57.698C89.358 58.566 89.554 59.196 89.946 59.588C90.338 59.952 90.982 60.134 91.878 60.134H93.558C94.146 60.134 94.44 60.428 94.44 61.016V63.914C94.44 64.222 94.37 64.446 94.23 64.586C94.118 64.698 93.894 65 93.558 65H91C88.788 65 87.062 64.166 85.83 62.99C84.626 61.814 84.024 60.134 84.024 57.95V48.416C84.024 48.108 83.87 47.954 83.562 47.954Z" fill="#024639"/>
<path fill-rule="evenodd" clip-rule="evenodd" d="M143.991 31H141.938C140.361 31 139.132 30.5562 138.25 29.6686C137.369 28.7809 136.928 27.5405 136.928 25.9474V18.6415C136.928 17.0484 137.369 15.808 138.25 14.9203C139.132 14.0327 140.361 13.5889 141.938 13.5889H143.991C145.8 13.5889 146.995 14.192 147.575 15.3983H147.714V7C147.714 7 150.305 7.375 150.305 10.375C150.305 13.375 150.219 30.522 150.219 30.522C150.219 30.8407 150.068 31 149.767 31H148.166C147.865 31 147.714 30.8407 147.714 30.522V29.1906H147.575C146.995 30.3969 145.8 31 143.991 31ZM147.714 18.9146V25.6743C147.714 26.6757 147.435 27.4495 146.879 27.9957C146.322 28.542 145.522 28.8151 144.478 28.8151H142.356C140.431 28.8151 139.468 27.825 139.468 25.845V18.744C139.468 16.7639 140.431 15.7738 142.356 15.7738H144.478C145.522 15.7738 146.322 16.0469 146.879 16.5932C147.435 17.1394 147.714 17.9132 147.714 18.9146Z" fill="#024639" fill-opacity="0.8"/>
<path fill-rule="evenodd" clip-rule="evenodd" d="M83.6263 31H89.8193C93.1363 31 94.7947 29.6344 94.7947 26.9033C94.7947 25.5832 94.5743 24.5477 94.1336 23.7966C93.7161 23.0455 92.9042 22.4424 91.6981 21.9872L87.5926 20.1778C86.2705 19.6771 85.6094 18.9488 85.6094 17.9929V17.4125C85.6094 16.9573 85.8182 16.559 86.2357 16.2176C86.6764 15.8762 87.3143 15.7055 88.1493 15.7055H93.403C93.7277 15.7055 93.8901 15.5576 93.8901 15.2617V14.0669C93.8901 13.7482 93.7277 13.5889 93.403 13.5889H87.697C84.5657 13.5889 83 14.9886 83 17.788C83 18.8578 83.2551 19.7226 83.7654 20.3826C84.2757 21.0199 85.1223 21.5775 86.3053 22.0555L90.4108 23.7624C91.5938 24.2177 92.1852 25.0483 92.1852 26.2546V26.9033C92.1852 28.2233 91.2806 28.8834 89.4714 28.8834H83.6263C83.3015 28.8834 83.1392 29.0313 83.1392 29.3272V30.522C83.1392 30.8407 83.3015 31 83.6263 31ZM105.045 31H112.421C112.746 31 112.908 30.852 112.908 30.5562V29.3272C112.908 29.0085 112.746 28.8492 112.421 28.8492H105.323C103.375 28.8492 102.401 27.8592 102.401 25.8791V23.7966C102.401 23.5917 102.517 23.4893 102.749 23.4893H112.595C112.92 23.4893 113.082 23.3186 113.082 22.9772V18.6415C113.082 17.0484 112.63 15.808 111.725 14.9203C110.821 14.0327 109.568 13.5889 107.968 13.5889H105.045C103.445 13.5889 102.181 14.0327 101.253 14.9203C100.348 15.808 99.8958 17.0484 99.8958 18.6415V25.9474C99.8958 27.5405 100.348 28.7809 101.253 29.6686C102.181 30.5562 103.445 31 105.045 31ZM110.264 21.6799H102.749C102.517 21.6799 102.401 21.5661 102.401 21.3386V18.7098C102.401 16.7525 103.375 15.7738 105.323 15.7738H107.689C109.638 15.7738 110.612 16.7525 110.612 18.7098V21.3386C110.612 21.5661 110.496 21.6799 110.264 21.6799ZM123.561 31H130.937C131.262 31 131.424 30.852 131.424 30.5562V29.3272C131.424 29.0085 131.262 28.8492 130.937 28.8492H123.84C121.891 28.8492 120.917 27.8592 120.917 25.8791V23.7966C120.917 23.5917 121.033 23.4893 121.265 23.4893H131.111C131.436 23.4893 131.598 23.3186 131.598 22.9772V18.6415C131.598 17.0484 131.146 15.808 130.241 14.9203C129.337 14.0327 128.084 13.5889 126.484 13.5889H123.561C121.961 13.5889 120.697 14.0327 119.769 14.9203C118.864 15.808 118.412 17.0484 118.412 18.6415V25.9474C118.412 27.5405 118.864 28.7809 119.769 29.6686C120.697 30.5562 121.961 31 123.561 31ZM128.78 21.6799H121.265C121.033 21.6799 120.917 21.5661 120.917 21.3386V18.7098C120.917 16.7525 121.891 15.7738 123.84 15.7738H126.206C128.154 15.7738 129.128 16.7525 129.128 18.7098V21.3386C129.128 21.5661 129.012 21.6799 128.78 21.6799ZM166.737 30.5562V29.293C166.737 28.9744 166.575 28.8151 166.25 28.8151H161.483C159.558 28.8151 158.596 27.825 158.596 25.845V18.744C158.596 16.7639 159.558 15.7738 161.483 15.7738H166.25C166.575 15.7738 166.737 15.6259 166.737 15.33V14.0669C166.737 13.7482 166.575 13.5889 166.25 13.5889H161.205C159.605 13.5889 158.341 14.0327 157.413 14.9203C156.508 15.808 156.056 17.0484 156.056 18.6415V25.9474C156.056 27.5405 156.508 28.7809 157.413 29.6686C158.341 30.5562 159.605 31 161.205 31H166.25C166.575 31 166.737 30.852 166.737 30.5562ZM176.493 31H178.303C180.089 31 181.272 30.3969 181.852 29.1906H181.991V30.522C181.991 30.8407 182.153 31 182.478 31H184.043C184.368 31 184.531 30.8407 184.531 30.522V14.0669C184.531 13.7482 184.368 13.5889 184.043 13.5889H176.493C174.893 13.5889 173.629 14.0327 172.701 14.9203C171.796 15.808 171.344 17.0484 171.344 18.6415V25.9474C171.344 27.5405 171.796 28.7809 172.701 29.6686C173.629 30.5562 174.893 31 176.493 31ZM181.991 16.0811V25.6743C181.991 26.6757 181.712 27.4495 181.156 27.9957C180.599 28.542 179.799 28.8151 178.755 28.8151H176.772C174.847 28.8151 173.884 27.825 173.884 25.845V18.744C173.884 16.7639 174.847 15.7738 176.772 15.7738H181.643C181.874 15.7738 181.991 15.8762 181.991 16.0811ZM190.544 31H196.737C200.054 31 201.712 29.6344 201.712 26.9033C201.712 25.5832 201.492 24.5477 201.051 23.7966C200.633 23.0455 199.822 22.4424 198.616 21.9872L194.51 20.1778C193.188 19.6771 192.527 18.9488 192.527 17.9929V17.4125C192.527 16.9573 192.736 16.559 193.153 16.2176C193.594 15.8762 194.232 15.7055 195.067 15.7055H200.32C200.645 15.7055 200.807 15.5576 200.807 15.2617V14.0669C200.807 13.7482 200.645 13.5889 200.32 13.5889H194.614C191.483 13.5889 189.917 14.9886 189.917 17.788C189.917 18.8578 190.173 19.7226 190.683 20.3826C191.194 21.0199 192.04 21.5775 193.223 22.0555L197.328 23.7624C198.511 24.2177 199.103 25.0483 199.103 26.2546V26.9033C199.103 28.2233 198.198 28.8834 196.389 28.8834H190.544C190.22 28.8834 190.057 29.0313 190.057 29.3272V30.522C190.057 30.8407 190.22 31 190.544 31ZM211.963 31H219.339C219.664 31 219.826 30.852 219.826 30.5562V29.3272C219.826 29.0085 219.664 28.8492 219.339 28.8492H212.241C210.293 28.8492 209.319 27.8592 209.319 25.8791V23.7966C209.319 23.5917 209.435 23.4893 209.667 23.4893H219.513C219.838 23.4893 220 23.3186 220 22.9772V18.6415C220 17.0484 219.548 15.808 218.643 14.9203C217.738 14.0327 216.486 13.5889 214.885 13.5889H211.963C210.362 13.5889 209.098 14.0327 208.171 14.9203C207.266 15.808 206.814 17.0484 206.814 18.6415V25.9474C206.814 27.5405 207.266 28.7809 208.171 29.6686C209.098 30.5562 210.362 31 211.963 31ZM217.182 21.6799H209.667C209.435 21.6799 209.319 21.5661 209.319 21.3386V18.7098C209.319 16.7525 210.293 15.7738 212.241 15.7738H214.607C216.556 15.7738 217.53 16.7525 217.53 18.7098V21.3386C217.53 21.5661 217.413 21.6799 217.182 21.6799Z" fill="#024639" fill-opacity="0.8"/>
<path fill-rule="evenodd" clip-rule="evenodd" d="M64.0001 20.5165L49.4835 5.99986C41.4837 -1.99995 28.5163 -1.99995 20.5165 5.99986L5.99986 20.5165C-1.99995 28.5163 -1.99995 41.4837 5.99986 49.4835L20.5165 64.0001C28.5163 72 41.4837 72 49.4835 64.0001L64.0001 49.4835C72 41.4837 72 28.5163 64.0001 20.5165ZM27.7417 56.7386L20.4866 49.4921C24.494 45.489 30.9894 45.489 34.9968 49.4921L42.2519 56.7386C38.2445 60.7417 31.7491 60.7417 27.7417 56.7386ZM47.0851 51.9033L22.9128 27.7566C20.2391 25.0851 20.2348 20.7555 22.9064 18.0881L47.0787 42.2348C49.7524 44.9064 49.7567 49.236 47.0851 51.9033ZM34.9947 20.493L27.7396 13.2464C31.747 9.24332 38.2424 9.24332 42.2498 13.2464L49.5049 20.493C45.4975 24.4961 39.002 24.4961 34.9947 20.493Z" fill="#024639"/>
<path d="M34.9947 20.493L27.7396 13.2464C31.747 9.24332 38.2424 9.24332 42.2498 13.2464L49.5049 20.493C45.4975 24.4961 39.002 24.4961 34.9947 20.493Z" fill="#48DC76"/>
<path d="M47.0851 51.9033L22.9128 27.7566C20.2391 25.0851 20.2348 20.7555 22.9064 18.0881L47.0787 42.2348C49.7524 44.9064 49.7567 49.236 47.0851 51.9033Z" fill="#48DC76"/>
<path d="M27.7417 56.7386L20.4866 49.4921C24.494 45.489 30.9894 45.489 34.9968 49.4921L42.2519 56.7386C38.2445 60.7417 31.7491 60.7417 27.7417 56.7386Z" fill="#48DC76"/>
</svg>
