<svg width="289" height="74" viewBox="0 0 289 74" fill="none" xmlns="http://www.w3.org/2000/svg">
<g clip-path="url(#clip0_1661_5331)">
<path fill-rule="evenodd" clip-rule="evenodd" d="M143.991 25H141.938C140.361 25 139.132 24.5562 138.25 23.6686C137.369 22.7809 136.928 21.5405 136.928 19.9474V12.6415C136.928 11.0484 137.369 9.80797 138.25 8.92034C139.132 8.03272 140.361 7.5889 141.938 7.5889H143.991C145.8 7.5889 146.995 8.19203 147.575 9.39829H147.714V1C147.714 1 150.305 1.375 150.305 4.375C150.305 7.375 150.219 24.522 150.219 24.522C150.219 24.8407 150.068 25 149.767 25H148.166C147.865 25 147.714 24.8407 147.714 24.522V23.1906H147.575C146.995 24.3969 145.8 25 143.991 25ZM147.714 12.9146V19.6743C147.714 20.6757 147.435 21.4495 146.879 21.9957C146.322 22.542 145.522 22.8151 144.478 22.8151H142.356C140.431 22.8151 139.468 21.825 139.468 19.845V12.744C139.468 10.7639 140.431 9.77383 142.356 9.77383H144.478C145.522 9.77383 146.322 10.0469 146.879 10.5932C147.435 11.1394 147.714 11.9132 147.714 12.9146Z" fill="#024639" fill-opacity="0.8"/>
<path fill-rule="evenodd" clip-rule="evenodd" d="M83.6263 25H89.8193C93.1363 25 94.7947 23.6344 94.7947 20.9033C94.7947 19.5832 94.5743 18.5477 94.1336 17.7966C93.7161 17.0455 92.9042 16.4424 91.6981 15.9872L87.5926 14.1778C86.2705 13.6771 85.6094 12.9488 85.6094 11.9929V11.4125C85.6094 10.9573 85.8182 10.559 86.2357 10.2176C86.6764 9.87624 87.3143 9.70555 88.1493 9.70555H93.403C93.7277 9.70555 93.8901 9.55761 93.8901 9.26173V8.06686C93.8901 7.74822 93.7277 7.5889 93.403 7.5889H87.697C84.5657 7.5889 83 8.98862 83 11.788C83 12.8578 83.2551 13.7226 83.7654 14.3826C84.2757 15.0199 85.1223 15.5775 86.3053 16.0555L90.4108 17.7624C91.5938 18.2177 92.1852 19.0483 92.1852 20.2546V20.9033C92.1852 22.2233 91.2806 22.8834 89.4714 22.8834H83.6263C83.3015 22.8834 83.1392 23.0313 83.1392 23.3272V24.522C83.1392 24.8407 83.3015 25 83.6263 25ZM105.045 25H112.421C112.746 25 112.908 24.852 112.908 24.5562V23.3272C112.908 23.0085 112.746 22.8492 112.421 22.8492H105.323C103.375 22.8492 102.401 21.8592 102.401 19.8791V17.7966C102.401 17.5917 102.517 17.4893 102.749 17.4893H112.595C112.92 17.4893 113.082 17.3186 113.082 16.9772V12.6415C113.082 11.0484 112.63 9.80797 111.725 8.92034C110.821 8.03272 109.568 7.5889 107.968 7.5889H105.045C103.445 7.5889 102.181 8.03272 101.253 8.92034C100.348 9.80797 99.8958 11.0484 99.8958 12.6415V19.9474C99.8958 21.5405 100.348 22.7809 101.253 23.6686C102.181 24.5562 103.445 25 105.045 25ZM110.264 15.6799H102.749C102.517 15.6799 102.401 15.5661 102.401 15.3386V12.7098C102.401 10.7525 103.375 9.77383 105.323 9.77383H107.689C109.638 9.77383 110.612 10.7525 110.612 12.7098V15.3386C110.612 15.5661 110.496 15.6799 110.264 15.6799ZM123.561 25H130.937C131.262 25 131.424 24.852 131.424 24.5562V23.3272C131.424 23.0085 131.262 22.8492 130.937 22.8492H123.84C121.891 22.8492 120.917 21.8592 120.917 19.8791V17.7966C120.917 17.5917 121.033 17.4893 121.265 17.4893H131.111C131.436 17.4893 131.598 17.3186 131.598 16.9772V12.6415C131.598 11.0484 131.146 9.80797 130.241 8.92034C129.337 8.03272 128.084 7.5889 126.484 7.5889H123.561C121.961 7.5889 120.697 8.03272 119.769 8.92034C118.864 9.80797 118.412 11.0484 118.412 12.6415V19.9474C118.412 21.5405 118.864 22.7809 119.769 23.6686C120.697 24.5562 121.961 25 123.561 25ZM128.78 15.6799H121.265C121.033 15.6799 120.917 15.5661 120.917 15.3386V12.7098C120.917 10.7525 121.891 9.77383 123.84 9.77383H126.206C128.154 9.77383 129.128 10.7525 129.128 12.7098V15.3386C129.128 15.5661 129.012 15.6799 128.78 15.6799ZM166.737 24.5562V23.293C166.737 22.9744 166.575 22.8151 166.25 22.8151H161.483C159.558 22.8151 158.596 21.825 158.596 19.845V12.744C158.596 10.7639 159.558 9.77383 161.483 9.77383H166.25C166.575 9.77383 166.737 9.62589 166.737 9.33001V8.06686C166.737 7.74822 166.575 7.5889 166.25 7.5889H161.205C159.605 7.5889 158.341 8.03272 157.413 8.92034C156.508 9.80797 156.056 11.0484 156.056 12.6415V19.9474C156.056 21.5405 156.508 22.7809 157.413 23.6686C158.341 24.5562 159.605 25 161.205 25H166.25C166.575 25 166.737 24.852 166.737 24.5562ZM176.493 25H178.303C180.089 25 181.272 24.3969 181.852 23.1906H181.991V24.522C181.991 24.8407 182.153 25 182.478 25H184.043C184.368 25 184.531 24.8407 184.531 24.522V8.06686C184.531 7.74822 184.368 7.5889 184.043 7.5889H176.493C174.893 7.5889 173.629 8.03272 172.701 8.92034C171.796 9.80797 171.344 11.0484 171.344 12.6415V19.9474C171.344 21.5405 171.796 22.7809 172.701 23.6686C173.629 24.5562 174.893 25 176.493 25ZM181.991 10.0811V19.6743C181.991 20.6757 181.712 21.4495 181.156 21.9957C180.599 22.542 179.799 22.8151 178.755 22.8151H176.772C174.847 22.8151 173.884 21.825 173.884 19.845V12.744C173.884 10.7639 174.847 9.77383 176.772 9.77383H181.643C181.874 9.77383 181.991 9.87624 181.991 10.0811ZM190.544 25H196.737C200.054 25 201.712 23.6344 201.712 20.9033C201.712 19.5832 201.492 18.5477 201.051 17.7966C200.633 17.0455 199.822 16.4424 198.616 15.9872L194.51 14.1778C193.188 13.6771 192.527 12.9488 192.527 11.9929V11.4125C192.527 10.9573 192.736 10.559 193.153 10.2176C193.594 9.87624 194.232 9.70555 195.067 9.70555H200.32C200.645 9.70555 200.807 9.55761 200.807 9.26173V8.06686C200.807 7.74822 200.645 7.5889 200.32 7.5889H194.614C191.483 7.5889 189.917 8.98862 189.917 11.788C189.917 12.8578 190.173 13.7226 190.683 14.3826C191.194 15.0199 192.04 15.5775 193.223 16.0555L197.328 17.7624C198.511 18.2177 199.103 19.0483 199.103 20.2546V20.9033C199.103 22.2233 198.198 22.8834 196.389 22.8834H190.544C190.22 22.8834 190.057 23.0313 190.057 23.3272V24.522C190.057 24.8407 190.22 25 190.544 25ZM211.963 25H219.339C219.664 25 219.826 24.852 219.826 24.5562V23.3272C219.826 23.0085 219.664 22.8492 219.339 22.8492H212.241C210.293 22.8492 209.319 21.8592 209.319 19.8791V17.7966C209.319 17.5917 209.435 17.4893 209.667 17.4893H219.513C219.838 17.4893 220 17.3186 220 16.9772V12.6415C220 11.0484 219.548 9.80797 218.643 8.92034C217.738 8.03272 216.486 7.5889 214.885 7.5889H211.963C210.362 7.5889 209.098 8.03272 208.171 8.92034C207.266 9.80797 206.814 11.0484 206.814 12.6415V19.9474C206.814 21.5405 207.266 22.7809 208.171 23.6686C209.098 24.5562 210.362 25 211.963 25ZM217.182 15.6799H209.667C209.435 15.6799 209.319 15.5661 209.319 15.3386V12.7098C209.319 10.7525 210.293 9.77383 212.241 9.77383H214.607C216.556 9.77383 217.53 10.7525 217.53 12.7098V15.3386C217.53 15.5661 217.413 15.6799 217.182 15.6799Z" fill="#024639" fill-opacity="0.8"/>
</g>
<path d="M255.562 41.954H253.882C253.546 41.954 253.308 41.898 253.168 41.786C253.056 41.674 253 41.45 253 41.114V38.216C253 37.628 253.294 37.334 253.882 37.334H255.562C255.87 37.334 256.024 37.18 256.024 36.872V34C256 32 257 29 261.358 29V36.872C261.358 37.18 261.526 37.334 261.862 37.334H265.138C265.726 37.334 266.02 37.628 266.02 38.216V41.114C266.02 41.422 265.95 41.646 265.81 41.786C265.698 41.898 265.474 41.954 265.138 41.954H261.862C261.526 41.954 261.358 42.108 261.358 42.416V51.698C261.358 52.566 261.554 53.196 261.946 53.588C262.338 53.952 262.982 54.134 263.878 54.134H265.558C266.146 54.134 266.44 54.428 266.44 55.016V57.914C266.44 58.222 266.37 58.446 266.23 58.586C266.118 58.698 265.894 59 265.558 59H263C260.788 59 259.062 58.166 257.83 56.99C256.626 55.814 256.024 54.134 256.024 51.95V42.416C256.024 42.108 255.87 41.954 255.562 41.954Z" fill="#024639"/>
<path d="M96.96 55.262V58.16C96.96 58.468 96.89 58.692 96.75 58.832C96.638 58.944 96.414 59 96.078 59H89.82C87.608 59 85.9 58.412 84.696 57.236C83.492 56.06 82.89 54.366 82.89 52.154V44.426C82.89 42.214 83.492 40.52 84.696 39.344C85.9 38.168 87.608 37.58 89.82 37.58H96.078C96.666 37.58 96.96 37.874 96.96 38.462V41.36C96.96 41.668 96.89 41.892 96.75 42.032C96.638 42.144 96.414 42.2 96.078 42.2H90.66C89.792 42.2 89.162 42.396 88.77 42.788C88.406 43.152 88.224 43.782 88.224 44.678V51.902C88.224 52.798 88.406 53.442 88.77 53.834C89.162 54.198 89.792 54.38 90.66 54.38H96.078C96.666 54.38 96.96 54.674 96.96 55.262ZM112.506 59H108.768C106.556 59 104.848 58.412 103.644 57.236C102.44 56.06 101.838 54.366 101.838 52.154V44.426C101.838 42.214 102.44 40.52 103.644 39.344C104.848 38.168 106.556 37.58 108.768 37.58H112.506C114.69 37.58 116.384 38.182 117.588 39.386C118.82 40.562 119.436 42.242 119.436 44.426V52.154C119.436 54.338 118.82 56.032 117.588 57.236C116.384 58.412 114.69 59 112.506 59ZM109.566 54.422H111.708C112.604 54.422 113.234 54.24 113.598 53.876C113.99 53.512 114.186 52.882 114.186 51.986V44.594C114.186 43.698 113.99 43.068 113.598 42.704C113.234 42.34 112.604 42.158 111.708 42.158H109.566C108.67 42.158 108.04 42.34 107.676 42.704C107.312 43.068 107.13 43.698 107.13 44.594V51.986C107.13 52.882 107.312 53.512 107.676 53.876C108.04 54.24 108.67 54.422 109.566 54.422ZM129.759 59H126.189C125.601 59 125.307 58.706 125.307 58.118V38.462C125.307 37.874 125.601 37.58 126.189 37.58H129.759C130.347 37.58 130.641 37.874 130.641 38.462V39.848H130.809C131.145 39.176 131.705 38.63 132.489 38.21C133.301 37.79 134.225 37.58 135.261 37.58H136.437C138.873 37.58 140.623 38.476 141.687 40.268C142.639 38.476 144.277 37.58 146.601 37.58H147.819C149.975 37.58 151.599 38.168 152.691 39.344C153.811 40.52 154.371 42.214 154.371 44.426V58.118C154.371 58.706 154.077 59 153.489 59H149.919C149.331 59 149.037 58.706 149.037 58.118V44.678C149.037 43.782 148.855 43.152 148.491 42.788C148.127 42.396 147.497 42.2 146.601 42.2H145.551C143.619 42.2 142.653 43.278 142.653 45.434V58.118C142.653 58.706 142.345 59 141.729 59H138.201C137.613 59 137.319 58.706 137.319 58.118V44.678C137.319 43.782 137.123 43.152 136.731 42.788C136.367 42.396 135.737 42.2 134.841 42.2H133.539C131.607 42.2 130.641 43.264 130.641 45.392V58.118C130.641 58.706 130.347 59 129.759 59ZM164.948 59H161.378C160.79 59 160.496 58.706 160.496 58.118V38.462C160.496 37.874 160.79 37.58 161.378 37.58H164.948C165.536 37.58 165.83 37.874 165.83 38.462V39.848H165.998C166.334 39.176 166.894 38.63 167.678 38.21C168.49 37.79 169.414 37.58 170.45 37.58H171.626C174.062 37.58 175.812 38.476 176.876 40.268C177.828 38.476 179.466 37.58 181.79 37.58H183.008C185.164 37.58 186.788 38.168 187.88 39.344C189 40.52 189.56 42.214 189.56 44.426V58.118C189.56 58.706 189.266 59 188.678 59H185.108C184.52 59 184.226 58.706 184.226 58.118V44.678C184.226 43.782 184.044 43.152 183.68 42.788C183.316 42.396 182.686 42.2 181.79 42.2H180.74C178.808 42.2 177.842 43.278 177.842 45.434V58.118C177.842 58.706 177.534 59 176.918 59H173.39C172.802 59 172.508 58.706 172.508 58.118V44.678C172.508 43.782 172.312 43.152 171.92 42.788C171.556 42.396 170.926 42.2 170.03 42.2H168.728C166.796 42.2 165.83 43.264 165.83 45.392V58.118C165.83 58.706 165.536 59 164.948 59ZM203.414 59H202.028C199.872 59 198.234 58.412 197.114 57.236C196.022 56.06 195.476 54.366 195.476 52.154V38.462C195.476 37.874 195.77 37.58 196.358 37.58H199.928C200.516 37.58 200.81 37.874 200.81 38.462V51.902C200.81 52.798 200.992 53.442 201.356 53.834C201.748 54.198 202.378 54.38 203.246 54.38H204.8C206.732 54.38 207.698 53.316 207.698 51.188V38.462C207.698 37.874 207.992 37.58 208.58 37.58H212.108C212.724 37.58 213.032 37.874 213.032 38.462V58.118C213.032 58.706 212.724 59 212.108 59H208.58C207.992 59 207.698 58.706 207.698 58.118V56.732H207.53C207.222 57.488 206.676 58.062 205.892 58.454C205.108 58.818 204.282 59 203.414 59ZM223.803 59H220.233C219.645 59 219.351 58.706 219.351 58.118V38.462C219.351 37.874 219.645 37.58 220.233 37.58H223.803C224.391 37.58 224.685 37.874 224.685 38.462V39.848H224.853C225.469 38.336 226.841 37.58 228.969 37.58H230.313C234.709 37.58 236.907 39.862 236.907 44.426V58.118C236.907 58.706 236.599 59 235.983 59H232.455C231.867 59 231.573 58.706 231.573 58.118V44.678C231.573 43.782 231.377 43.152 230.985 42.788C230.621 42.396 229.991 42.2 229.095 42.2H227.583C225.651 42.2 224.685 43.264 224.685 45.392V58.118C224.685 58.706 224.391 59 223.803 59ZM243.225 33.968V30.314C243.225 29.754 243.505 29.474 244.065 29.474H247.719C248.279 29.474 248.559 29.74 248.559 30.272V33.968C248.559 34.528 248.279 34.808 247.719 34.808H244.065C243.505 34.808 243.225 34.528 243.225 33.968ZM243.225 58.118V38.462C243.225 37.874 243.505 37.58 244.065 37.58H247.677C248.265 37.58 248.559 37.874 248.559 38.462V58.118C248.559 58.482 248.489 58.72 248.349 58.832C248.237 58.944 248.027 59 247.719 59H244.107C243.519 59 243.225 58.706 243.225 58.118Z" fill="#024639"/>
<path d="M274.796 66.098H272.108C271.548 66.098 271.268 65.79 271.268 65.174V62.36C271.268 61.744 271.548 61.436 272.108 61.436H272.99C274.754 61.436 275.944 61.184 276.56 60.68C277.204 60.204 277.694 59.266 278.03 57.866H275.804C275.272 57.866 274.922 57.572 274.754 56.984L269.84 38.462C269.672 37.874 269.882 37.58 270.47 37.58H274.208C274.768 37.58 275.118 37.874 275.258 38.462L278.87 53.96H279.038L282.608 38.462C282.72 37.874 283.07 37.58 283.658 37.58H287.186C287.886 37.58 288.166 37.888 288.026 38.504L282.902 59C282.286 61.324 281.334 63.088 280.046 64.292C278.758 65.496 277.008 66.098 274.796 66.098Z" fill="#024639"/>
<path fill-rule="evenodd" clip-rule="evenodd" d="M64.0001 20.5165L49.4835 5.99986C41.4837 -1.99995 28.5163 -1.99995 20.5165 5.99986L5.99986 20.5165C-1.99995 28.5163 -1.99995 41.4837 5.99986 49.4835L20.5165 64.0001C28.5163 72 41.4837 72 49.4835 64.0001L64.0001 49.4835C72 41.4837 72 28.5163 64.0001 20.5165ZM27.7417 56.7386L20.4866 49.4921C24.494 45.489 30.9894 45.489 34.9968 49.4921L42.2519 56.7386C38.2445 60.7417 31.7491 60.7417 27.7417 56.7386ZM47.0851 51.9033L22.9128 27.7566C20.2391 25.0851 20.2348 20.7555 22.9064 18.0881L47.0787 42.2348C49.7524 44.9064 49.7567 49.236 47.0851 51.9033ZM34.9947 20.493L27.7396 13.2464C31.747 9.24332 38.2424 9.24332 42.2498 13.2464L49.5049 20.493C45.4975 24.4961 39.002 24.4961 34.9947 20.493Z" fill="#024639"/>
<path d="M34.9947 20.493L27.7396 13.2464C31.747 9.24332 38.2424 9.24332 42.2498 13.2464L49.5049 20.493C45.4975 24.4961 39.002 24.4961 34.9947 20.493Z" fill="#48DC76"/>
<path d="M47.0851 51.9033L22.9128 27.7566C20.2391 25.0851 20.2348 20.7555 22.9064 18.0881L47.0787 42.2348C49.7524 44.9064 49.7567 49.236 47.0851 51.9033Z" fill="#48DC76"/>
<path d="M27.7417 56.7386L20.4866 49.4921C24.494 45.489 30.9894 45.489 34.9968 49.4921L42.2519 56.7386C38.2445 60.7417 31.7491 60.7417 27.7417 56.7386Z" fill="#48DC76"/>
<defs>
<clipPath id="clip0_1661_5331">
<rect width="137" height="24" fill="white" transform="translate(83 1)"/>
</clipPath>
</defs>
</svg>
