<svg width="220" height="70" viewBox="0 0 220 70" fill="none" xmlns="http://www.w3.org/2000/svg">
<g clip-path="url(#clip0_1661_5333)">
<path fill-rule="evenodd" clip-rule="evenodd" d="M143.991 30H141.938C140.361 30 139.132 29.5562 138.25 28.6686C137.369 27.7809 136.928 26.5405 136.928 24.9474V17.6415C136.928 16.0484 137.369 14.808 138.25 13.9203C139.132 13.0327 140.361 12.5889 141.938 12.5889H143.991C145.8 12.5889 146.995 13.192 147.575 14.3983H147.714V6C147.714 6 150.305 6.375 150.305 9.375C150.305 12.375 150.219 29.522 150.219 29.522C150.219 29.8407 150.068 30 149.767 30H148.166C147.865 30 147.714 29.8407 147.714 29.522V28.1906H147.575C146.995 29.3969 145.8 30 143.991 30ZM147.714 17.9146V24.6743C147.714 25.6757 147.435 26.4495 146.879 26.9957C146.322 27.542 145.522 27.8151 144.478 27.8151H142.356C140.431 27.8151 139.468 26.825 139.468 24.845V17.744C139.468 15.7639 140.431 14.7738 142.356 14.7738H144.478C145.522 14.7738 146.322 15.0469 146.879 15.5932C147.435 16.1394 147.714 16.9132 147.714 17.9146Z" fill="#024639" fill-opacity="0.8"/>
<path fill-rule="evenodd" clip-rule="evenodd" d="M83.6263 30H89.8193C93.1363 30 94.7947 28.6344 94.7947 25.9033C94.7947 24.5832 94.5743 23.5477 94.1336 22.7966C93.7161 22.0455 92.9042 21.4424 91.6981 20.9872L87.5926 19.1778C86.2705 18.6771 85.6094 17.9488 85.6094 16.9929V16.4125C85.6094 15.9573 85.8182 15.559 86.2357 15.2176C86.6764 14.8762 87.3143 14.7055 88.1493 14.7055H93.403C93.7277 14.7055 93.8901 14.5576 93.8901 14.2617V13.0669C93.8901 12.7482 93.7277 12.5889 93.403 12.5889H87.697C84.5657 12.5889 83 13.9886 83 16.788C83 17.8578 83.2551 18.7226 83.7654 19.3826C84.2757 20.0199 85.1223 20.5775 86.3053 21.0555L90.4108 22.7624C91.5938 23.2177 92.1852 24.0483 92.1852 25.2546V25.9033C92.1852 27.2233 91.2806 27.8834 89.4714 27.8834H83.6263C83.3015 27.8834 83.1392 28.0313 83.1392 28.3272V29.522C83.1392 29.8407 83.3015 30 83.6263 30ZM105.045 30H112.421C112.746 30 112.908 29.852 112.908 29.5562V28.3272C112.908 28.0085 112.746 27.8492 112.421 27.8492H105.323C103.375 27.8492 102.401 26.8592 102.401 24.8791V22.7966C102.401 22.5917 102.517 22.4893 102.749 22.4893H112.595C112.92 22.4893 113.082 22.3186 113.082 21.9772V17.6415C113.082 16.0484 112.63 14.808 111.725 13.9203C110.821 13.0327 109.568 12.5889 107.968 12.5889H105.045C103.445 12.5889 102.181 13.0327 101.253 13.9203C100.348 14.808 99.8958 16.0484 99.8958 17.6415V24.9474C99.8958 26.5405 100.348 27.7809 101.253 28.6686C102.181 29.5562 103.445 30 105.045 30ZM110.264 20.6799H102.749C102.517 20.6799 102.401 20.5661 102.401 20.3386V17.7098C102.401 15.7525 103.375 14.7738 105.323 14.7738H107.689C109.638 14.7738 110.612 15.7525 110.612 17.7098V20.3386C110.612 20.5661 110.496 20.6799 110.264 20.6799ZM123.561 30H130.937C131.262 30 131.424 29.852 131.424 29.5562V28.3272C131.424 28.0085 131.262 27.8492 130.937 27.8492H123.84C121.891 27.8492 120.917 26.8592 120.917 24.8791V22.7966C120.917 22.5917 121.033 22.4893 121.265 22.4893H131.111C131.436 22.4893 131.598 22.3186 131.598 21.9772V17.6415C131.598 16.0484 131.146 14.808 130.241 13.9203C129.337 13.0327 128.084 12.5889 126.484 12.5889H123.561C121.961 12.5889 120.697 13.0327 119.769 13.9203C118.864 14.808 118.412 16.0484 118.412 17.6415V24.9474C118.412 26.5405 118.864 27.7809 119.769 28.6686C120.697 29.5562 121.961 30 123.561 30ZM128.78 20.6799H121.265C121.033 20.6799 120.917 20.5661 120.917 20.3386V17.7098C120.917 15.7525 121.891 14.7738 123.84 14.7738H126.206C128.154 14.7738 129.128 15.7525 129.128 17.7098V20.3386C129.128 20.5661 129.012 20.6799 128.78 20.6799ZM166.737 29.5562V28.293C166.737 27.9744 166.575 27.8151 166.25 27.8151H161.483C159.558 27.8151 158.596 26.825 158.596 24.845V17.744C158.596 15.7639 159.558 14.7738 161.483 14.7738H166.25C166.575 14.7738 166.737 14.6259 166.737 14.33V13.0669C166.737 12.7482 166.575 12.5889 166.25 12.5889H161.205C159.605 12.5889 158.341 13.0327 157.413 13.9203C156.508 14.808 156.056 16.0484 156.056 17.6415V24.9474C156.056 26.5405 156.508 27.7809 157.413 28.6686C158.341 29.5562 159.605 30 161.205 30H166.25C166.575 30 166.737 29.852 166.737 29.5562ZM176.493 30H178.303C180.089 30 181.272 29.3969 181.852 28.1906H181.991V29.522C181.991 29.8407 182.153 30 182.478 30H184.043C184.368 30 184.531 29.8407 184.531 29.522V13.0669C184.531 12.7482 184.368 12.5889 184.043 12.5889H176.493C174.893 12.5889 173.629 13.0327 172.701 13.9203C171.796 14.808 171.344 16.0484 171.344 17.6415V24.9474C171.344 26.5405 171.796 27.7809 172.701 28.6686C173.629 29.5562 174.893 30 176.493 30ZM181.991 15.0811V24.6743C181.991 25.6757 181.712 26.4495 181.156 26.9957C180.599 27.542 179.799 27.8151 178.755 27.8151H176.772C174.847 27.8151 173.884 26.825 173.884 24.845V17.744C173.884 15.7639 174.847 14.7738 176.772 14.7738H181.643C181.874 14.7738 181.991 14.8762 181.991 15.0811ZM190.544 30H196.737C200.054 30 201.712 28.6344 201.712 25.9033C201.712 24.5832 201.492 23.5477 201.051 22.7966C200.633 22.0455 199.822 21.4424 198.616 20.9872L194.51 19.1778C193.188 18.6771 192.527 17.9488 192.527 16.9929V16.4125C192.527 15.9573 192.736 15.559 193.153 15.2176C193.594 14.8762 194.232 14.7055 195.067 14.7055H200.32C200.645 14.7055 200.807 14.5576 200.807 14.2617V13.0669C200.807 12.7482 200.645 12.5889 200.32 12.5889H194.614C191.483 12.5889 189.917 13.9886 189.917 16.788C189.917 17.8578 190.173 18.7226 190.683 19.3826C191.194 20.0199 192.04 20.5775 193.223 21.0555L197.328 22.7624C198.511 23.2177 199.103 24.0483 199.103 25.2546V25.9033C199.103 27.2233 198.198 27.8834 196.389 27.8834H190.544C190.22 27.8834 190.057 28.0313 190.057 28.3272V29.522C190.057 29.8407 190.22 30 190.544 30ZM211.963 30H219.339C219.664 30 219.826 29.852 219.826 29.5562V28.3272C219.826 28.0085 219.664 27.8492 219.339 27.8492H212.241C210.293 27.8492 209.319 26.8592 209.319 24.8791V22.7966C209.319 22.5917 209.435 22.4893 209.667 22.4893H219.513C219.838 22.4893 220 22.3186 220 21.9772V17.6415C220 16.0484 219.548 14.808 218.643 13.9203C217.738 13.0327 216.486 12.5889 214.885 12.5889H211.963C210.362 12.5889 209.098 13.0327 208.171 13.9203C207.266 14.808 206.814 16.0484 206.814 17.6415V24.9474C206.814 26.5405 207.266 27.7809 208.171 28.6686C209.098 29.5562 210.362 30 211.963 30ZM217.182 20.6799H209.667C209.435 20.6799 209.319 20.5661 209.319 20.3386V17.7098C209.319 15.7525 210.293 14.7738 212.241 14.7738H214.607C216.556 14.7738 217.53 15.7525 217.53 17.7098V20.3386C217.53 20.5661 217.413 20.6799 217.182 20.6799Z" fill="#024639" fill-opacity="0.8"/>
</g>
<path d="M93.416 64H85.436C84.876 64 84.596 63.706 84.596 63.118V60.43C84.596 60.122 84.652 59.912 84.764 59.8C84.876 59.66 85.1 59.59 85.436 59.59H92.45C93.822 59.59 94.508 59.17 94.508 58.33V58.12C94.508 57.448 93.934 56.804 92.786 56.188L88.628 53.878C87.2 53.15 86.15 52.366 85.478 51.526C84.806 50.686 84.47 49.608 84.47 48.292C84.47 46.332 84.988 44.89 86.024 43.966C87.06 43.042 88.684 42.58 90.896 42.58H97.91C98.47 42.58 98.75 42.874 98.75 43.462V46.192C98.75 46.5 98.694 46.724 98.582 46.864C98.47 46.976 98.246 47.032 97.91 47.032H92.072C90.7 47.032 90.014 47.382 90.014 48.082V48.292C90.014 48.908 90.616 49.538 91.82 50.182L96.062 52.702C97.518 53.486 98.54 54.298 99.128 55.138C99.716 55.95 100.01 57.028 100.01 58.372C100.01 62.124 97.812 64 93.416 64ZM109.858 69.712H106.288C105.7 69.712 105.406 69.432 105.406 68.872V43.462C105.406 42.874 105.7 42.58 106.288 42.58H109.858C110.446 42.58 110.74 42.874 110.74 43.462V44.848H110.908C111.216 44.092 111.762 43.532 112.546 43.168C113.33 42.776 114.156 42.58 115.024 42.58H116.746C118.902 42.58 120.526 43.168 121.618 44.344C122.738 45.52 123.298 47.214 123.298 49.426V57.154C123.298 59.366 122.738 61.06 121.618 62.236C120.526 63.412 118.902 64 116.746 64H115.024C114.156 64 113.33 63.818 112.546 63.454C111.762 63.062 111.216 62.488 110.908 61.732H110.74V68.872C110.74 69.432 110.446 69.712 109.858 69.712ZM113.638 59.38H115.486C116.382 59.38 117.012 59.198 117.376 58.834C117.768 58.442 117.964 57.798 117.964 56.902V49.678C117.964 48.782 117.768 48.152 117.376 47.788C117.012 47.396 116.382 47.2 115.486 47.2H113.638C111.706 47.2 110.74 48.264 110.74 50.392V56.188C110.74 58.316 111.706 59.38 113.638 59.38ZM133.645 64H130.075C129.487 64 129.193 63.706 129.193 63.118V43.462C129.193 42.874 129.487 42.58 130.075 42.58H133.645C134.233 42.58 134.527 42.874 134.527 43.462V44.89H134.695C135.003 44.134 135.549 43.56 136.333 43.168C137.117 42.776 137.943 42.58 138.811 42.58H140.323C140.883 42.58 141.163 42.874 141.163 43.462V46.36C141.163 46.696 141.093 46.934 140.953 47.074C140.841 47.186 140.631 47.228 140.323 47.2H137.425C135.493 47.2 134.527 48.292 134.527 50.476V63.118C134.527 63.706 134.233 64 133.645 64ZM155.764 64H152.026C149.814 64 148.106 63.412 146.902 62.236C145.698 61.06 145.096 59.366 145.096 57.154V49.426C145.096 47.214 145.698 45.52 146.902 44.344C148.106 43.168 149.814 42.58 152.026 42.58H155.764C157.948 42.58 159.642 43.182 160.846 44.386C162.078 45.562 162.694 47.242 162.694 49.426V57.154C162.694 59.338 162.078 61.032 160.846 62.236C159.642 63.412 157.948 64 155.764 64ZM152.824 59.422H154.966C155.862 59.422 156.492 59.24 156.856 58.876C157.248 58.512 157.444 57.882 157.444 56.986V49.594C157.444 48.698 157.248 48.068 156.856 47.704C156.492 47.34 155.862 47.158 154.966 47.158H152.824C151.928 47.158 151.298 47.34 150.934 47.704C150.57 48.068 150.388 48.698 150.388 49.594V56.986C150.388 57.882 150.57 58.512 150.934 58.876C151.298 59.24 151.928 59.422 152.824 59.422ZM176.293 64H174.907C172.751 64 171.113 63.412 169.993 62.236C168.901 61.06 168.355 59.366 168.355 57.154V43.462C168.355 42.874 168.649 42.58 169.237 42.58H172.807C173.395 42.58 173.689 42.874 173.689 43.462V56.902C173.689 57.798 173.871 58.442 174.235 58.834C174.627 59.198 175.257 59.38 176.125 59.38H177.679C179.611 59.38 180.577 58.316 180.577 56.188V43.462C180.577 42.874 180.871 42.58 181.459 42.58H184.987C185.603 42.58 185.911 42.874 185.911 43.462V63.118C185.911 63.706 185.603 64 184.987 64H181.459C180.871 64 180.577 63.706 180.577 63.118V61.732H180.409C180.101 62.488 179.555 63.062 178.771 63.454C177.987 63.818 177.161 64 176.293 64Z" fill="#024639"/>
<path d="M194.562 46.954H192.882C192.546 46.954 192.308 46.898 192.168 46.786C192.056 46.674 192 46.45 192 46.114V43.216C192 42.628 192.294 42.334 192.882 42.334H194.562C194.87 42.334 195.024 42.18 195.024 41.872V39C195 37 196 34 200.358 34V41.872C200.358 42.18 200.526 42.334 200.862 42.334H204.138C204.726 42.334 205.02 42.628 205.02 43.216V46.114C205.02 46.422 204.95 46.646 204.81 46.786C204.698 46.898 204.474 46.954 204.138 46.954H200.862C200.526 46.954 200.358 47.108 200.358 47.416V56.698C200.358 57.566 200.554 58.196 200.946 58.588C201.338 58.952 201.982 59.134 202.878 59.134H204.558C205.146 59.134 205.44 59.428 205.44 60.016V62.914C205.44 63.222 205.37 63.446 205.23 63.586C205.118 63.698 204.894 64 204.558 64H202C199.788 64 198.062 63.166 196.83 61.99C195.626 60.814 195.024 59.134 195.024 56.95V47.416C195.024 47.108 194.87 46.954 194.562 46.954Z" fill="#024639"/>
<path fill-rule="evenodd" clip-rule="evenodd" d="M64.0001 20.5165L49.4835 5.99986C41.4837 -1.99995 28.5163 -1.99995 20.5165 5.99986L5.99986 20.5165C-1.99995 28.5163 -1.99995 41.4837 5.99986 49.4835L20.5165 64.0001C28.5163 72 41.4837 72 49.4835 64.0001L64.0001 49.4835C72 41.4837 72 28.5163 64.0001 20.5165ZM30.3938 47.4241L30.6151 44.6514C31.1993 37.3296 25.8229 30.8842 18.515 30.1456C18.515 30.1456 17.8428 40.7652 20.5165 43.4368C20.5165 43.4368 22.9696 47.4241 30.3938 47.4241ZM38.6665 38.1203V54.2039C38.6665 57.1132 36.0037 59.2944 33.1514 58.7216L33.4232 30.3388C33.5086 21.4168 40.5688 14.1256 49.4835 13.7532C49.4835 13.7532 52.4544 36.5697 38.6665 38.1203Z" fill="#48DC76"/>
<path d="M30.3938 47.4241L30.6151 44.6514C31.1993 37.3296 25.8229 30.8842 18.515 30.1456C18.515 30.1456 17.8428 40.7652 20.5165 43.4368C20.5165 43.4368 22.9696 47.4241 30.3938 47.4241Z" fill="white"/>
<path d="M30.3938 47.4241L30.6151 44.6514C31.1993 37.3296 25.8229 30.8842 18.515 30.1456C18.515 30.1456 17.8428 40.7652 20.5165 43.4368C20.5165 43.4368 22.9696 47.4241 30.3938 47.4241Z" fill="white"/>
<path d="M33.1514 58.7216L33.4232 30.3388C33.5086 21.4168 40.5688 14.1256 49.4835 13.7532C49.4835 13.7532 52.4544 36.5697 38.6665 38.1203V54.2039C38.6665 57.1132 36.0037 59.2944 33.1514 58.7216Z" fill="white"/>
<defs>
<clipPath id="clip0_1661_5333">
<rect width="137" height="24" fill="white" transform="translate(83 6)"/>
</clipPath>
</defs>
</svg>
