<svg width="70" height="70" viewBox="0 0 70 70" fill="none" xmlns="http://www.w3.org/2000/svg">
<path fill-rule="evenodd" clip-rule="evenodd" d="M64.0001 20.5165L49.4835 5.99986C41.4837 -1.99995 28.5163 -1.99995 20.5165 5.99986L5.99986 20.5165C-1.99995 28.5163 -1.99995 41.4837 5.99986 49.4835L20.5165 64.0001C28.5163 72 41.4837 72 49.4835 64.0001L64.0001 49.4835C72 41.4837 72 28.5163 64.0001 20.5165ZM27.7417 56.7386L20.4866 49.4921C24.494 45.489 30.9894 45.489 34.9968 49.4921L42.2519 56.7386C38.2445 60.7417 31.7491 60.7417 27.7417 56.7386ZM47.0851 51.9033L22.9128 27.7566C20.2391 25.0851 20.2348 20.7555 22.9064 18.0881L47.0787 42.2348C49.7524 44.9064 49.7567 49.236 47.0851 51.9033ZM34.9947 20.493L27.7396 13.2464C31.7469 9.24332 38.2424 9.24332 42.2498 13.2464L49.5049 20.493C45.4975 24.4961 39.002 24.4961 34.9947 20.493Z" fill="#024639"/>
<path d="M34.9947 20.493L27.7396 13.2464C31.7469 9.24332 38.2424 9.24332 42.2498 13.2464L49.5049 20.493C45.4975 24.4961 39.002 24.4961 34.9947 20.493Z" fill="#48DC76"/>
<path d="M47.0851 51.9033L22.9128 27.7566C20.2391 25.0851 20.2348 20.7555 22.9064 18.0881L47.0787 42.2348C49.7524 44.9064 49.7567 49.236 47.0851 51.9033Z" fill="#48DC76"/>
<path d="M27.7417 56.7386L20.4866 49.4921C24.494 45.489 30.9894 45.489 34.9968 49.4921L42.2519 56.7386C38.2445 60.7417 31.7491 60.7417 27.7417 56.7386Z" fill="#48DC76"/>
</svg>
