<?xml version="1.0" standalone="no"?>
<!DOCTYPE svg PUBLIC "-//W3C//DTD SVG 20010904//EN"
 "http://www.w3.org/TR/2001/REC-SVG-20010904/DTD/svg10.dtd">
<svg version="1.0" xmlns="http://www.w3.org/2000/svg"
 width="720.000000pt" height="405.000000pt" viewBox="0 0 720.000000 405.000000"
 preserveAspectRatio="xMidYMid meet">

<g transform="translate(0.000000,405.000000) scale(0.100000,-0.100000)"
fill="#000000" stroke="none">
<path d="M268 3575 c-3 -64 -3 -65 22 -64 14 0 19 3 13 6 -7 2 -13 16 -13 29
0 21 4 24 40 24 36 0 40 -3 40 -24 0 -13 -6 -27 -12 -29 -7 -3 3 -6 22 -6 23
0 30 2 21 8 -9 6 -12 25 -10 65 3 40 0 56 -8 56 -8 0 -13 -13 -13 -30 0 -28
-2 -30 -41 -30 -40 0 -41 1 -37 30 3 20 0 30 -8 30 -8 0 -13 -22 -16 -65z"/>
<path d="M478 3575 c-3 -63 -2 -65 21 -65 19 0 21 2 11 15 -7 8 -11 35 -8 65
2 33 -1 50 -9 50 -7 0 -13 -24 -15 -65z"/>
<path d="M607 3622 c-33 -37 -11 -112 34 -112 8 0 5 6 -9 16 -27 18 -30 69 -5
96 9 10 12 18 6 18 -5 0 -17 -8 -26 -18z"/>
<path d="M680 3636 c0 -2 7 -9 15 -16 12 -10 15 -10 15 4 0 9 -7 16 -15 16 -8
0 -15 -2 -15 -4z"/>
<path d="M799 3584 c2 -40 -1 -59 -10 -65 -10 -6 -6 -9 12 -9 23 0 25 3 21 30
-4 29 -3 30 37 30 37 0 41 -3 41 -24 0 -13 -6 -27 -12 -29 -7 -3 -2 -6 12 -6
24 -1 25 1 25 64 0 53 -3 65 -16 65 -12 0 -14 -7 -11 -30 4 -29 3 -30 -38 -30
-41 0 -42 1 -38 30 3 23 1 30 -11 30 -13 0 -15 -10 -12 -56z"/>
<path d="M1108 3575 l-3 -66 44 3 c29 2 46 8 49 18 4 12 2 13 -9 3 -7 -7 -24
-13 -37 -13 -23 0 -24 2 -20 60 2 41 -1 60 -9 60 -7 0 -13 -24 -15 -65z"/>
<path d="M1278 3588 c4 -42 1 -54 -13 -65 -17 -11 -12 -13 37 -13 43 0 57 4
62 16 5 14 4 15 -8 5 -24 -20 -61 -10 -64 18 -3 21 -1 23 27 19 26 -4 31 -1
31 15 0 16 -3 17 -15 7 -20 -16 -45 -5 -45 20 0 15 7 20 29 20 16 0 32 -6 34
-12 3 -8 6 -6 6 5 1 14 -7 17 -43 17 l-43 0 5 -52z"/>
<path d="M1459 3575 c14 -36 28 -65 31 -65 3 0 19 29 36 65 18 39 25 65 18 65
-6 0 -17 -20 -24 -45 -7 -25 -16 -48 -20 -50 -10 -6 -42 74 -35 86 4 5 -3 9
-13 9 -19 0 -19 -3 7 -65z"/>
<path d="M1638 3588 c4 -42 1 -54 -13 -65 -17 -11 -12 -13 37 -13 43 0 57 4
62 16 5 14 4 15 -8 5 -24 -20 -61 -10 -64 18 -3 21 -1 23 27 19 26 -4 31 -1
31 15 0 16 -3 17 -15 7 -20 -16 -45 -5 -45 20 0 15 7 20 29 20 16 0 32 -6 34
-12 3 -8 6 -6 6 5 1 14 -7 17 -43 17 l-43 0 5 -52z"/>
<path d="M1798 3575 l-3 -66 44 3 c29 2 46 8 49 18 4 12 2 13 -9 3 -7 -7 -24
-13 -37 -13 -23 0 -24 2 -20 60 2 41 -1 60 -9 60 -7 0 -13 -24 -15 -65z"/>
<path d="M2069 3584 c2 -40 -1 -59 -10 -65 -21 -13 69 -11 94 2 29 16 37 28
37 60 0 27 -27 59 -51 59 -8 0 -5 -6 9 -16 44 -30 20 -104 -34 -104 -23 0 -24
3 -24 60 0 41 -4 60 -12 60 -9 0 -12 -16 -9 -56z"/>
<path d="M2278 3588 c4 -42 1 -54 -13 -65 -17 -11 -12 -13 37 -13 43 0 57 4
62 16 5 14 4 15 -8 5 -24 -20 -61 -10 -64 18 -3 21 -1 23 27 19 26 -4 31 -1
31 15 0 16 -3 17 -15 7 -20 -16 -45 -5 -45 20 0 15 7 20 29 20 16 0 32 -6 34
-12 3 -8 6 -6 6 5 1 14 -7 17 -43 17 l-43 0 5 -52z"/>
<path d="M2430 3617 c0 -14 12 -32 30 -45 17 -13 30 -29 30 -37 0 -18 -41 -20
-59 -2 -10 10 -11 8 -5 -6 9 -24 63 -19 78 6 9 16 5 24 -28 51 -22 19 -36 38
-32 45 4 6 2 11 -3 11 -6 0 -11 -10 -11 -23z"/>
<path d="M2485 3630 c3 -5 8 -10 11 -10 2 0 4 5 4 10 0 6 -5 10 -11 10 -5 0
-7 -4 -4 -10z"/>
<path d="M2585 3575 c0 -51 3 -65 15 -65 12 0 15 14 15 65 0 51 -3 65 -15 65
-12 0 -15 -14 -15 -65z"/>
<path d="M2717 3628 c-28 -22 -32 -73 -8 -97 12 -12 28 -21 36 -21 9 0 6 8
-11 26 -20 19 -24 31 -19 52 3 15 13 33 22 40 9 6 12 12 7 12 -6 0 -18 -6 -27
-12z"/>
<path d="M2790 3636 c0 -2 7 -9 15 -16 12 -10 15 -10 15 4 0 9 -7 16 -15 16
-8 0 -15 -2 -15 -4z"/>
<path d="M2895 3575 c0 -58 2 -65 20 -65 15 0 16 3 7 12 -13 13 -17 88 -5 88
4 0 31 -23 59 -51 l52 -52 4 67 c2 40 -1 66 -7 66 -6 0 -9 -19 -7 -45 2 -25 1
-45 -3 -45 -4 0 -25 20 -47 45 -57 65 -73 61 -73 -20z"/>
<path d="M678 3563 c6 -2 12 -13 12 -23 0 -10 -6 -21 -12 -24 -7 -3 -4 -5 6
-3 12 1 23 13 27 30 7 25 5 27 -19 26 -15 0 -21 -3 -14 -6z"/>
<path d="M2788 3563 c18 -7 15 -43 -5 -43 -9 0 -14 -3 -10 -6 12 -13 45 8 50
31 4 22 1 25 -22 24 -14 0 -20 -3 -13 -6z"/>
<path d="M951 2962 c-18 -34 -104 -433 -95 -441 8 -7 459 -114 519 -123 17 -3
22 8 39 82 10 47 20 86 21 88 1 1 37 -5 80 -15 l77 -17 -6 -39 -7 -39 28 20
c16 11 44 35 65 54 l36 33 -35 75 -36 75 -7 -33 c-4 -18 -10 -35 -13 -38 -7
-7 -157 26 -157 35 1 3 9 42 20 86 10 44 16 83 12 86 -4 3 -110 30 -237 58
-126 29 -245 56 -263 61 -26 7 -34 5 -41 -8z m284 -63 c127 -28 234 -55 238
-59 5 -4 0 -44 -11 -89 -11 -46 -15 -84 -10 -87 5 -3 45 -14 90 -25 85 -20 97
-18 98 21 1 16 49 -68 50 -86 0 -7 -20 -28 -45 -48 l-45 -37 6 29 6 28 -91 21
c-51 11 -93 17 -96 13 -2 -3 -11 -40 -21 -81 -9 -41 -19 -77 -23 -82 -7 -7
-467 94 -502 111 -15 6 -15 13 1 82 10 41 32 137 50 213 30 130 34 138 54 134
11 -3 125 -29 251 -58z"/>
<path d="M1074 2794 c-5 -18 -1 -31 11 -42 16 -16 17 -16 6 6 -8 16 -9 28 -1
42 7 13 7 20 1 20 -6 0 -14 -12 -17 -26z"/>
<path d="M1145 2810 c3 -5 8 -10 11 -10 2 0 4 5 4 10 0 6 -5 10 -11 10 -5 0
-7 -4 -4 -10z"/>
<path d="M1175 2800 c-4 -6 1 -22 10 -36 9 -13 13 -29 10 -34 -3 -6 -2 -10 4
-10 19 0 23 21 7 39 -21 23 -21 45 0 37 8 -3 12 -2 9 4 -8 13 -32 13 -40 0z"/>
<path d="M1247 2758 c8 -61 16 -64 47 -18 14 22 22 40 18 40 -5 0 -14 -11 -20
-25 -16 -34 -32 -32 -32 4 0 17 -4 32 -9 35 -5 4 -7 -12 -4 -36z"/>
<path d="M1130 2740 c-9 -6 -10 -10 -3 -10 6 0 15 5 18 10 8 12 4 12 -15 0z"/>
<path d="M1160 2730 c0 -5 5 -10 11 -10 5 0 7 5 4 10 -3 6 -8 10 -11 10 -2 0
-4 -4 -4 -10z"/>
<path d="M1095 2650 c-18 -28 -23 -69 -10 -74 9 -3 12 0 9 9 -3 8 -2 20 2 27
8 12 14 48 8 48 -2 0 -6 -5 -9 -10z"/>
<path d="M1125 2650 c3 -5 8 -10 11 -10 2 0 4 5 4 10 0 6 -5 10 -11 10 -5 0
-7 -4 -4 -10z"/>
<path d="M1153 2605 c-6 -25 -7 -45 -3 -45 4 0 11 20 17 45 6 25 7 45 3 45 -4
0 -11 -20 -17 -45z"/>
<path d="M1118 2595 c-3 -14 -1 -25 3 -25 5 0 9 11 9 25 0 14 -2 25 -4 25 -2
0 -6 -11 -8 -25z"/>
<path d="M1183 2583 c-7 -17 5 -33 25 -32 15 1 15 2 0 6 -10 2 -18 10 -18 18
0 8 7 11 20 8 11 -3 20 -1 20 5 0 15 -41 10 -47 -5z"/>
<path d="M2050 2624 c-157 -96 -286 -178 -288 -183 -1 -4 51 -57 117 -116 108
-96 120 -111 115 -134 -6 -26 -50 -73 -176 -186 l-66 -61 121 -75 122 -75 1
-152 c1 -84 4 -155 5 -157 5 -4 599 -364 620 -375 11 -7 101 43 335 185 l319
193 3 155 3 156 102 62 c56 34 108 68 115 74 11 10 3 22 -45 66 -129 120 -171
165 -177 190 -5 23 7 38 114 134 66 59 120 111 120 115 0 4 -133 87 -295 185
l-295 178 -22 -19 c-13 -10 -67 -59 -122 -109 -90 -82 -102 -90 -140 -91 -39
-1 -48 6 -161 108 -66 59 -124 108 -130 107 -5 -1 -138 -79 -295 -175z m405
29 c86 -77 104 -99 93 -108 -25 -24 -499 -306 -508 -303 -5 2 -57 46 -115 98
l-106 94 38 23 c21 12 137 83 258 157 121 74 223 135 227 135 5 1 55 -42 113
-96z m727 -57 c139 -84 253 -158 253 -163 0 -12 -196 -192 -208 -193 -10 0
-486 287 -505 305 -11 10 6 30 92 109 58 53 108 96 110 96 3 0 119 -69 258
-154z m-253 -231 c218 -131 278 -172 268 -181 -9 -9 -401 -247 -557 -339 -9
-5 -572 339 -572 349 1 11 554 345 569 343 6 -1 137 -78 292 -172z m-628 -372
c143 -86 259 -159 259 -162 -1 -9 -212 -196 -219 -194 -8 2 -505 304 -511 310
-4 4 199 202 209 203 2 0 120 -70 262 -157z m1049 48 c52 -49 93 -91 90 -94
-3 -3 -120 -75 -261 -160 l-255 -154 -105 94 c-57 52 -104 98 -104 103 0 6
115 79 255 164 188 114 258 152 270 145 8 -5 58 -49 110 -98z m-744 -868 c-2
-2 -129 72 -282 165 l-279 169 -3 131 -3 131 156 -95 156 -95 127 116 127 116
3 -317 c1 -174 0 -319 -2 -321z m206 504 l106 -98 156 96 157 95 -3 -132 -3
-131 -278 -169 c-153 -92 -280 -168 -282 -168 -3 0 -5 145 -5 322 l0 321 23
-19 c12 -11 70 -64 129 -117z"/>
<path d="M2795 1466 l-70 -43 -3 -72 c-2 -40 1 -71 5 -68 4 2 41 23 81 47 l72
42 0 69 c0 38 -3 69 -7 69 -5 0 -39 -20 -78 -44z m45 -45 c0 -17 -23 -39 -67
-65 -9 -5 -13 1 -13 17 0 18 10 31 33 45 41 26 47 26 47 3z"/>
<path d="M816 2281 c-11 -18 -46 -455 -36 -461 13 -8 539 -54 546 -48 2 3 7
42 11 87 3 45 9 83 12 86 4 2 40 0 81 -3 l75 -7 0 -38 c0 -20 4 -35 10 -34 8
3 9 76 2 84 -1 0 -43 4 -93 8 l-91 7 -7 -91 c-4 -50 -11 -91 -14 -91 -23 0
-525 50 -527 52 -1 2 7 101 18 221 l21 217 35 -1 c20 0 140 -10 266 -22 l230
-23 -3 -49 c-1 -28 -5 -69 -8 -92 l-5 -41 68 -7 c37 -3 80 -8 95 -10 21 -3 27
0 33 22 6 27 7 26 37 -21 l31 -47 -38 -39 c-21 -22 -36 -42 -34 -45 3 -2 24
14 47 38 l41 42 -43 68 c-43 68 -56 72 -56 16 0 -21 -18 -23 -109 -12 l-53 6
7 94 c7 90 6 93 -14 93 -26 0 -452 38 -498 44 -18 3 -35 1 -37 -3z"/>
<path d="M4705 2195 l-25 -24 0 -456 c0 -448 0 -455 20 -455 20 0 20 7 20 444
0 391 2 446 16 460 14 14 88 16 669 16 581 0 655 -2 669 -16 14 -14 16 -69 16
-460 0 -437 0 -444 20 -444 20 0 20 7 20 455 l0 456 -25 24 -24 25 -676 0
-676 0 -24 -25z"/>
<path d="M893 2163 c3 -5 2 -26 -3 -46 -4 -21 -4 -37 1 -37 5 0 9 15 10 33 l1
32 14 -33 c8 -19 19 -30 25 -26 7 4 7 9 2 13 -6 3 -14 19 -20 35 -5 17 -15 32
-23 34 -7 3 -10 0 -7 -5z"/>
<path d="M973 2148 c-6 -7 -14 -20 -18 -28 -8 -13 -7 -13 10 0 17 14 18 13 13
-18 -2 -17 -1 -32 3 -32 4 0 9 20 11 45 3 46 -2 55 -19 33z"/>
<path d="M1254 2090 c-1 -28 3 -50 7 -50 5 0 9 23 9 50 0 65 -15 65 -16 0z"/>
<path d="M1032 2090 c0 -19 2 -27 5 -17 2 9 2 25 0 35 -3 9 -5 1 -5 -18z"/>
<path d="M1062 2090 c-1 -16 1 -30 6 -30 4 0 9 14 10 30 1 17 -1 30 -6 30 -4
0 -9 -13 -10 -30z"/>
<path d="M1095 2090 c0 -16 3 -30 6 -30 9 0 17 32 12 48 -8 22 -18 12 -18 -18z"/>
<path d="M1130 2087 c0 -14 5 -29 10 -32 7 -4 8 3 4 22 -9 38 -14 42 -14 10z"/>
<path d="M1165 2085 c2 -37 15 -43 15 -7 0 18 -4 32 -8 32 -4 0 -7 -11 -7 -25z"/>
<path d="M1205 2099 c-5 -8 -4 -10 3 -5 8 5 12 0 12 -13 0 -14 -5 -19 -15 -15
-8 4 -15 1 -15 -5 0 -6 10 -11 23 -11 18 0 23 5 22 20 -2 28 -20 46 -30 29z"/>
<path d="M4790 1730 l0 -380 615 0 615 0 0 380 0 380 -615 0 -615 0 0 -380z
m1190 0 l0 -340 -575 0 -575 0 0 340 0 340 575 0 575 0 0 -340z"/>
<path d="M5222 1753 l-2 -193 193 2 192 3 -187 2 -188 3 -3 188 -2 187 -3
-192z"/>
<path d="M5352 1773 l3 -168 33 -3 32 -3 0 170 0 171 -35 0 -35 0 2 -167z m58
-3 c0 -153 -1 -160 -20 -160 -19 0 -20 7 -20 160 0 153 1 160 20 160 19 0 20
-7 20 -160z"/>
<path d="M5262 1713 l3 -108 33 -3 32 -3 0 110 0 111 -35 0 -36 0 3 -107z m58
-3 c0 -93 -1 -100 -20 -100 -19 0 -20 7 -20 100 0 93 1 100 20 100 19 0 20 -7
20 -100z"/>
<path d="M5442 1713 l3 -108 33 -3 32 -3 0 110 0 111 -35 0 -36 0 3 -107z m58
-3 c0 -93 -1 -100 -20 -100 -19 0 -20 7 -20 100 0 93 1 100 20 100 19 0 20 -7
20 -100z"/>
<path d="M5534 1716 c-3 -7 -4 -35 -2 -62 3 -47 4 -49 36 -52 l32 -3 0 65 0
66 -30 0 c-17 0 -33 -6 -36 -14z m56 -51 c0 -48 -2 -55 -20 -55 -18 0 -20 7
-20 55 0 48 2 55 20 55 18 0 20 -7 20 -55z"/>
<path d="M1005 2080 c-3 -5 -1 -10 4 -10 6 0 11 5 11 10 0 6 -2 10 -4 10 -3 0
-8 -4 -11 -10z"/>
<path d="M4140 1957 l0 -87 -240 0 -240 0 0 -185 0 -185 240 0 239 0 3 -85 3
-85 178 177 177 178 -180 180 -180 180 0 -88z m340 -272 c0 -6 -74 -84 -165
-175 l-165 -165 0 88 0 87 -240 0 -240 0 0 165 0 165 240 0 240 0 0 87 0 88
165 -165 c91 -91 165 -169 165 -175z"/>
<path d="M3842 1708 c8 -13 21 -34 28 -47 9 -19 14 -21 21 -10 12 19 11 32 -1
24 -5 -3 -16 8 -25 25 -8 16 -20 30 -26 30 -7 0 -6 -9 3 -22z"/>
<path d="M3911 1711 c-10 -18 -10 -22 -1 -16 9 6 11 0 8 -24 -3 -19 0 -31 7
-31 7 0 10 14 7 38 -5 56 -8 59 -21 33z"/>
<path d="M3955 1691 c-3 -7 0 -8 9 -5 9 3 16 2 16 -4 0 -5 -7 -12 -15 -16 -22
-8 -18 -26 6 -26 16 0 20 5 17 27 -3 28 -22 41 -33 24z"/>
<path d="M4037 1679 c6 -23 9 -24 16 -5 3 8 0 17 -7 19 -10 4 -12 -1 -9 -14z"/>
<path d="M4074 1670 c1 -39 16 -39 16 0 0 17 -4 30 -9 30 -4 0 -8 -13 -7 -30z"/>
<path d="M4117 1693 c-4 -3 -7 -17 -7 -30 0 -18 5 -23 23 -22 16 1 18 2 5 6
-10 2 -18 13 -18 23 0 10 8 21 18 23 14 4 14 5 1 6 -9 0 -19 -2 -22 -6z"/>
<path d="M3830 1665 c0 -14 4 -25 9 -25 4 0 6 11 3 25 -2 14 -6 25 -8 25 -2 0
-4 -11 -4 -25z"/>
<path d="M4011 1690 c-2 -3 -4 -22 -6 -42 -2 -30 1 -38 14 -38 14 0 14 2 1 10
-12 8 -12 10 4 16 11 4 21 2 27 -7 7 -11 9 -11 9 -1 0 8 -9 16 -19 19 -11 3
-22 15 -24 27 -2 11 -5 19 -6 16z"/>
<path d="M934 1992 c3 -4 1 -25 -4 -45 -6 -30 -5 -37 7 -37 8 0 12 4 9 8 -3 4
-1 25 4 45 6 30 5 37 -7 37 -8 0 -12 -4 -9 -8z"/>
<path d="M970 1930 c0 -16 4 -30 8 -30 5 0 8 10 8 21 -1 12 5 24 13 27 10 3
13 -2 9 -22 -3 -14 -1 -26 3 -26 5 0 9 14 9 30 0 25 -4 30 -25 30 -21 0 -25
-5 -25 -30z"/>
<path d="M1038 1913 c-2 -25 0 -47 4 -49 8 -5 12 24 9 59 -2 10 5 17 15 17 11
0 15 -6 11 -20 -3 -11 -1 -20 4 -20 5 0 9 11 9 24 0 17 -7 25 -24 28 -22 5
-25 1 -28 -39z"/>
<path d="M1111 1923 c-1 -29 2 -33 24 -33 22 0 25 4 24 33 -2 30 -2 30 -6 5
-2 -16 -10 -28 -18 -28 -8 0 -16 12 -18 28 -4 25 -4 25 -6 -5z"/>
<path d="M1180 1915 c0 -19 4 -35 9 -35 5 0 7 9 4 21 -3 12 0 24 6 29 10 5 9
9 -3 13 -13 5 -16 -1 -16 -28z"/>
<path d="M3550 1685 c0 -158 2 -185 15 -185 13 0 15 27 15 185 0 158 -2 185
-15 185 -13 0 -15 -27 -15 -185z m17 -88 c-1 -45 -3 -5 -3 88 0 94 2 130 3 82
2 -48 2 -125 0 -170z"/>
<path d="M3597 1863 c-4 -3 -7 -87 -7 -185 l0 -179 28 3 27 3 3 183 2 182 -23
0 c-13 0 -27 -3 -30 -7z m43 -178 c0 -158 -1 -165 -20 -165 -19 0 -20 7 -20
165 0 158 1 165 20 165 19 0 20 -7 20 -165z"/>
<path d="M1132 1580 c-195 -21 -357 -41 -360 -45 -7 -7 38 -447 47 -457 6 -6
719 67 728 75 2 3 0 40 -5 84 -5 43 -7 81 -3 85 3 4 43 10 89 14 67 6 82 4 82
-7 0 -8 4 -20 9 -28 7 -10 26 1 85 50 42 35 76 67 76 71 0 7 -172 98 -185 98
-2 0 -2 -13 1 -29 7 -33 20 -28 -130 -46 l-44 -6 -7 58 c-10 92 -15 123 -23
122 -4 -1 -166 -18 -360 -39z m362 -7 c2 -16 8 -54 11 -87 l7 -58 66 6 c123
13 132 16 132 43 l0 25 73 -41 c39 -22 71 -44 69 -48 -2 -4 -29 -29 -60 -55
l-57 -47 -10 25 c-7 18 -15 24 -30 20 -11 -2 -55 -8 -98 -11 l-78 -7 6 -57 c3
-31 8 -71 11 -88 3 -18 4 -33 2 -33 -2 0 -151 -16 -332 -35 -180 -19 -340 -35
-355 -35 l-27 0 -23 216 c-12 119 -20 218 -18 220 5 6 606 71 664 73 38 1 42
-1 47 -26z"/>
<path d="M1038 1405 c2 -25 9 -45 14 -45 6 0 8 13 4 31 -3 17 -6 38 -6 45 0 8
-3 14 -8 14 -4 0 -6 -20 -4 -45z"/>
<path d="M1102 1430 c10 -16 10 -24 1 -40 -11 -16 -10 -18 1 -14 28 11 24 74
-5 74 -5 0 -4 -9 3 -20z"/>
<path d="M1192 1418 c2 -17 9 -33 16 -36 11 -3 11 -1 0 17 -11 18 -11 23 0 30
11 7 10 9 -3 15 -13 5 -16 0 -13 -26z"/>
<path d="M1246 1426 c3 -8 1 -17 -5 -21 -14 -8 -14 -25 0 -25 5 0 7 5 4 10 -3
6 -2 10 4 10 5 0 12 -6 14 -12 4 -8 6 -7 6 4 1 22 -9 48 -20 48 -4 0 -6 -6 -3
-14z"/>
<path d="M1150 1419 c11 -8 12 -12 3 -16 -16 -6 -17 -33 -2 -33 5 0 7 6 3 13
-5 7 0 6 11 -3 17 -14 18 -13 12 3 -4 10 -7 25 -7 33 0 8 -8 14 -17 14 -16 0
-16 -2 -3 -11z"/>
<path d="M1417 1304 c-7 -8 13 -54 25 -54 13 0 9 16 -7 30 -8 7 -12 16 -9 21
6 10 0 12 -9 3z"/>
<path d="M1300 1285 c-14 -16 -7 -45 11 -45 8 0 8 4 -1 15 -9 11 -10 19 -2 27
15 15 35 -1 29 -23 -3 -11 -1 -17 4 -13 15 9 10 41 -7 48 -21 8 -20 8 -34 -9z"/>
<path d="M1365 1270 c0 -16 5 -30 12 -30 6 0 9 9 6 21 -4 12 0 25 8 30 11 7 9
9 -6 9 -16 0 -20 -7 -20 -30z"/>
<path d="M1223 1260 c1 -16 7 -30 14 -30 9 0 9 8 2 30 -14 38 -19 38 -16 0z"/>
<path d="M1254 1274 c3 -9 6 -22 6 -30 0 -8 3 -14 8 -14 4 0 7 14 7 30 0 19
-5 30 -14 30 -8 0 -11 -6 -7 -16z"/>
<path d="M880 1243 c5 -20 7 -41 4 -45 -3 -4 1 -8 9 -8 12 0 13 7 6 38 -5 20
-9 40 -9 45 0 4 -4 7 -9 7 -5 0 -5 -16 -1 -37z"/>
<path d="M923 1268 c3 -9 1 -20 -5 -26 -11 -11 27 -42 52 -42 9 1 4 7 -12 15
-18 10 -25 20 -21 34 3 10 -1 22 -8 27 -8 5 -11 2 -6 -8z"/>
<path d="M1123 1273 c-16 -6 -17 -39 -2 -49 7 -4 9 0 5 14 -4 11 -2 23 5 27
14 9 31 -15 24 -33 -3 -7 0 -10 5 -7 6 3 10 13 10 22 0 13 3 13 15 3 13 -11
13 -15 3 -21 -9 -6 -9 -9 -1 -9 18 0 26 19 14 34 -6 7 -8 16 -4 19 3 4 2 7 -3
7 -6 0 -15 -5 -21 -11 -8 -8 -13 -8 -17 0 -8 12 -14 12 -33 4z"/>
<path d="M1044 1245 c3 -11 6 -30 6 -42 0 -13 5 -23 11 -23 5 0 7 5 4 10 -4 6
3 18 15 28 28 22 18 52 -17 50 -19 -2 -23 -7 -19 -23z m41 -5 c0 -7 -6 -15
-12 -17 -8 -3 -13 4 -13 17 0 13 5 20 13 18 6 -3 12 -11 12 -18z"/>
<path d="M985 1241 c-3 -8 1 -21 10 -30 12 -12 17 -13 27 -2 11 10 10 11 -3 6
-10 -4 -19 0 -22 9 -5 11 0 16 13 16 11 0 20 4 20 9 0 15 -39 8 -45 -8z"/>
<path d="M1425 1230 c-3 -5 -1 -10 4 -10 6 0 11 5 11 10 0 6 -2 10 -4 10 -3 0
-8 -4 -11 -10z"/>
<path d="M4427 1193 c-12 -11 -8 -53 8 -83 33 -64 -31 -60 971 -60 891 0 912
0 936 20 30 23 51 69 46 102 l-3 23 -437 3 -438 2 0 -25 0 -25 -105 0 -105 0
0 25 0 25 -433 0 c-239 0 -437 -3 -440 -7z m841 -63 c11 -18 23 -20 137 -20
114 0 126 2 137 20 12 19 24 20 405 20 336 0 393 -2 393 -14 0 -8 -10 -22 -22
-30 -20 -14 -123 -16 -913 -16 -790 0 -893 2 -913 16 -12 8 -22 22 -22 30 0
12 57 14 393 14 381 0 393 -1 405 -20z"/>
<path d="M1899 1077 l20 -32 -76 -49 c-45 -30 -77 -45 -81 -39 -4 5 -27 40
-51 76 l-43 67 -37 -23 c-119 -71 -580 -373 -580 -380 -1 -13 243 -387 253
-387 8 0 586 370 609 390 5 4 -12 40 -37 79 -25 39 -46 75 -46 80 0 5 24 24
53 42 28 17 62 38 74 46 20 14 23 12 38 -17 9 -18 19 -29 23 -25 4 3 23 48 43
98 l37 92 -57 6 c-31 4 -80 7 -109 8 l-54 1 21 -33z m167 10 c8 -1 0 -31 -19
-81 -30 -77 -31 -78 -48 -57 -10 11 -20 21 -24 21 -9 0 -165 -101 -165 -107 0
-2 20 -36 45 -74 25 -38 45 -73 45 -77 0 -7 -570 -379 -589 -384 -5 -2 -64 80
-130 182 -106 163 -117 186 -103 196 59 40 566 366 576 370 8 3 32 -24 61 -71
l47 -76 31 21 c18 11 56 35 85 53 51 31 54 38 38 77 -6 13 4 15 66 12 40 -2
78 -4 84 -5z"/>
<path d="M1553 852 c-8 -5 -6 -14 8 -31 19 -24 26 -18 9 9 -6 9 -5 17 3 22 7
4 8 8 2 8 -5 0 -15 -4 -22 -8z"/>
<path d="M1503 814 c-3 -8 2 -23 11 -32 13 -13 18 -14 28 -3 7 7 9 12 3 11
-35 -7 -46 18 -15 32 12 5 12 7 -3 7 -10 1 -20 -6 -24 -15z"/>
<path d="M1420 807 c0 -12 44 -77 53 -77 4 0 0 11 -8 24 -21 31 -2 45 19 14 9
-12 18 -19 21 -16 3 3 -3 16 -14 29 -15 19 -22 21 -32 12 -10 -10 -15 -9 -25
5 -8 9 -14 14 -14 9z"/>
<path d="M1715 770 c-9 -14 1 -27 25 -33 11 -3 18 -1 14 4 -3 5 -12 9 -21 9
-9 0 -13 6 -9 15 6 17 0 20 -9 5z"/>
<path d="M1400 755 c0 -13 32 -45 44 -45 4 0 0 7 -9 16 -9 9 -14 22 -12 29 3
6 -1 12 -9 12 -8 0 -14 -6 -14 -12z"/>
<path d="M1367 742 c11 -9 23 -26 26 -37 4 -15 5 -13 6 7 1 18 -6 31 -18 38
-30 16 -38 11 -14 -8z"/>
<path d="M1685 740 c3 -5 1 -10 -4 -10 -6 0 -11 -7 -11 -15 0 -9 -9 -15 -22
-16 -22 0 -22 -1 -3 -8 11 -5 22 -6 25 -2 3 3 14 6 24 6 11 0 21 7 23 15 4 13
3 13 -6 0 -8 -11 -13 -12 -21 -4 -9 9 -9 14 -1 18 14 9 14 26 0 26 -5 0 -7 -4
-4 -10z"/>
<path d="M1311 710 c-1 -31 16 -50 44 -50 18 0 18 1 -5 13 -13 7 -27 23 -31
37 l-7 25 -1 -25z"/>
<path d="M1604 662 c-1 -15 1 -22 3 -15 2 7 11 9 20 6 13 -5 13 -3 2 16 -18
28 -24 27 -25 -7z"/>
<path d="M1490 664 c0 -3 9 -19 21 -35 25 -36 16 -58 -13 -32 -21 18 -21 18
-9 -4 14 -27 15 -27 40 -11 18 11 18 13 -6 50 -25 37 -33 45 -33 32z"/>
<path d="M1544 655 c-13 -32 24 -63 41 -35 3 6 -1 7 -9 4 -21 -8 -34 25 -15
37 10 6 11 9 1 9 -7 0 -15 -7 -18 -15z"/>
<path d="M1455 590 c3 -5 8 -10 11 -10 2 0 4 5 4 10 0 6 -5 10 -11 10 -5 0 -7
-4 -4 -10z"/>
<path d="M1430 574 c0 -14 22 -34 36 -34 6 0 15 8 19 18 5 13 4 14 -6 5 -10
-10 -16 -9 -31 4 -10 9 -18 12 -18 7z"/>
<path d="M1403 558 c1 -7 -4 -12 -10 -10 -7 1 -13 -2 -13 -7 0 -14 28 -33 42
-28 8 4 7 6 -4 6 -20 1 -24 16 -8 26 6 3 10 10 10 16 0 5 -4 9 -10 9 -5 0 -9
-6 -7 -12z"/>
<path d="M1312 535 c2 -13 13 -22 33 -25 32 -6 36 -20 8 -31 -15 -6 -15 -8 -2
-8 21 -1 43 24 34 39 -3 5 -17 10 -30 10 -13 0 -29 8 -35 18 -10 16 -10 15 -8
-3z"/>
</g>
</svg>
