<svg width="128" height="39" viewBox="0 0 128 39" fill="none" xmlns="http://www.w3.org/2000/svg">
<path fill-rule="evenodd" clip-rule="evenodd" d="M81.9249 31.0568C81.9249 31.6828 81.6152 31.9971 80.996 31.9971H77.2343C76.615 31.9971 76.3054 31.6828 76.3054 31.0568V29.5791H76.1276C75.8036 30.3851 75.2274 30.9911 74.4016 31.3941C73.5759 31.7971 72.7043 32 71.7897 32H69.9748C67.7012 32 65.9838 31.3741 64.8169 30.1193C63.65 28.8646 63.068 27.0582 63.068 24.6974V16.4545C63.068 14.0965 63.65 12.2872 64.8169 11.0325C65.981 9.77778 67.7012 9.15184 69.9748 9.15184H71.7897C72.7043 9.15184 73.5759 9.35477 74.4016 9.75777C75.2274 10.1608 75.8036 10.7667 76.1276 11.5727H76.3054V0C79.4391 0 81.9822 2.44659 81.9851 5.4591C81.988 8.4716 81.9278 31.0597 81.9278 31.0597L81.9249 31.0568ZM73.2491 14.0765C75.2847 14.0765 76.3025 15.2111 76.3025 17.4805V23.6656C76.3025 25.935 75.2847 27.0697 73.2491 27.0697H71.2564C70.3103 27.0697 69.648 26.8667 69.2638 26.4637C68.8796 26.0607 68.6875 25.3834 68.6875 24.4259V16.7203C68.6875 15.7656 68.8796 15.0854 69.2638 14.6824C69.648 14.2794 70.3103 14.0765 71.2564 14.0765H73.2491Z" fill="#024639"/>
<path d="M7.938 31.034H6.552C4.396 31.034 2.758 30.446 1.638 29.27C0.546 28.094 0 26.4 0 24.188V17.426C0 15.214 0.602 13.52 1.806 12.344C3.01 11.168 4.718 10.58 6.93 10.58H16.632C17.248 10.58 17.556 10.874 17.556 11.462V32.168C17.556 34.352 16.94 36.032 15.708 37.208C14.504 38.384 12.81 38.972 10.626 38.972H2.562C2.226 38.972 1.988 38.902 1.848 38.762C1.736 38.65 1.68 38.44 1.68 38.132V35.234C1.68 34.646 1.974 34.352 2.562 34.352H9.744C10.64 34.352 11.27 34.156 11.634 33.764C12.026 33.4 12.222 32.784 12.222 31.916V28.724H12.054C11.746 29.48 11.2 30.054 10.416 30.446C9.632 30.838 8.806 31.034 7.938 31.034ZM12.222 23.222V15.662C12.222 15.354 12.054 15.2 11.718 15.2H7.77C6.874 15.2 6.244 15.396 5.88 15.788C5.516 16.152 5.334 16.782 5.334 17.678V23.936C5.334 24.832 5.516 25.462 5.88 25.826C6.244 26.19 6.874 26.372 7.77 26.372H9.324C11.256 26.372 12.222 25.322 12.222 23.222Z" fill="#024639"/>
<path d="M31.3553 32H30.3473C28.1353 32 26.4273 31.412 25.2233 30.236C24.0193 29.06 23.4173 27.366 23.4173 25.154V17.426C23.4173 15.214 24.0193 13.52 25.2233 12.344C26.4273 11.168 28.1353 10.58 30.3473 10.58H40.0493C40.6653 10.58 40.9733 10.874 40.9733 11.462V31.118C40.9733 31.706 40.6653 32 40.0493 32H36.5213C35.9333 32 35.6393 31.706 35.6393 31.118V29.732H35.4713C35.1633 30.488 34.6173 31.062 33.8333 31.454C33.0493 31.818 32.2233 32 31.3553 32ZM35.6393 24.188V15.662C35.6393 15.354 35.4713 15.2 35.1353 15.2H31.1873C30.2913 15.2 29.6613 15.396 29.2973 15.788C28.9333 16.152 28.7513 16.782 28.7513 17.678V24.902C28.7513 25.798 28.9333 26.442 29.2973 26.834C29.6613 27.198 30.2913 27.38 31.1873 27.38H32.7413C34.6733 27.38 35.6393 26.316 35.6393 24.188Z" fill="#024639"/>
<path d="M51.7076 32H48.1376C47.5496 32 47.2556 31.706 47.2556 31.118V11.462C47.2556 10.874 47.5496 10.58 48.1376 10.58H51.7076C52.2956 10.58 52.5896 10.874 52.5896 11.462V12.89H52.7576C53.0656 12.134 53.6116 11.56 54.3956 11.168C55.1796 10.776 56.0056 10.58 56.8736 10.58H58.3856C58.9456 10.58 59.2256 10.874 59.2256 11.462V14.36C59.2256 14.696 59.1556 14.934 59.0156 15.074C58.9036 15.186 58.6936 15.228 58.3856 15.2H55.4876C53.5556 15.2 52.5896 16.292 52.5896 18.476V31.118C52.5896 31.706 52.2956 32 51.7076 32Z" fill="#024639"/>
<path d="M103.17 32H93.888C91.676 32 89.968 31.412 88.764 30.236C87.56 29.06 86.958 27.366 86.958 25.154V17.426C86.958 15.214 87.56 13.52 88.764 12.344C89.968 11.168 91.676 10.58 93.888 10.58H97.206C99.418 10.58 101.126 11.168 102.33 12.344C103.534 13.52 104.136 15.214 104.136 17.426V22.76C104.136 23.348 103.842 23.642 103.254 23.642H92.712C92.376 23.642 92.208 23.796 92.208 24.104V25.028C92.208 25.896 92.39 26.526 92.754 26.918C93.146 27.282 93.79 27.464 94.686 27.464H103.17C103.758 27.464 104.052 27.772 104.052 28.388V31.16C104.052 31.468 103.982 31.692 103.842 31.832C103.73 31.944 103.506 32 103.17 32ZM92.712 20.072H98.424C98.732 20.072 98.886 19.918 98.886 19.61V17.594C98.886 16.698 98.704 16.068 98.34 15.704C97.976 15.34 97.346 15.158 96.45 15.158H94.686C93.79 15.158 93.16 15.34 92.796 15.704C92.432 16.068 92.25 16.698 92.25 17.594V19.61C92.25 19.918 92.404 20.072 92.712 20.072Z" fill="#024639"/>
<path d="M114.264 32H110.694C110.106 32 109.812 31.706 109.812 31.118V11.462C109.812 10.874 110.106 10.58 110.694 10.58H114.264C114.852 10.58 115.146 10.874 115.146 11.462V12.848H115.314C115.93 11.336 117.302 10.58 119.43 10.58H120.774C125.17 10.58 127.368 12.862 127.368 17.426V31.118C127.368 31.706 127.06 32 126.444 32H122.916C122.328 32 122.034 31.706 122.034 31.118V17.678C122.034 16.782 121.838 16.152 121.446 15.788C121.082 15.396 120.452 15.2 119.556 15.2H118.044C116.112 15.2 115.146 16.264 115.146 18.392V31.118C115.146 31.706 114.852 32 114.264 32Z" fill="#024639"/>
</svg>
