<svg width="70" height="70" viewBox="0 0 70 70" fill="none" xmlns="http://www.w3.org/2000/svg">
<path fill-rule="evenodd" clip-rule="evenodd" d="M64.0001 20.5165L49.4835 5.99986C41.4837 -1.99995 28.5163 -1.99995 20.5165 5.99986L5.99986 20.5165C-1.99995 28.5163 -1.99995 41.4837 5.99986 49.4835L20.5165 64.0001C28.5163 72 41.4837 72 49.4835 64.0001L64.0001 49.4835C72 41.4837 72 28.5163 64.0001 20.5165Z" fill="#D04BFE"/>
<path d="M12.6629 41.8801C12.6629 38.8325 10.2647 36.3246 7.22023 36.1884L6.79827 36.1695C6.79827 36.1695 6.55705 39.1882 8.39927 40.632C8.39927 40.632 10.0998 41.8801 12.6629 41.8801Z" fill="white"/>
<path d="M13.212 49.6593L13.3232 42.1956C13.4019 36.9153 17.6301 32.6362 22.9091 32.4944C22.9091 32.4944 22.9091 39.8445 16.4866 40.632V46.7803C16.4866 48.5311 14.9484 49.8835 13.212 49.6593Z" fill="white"/>
<path d="M14.1192 19.9394C14.3561 19.9394 14.5929 19.9394 14.846 19.9498C15.1863 19.9802 15.4844 20.0958 15.7545 20.2613C16.483 20.7079 16.9196 21.3494 16.9825 22.2236C16.9856 22.2662 17.0061 22.3075 17.0226 22.3631C17.6329 22.0275 18.2665 21.9859 18.9017 22.167C19.5476 22.3512 20.0437 22.7566 20.3688 23.3568C20.6633 23.9006 20.7619 24.4818 20.6269 25.0852C20.4726 25.7745 20.1067 26.3291 19.4923 26.7037C20.6073 27.4096 20.961 28.7931 20.4497 29.8923C20.1699 30.4938 19.7296 30.9277 19.1185 31.1668C18.4121 31.4432 17.7092 31.4073 17.0172 31.0528C17.0031 31.1098 16.9846 31.1533 16.9825 31.1976C16.9638 31.594 16.8447 31.9605 16.6361 32.2927C16.3309 32.7786 15.914 33.1367 15.3712 33.3307C15.2034 33.3907 15.0269 33.4261 14.8544 33.4728C14.5913 33.4728 14.3282 33.4728 14.0497 33.4631C14.0155 33.4439 13.9975 33.4302 13.9775 33.4257C13.4598 33.3085 13.0222 33.0545 12.6652 32.6578C12.3531 32.3111 12.1528 31.9099 12.0718 31.4495C12.0494 31.3221 12.0358 31.1933 12.0153 31.044C11.4441 31.354 10.864 31.4095 10.2642 31.2779C9.6521 31.1436 9.13236 30.8252 8.80945 30.2954C7.96077 28.9027 8.27507 27.7043 9.50243 26.6874C8.9304 26.3152 8.56547 25.7921 8.41102 25.1241C8.25455 24.4473 8.37415 23.8162 8.7354 23.2284C9.02487 22.7574 9.42964 22.4189 9.94311 22.2305C10.6403 21.9747 11.3312 22.0087 12.0092 22.3607C12.0235 22.302 12.0415 22.2583 12.0436 22.2139C12.0626 21.8176 12.1816 21.4511 12.3903 21.1191C12.6955 20.6333 13.113 20.2769 13.6549 20.0806C13.8068 20.0255 13.9643 19.986 14.1192 19.9394ZM13.3948 24.7491C13.052 24.9341 12.7879 25.2036 12.5917 25.5369C12.2873 26.0543 12.1744 26.6114 12.3186 27.2018C12.4673 27.8107 12.7959 28.2961 13.3357 28.6279C13.8038 28.9156 14.3102 29.0399 14.8495 28.9477C15.3703 28.8586 15.8261 28.6276 16.1794 28.2147C16.6541 27.66 16.856 27.0313 16.7199 26.3018C16.6027 25.6734 16.2829 25.178 15.756 24.8263C15.3159 24.5325 14.8332 24.396 14.2971 24.4556C13.9798 24.4909 13.6881 24.5855 13.3948 24.7491Z" fill="white"/>
<path d="M52.9659 41.8801C52.9659 38.8325 50.5677 36.3246 47.5233 36.1884L47.1013 36.1695C47.1013 36.1695 46.8601 39.1882 48.7023 40.632C48.7023 40.632 50.4028 41.8801 52.9659 41.8801Z" fill="white"/>
<path d="M53.5151 49.6593L53.6262 42.1956C53.7049 36.9153 57.9331 32.6362 63.2121 32.4944C63.2121 32.4944 63.2121 39.8445 56.7896 40.632V46.7803C56.7896 48.5311 55.2514 49.8835 53.5151 49.6593Z" fill="white"/>
<path d="M54.4222 19.9394C54.6591 19.9394 54.896 19.9394 55.149 19.9498C55.4893 19.9802 55.7875 20.0958 56.0575 20.2613C56.786 20.7079 57.2227 21.3494 57.2856 22.2236C57.2886 22.2662 57.3092 22.3075 57.3256 22.3631C57.9359 22.0275 58.5696 21.9859 59.2047 22.167C59.8507 22.3512 60.3467 22.7566 60.6718 23.3568C60.9663 23.9006 61.065 24.4818 60.9299 25.0852C60.7757 25.7745 60.4097 26.3291 59.7953 26.7037C60.9103 27.4096 61.264 28.7931 60.7527 29.8923C60.473 30.4938 60.0327 30.9277 59.4215 31.1668C58.7151 31.4432 58.0123 31.4073 57.3203 31.0528C57.3061 31.1098 57.2876 31.1533 57.2855 31.1976C57.2668 31.594 57.1478 31.9605 56.9391 32.2927C56.634 32.7786 56.217 33.1367 55.6742 33.3307C55.5064 33.3907 55.3299 33.4261 55.1574 33.4728C54.8943 33.4728 54.6312 33.4728 54.3528 33.4631C54.3185 33.4439 54.3006 33.4302 54.2805 33.4257C53.7628 33.3085 53.3253 33.0545 52.9682 32.6578C52.6561 32.3111 52.4559 31.9099 52.3748 31.4495C52.3524 31.3221 52.3388 31.1933 52.3183 31.044C51.7472 31.354 51.167 31.4095 50.5673 31.2779C49.9551 31.1436 49.4354 30.8252 49.1125 30.2954C48.2638 28.9027 48.5781 27.7043 49.8055 26.6874C49.2334 26.3152 48.8685 25.7921 48.714 25.1241C48.5576 24.4473 48.6772 23.8162 49.0384 23.2284C49.3279 22.7574 49.7327 22.4189 50.2461 22.2305C50.9433 21.9747 51.6342 22.0087 52.3123 22.3607C52.3265 22.302 52.3445 22.2583 52.3467 22.2139C52.3656 21.8176 52.4847 21.4511 52.6933 21.1191C52.9985 20.6333 53.4161 20.2769 53.9579 20.0806C54.1098 20.0255 54.2673 19.986 54.4222 19.9394ZM53.6979 24.7491C53.3551 24.9341 53.0909 25.2036 52.8948 25.5369C52.5903 26.0543 52.4774 26.6114 52.6216 27.2018C52.7703 27.8107 53.0989 28.2961 53.6387 28.6279C54.1069 28.9156 54.6132 29.0399 55.1525 28.9477C55.6733 28.8586 56.1291 28.6276 56.4824 28.2147C56.9572 27.66 57.159 27.0313 57.0229 26.3018C56.9057 25.6734 56.5859 25.178 56.059 24.8263C55.6189 24.5325 55.1362 24.396 54.6001 24.4556C54.2829 24.4909 53.9912 24.5855 53.6979 24.7491Z" fill="white"/>
<path d="M32.1276 44.8225C32.1276 39.9013 28.2643 35.8308 23.3489 35.5933C23.3489 35.5933 22.9878 40.4721 25.7454 42.8054C25.7454 42.8054 28.2909 44.8225 32.1276 44.8225Z" fill="white"/>
<path d="M32.9496 57.3949L33.1315 44.2068C33.2406 36.2999 39.5606 29.8831 47.465 29.6539C47.465 29.6539 47.465 41.5327 37.8512 42.8054V53.1291C37.8512 55.7442 35.5397 57.7559 32.9496 57.3949Z" fill="white"/>
<path d="M33.8508 8.90909C34.232 8.90909 34.6133 8.90909 35.0205 8.92606C35.5682 8.97567 36.048 9.16397 36.4827 9.43386C37.655 10.1618 38.3577 11.2076 38.459 12.6326C38.4639 12.702 38.497 12.7693 38.5235 12.8599C39.5056 12.3129 40.5254 12.2451 41.5476 12.5403C42.5871 12.8405 43.3855 13.5014 43.9086 14.4797C44.3826 15.3662 44.5414 16.3135 44.324 17.2972C44.0758 18.4207 43.4869 19.3249 42.498 19.9355C44.2924 21.0861 44.8617 23.3414 44.0389 25.1331C43.5886 26.1136 42.88 26.8209 41.8965 27.2107C40.7597 27.6612 39.6285 27.6027 38.5148 27.0249C38.492 27.1178 38.4623 27.1887 38.4589 27.2609C38.4288 27.907 38.2372 28.5046 37.9015 29.046C37.4103 29.838 36.7393 30.4218 35.8657 30.7381C35.5956 30.8358 35.3117 30.8936 35.0341 30.9697C34.6106 30.9697 34.1871 30.9697 33.7391 30.9539C33.684 30.9226 33.655 30.9002 33.6228 30.8928C32.7896 30.7019 32.0855 30.2879 31.5109 29.6412C31.0086 29.0759 30.6863 28.422 30.5558 27.6715C30.5198 27.4639 30.498 27.2538 30.4649 27.0106C29.5457 27.5159 28.612 27.6063 27.6469 27.3918C26.6617 27.1729 25.8253 26.6539 25.3056 25.7902C23.9398 23.52 24.4456 21.5665 26.4209 19.9088C25.5003 19.3022 24.913 18.4494 24.6644 17.3605C24.4126 16.2574 24.6051 15.2286 25.1864 14.2704C25.6523 13.5026 26.3037 12.9509 27.1301 12.6438C28.2521 12.2269 29.3639 12.2822 30.4552 12.856C30.4781 12.7603 30.5071 12.6891 30.5105 12.6167C30.541 11.9708 30.7326 11.3734 31.0684 10.832C31.5596 10.0402 32.2316 9.45923 33.1037 9.13923C33.3481 9.04952 33.6015 8.98511 33.8508 8.90909ZM32.6851 16.7493C32.1334 17.0508 31.7083 17.4903 31.3926 18.0335C30.9026 18.8769 30.721 19.7851 30.953 20.7475C31.1923 21.7399 31.7212 22.5313 32.5899 23.0721C33.3433 23.541 34.1582 23.7436 35.0261 23.5933C35.8642 23.4482 36.5979 23.0716 37.1665 22.3986C37.9305 21.4943 38.2553 20.4695 38.0363 19.2804C37.8476 18.256 37.333 17.4484 36.4851 16.8751C35.7768 16.3962 34.9999 16.1738 34.1371 16.2709C33.6266 16.3284 33.1571 16.4827 32.6851 16.7493Z" fill="white"/>
</svg>
