<svg width="219" height="71" viewBox="0 0 219 71" fill="none" xmlns="http://www.w3.org/2000/svg">
<path fill-rule="evenodd" clip-rule="evenodd" d="M142.991 30H140.938C139.361 30 138.132 29.5562 137.25 28.6686C136.369 27.7809 135.928 26.5405 135.928 24.9474V17.6415C135.928 16.0484 136.369 14.808 137.25 13.9203C138.132 13.0327 139.361 12.5889 140.938 12.5889H142.991C144.8 12.5889 145.995 13.192 146.575 14.3983H146.714V6C146.714 6 149.305 6.375 149.305 9.375C149.305 12.375 149.219 29.522 149.219 29.522C149.219 29.8407 149.068 30 148.767 30H147.166C146.865 30 146.714 29.8407 146.714 29.522V28.1906H146.575C145.995 29.3969 144.8 30 142.991 30ZM146.714 17.9146V24.6743C146.714 25.6757 146.435 26.4495 145.879 26.9957C145.322 27.542 144.522 27.8151 143.478 27.8151H141.356C139.431 27.8151 138.468 26.825 138.468 24.845V17.744C138.468 15.7639 139.431 14.7738 141.356 14.7738H143.478C144.522 14.7738 145.322 15.0469 145.879 15.5932C146.435 16.1394 146.714 16.9132 146.714 17.9146Z" fill="#024639" fill-opacity="0.8"/>
<path fill-rule="evenodd" clip-rule="evenodd" d="M82.6263 30H88.8193C92.1363 30 93.7947 28.6344 93.7947 25.9033C93.7947 24.5832 93.5743 23.5477 93.1336 22.7966C92.7161 22.0455 91.9042 21.4424 90.6981 20.9872L86.5926 19.1778C85.2705 18.6771 84.6094 17.9488 84.6094 16.9929V16.4125C84.6094 15.9573 84.8182 15.559 85.2357 15.2176C85.6764 14.8762 86.3143 14.7055 87.1493 14.7055H92.403C92.7277 14.7055 92.8901 14.5576 92.8901 14.2617V13.0669C92.8901 12.7482 92.7277 12.5889 92.403 12.5889H86.697C83.5657 12.5889 82 13.9886 82 16.788C82 17.8578 82.2551 18.7226 82.7654 19.3826C83.2757 20.0199 84.1223 20.5775 85.3053 21.0555L89.4108 22.7624C90.5938 23.2177 91.1852 24.0483 91.1852 25.2546V25.9033C91.1852 27.2233 90.2806 27.8834 88.4714 27.8834H82.6263C82.3015 27.8834 82.1392 28.0313 82.1392 28.3272V29.522C82.1392 29.8407 82.3015 30 82.6263 30ZM104.045 30H111.421C111.746 30 111.908 29.852 111.908 29.5562V28.3272C111.908 28.0085 111.746 27.8492 111.421 27.8492H104.323C102.375 27.8492 101.401 26.8592 101.401 24.8791V22.7966C101.401 22.5917 101.517 22.4893 101.749 22.4893H111.595C111.92 22.4893 112.082 22.3186 112.082 21.9772V17.6415C112.082 16.0484 111.63 14.808 110.725 13.9203C109.821 13.0327 108.568 12.5889 106.968 12.5889H104.045C102.445 12.5889 101.181 13.0327 100.253 13.9203C99.3481 14.808 98.8958 16.0484 98.8958 17.6415V24.9474C98.8958 26.5405 99.3481 27.7809 100.253 28.6686C101.181 29.5562 102.445 30 104.045 30ZM109.264 20.6799H101.749C101.517 20.6799 101.401 20.5661 101.401 20.3386V17.7098C101.401 15.7525 102.375 14.7738 104.323 14.7738H106.689C108.638 14.7738 109.612 15.7525 109.612 17.7098V20.3386C109.612 20.5661 109.496 20.6799 109.264 20.6799ZM122.561 30H129.937C130.262 30 130.424 29.852 130.424 29.5562V28.3272C130.424 28.0085 130.262 27.8492 129.937 27.8492H122.84C120.891 27.8492 119.917 26.8592 119.917 24.8791V22.7966C119.917 22.5917 120.033 22.4893 120.265 22.4893H130.111C130.436 22.4893 130.598 22.3186 130.598 21.9772V17.6415C130.598 16.0484 130.146 14.808 129.241 13.9203C128.337 13.0327 127.084 12.5889 125.484 12.5889H122.561C120.961 12.5889 119.697 13.0327 118.769 13.9203C117.864 14.808 117.412 16.0484 117.412 17.6415V24.9474C117.412 26.5405 117.864 27.7809 118.769 28.6686C119.697 29.5562 120.961 30 122.561 30ZM127.78 20.6799H120.265C120.033 20.6799 119.917 20.5661 119.917 20.3386V17.7098C119.917 15.7525 120.891 14.7738 122.84 14.7738H125.206C127.154 14.7738 128.128 15.7525 128.128 17.7098V20.3386C128.128 20.5661 128.012 20.6799 127.78 20.6799ZM165.737 29.5562V28.293C165.737 27.9744 165.575 27.8151 165.25 27.8151H160.483C158.558 27.8151 157.596 26.825 157.596 24.845V17.744C157.596 15.7639 158.558 14.7738 160.483 14.7738H165.25C165.575 14.7738 165.737 14.6259 165.737 14.33V13.0669C165.737 12.7482 165.575 12.5889 165.25 12.5889H160.205C158.605 12.5889 157.341 13.0327 156.413 13.9203C155.508 14.808 155.056 16.0484 155.056 17.6415V24.9474C155.056 26.5405 155.508 27.7809 156.413 28.6686C157.341 29.5562 158.605 30 160.205 30H165.25C165.575 30 165.737 29.852 165.737 29.5562ZM175.493 30H177.303C179.089 30 180.272 29.3969 180.852 28.1906H180.991V29.522C180.991 29.8407 181.153 30 181.478 30H183.043C183.368 30 183.531 29.8407 183.531 29.522V13.0669C183.531 12.7482 183.368 12.5889 183.043 12.5889H175.493C173.893 12.5889 172.629 13.0327 171.701 13.9203C170.796 14.808 170.344 16.0484 170.344 17.6415V24.9474C170.344 26.5405 170.796 27.7809 171.701 28.6686C172.629 29.5562 173.893 30 175.493 30ZM180.991 15.0811V24.6743C180.991 25.6757 180.712 26.4495 180.156 26.9957C179.599 27.542 178.799 27.8151 177.755 27.8151H175.772C173.847 27.8151 172.884 26.825 172.884 24.845V17.744C172.884 15.7639 173.847 14.7738 175.772 14.7738H180.643C180.874 14.7738 180.991 14.8762 180.991 15.0811ZM189.544 30H195.737C199.054 30 200.712 28.6344 200.712 25.9033C200.712 24.5832 200.492 23.5477 200.051 22.7966C199.633 22.0455 198.822 21.4424 197.616 20.9872L193.51 19.1778C192.188 18.6771 191.527 17.9488 191.527 16.9929V16.4125C191.527 15.9573 191.736 15.559 192.153 15.2176C192.594 14.8762 193.232 14.7055 194.067 14.7055H199.32C199.645 14.7055 199.807 14.5576 199.807 14.2617V13.0669C199.807 12.7482 199.645 12.5889 199.32 12.5889H193.614C190.483 12.5889 188.917 13.9886 188.917 16.788C188.917 17.8578 189.173 18.7226 189.683 19.3826C190.194 20.0199 191.04 20.5775 192.223 21.0555L196.328 22.7624C197.511 23.2177 198.103 24.0483 198.103 25.2546V25.9033C198.103 27.2233 197.198 27.8834 195.389 27.8834H189.544C189.22 27.8834 189.057 28.0313 189.057 28.3272V29.522C189.057 29.8407 189.22 30 189.544 30ZM210.963 30H218.339C218.664 30 218.826 29.852 218.826 29.5562V28.3272C218.826 28.0085 218.664 27.8492 218.339 27.8492H211.241C209.293 27.8492 208.319 26.8592 208.319 24.8791V22.7966C208.319 22.5917 208.435 22.4893 208.667 22.4893H218.513C218.838 22.4893 219 22.3186 219 21.9772V17.6415C219 16.0484 218.548 14.808 217.643 13.9203C216.738 13.0327 215.486 12.5889 213.885 12.5889H210.963C209.362 12.5889 208.098 13.0327 207.171 13.9203C206.266 14.808 205.814 16.0484 205.814 17.6415V24.9474C205.814 26.5405 206.266 27.7809 207.171 28.6686C208.098 29.5562 209.362 30 210.963 30ZM216.182 20.6799H208.667C208.435 20.6799 208.319 20.5661 208.319 20.3386V17.7098C208.319 15.7525 209.293 14.7738 211.241 14.7738H213.607C215.556 14.7738 216.53 15.7525 216.53 17.7098V20.3386C216.53 20.5661 216.413 20.6799 216.182 20.6799Z" fill="#024639" fill-opacity="0.8"/>
<path fill-rule="evenodd" clip-rule="evenodd" d="M165.857 63.0568C165.857 63.6828 165.547 63.9971 164.928 63.9971H161.166C160.547 63.9971 160.238 63.6828 160.238 63.0568V61.5791H160.06C159.736 62.3851 159.159 62.9911 158.334 63.3941C157.508 63.7971 156.636 64 155.722 64H153.907C151.633 64 149.916 63.3741 148.749 62.1193C147.582 60.8646 147 59.0582 147 56.6974V48.4545C147 46.0965 147.582 44.2872 148.749 43.0325C149.913 41.7778 151.633 41.1518 153.907 41.1518H155.722C156.636 41.1518 157.508 41.3548 158.334 41.7578C159.159 42.1608 159.736 42.7667 160.06 43.5727H160.238V32C163.371 32 165.914 34.4466 165.917 37.4591C165.92 40.4716 165.86 63.0597 165.86 63.0597L165.857 63.0568ZM157.181 46.0765C159.217 46.0765 160.235 47.2111 160.235 49.4805V55.6656C160.235 57.935 159.217 59.0697 157.181 59.0697H155.189C154.242 59.0697 153.58 58.8667 153.196 58.4637C152.812 58.0607 152.62 57.3834 152.62 56.4259V48.7203C152.62 47.7656 152.812 47.0854 153.196 46.6824C153.58 46.2794 154.242 46.0765 155.189 46.0765H157.181Z" fill="#024639"/>
<path d="M91.8701 63.034H90.4841C88.3281 63.034 86.6901 62.446 85.5701 61.27C84.4781 60.094 83.9321 58.4 83.9321 56.188V49.426C83.9321 47.214 84.5341 45.52 85.7381 44.344C86.9421 43.168 88.6501 42.58 90.8621 42.58H100.564C101.18 42.58 101.488 42.874 101.488 43.462V64.168C101.488 66.352 100.872 68.032 99.6401 69.208C98.4361 70.384 96.7421 70.972 94.5581 70.972H86.4941C86.1581 70.972 85.9201 70.902 85.7801 70.762C85.6681 70.65 85.6121 70.44 85.6121 70.132V67.234C85.6121 66.646 85.9061 66.352 86.4941 66.352H93.6761C94.5721 66.352 95.2021 66.156 95.5661 65.764C95.9581 65.4 96.1541 64.784 96.1541 63.916V60.724H95.9861C95.6781 61.48 95.1321 62.054 94.3481 62.446C93.5641 62.838 92.7381 63.034 91.8701 63.034ZM96.1541 55.222V47.662C96.1541 47.354 95.9861 47.2 95.6501 47.2H91.7021C90.8061 47.2 90.1761 47.396 89.8121 47.788C89.4481 48.152 89.2661 48.782 89.2661 49.678V55.936C89.2661 56.832 89.4481 57.462 89.8121 57.826C90.1761 58.19 90.8061 58.372 91.7021 58.372H93.2561C95.1881 58.372 96.1541 57.322 96.1541 55.222Z" fill="#024639"/>
<path d="M115.287 64H114.279C112.067 64 110.359 63.412 109.155 62.236C107.951 61.06 107.349 59.366 107.349 57.154V49.426C107.349 47.214 107.951 45.52 109.155 44.344C110.359 43.168 112.067 42.58 114.279 42.58H123.981C124.597 42.58 124.905 42.874 124.905 43.462V63.118C124.905 63.706 124.597 64 123.981 64H120.453C119.865 64 119.571 63.706 119.571 63.118V61.732H119.403C119.095 62.488 118.549 63.062 117.765 63.454C116.981 63.818 116.155 64 115.287 64ZM119.571 56.188V47.662C119.571 47.354 119.403 47.2 119.067 47.2H115.119C114.223 47.2 113.593 47.396 113.229 47.788C112.865 48.152 112.683 48.782 112.683 49.678V56.902C112.683 57.798 112.865 58.442 113.229 58.834C113.593 59.198 114.223 59.38 115.119 59.38H116.673C118.605 59.38 119.571 58.316 119.571 56.188Z" fill="#024639"/>
<path d="M135.64 64H132.07C131.482 64 131.188 63.706 131.188 63.118V43.462C131.188 42.874 131.482 42.58 132.07 42.58H135.64C136.228 42.58 136.522 42.874 136.522 43.462V44.89H136.69C136.998 44.134 137.544 43.56 138.328 43.168C139.112 42.776 139.938 42.58 140.806 42.58H142.318C142.878 42.58 143.158 42.874 143.158 43.462V46.36C143.158 46.696 143.088 46.934 142.948 47.074C142.836 47.186 142.626 47.228 142.318 47.2H139.42C137.488 47.2 136.522 48.292 136.522 50.476V63.118C136.522 63.706 136.228 64 135.64 64Z" fill="#024639"/>
<path d="M187.102 64H177.82C175.608 64 173.9 63.412 172.696 62.236C171.492 61.06 170.89 59.366 170.89 57.154V49.426C170.89 47.214 171.492 45.52 172.696 44.344C173.9 43.168 175.608 42.58 177.82 42.58H181.138C183.35 42.58 185.058 43.168 186.262 44.344C187.466 45.52 188.068 47.214 188.068 49.426V54.76C188.068 55.348 187.774 55.642 187.186 55.642H176.644C176.308 55.642 176.14 55.796 176.14 56.104V57.028C176.14 57.896 176.322 58.526 176.686 58.918C177.078 59.282 177.722 59.464 178.618 59.464H187.102C187.69 59.464 187.984 59.772 187.984 60.388V63.16C187.984 63.468 187.914 63.692 187.774 63.832C187.662 63.944 187.438 64 187.102 64ZM176.644 52.072H182.356C182.664 52.072 182.818 51.918 182.818 51.61V49.594C182.818 48.698 182.636 48.068 182.272 47.704C181.908 47.34 181.278 47.158 180.382 47.158H178.618C177.722 47.158 177.092 47.34 176.728 47.704C176.364 48.068 176.182 48.698 176.182 49.594V51.61C176.182 51.918 176.336 52.072 176.644 52.072Z" fill="#024639"/>
<path d="M198.196 64H194.626C194.038 64 193.744 63.706 193.744 63.118V43.462C193.744 42.874 194.038 42.58 194.626 42.58H198.196C198.784 42.58 199.078 42.874 199.078 43.462V44.848H199.246C199.862 43.336 201.234 42.58 203.362 42.58H204.706C209.102 42.58 211.3 44.862 211.3 49.426V63.118C211.3 63.706 210.992 64 210.376 64H206.848C206.26 64 205.966 63.706 205.966 63.118V49.678C205.966 48.782 205.77 48.152 205.378 47.788C205.014 47.396 204.384 47.2 203.488 47.2H201.976C200.044 47.2 199.078 48.264 199.078 50.392V63.118C199.078 63.706 198.784 64 198.196 64Z" fill="#024639"/>
<path fill-rule="evenodd" clip-rule="evenodd" d="M64.0001 20.5165L49.4835 5.99986C41.4837 -1.99995 28.5163 -1.99995 20.5165 5.99986L5.99986 20.5165C-1.99995 28.5163 -1.99995 41.4837 5.99986 49.4835L20.5165 64.0001C28.5163 72 41.4837 72 49.4835 64.0001L64.0001 49.4835C72 41.4837 72 28.5163 64.0001 20.5165Z" fill="#D04BFE"/>
<path d="M12.6629 41.8801C12.6629 38.8325 10.2647 36.3246 7.22023 36.1884L6.79827 36.1695C6.79827 36.1695 6.55705 39.1882 8.39927 40.632C8.39927 40.632 10.0998 41.8801 12.6629 41.8801Z" fill="white"/>
<path d="M13.212 49.6593L13.3232 42.1956C13.4019 36.9153 17.6301 32.6362 22.9091 32.4944C22.9091 32.4944 22.9091 39.8445 16.4866 40.632V46.7803C16.4866 48.5311 14.9484 49.8835 13.212 49.6593Z" fill="white"/>
<path d="M14.1192 19.9394C14.3561 19.9394 14.5929 19.9394 14.846 19.9498C15.1863 19.9802 15.4844 20.0958 15.7545 20.2613C16.483 20.7079 16.9196 21.3494 16.9825 22.2236C16.9856 22.2662 17.0061 22.3075 17.0226 22.3631C17.6329 22.0275 18.2665 21.9859 18.9017 22.167C19.5476 22.3512 20.0437 22.7566 20.3688 23.3568C20.6633 23.9006 20.7619 24.4818 20.6269 25.0852C20.4726 25.7745 20.1067 26.3291 19.4923 26.7037C20.6073 27.4096 20.961 28.7931 20.4497 29.8923C20.1699 30.4938 19.7296 30.9277 19.1185 31.1668C18.4121 31.4432 17.7092 31.4073 17.0172 31.0528C17.0031 31.1098 16.9846 31.1533 16.9825 31.1976C16.9638 31.594 16.8447 31.9605 16.6361 32.2927C16.3309 32.7786 15.914 33.1367 15.3712 33.3307C15.2034 33.3907 15.0269 33.4261 14.8544 33.4728C14.5913 33.4728 14.3282 33.4728 14.0497 33.4631C14.0155 33.4439 13.9975 33.4302 13.9775 33.4257C13.4598 33.3085 13.0222 33.0545 12.6652 32.6578C12.3531 32.3111 12.1528 31.9099 12.0718 31.4495C12.0494 31.3221 12.0358 31.1933 12.0153 31.044C11.4441 31.354 10.864 31.4095 10.2642 31.2779C9.6521 31.1436 9.13236 30.8252 8.80945 30.2954C7.96077 28.9027 8.27507 27.7043 9.50243 26.6874C8.9304 26.3152 8.56547 25.7921 8.41102 25.1241C8.25455 24.4473 8.37415 23.8162 8.7354 23.2284C9.02487 22.7574 9.42964 22.4189 9.94311 22.2305C10.6403 21.9747 11.3312 22.0087 12.0092 22.3607C12.0235 22.302 12.0415 22.2583 12.0436 22.2139C12.0626 21.8176 12.1816 21.4511 12.3903 21.1191C12.6955 20.6333 13.113 20.2769 13.6549 20.0806C13.8068 20.0255 13.9643 19.986 14.1192 19.9394ZM13.3948 24.7491C13.052 24.9341 12.7879 25.2036 12.5917 25.5369C12.2873 26.0543 12.1744 26.6114 12.3186 27.2018C12.4673 27.8106 12.7959 28.2961 13.3357 28.6279C13.8038 28.9156 14.3102 29.0399 14.8495 28.9477C15.3703 28.8586 15.8261 28.6276 16.1794 28.2147C16.6541 27.66 16.856 27.0313 16.7199 26.3018C16.6027 25.6734 16.2829 25.178 15.756 24.8263C15.3159 24.5325 14.8332 24.396 14.2971 24.4556C13.9798 24.4909 13.6881 24.5855 13.3948 24.7491Z" fill="white"/>
<path d="M52.9659 41.8801C52.9659 38.8325 50.5677 36.3246 47.5233 36.1884L47.1013 36.1695C47.1013 36.1695 46.8601 39.1882 48.7023 40.632C48.7023 40.632 50.4028 41.8801 52.9659 41.8801Z" fill="white"/>
<path d="M53.5151 49.6593L53.6262 42.1956C53.7049 36.9153 57.9331 32.6362 63.2121 32.4944C63.2121 32.4944 63.2121 39.8445 56.7896 40.632V46.7803C56.7896 48.5311 55.2514 49.8835 53.5151 49.6593Z" fill="white"/>
<path d="M54.4222 19.9394C54.6591 19.9394 54.896 19.9394 55.149 19.9498C55.4893 19.9802 55.7875 20.0958 56.0575 20.2613C56.786 20.7079 57.2227 21.3494 57.2856 22.2236C57.2886 22.2662 57.3092 22.3075 57.3256 22.3631C57.9359 22.0275 58.5696 21.9859 59.2047 22.167C59.8507 22.3512 60.3467 22.7566 60.6718 23.3568C60.9663 23.9006 61.065 24.4818 60.9299 25.0852C60.7757 25.7745 60.4097 26.3291 59.7953 26.7037C60.9103 27.4096 61.264 28.7931 60.7527 29.8923C60.473 30.4938 60.0327 30.9277 59.4215 31.1668C58.7151 31.4432 58.0122 31.4073 57.3203 31.0528C57.3061 31.1098 57.2876 31.1533 57.2855 31.1976C57.2668 31.594 57.1478 31.9605 56.9391 32.2927C56.634 32.7786 56.217 33.1367 55.6742 33.3307C55.5064 33.3907 55.3299 33.4261 55.1574 33.4728C54.8943 33.4728 54.6312 33.4728 54.3528 33.4631C54.3185 33.4439 54.3006 33.4302 54.2805 33.4257C53.7628 33.3085 53.3253 33.0545 52.9682 32.6578C52.6561 32.3111 52.4559 31.9099 52.3748 31.4495C52.3524 31.3221 52.3388 31.1933 52.3183 31.044C51.7472 31.354 51.167 31.4095 50.5673 31.2779C49.9551 31.1436 49.4354 30.8252 49.1125 30.2954C48.2638 28.9027 48.5781 27.7043 49.8055 26.6874C49.2334 26.3152 48.8685 25.7921 48.714 25.1241C48.5576 24.4473 48.6772 23.8162 49.0384 23.2284C49.3279 22.7574 49.7327 22.4189 50.2461 22.2305C50.9433 21.9747 51.6342 22.0087 52.3123 22.3607C52.3265 22.302 52.3445 22.2583 52.3467 22.2139C52.3656 21.8176 52.4847 21.4511 52.6933 21.1191C52.9985 20.6333 53.4161 20.2769 53.9579 20.0806C54.1098 20.0255 54.2673 19.986 54.4222 19.9394ZM53.6979 24.7491C53.3551 24.9341 53.0909 25.2036 52.8948 25.5369C52.5903 26.0543 52.4774 26.6114 52.6216 27.2018C52.7703 27.8106 53.0989 28.2961 53.6387 28.6279C54.1069 28.9156 54.6132 29.0399 55.1525 28.9477C55.6733 28.8586 56.1291 28.6276 56.4824 28.2147C56.9572 27.66 57.159 27.0313 57.0229 26.3018C56.9057 25.6734 56.5859 25.178 56.059 24.8263C55.6189 24.5325 55.1362 24.396 54.6001 24.4556C54.2829 24.4909 53.9912 24.5855 53.6979 24.7491Z" fill="white"/>
<path d="M32.1276 44.8225C32.1276 39.9013 28.2643 35.8308 23.3489 35.5933C23.3489 35.5933 22.9878 40.4721 25.7454 42.8054C25.7454 42.8054 28.2909 44.8225 32.1276 44.8225Z" fill="white"/>
<path d="M32.9496 57.3949L33.1315 44.2068C33.2406 36.2999 39.5606 29.8831 47.465 29.6539C47.465 29.6539 47.465 41.5327 37.8512 42.8054V53.1291C37.8512 55.7442 35.5397 57.7559 32.9496 57.3949Z" fill="white"/>
<path d="M33.8508 8.90909C34.232 8.90909 34.6133 8.90909 35.0205 8.92606C35.5682 8.97567 36.048 9.16397 36.4827 9.43386C37.655 10.1618 38.3577 11.2076 38.459 12.6326C38.4639 12.702 38.497 12.7693 38.5235 12.8599C39.5056 12.3129 40.5254 12.2451 41.5476 12.5403C42.5871 12.8405 43.3855 13.5014 43.9086 14.4797C44.3826 15.3662 44.5414 16.3135 44.324 17.2972C44.0758 18.4207 43.4869 19.3249 42.498 19.9355C44.2924 21.0861 44.8617 23.3414 44.0389 25.1331C43.5886 26.1136 42.88 26.8209 41.8965 27.2107C40.7597 27.6612 39.6285 27.6027 38.5148 27.0249C38.492 27.1178 38.4623 27.1887 38.4589 27.2609C38.4288 27.907 38.2372 28.5046 37.9015 29.046C37.4103 29.838 36.7393 30.4218 35.8657 30.7381C35.5956 30.8358 35.3117 30.8936 35.0341 30.9697C34.6106 30.9697 34.1871 30.9697 33.7391 30.9539C33.684 30.9226 33.655 30.9002 33.6228 30.8928C32.7896 30.7019 32.0855 30.2879 31.5109 29.6412C31.0086 29.0759 30.6863 28.422 30.5558 27.6715C30.5198 27.4639 30.498 27.2538 30.4649 27.0106C29.5457 27.5159 28.612 27.6063 27.6469 27.3918C26.6617 27.1729 25.8253 26.6539 25.3056 25.7902C23.9398 23.52 24.4456 21.5665 26.4209 19.9088C25.5003 19.3022 24.913 18.4494 24.6644 17.3605C24.4126 16.2574 24.6051 15.2286 25.1864 14.2704C25.6523 13.5026 26.3037 12.9509 27.1301 12.6438C28.2521 12.2269 29.3639 12.2822 30.4552 12.856C30.4781 12.7603 30.5071 12.6891 30.5105 12.6167C30.541 11.9708 30.7326 11.3734 31.0684 10.832C31.5596 10.0402 32.2316 9.45923 33.1037 9.13923C33.3481 9.04952 33.6015 8.98511 33.8508 8.90909ZM32.6851 16.7493C32.1334 17.0508 31.7083 17.4903 31.3926 18.0335C30.9026 18.8769 30.721 19.7851 30.953 20.7475C31.1923 21.7399 31.7212 22.5313 32.5899 23.0721C33.3433 23.541 34.1582 23.7436 35.0261 23.5933C35.8642 23.4482 36.5979 23.0716 37.1665 22.3986C37.9305 21.4943 38.2553 20.4695 38.0363 19.2804C37.8476 18.256 37.333 17.4484 36.4851 16.8751C35.7768 16.3962 34.9999 16.1738 34.1371 16.2709C33.6266 16.3284 33.1571 16.4827 32.6851 16.7493Z" fill="white"/>
</svg>
