<svg width="383" height="42" viewBox="0 0 383 42" fill="none" xmlns="http://www.w3.org/2000/svg">
<path d="M30.283 29.173V32.14C30.283 32.4553 30.2114 32.6847 30.068 32.828C29.9534 32.9427 29.724 33 29.38 33H22.973C20.7084 33 18.9597 32.398 17.727 31.194C16.4944 29.99 15.878 28.2557 15.878 25.991V18.079C15.878 15.8143 16.4944 14.08 17.727 12.876C18.9597 11.672 20.7084 11.07 22.973 11.07H29.38C29.982 11.07 30.283 11.371 30.283 11.973V14.94C30.283 15.2553 30.2114 15.4847 30.068 15.628C29.9534 15.7427 29.724 15.8 29.38 15.8H23.833C22.9444 15.8 22.2994 16.0007 21.898 16.402C21.5254 16.7747 21.339 17.4197 21.339 18.337V25.733C21.339 26.6503 21.5254 27.3097 21.898 27.711C22.2994 28.0837 22.9444 28.27 23.833 28.27H29.38C29.982 28.27 30.283 28.571 30.283 29.173ZM72.9212 33H63.4182C61.1536 33 59.4049 32.398 58.1722 31.194C56.9396 29.99 56.3232 28.2557 56.3232 25.991V18.079C56.3232 15.8143 56.9396 14.08 58.1722 12.876C59.4049 11.672 61.1536 11.07 63.4182 11.07H66.8152C69.0799 11.07 70.8286 11.672 72.0612 12.876C73.2939 14.08 73.9102 15.8143 73.9102 18.079V23.54C73.9102 24.142 73.6092 24.443 73.0072 24.443H62.2142C61.8702 24.443 61.6982 24.6007 61.6982 24.916V25.862C61.6982 26.7507 61.8846 27.3957 62.2572 27.797C62.6586 28.1697 63.3179 28.356 64.2352 28.356H72.9212C73.5232 28.356 73.8242 28.6713 73.8242 29.302V32.14C73.8242 32.4553 73.7526 32.6847 73.6092 32.828C73.4946 32.9427 73.2652 33 72.9212 33ZM62.2142 20.788H68.0622C68.3776 20.788 68.5352 20.6303 68.5352 20.315V18.251C68.5352 17.3337 68.3489 16.6887 67.9762 16.316C67.6036 15.9433 66.9586 15.757 66.0412 15.757H64.2352C63.3179 15.757 62.6729 15.9433 62.3002 16.316C61.9276 16.6887 61.7412 17.3337 61.7412 18.251V20.315C61.7412 20.6303 61.8989 20.788 62.2142 20.788ZM93.2663 29.173V32.14C93.2663 32.4553 93.1946 32.6847 93.0513 32.828C92.9366 32.9427 92.7073 33 92.3633 33H85.9563C83.6916 33 81.9429 32.398 80.7103 31.194C79.4776 29.99 78.8613 28.2557 78.8613 25.991V18.079C78.8613 15.8143 79.4776 14.08 80.7103 12.876C81.9429 11.672 83.6916 11.07 85.9563 11.07H92.3633C92.9653 11.07 93.2663 11.371 93.2663 11.973V14.94C93.2663 15.2553 93.1946 15.4847 93.0513 15.628C92.9366 15.7427 92.7073 15.8 92.3633 15.8H86.8163C85.9276 15.8 85.2826 16.0007 84.8813 16.402C84.5086 16.7747 84.3223 17.4197 84.3223 18.337V25.733C84.3223 26.6503 84.5086 27.3097 84.8813 27.711C85.2826 28.0837 85.9276 28.27 86.8163 28.27H92.3633C92.9653 28.27 93.2663 28.571 93.2663 29.173ZM128.164 21.476H119.994C119.392 21.476 119.091 21.175 119.091 20.573V18.036C119.091 17.4053 119.392 17.09 119.994 17.09H128.164C128.766 17.09 129.067 17.4053 129.067 18.036V20.573C129.067 21.175 128.766 21.476 128.164 21.476Z" fill="#024639"/>
<path d="M110.556 10.299H114.727C115.071 10.299 115.3 10.3993 115.415 10.6C115.53 10.8007 115.487 11.0587 115.286 11.374L109.567 20.791V20.963L115.544 31.154C115.716 31.4407 115.73 31.6987 115.587 31.928C115.444 32.1287 115.186 32.229 114.813 32.229H111.115C110.628 32.229 110.269 32.1717 110.04 32.057C109.839 31.9423 109.624 31.6987 109.395 31.326L103.934 21.737C103.676 21.2783 103.676 20.8053 103.934 20.318L109.094 11.159C109.409 10.5857 109.897 10.299 110.556 10.299ZM102.558 32.229H98.903C98.301 32.229 98 31.928 98 31.326V2.903C98 2.301 98 0 98 0C98 0 100.5 0.0970011 102 1.5C103.5 2.903 103.5 5 103.5 5L103.461 31.326C103.461 31.928 103.16 32.229 102.558 32.229Z" fill="#024639"/>
<path d="M39.558 32.252H35.903C35.301 32.252 35 31.951 35 31.349V0.0229709C35 0.0229709 36.5005 -0.241311 38.5005 1.02299C40.0005 2.02298 40.461 3.36648 40.461 4.52297C40.461 7.02296 40.461 12.644 40.461 12.644H40.633C41.2637 11.096 42.6683 10.322 44.847 10.322H46.223C50.7237 10.322 52.974 12.6583 52.974 17.331V31.349C52.974 31.951 52.6587 32.252 52.028 32.252H48.416C47.814 32.252 47.513 31.951 47.513 31.349V17.589C47.513 16.6716 47.3123 16.0266 46.911 15.654C46.5383 15.2526 45.8933 15.052 44.976 15.052H43.428C41.45 15.052 40.461 16.1413 40.461 18.32V31.349C40.461 31.951 40.16 32.252 39.558 32.252Z" fill="#024639"/>
<path d="M301.556 10.299H305.727C306.071 10.299 306.3 10.3993 306.415 10.6C306.53 10.8007 306.487 11.0587 306.286 11.374L300.567 20.791V20.963L306.544 31.154C306.716 31.4407 306.73 31.6987 306.587 31.928C306.444 32.1287 306.186 32.229 305.813 32.229H302.115C301.628 32.229 301.269 32.1717 301.04 32.057C300.839 31.9423 300.624 31.6987 300.395 31.326L294.934 21.737C294.676 21.2783 294.676 20.8053 294.934 20.318L300.094 11.159C300.409 10.5857 300.897 10.299 301.556 10.299ZM293.558 32.229H289.903C289.301 32.229 289 31.928 289 31.326V2.903C289 2.301 289 0 289 0C289 0 291.5 0.0970011 293 1.5C294.5 2.903 294.5 5 294.5 5L294.461 31.326C294.461 31.928 294.16 32.229 293.558 32.229Z" fill="#024639"/>
<path fill-rule="evenodd" clip-rule="evenodd" d="M152.857 31.0568C152.857 31.6827 152.547 31.9971 151.928 31.9971H148.166C147.547 31.9971 147.237 31.6827 147.237 31.0568V29.5791H147.06C146.736 30.3851 146.159 30.9911 145.334 31.3941C144.508 31.7971 143.636 32 142.722 32H140.907C138.633 32 136.916 31.3741 135.749 30.1193C134.582 28.8646 134 27.0582 134 24.6974V16.4544C134 14.0965 134.582 12.2872 135.749 11.0325C136.913 9.77778 138.633 9.15184 140.907 9.15184H142.722C143.636 9.15184 144.508 9.35476 145.334 9.75776C146.159 10.1608 146.736 10.7667 147.06 11.5727H147.237V0C150.371 0 152.914 2.44659 152.917 5.4591C152.92 8.4716 152.86 31.0597 152.86 31.0597L152.857 31.0568ZM147.234 17.4805C147.234 15.2111 146.217 14.0765 144.181 14.0765H142.188C141.242 14.0765 140.58 14.2794 140.196 14.6824C139.812 15.0854 139.62 15.7656 139.62 16.7203V24.4259C139.62 25.3834 139.812 26.0607 140.196 26.4637C140.58 26.8667 141.242 27.0697 142.188 27.0697H144.181C146.217 27.0697 147.234 25.935 147.234 23.6656V17.4834V17.4805Z" fill="#024639"/>
<path fill-rule="evenodd" clip-rule="evenodd" d="M222.003 10.9431C222.003 10.3172 222.313 10.0028 222.932 10.0028L226.694 10.0028C227.313 10.0028 227.622 10.3172 227.622 10.9431V12.4208H227.8C228.124 11.6148 228.701 11.0089 229.526 10.6059C230.352 10.2029 231.224 9.99993 232.138 9.99993H233.953C236.227 9.99993 237.944 10.6259 239.111 11.8806C240.278 13.1353 240.86 14.9417 240.86 17.3025V25.5455C240.86 27.9035 240.278 29.7127 239.111 30.9674C237.947 32.2221 236.227 32.8481 233.953 32.8481H232.138C231.224 32.8481 230.352 32.6452 229.526 32.2422C228.701 31.8392 228.124 31.2332 227.8 30.4272H227.622L227.625 37.5C227.622 41.4999 222 42 222 42V10.9403L222.003 10.9431ZM227.625 24.5194C227.625 26.7888 228.643 27.9235 230.679 27.9235H232.671C233.618 27.9235 234.28 27.7205 234.664 27.3175C235.048 26.9145 235.24 26.2343 235.24 25.2797V17.5741C235.24 16.6166 235.048 15.9392 234.664 15.5362C234.28 15.1332 233.618 14.9303 232.671 14.9303H230.679C228.643 14.9303 227.625 16.0649 227.625 18.3343V24.5165V24.5194Z" fill="#024639"/>
<path d="M166.002 32H164.97C162.705 32 160.957 31.398 159.724 30.194C158.491 28.99 157.875 27.2557 157.875 24.991V17.079C157.875 14.8143 158.491 13.08 159.724 11.876C160.957 10.672 162.705 10.07 164.97 10.07H174.903C175.534 10.07 175.849 10.371 175.849 10.973V31.097C175.849 31.699 175.534 32 174.903 32H171.291C170.689 32 170.388 31.699 170.388 31.097V29.678H170.216C169.901 30.452 169.342 31.0397 168.539 31.441C167.736 31.8137 166.891 32 166.002 32ZM170.388 24.002V15.273C170.388 14.9577 170.216 14.8 169.872 14.8H165.83C164.913 14.8 164.268 15.0007 163.895 15.402C163.522 15.7747 163.336 16.4197 163.336 17.337V24.733C163.336 25.6503 163.522 26.3097 163.895 26.711C164.268 27.0837 164.913 27.27 165.83 27.27H167.421C169.399 27.27 170.388 26.1807 170.388 24.002ZM182.754 14.8H181.034C180.69 14.8 180.446 14.7427 180.303 14.628C180.188 14.5133 180.131 14.284 180.131 13.94V10.973C180.131 10.371 180.432 10.07 181.034 10.07H182.754C183.069 10.07 183.227 9.91233 183.227 9.597V5.512C183.227 4.91 183.542 4.609 184.173 4.609H187.785C188.387 4.609 188.688 4.91 188.688 5.512V9.597C188.688 9.91233 188.86 10.07 189.204 10.07H192.558C193.16 10.07 193.461 10.371 193.461 10.973V13.94C193.461 14.2553 193.389 14.4847 193.246 14.628C193.131 14.7427 192.902 14.8 192.558 14.8H189.204C188.86 14.8 188.688 14.9577 188.688 15.273V24.776C188.688 25.6647 188.888 26.3097 189.29 26.711C189.691 27.0837 190.35 27.27 191.268 27.27H192.988C193.59 27.27 193.891 27.571 193.891 28.173V31.14C193.891 31.4553 193.819 31.6847 193.676 31.828C193.561 31.9427 193.332 32 192.988 32H190.365C188.1 32 186.337 31.398 185.076 30.194C183.843 28.99 183.227 27.27 183.227 25.034V15.273C183.227 14.9577 183.069 14.8 182.754 14.8ZM206.857 32H205.825C203.56 32 201.812 31.398 200.579 30.194C199.346 28.99 198.73 27.2557 198.73 24.991V17.079C198.73 14.8143 199.346 13.08 200.579 11.876C201.812 10.672 203.56 10.07 205.825 10.07H215.758C216.389 10.07 216.704 10.371 216.704 10.973V31.097C216.704 31.699 216.389 32 215.758 32H212.146C211.544 32 211.243 31.699 211.243 31.097V29.678H211.071C210.756 30.452 210.197 31.0397 209.394 31.441C208.591 31.8137 207.746 32 206.857 32ZM211.243 24.002V15.273C211.243 14.9577 211.071 14.8 210.727 14.8H206.685C205.768 14.8 205.123 15.0007 204.75 15.402C204.377 15.7747 204.191 16.4197 204.191 17.337V24.733C204.191 25.6503 204.377 26.3097 204.75 26.711C205.123 27.0837 205.768 27.27 206.685 27.27H208.276C210.254 27.27 211.243 26.1807 211.243 24.002ZM253.169 32H252.137C249.873 32 248.124 31.398 246.891 30.194C245.659 28.99 245.042 27.2557 245.042 24.991V17.079C245.042 14.8143 245.659 13.08 246.891 11.876C248.124 10.672 249.873 10.07 252.137 10.07H262.07C262.701 10.07 263.016 10.371 263.016 10.973V31.097C263.016 31.699 262.701 32 262.07 32H258.458C257.856 32 257.555 31.699 257.555 31.097V29.678H257.383C257.068 30.452 256.509 31.0397 255.706 31.441C254.904 31.8137 254.058 32 253.169 32ZM257.555 24.002V15.273C257.555 14.9577 257.383 14.8 257.039 14.8H252.997C252.08 14.8 251.435 15.0007 251.062 15.402C250.69 15.7747 250.503 16.4197 250.503 17.337V24.733C250.503 25.6503 250.69 26.3097 251.062 26.711C251.435 27.0837 252.08 27.27 252.997 27.27H254.588C256.566 27.27 257.555 26.1807 257.555 24.002ZM283.423 28.173V31.14C283.423 31.4553 283.351 31.6847 283.208 31.828C283.093 31.9427 282.864 32 282.52 32H276.113C273.848 32 272.1 31.398 270.867 30.194C269.634 28.99 269.018 27.2557 269.018 24.991V17.079C269.018 14.8143 269.634 13.08 270.867 11.876C272.1 10.672 273.848 10.07 276.113 10.07H282.52C283.122 10.07 283.423 10.371 283.423 10.973V13.94C283.423 14.2553 283.351 14.4847 283.208 14.628C283.093 14.7427 282.864 14.8 282.52 14.8H276.973C276.084 14.8 275.439 15.0007 275.038 15.402C274.665 15.7747 274.479 16.4197 274.479 17.337V24.733C274.479 25.6503 274.665 26.3097 275.038 26.711C275.439 27.0837 276.084 27.27 276.973 27.27H282.52C283.122 27.27 283.423 27.571 283.423 28.173ZM318.88 32H317.848C315.584 32 313.835 31.398 312.602 30.194C311.37 28.99 310.753 27.2557 310.753 24.991V17.079C310.753 14.8143 311.37 13.08 312.602 11.876C313.835 10.672 315.584 10.07 317.848 10.07H327.781C328.412 10.07 328.727 10.371 328.727 10.973V31.097C328.727 31.699 328.412 32 327.781 32H324.169C323.567 32 323.266 31.699 323.266 31.097V29.678H323.094C322.779 30.452 322.22 31.0397 321.417 31.441C320.615 31.8137 319.769 32 318.88 32ZM323.266 24.002V15.273C323.266 14.9577 323.094 14.8 322.75 14.8H318.708C317.791 14.8 317.146 15.0007 316.773 15.402C316.401 15.7747 316.214 16.4197 316.214 17.337V24.733C316.214 25.6503 316.401 26.3097 316.773 26.711C317.146 27.0837 317.791 27.27 318.708 27.27H320.299C322.277 27.27 323.266 26.1807 323.266 24.002ZM342.899 31.011H341.48C339.273 31.011 337.596 30.409 336.449 29.205C335.331 28.001 334.772 26.2667 334.772 24.002V17.079C334.772 14.8143 335.389 13.08 336.621 11.876C337.854 10.672 339.603 10.07 341.867 10.07H351.8C352.431 10.07 352.746 10.371 352.746 10.973V32.172C352.746 34.408 352.116 36.128 350.854 37.332C349.622 38.536 347.887 39.138 345.651 39.138H337.395C337.051 39.138 336.808 39.0663 336.664 38.923C336.55 38.8083 336.492 38.5933 336.492 38.278V35.311C336.492 34.709 336.793 34.408 337.395 34.408H344.748C345.666 34.408 346.311 34.2073 346.683 33.806C347.085 33.4333 347.285 32.8027 347.285 31.914V28.646H347.113C346.798 29.42 346.239 30.0077 345.436 30.409C344.634 30.8103 343.788 31.011 342.899 31.011ZM347.285 23.013V15.273C347.285 14.9577 347.113 14.8 346.769 14.8H342.727C341.81 14.8 341.165 15.0007 340.792 15.402C340.42 15.7747 340.233 16.4197 340.233 17.337V23.744C340.233 24.6613 340.42 25.3063 340.792 25.679C341.165 26.0517 341.81 26.238 342.727 26.238H344.318C346.296 26.238 347.285 25.163 347.285 23.013ZM375.345 32H365.842C363.577 32 361.829 31.398 360.596 30.194C359.363 28.99 358.747 27.2557 358.747 24.991V17.079C358.747 14.8143 359.363 13.08 360.596 11.876C361.829 10.672 363.577 10.07 365.842 10.07H369.239C371.504 10.07 373.252 10.672 374.485 11.876C375.718 13.08 376.334 14.8143 376.334 17.079V22.54C376.334 23.142 376.033 23.443 375.431 23.443H364.638C364.294 23.443 364.122 23.6007 364.122 23.916V24.862C364.122 25.7507 364.308 26.3957 364.681 26.797C365.082 27.1697 365.742 27.356 366.659 27.356H375.345C375.947 27.356 376.248 27.6713 376.248 28.302V31.14C376.248 31.4553 376.176 31.6847 376.033 31.828C375.918 31.9427 375.689 32 375.345 32ZM364.638 19.788H370.486C370.801 19.788 370.959 19.6303 370.959 19.315V17.251C370.959 16.3337 370.773 15.6887 370.4 15.316C370.027 14.9433 369.382 14.757 368.465 14.757H366.659C365.742 14.757 365.097 14.9433 364.724 15.316C364.351 15.6887 364.165 16.3337 364.165 17.251V19.315C364.165 19.6303 364.323 19.788 364.638 19.788Z" fill="#024639"/>
</svg>
