<svg width="165" height="165" viewBox="0 0 165 165" fill="none" xmlns="http://www.w3.org/2000/svg">
<path fill-rule="evenodd" clip-rule="evenodd" d="M150.857 48.3602L116.64 14.1425C97.783 -4.71418 67.217 -4.71418 48.3603 14.1425L14.1425 48.3602C-4.71418 67.217 -4.71418 97.783 14.1425 116.64L48.3603 150.857C67.217 169.714 97.783 169.714 116.64 150.857L150.857 116.64C169.714 97.783 169.714 67.217 150.857 48.3602Z" fill="#024639"/>
<path d="M76.5427 110.805C76.5427 110.805 100.628 59.5849 104.91 51.1754C109.192 42.766 120.432 47.1619 120.432 47.1619C110.419 73.2465 95.276 103.351 88.8531 114.245C82.4303 125.139 72.2608 126.859 66.9085 123.419C61.5745 119.99 44.832 86.9996 44.4321 87.8604C46.2521 82.7008 57.8109 79.8452 59.9504 82.1369C62.0913 84.43 76.5427 110.805 76.5427 110.805Z" fill="#48DC76"/>
</svg>
