<svg width="334" height="78" viewBox="0 0 334 78" fill="none" xmlns="http://www.w3.org/2000/svg">
<path d="M100.283 29.173V32.14C100.283 32.4553 100.211 32.6847 100.068 32.828C99.9534 32.9427 99.724 33 99.38 33H92.973C90.7084 33 88.9597 32.398 87.727 31.194C86.4944 29.99 85.878 28.2557 85.878 25.991V18.079C85.878 15.8143 86.4944 14.08 87.727 12.876C88.9597 11.672 90.7084 11.07 92.973 11.07H99.38C99.982 11.07 100.283 11.371 100.283 11.973V14.94C100.283 15.2553 100.211 15.4847 100.068 15.628C99.9534 15.7427 99.724 15.8 99.38 15.8H93.833C92.9444 15.8 92.2994 16.0007 91.898 16.402C91.5254 16.7747 91.339 17.4197 91.339 18.337V25.733C91.339 26.6503 91.5254 27.3097 91.898 27.711C92.2994 28.0837 92.9444 28.27 93.833 28.27H99.38C99.982 28.27 100.283 28.571 100.283 29.173ZM142.921 33H133.418C131.154 33 129.405 32.398 128.172 31.194C126.94 29.99 126.323 28.2557 126.323 25.991V18.079C126.323 15.8143 126.94 14.08 128.172 12.876C129.405 11.672 131.154 11.07 133.418 11.07H136.815C139.08 11.07 140.829 11.672 142.061 12.876C143.294 14.08 143.91 15.8143 143.91 18.079V23.54C143.91 24.142 143.609 24.443 143.007 24.443H132.214C131.87 24.443 131.698 24.6007 131.698 24.916V25.862C131.698 26.7507 131.885 27.3957 132.257 27.797C132.659 28.1697 133.318 28.356 134.235 28.356H142.921C143.523 28.356 143.824 28.6713 143.824 29.302V32.14C143.824 32.4553 143.753 32.6847 143.609 32.828C143.495 32.9427 143.265 33 142.921 33ZM132.214 20.788H138.062C138.378 20.788 138.535 20.6303 138.535 20.315V18.251C138.535 17.3337 138.349 16.6887 137.976 16.316C137.604 15.9433 136.959 15.757 136.041 15.757H134.235C133.318 15.757 132.673 15.9433 132.3 16.316C131.928 16.6887 131.741 17.3337 131.741 18.251V20.315C131.741 20.6303 131.899 20.788 132.214 20.788ZM163.266 29.173V32.14C163.266 32.4553 163.195 32.6847 163.051 32.828C162.937 32.9427 162.707 33 162.363 33H155.956C153.692 33 151.943 32.398 150.71 31.194C149.478 29.99 148.861 28.2557 148.861 25.991V18.079C148.861 15.8143 149.478 14.08 150.71 12.876C151.943 11.672 153.692 11.07 155.956 11.07H162.363C162.965 11.07 163.266 11.371 163.266 11.973V14.94C163.266 15.2553 163.195 15.4847 163.051 15.628C162.937 15.7427 162.707 15.8 162.363 15.8H156.816C155.928 15.8 155.283 16.0007 154.881 16.402C154.509 16.7747 154.322 17.4197 154.322 18.337V25.733C154.322 26.6503 154.509 27.3097 154.881 27.711C155.283 28.0837 155.928 28.27 156.816 28.27H162.363C162.965 28.27 163.266 28.571 163.266 29.173ZM198.164 21.476H189.994C189.392 21.476 189.091 21.175 189.091 20.573V18.036C189.091 17.4053 189.392 17.09 189.994 17.09H198.164C198.766 17.09 199.067 17.4053 199.067 18.036V20.573C199.067 21.175 198.766 21.476 198.164 21.476Z" fill="#024639"/>
<path d="M180.556 10.299H184.727C185.071 10.299 185.3 10.3993 185.415 10.6C185.53 10.8007 185.487 11.0587 185.286 11.374L179.567 20.791V20.963L185.544 31.154C185.716 31.4407 185.73 31.6987 185.587 31.928C185.444 32.1287 185.186 32.229 184.813 32.229H181.115C180.628 32.229 180.269 32.1717 180.04 32.057C179.839 31.9423 179.624 31.6987 179.395 31.326L173.934 21.737C173.676 21.2783 173.676 20.8053 173.934 20.318L179.094 11.159C179.409 10.5857 179.897 10.299 180.556 10.299ZM172.558 32.229H168.903C168.301 32.229 168 31.928 168 31.326V2.903C168 2.301 168 0 168 0C168 0 170.5 0.0970011 172 1.5C173.5 2.903 173.5 5 173.5 5L173.461 31.326C173.461 31.928 173.16 32.229 172.558 32.229Z" fill="#024639"/>
<path d="M109.558 32.252H105.903C105.301 32.252 105 31.951 105 31.349V0.0229709C105 0.0229709 106.5 -0.241311 108.5 1.02299C110 2.02298 110.461 3.36648 110.461 4.52297C110.461 7.02296 110.461 12.644 110.461 12.644H110.633C111.264 11.096 112.668 10.322 114.847 10.322H116.223C120.724 10.322 122.974 12.6583 122.974 17.331V31.349C122.974 31.951 122.659 32.252 122.028 32.252H118.416C117.814 32.252 117.513 31.951 117.513 31.349V17.589C117.513 16.6716 117.312 16.0266 116.911 15.654C116.538 15.2526 115.893 15.052 114.976 15.052H113.428C111.45 15.052 110.461 16.1413 110.461 18.32V31.349C110.461 31.951 110.16 32.252 109.558 32.252Z" fill="#024639"/>
<path fill-rule="evenodd" clip-rule="evenodd" d="M64.0001 21.5165L49.4835 6.99986C41.4837 -0.999954 28.5163 -0.999954 20.5165 6.99986L5.99986 21.5165C-1.99995 29.5163 -1.99995 42.4837 5.99986 50.4835L20.5165 65.0001C28.5163 73 41.4837 73 49.4835 65.0001L64.0001 50.4835C72 42.4837 72 29.5163 64.0001 21.5165Z" fill="#024639"/>
<path d="M32.4727 48.0081C32.4727 48.0081 42.6908 26.2784 44.5074 22.7108C46.3239 19.1431 51.0924 21.0081 51.0924 21.0081C46.8445 32.0743 40.4201 44.8458 37.6953 49.4676C34.9704 54.0893 30.6561 54.8191 28.3854 53.3595C26.1225 51.9049 19.0196 37.9089 18.85 38.2741C19.6221 36.0852 24.5258 34.8737 25.4335 35.8459C26.3418 36.8188 32.4727 48.0081 32.4727 48.0081Z" fill="#48DC76"/>
<path d="M252.556 46.299H256.727C257.071 46.299 257.3 46.3993 257.415 46.6C257.53 46.8007 257.487 47.0587 257.286 47.374L251.567 56.791V56.963L257.544 67.154C257.716 67.4407 257.73 67.6987 257.587 67.928C257.444 68.1287 257.186 68.229 256.813 68.229H253.115C252.628 68.229 252.269 68.1717 252.04 68.057C251.839 67.9423 251.624 67.6987 251.395 67.326L245.934 57.737C245.676 57.2783 245.676 56.8053 245.934 56.318L251.094 47.159C251.409 46.5857 251.897 46.299 252.556 46.299ZM244.558 68.229H240.903C240.301 68.229 240 67.928 240 67.326V38.903C240 38.301 240 36 240 36C240 36 242.5 36.097 244 37.5C245.5 38.903 245.5 41 245.5 41L245.461 67.326C245.461 67.928 245.16 68.229 244.558 68.229Z" fill="#024639"/>
<path fill-rule="evenodd" clip-rule="evenodd" d="M103.857 67.0568C103.857 67.6827 103.547 67.9971 102.928 67.9971H99.1663C98.547 67.9971 98.2374 67.6827 98.2374 67.0568V65.5791H98.0596C97.7356 66.3851 97.1593 66.9911 96.3336 67.3941C95.5079 67.7971 94.6363 68 93.7217 68H91.9068C89.6332 68 87.9158 67.3741 86.7489 66.1193C85.582 64.8646 85 63.0582 85 60.6974V52.4544C85 50.0965 85.582 48.2872 86.7489 47.0325C87.913 45.7778 89.6332 45.1518 91.9068 45.1518H93.7217C94.6363 45.1518 95.5079 45.3548 96.3336 45.7578C97.1593 46.1608 97.7356 46.7667 98.0596 47.5727H98.2374V36C101.371 36 103.914 38.4466 103.917 41.4591C103.92 44.4716 103.86 67.0597 103.86 67.0597L103.857 67.0568ZM98.2345 53.4805C98.2345 51.2111 97.2167 50.0765 95.1811 50.0765H93.1884C92.2423 50.0765 91.58 50.2794 91.1958 50.6824C90.8116 51.0854 90.6195 51.7656 90.6195 52.7203V60.4259C90.6195 61.3834 90.8116 62.0607 91.1958 62.4637C91.58 62.8667 92.2423 63.0697 93.1884 63.0697H95.1811C97.2167 63.0697 98.2345 61.935 98.2345 59.6656V53.4834V53.4805Z" fill="#024639"/>
<path fill-rule="evenodd" clip-rule="evenodd" d="M173.003 46.9431C173.003 46.3172 173.313 46.0028 173.932 46.0028H177.694C178.313 46.0028 178.622 46.3172 178.622 46.9431V48.4208H178.8C179.124 47.6148 179.701 47.0089 180.526 46.6059C181.352 46.2029 182.224 45.9999 183.138 45.9999H184.953C187.227 45.9999 188.944 46.6259 190.111 47.8806C191.278 49.1353 191.86 50.9417 191.86 53.3025V61.5455C191.86 63.9035 191.278 65.7127 190.111 66.9674C188.947 68.2221 187.227 68.8481 184.953 68.8481H183.138C182.224 68.8481 181.352 68.6452 180.526 68.2422C179.701 67.8392 179.124 67.2332 178.8 66.4272H178.622L178.625 73.5C178.622 77.4999 173 78 173 78V46.9403L173.003 46.9431ZM178.625 60.5194C178.625 62.7888 179.643 63.9235 181.679 63.9235H183.671C184.618 63.9235 185.28 63.7205 185.664 63.3175C186.048 62.9145 186.24 62.2343 186.24 61.2797V53.5741C186.24 52.6166 186.048 51.9392 185.664 51.5362C185.28 51.1332 184.618 50.9303 183.671 50.9303H181.679C179.643 50.9303 178.625 52.0649 178.625 54.3343V60.5165V60.5194Z" fill="#024639"/>
<path d="M117.002 68H115.97C113.705 68 111.957 67.398 110.724 66.194C109.491 64.99 108.875 63.2557 108.875 60.991V53.079C108.875 50.8143 109.491 49.08 110.724 47.876C111.957 46.672 113.705 46.07 115.97 46.07H125.903C126.534 46.07 126.849 46.371 126.849 46.973V67.097C126.849 67.699 126.534 68 125.903 68H122.291C121.689 68 121.388 67.699 121.388 67.097V65.678H121.216C120.901 66.452 120.342 67.0397 119.539 67.441C118.736 67.8137 117.891 68 117.002 68ZM121.388 60.002V51.273C121.388 50.9577 121.216 50.8 120.872 50.8H116.83C115.913 50.8 115.268 51.0007 114.895 51.402C114.522 51.7747 114.336 52.4197 114.336 53.337V60.733C114.336 61.6503 114.522 62.3097 114.895 62.711C115.268 63.0837 115.913 63.27 116.83 63.27H118.421C120.399 63.27 121.388 62.1807 121.388 60.002ZM133.754 50.8H132.034C131.69 50.8 131.446 50.7427 131.303 50.628C131.188 50.5133 131.131 50.284 131.131 49.94V46.973C131.131 46.371 131.432 46.07 132.034 46.07H133.754C134.069 46.07 134.227 45.9123 134.227 45.597V41.512C134.227 40.91 134.542 40.609 135.173 40.609H138.785C139.387 40.609 139.688 40.91 139.688 41.512V45.597C139.688 45.9123 139.86 46.07 140.204 46.07H143.558C144.16 46.07 144.461 46.371 144.461 46.973V49.94C144.461 50.2553 144.389 50.4847 144.246 50.628C144.131 50.7427 143.902 50.8 143.558 50.8H140.204C139.86 50.8 139.688 50.9577 139.688 51.273V60.776C139.688 61.6647 139.888 62.3097 140.29 62.711C140.691 63.0837 141.35 63.27 142.268 63.27H143.988C144.59 63.27 144.891 63.571 144.891 64.173V67.14C144.891 67.4553 144.819 67.6847 144.676 67.828C144.561 67.9427 144.332 68 143.988 68H141.365C139.1 68 137.337 67.398 136.076 66.194C134.843 64.99 134.227 63.27 134.227 61.034V51.273C134.227 50.9577 134.069 50.8 133.754 50.8ZM157.857 68H156.825C154.56 68 152.812 67.398 151.579 66.194C150.346 64.99 149.73 63.2557 149.73 60.991V53.079C149.73 50.8143 150.346 49.08 151.579 47.876C152.812 46.672 154.56 46.07 156.825 46.07H166.758C167.389 46.07 167.704 46.371 167.704 46.973V67.097C167.704 67.699 167.389 68 166.758 68H163.146C162.544 68 162.243 67.699 162.243 67.097V65.678H162.071C161.756 66.452 161.197 67.0397 160.394 67.441C159.591 67.8137 158.746 68 157.857 68ZM162.243 60.002V51.273C162.243 50.9577 162.071 50.8 161.727 50.8H157.685C156.768 50.8 156.123 51.0007 155.75 51.402C155.377 51.7747 155.191 52.4197 155.191 53.337V60.733C155.191 61.6503 155.377 62.3097 155.75 62.711C156.123 63.0837 156.768 63.27 157.685 63.27H159.276C161.254 63.27 162.243 62.1807 162.243 60.002ZM204.169 68H203.137C200.873 68 199.124 67.398 197.891 66.194C196.659 64.99 196.042 63.2557 196.042 60.991V53.079C196.042 50.8143 196.659 49.08 197.891 47.876C199.124 46.672 200.873 46.07 203.137 46.07H213.07C213.701 46.07 214.016 46.371 214.016 46.973V67.097C214.016 67.699 213.701 68 213.07 68H209.458C208.856 68 208.555 67.699 208.555 67.097V65.678H208.383C208.068 66.452 207.509 67.0397 206.706 67.441C205.904 67.8137 205.058 68 204.169 68ZM208.555 60.002V51.273C208.555 50.9577 208.383 50.8 208.039 50.8H203.997C203.08 50.8 202.435 51.0007 202.062 51.402C201.69 51.7747 201.503 52.4197 201.503 53.337V60.733C201.503 61.6503 201.69 62.3097 202.062 62.711C202.435 63.0837 203.08 63.27 203.997 63.27H205.588C207.566 63.27 208.555 62.1807 208.555 60.002ZM234.423 64.173V67.14C234.423 67.4553 234.351 67.6847 234.208 67.828C234.093 67.9427 233.864 68 233.52 68H227.113C224.848 68 223.1 67.398 221.867 66.194C220.634 64.99 220.018 63.2557 220.018 60.991V53.079C220.018 50.8143 220.634 49.08 221.867 47.876C223.1 46.672 224.848 46.07 227.113 46.07H233.52C234.122 46.07 234.423 46.371 234.423 46.973V49.94C234.423 50.2553 234.351 50.4847 234.208 50.628C234.093 50.7427 233.864 50.8 233.52 50.8H227.973C227.084 50.8 226.439 51.0007 226.038 51.402C225.665 51.7747 225.479 52.4197 225.479 53.337V60.733C225.479 61.6503 225.665 62.3097 226.038 62.711C226.439 63.0837 227.084 63.27 227.973 63.27H233.52C234.122 63.27 234.423 63.571 234.423 64.173ZM269.88 68H268.848C266.584 68 264.835 67.398 263.602 66.194C262.37 64.99 261.753 63.2557 261.753 60.991V53.079C261.753 50.8143 262.37 49.08 263.602 47.876C264.835 46.672 266.584 46.07 268.848 46.07H278.781C279.412 46.07 279.727 46.371 279.727 46.973V67.097C279.727 67.699 279.412 68 278.781 68H275.169C274.567 68 274.266 67.699 274.266 67.097V65.678H274.094C273.779 66.452 273.22 67.0397 272.417 67.441C271.615 67.8137 270.769 68 269.88 68ZM274.266 60.002V51.273C274.266 50.9577 274.094 50.8 273.75 50.8H269.708C268.791 50.8 268.146 51.0007 267.773 51.402C267.401 51.7747 267.214 52.4197 267.214 53.337V60.733C267.214 61.6503 267.401 62.3097 267.773 62.711C268.146 63.0837 268.791 63.27 269.708 63.27H271.299C273.277 63.27 274.266 62.1807 274.266 60.002ZM293.899 67.011H292.48C290.273 67.011 288.596 66.409 287.449 65.205C286.331 64.001 285.772 62.2667 285.772 60.002V53.079C285.772 50.8143 286.389 49.08 287.621 47.876C288.854 46.672 290.603 46.07 292.867 46.07H302.8C303.431 46.07 303.746 46.371 303.746 46.973V68.172C303.746 70.408 303.116 72.128 301.854 73.332C300.622 74.536 298.887 75.138 296.651 75.138H288.395C288.051 75.138 287.808 75.0663 287.664 74.923C287.55 74.8083 287.492 74.5933 287.492 74.278V71.311C287.492 70.709 287.793 70.408 288.395 70.408H295.748C296.666 70.408 297.311 70.2073 297.683 69.806C298.085 69.4333 298.285 68.8027 298.285 67.914V64.646H298.113C297.798 65.42 297.239 66.0077 296.436 66.409C295.634 66.8103 294.788 67.011 293.899 67.011ZM298.285 59.013V51.273C298.285 50.9577 298.113 50.8 297.769 50.8H293.727C292.81 50.8 292.165 51.0007 291.792 51.402C291.42 51.7747 291.233 52.4197 291.233 53.337V59.744C291.233 60.6613 291.42 61.3063 291.792 61.679C292.165 62.0517 292.81 62.238 293.727 62.238H295.318C297.296 62.238 298.285 61.163 298.285 59.013ZM326.345 68H316.842C314.577 68 312.829 67.398 311.596 66.194C310.363 64.99 309.747 63.2557 309.747 60.991V53.079C309.747 50.8143 310.363 49.08 311.596 47.876C312.829 46.672 314.577 46.07 316.842 46.07H320.239C322.504 46.07 324.252 46.672 325.485 47.876C326.718 49.08 327.334 50.8143 327.334 53.079V58.54C327.334 59.142 327.033 59.443 326.431 59.443H315.638C315.294 59.443 315.122 59.6007 315.122 59.916V60.862C315.122 61.7507 315.308 62.3957 315.681 62.797C316.082 63.1697 316.742 63.356 317.659 63.356H326.345C326.947 63.356 327.248 63.6713 327.248 64.302V67.14C327.248 67.4553 327.176 67.6847 327.033 67.828C326.918 67.9427 326.689 68 326.345 68ZM315.638 55.788H321.486C321.801 55.788 321.959 55.6303 321.959 55.315V53.251C321.959 52.3337 321.773 51.6887 321.4 51.316C321.027 50.9433 320.382 50.757 319.465 50.757H317.659C316.742 50.757 316.097 50.9433 315.724 51.316C315.351 51.6887 315.165 52.3337 315.165 53.251V55.315C315.165 55.6303 315.323 55.788 315.638 55.788Z" fill="#024639"/>
</svg>
