<svg width="120" height="31" viewBox="0 0 120 31" fill="none" xmlns="http://www.w3.org/2000/svg">
<path d="M9.331 8.31024H12.771C13.115 8.31024 13.3443 8.38191 13.459 8.52524C13.6023 8.63991 13.674 8.85491 13.674 9.17024V12.1372C13.674 12.7392 13.373 13.0402 12.771 13.0402H9.331C9.01567 13.0402 8.858 13.1979 8.858 13.5132V29.3372C8.858 29.9392 8.54267 30.2402 7.912 30.2402H4.3C3.698 30.2402 3.397 29.9392 3.397 29.3372V13.5132C3.397 13.1979 3.225 13.0402 2.881 13.0402H0.903C0.301 13.0402 0 12.7392 0 12.1372V9.17024C0 8.82624 0.0573333 8.59691 0.172 8.48224C0.315333 8.36758 0.559 8.31024 0.903 8.31024H2.881C3.225 8.31024 3.397 8.15258 3.397 7.83724V7.02024C3.397 4.75558 3.98467 3.02124 5.16 1.81724C6.364 0.613244 8.09833 0.0112437 10.363 0.0112437H12.814C13.158 0.0112437 13.3873 0.0829103 13.502 0.226244C13.6167 0.34091 13.674 0.55591 13.674 0.871243V3.83824C13.674 4.44024 13.3873 4.74124 12.814 4.74124H11.223C10.3057 4.74124 9.675 4.94191 9.331 5.34324C9.01567 5.71591 8.858 6.36091 8.858 7.27824V7.83724C8.858 8.15258 9.01567 8.31024 9.331 8.31024Z" fill="#024639"/>
<path d="M39.9574 30.2402H36.1304C33.8657 30.2402 32.1171 29.6382 30.8844 28.4342C29.6517 27.2302 29.0354 25.4959 29.0354 23.2312V15.3192C29.0354 13.0546 29.6517 11.3202 30.8844 10.1162C32.1171 8.91224 33.8657 8.31024 36.1304 8.31024H39.9574C42.1934 8.31024 43.9277 8.92658 45.1604 10.1592C46.4217 11.3632 47.0524 13.0832 47.0524 15.3192V23.2312C47.0524 25.4672 46.4217 27.2016 45.1604 28.4342C43.9277 29.6382 42.1934 30.2402 39.9574 30.2402ZM36.9474 25.5532H39.1404C40.0577 25.5532 40.7027 25.3669 41.0754 24.9942C41.4767 24.6216 41.6774 23.9766 41.6774 23.0592V15.4912C41.6774 14.5739 41.4767 13.9289 41.0754 13.5562C40.7027 13.1836 40.0577 12.9972 39.1404 12.9972H36.9474C36.0301 12.9972 35.3851 13.1836 35.0124 13.5562C34.6397 13.9289 34.4534 14.5739 34.4534 15.4912V23.0592C34.4534 23.9766 34.6397 24.6216 35.0124 24.9942C35.3851 25.3669 36.0301 25.5532 36.9474 25.5532Z" fill="#024639"/>
<path d="M61.8353 30.2402H56.9333C56.3887 30.2402 56.0447 29.9392 55.9013 29.3372L51.6013 9.21324C51.4867 8.61124 51.7017 8.31024 52.2463 8.31024H56.3743C57.005 8.31024 57.349 8.61124 57.4063 9.21324L59.3413 23.9192H59.6853L62.7383 9.21324C62.8243 8.61124 63.154 8.31024 63.7273 8.31024H67.5113C68.1133 8.31024 68.4717 8.61124 68.5863 9.21324L71.5533 23.9192H71.8973L73.8753 9.21324C73.9613 8.61124 74.3053 8.31024 74.9073 8.31024H79.0353C79.6087 8.31024 79.8237 8.61124 79.6803 9.21324L75.3803 29.3372C75.2657 29.9392 74.9217 30.2402 74.3483 30.2402H69.4463C68.873 30.2402 68.529 29.9392 68.4143 29.3372L65.7913 14.8032H65.4473L62.8673 29.3372C62.7813 29.9392 62.4373 30.2402 61.8353 30.2402Z" fill="#024639"/>
<path d="M100.892 30.2402H91.3888C89.1241 30.2402 87.3754 29.6382 86.1428 28.4342C84.9101 27.2302 84.2938 25.4959 84.2938 23.2312V15.3192C84.2938 13.0546 84.9101 11.3202 86.1428 10.1162C87.3754 8.91224 89.1241 8.31024 91.3888 8.31024H94.7858C97.0504 8.31024 98.7991 8.91224 100.032 10.1162C101.264 11.3202 101.881 13.0546 101.881 15.3192V20.7802C101.881 21.3822 101.58 21.6832 100.978 21.6832H90.1848C89.8408 21.6832 89.6688 21.8409 89.6688 22.1562V23.1022C89.6688 23.9909 89.8551 24.6359 90.2278 25.0372C90.6291 25.4099 91.2884 25.5962 92.2058 25.5962H100.892C101.494 25.5962 101.795 25.9116 101.795 26.5422V29.3802C101.795 29.6956 101.723 29.9249 101.58 30.0682C101.465 30.1829 101.236 30.2402 100.892 30.2402ZM90.1848 18.0282H96.0328C96.3481 18.0282 96.5058 17.8706 96.5058 17.5552V15.4912C96.5058 14.5739 96.3194 13.9289 95.9468 13.5562C95.5741 13.1836 94.9291 12.9972 94.0118 12.9972H92.2058C91.2884 12.9972 90.6434 13.1836 90.2708 13.5562C89.8981 13.9289 89.7118 14.5739 89.7118 15.4912V17.5552C89.7118 17.8706 89.8694 18.0282 90.1848 18.0282Z" fill="#024639"/>
<path d="M112.25 30.2402H108.595C107.993 30.2402 107.692 29.9392 107.692 29.3372V9.21324C107.692 8.61124 107.993 8.31024 108.595 8.31024H112.25C112.852 8.31024 113.153 8.61124 113.153 9.21324V10.6752H113.325C113.64 9.90124 114.199 9.31358 115.002 8.91224C115.804 8.51091 116.65 8.31024 117.539 8.31024H119.087C119.66 8.31024 119.947 8.61124 119.947 9.21324V12.1802C119.947 12.5242 119.875 12.7679 119.732 12.9112C119.617 13.0259 119.402 13.0689 119.087 13.0402H116.12C114.142 13.0402 113.153 14.1582 113.153 16.3942V29.3372C113.153 29.9392 112.852 30.2402 112.25 30.2402Z" fill="#024639"/>
<path d="M23.1706 30.232C23.8312 30.232 24.1615 29.9149 24.1615 29.2835C24.1615 29.2835 24.1615 10.4642 24.1615 5.43164C24.1615 0.399059 20.0281 1.10774e-08 19.1645 0C18.3009 -1.10774e-08 18.1645 0.22998 18.1676 0.868277C18.1707 1.50657 18.1676 9.62912 18.1676 9.62912V29.2835C18.1676 29.9149 18.4979 30.232 19.1584 30.232H23.1706Z" fill="#024639"/>
</svg>
