<svg width="119" height="30" viewBox="0 0 119 30" fill="none" xmlns="http://www.w3.org/2000/svg">
<path d="M23.6935 29.9971C24.3127 29.9971 24.6224 29.6827 24.6224 29.0568L24.6252 29.0597C24.6252 29.0597 24.6252 8.0125 24.6224 5C24.6195 1.98749 22.1366 0 19.0029 0V9.5727V27.5791V29.0568C19.0029 29.6827 19.3125 29.9971 19.9318 29.9971H23.6935Z" fill="#024639"/>
<path d="M10.08 8.58H13.44C13.776 8.58 14 8.65 14.112 8.79C14.252 8.902 14.322 9.112 14.322 9.42V12.318C14.322 12.906 14.028 13.2 13.44 13.2H10.08C9.772 13.2 9.618 13.354 9.618 13.662V29.118C9.618 29.706 9.31 30 8.694 30H5.166C4.578 30 4.284 29.706 4.284 29.118V13.662C4.284 13.354 4.116 13.2 3.78 13.2H1.848C1.26 13.2 0.966 12.906 0.966 12.318V9.42C0.966 9.084 1.022 8.86 1.134 8.748C1.274 8.636 1.512 8.58 1.848 8.58H3.78C4.116 8.58 4.284 8.426 4.284 8.118V7.32C4.284 5.108 4.858 3.414 6.006 2.238C7.182 1.062 8.876 0.474 11.088 0.474H13.482C13.818 0.474 14.042 0.544 14.154 0.683999C14.266 0.796 14.322 1.006 14.322 1.314V4.212C14.322 4.8 14.042 5.094 13.482 5.094H11.928C11.032 5.094 10.416 5.29 10.08 5.682C9.772 6.046 9.618 6.676 9.618 7.572V8.118C9.618 8.426 9.772 8.58 10.08 8.58ZM39.9942 30H36.2562C34.0442 30 32.3362 29.412 31.1322 28.236C29.9282 27.06 29.3262 25.366 29.3262 23.154V15.426C29.3262 13.214 29.9282 11.52 31.1322 10.344C32.3362 9.168 34.0442 8.58 36.2562 8.58H39.9942C42.1782 8.58 43.8722 9.182 45.0762 10.386C46.3082 11.562 46.9242 13.242 46.9242 15.426V23.154C46.9242 25.338 46.3082 27.032 45.0762 28.236C43.8722 29.412 42.1782 30 39.9942 30ZM37.0542 25.422H39.1962C40.0922 25.422 40.7222 25.24 41.0862 24.876C41.4782 24.512 41.6742 23.882 41.6742 22.986V15.594C41.6742 14.698 41.4782 14.068 41.0862 13.704C40.7222 13.34 40.0922 13.158 39.1962 13.158H37.0542C36.1582 13.158 35.5282 13.34 35.1642 13.704C34.8002 14.068 34.6182 14.698 34.6182 15.594V22.986C34.6182 23.882 34.8002 24.512 35.1642 24.876C35.5282 25.24 36.1582 25.422 37.0542 25.422ZM61.3633 30H56.5753C56.0433 30 55.7073 29.706 55.5673 29.118L51.3673 9.462C51.2553 8.874 51.4653 8.58 51.9973 8.58H56.0293C56.6453 8.58 56.9813 8.874 57.0373 9.462L58.9273 23.826H59.2633L62.2453 9.462C62.3293 8.874 62.6513 8.58 63.2113 8.58H66.9073C67.4953 8.58 67.8453 8.874 67.9573 9.462L70.8553 23.826H71.1913L73.1233 9.462C73.2073 8.874 73.5433 8.58 74.1313 8.58H78.1633C78.7233 8.58 78.9333 8.874 78.7933 9.462L74.5933 29.118C74.4813 29.706 74.1453 30 73.5853 30H68.7973C68.2373 30 67.9013 29.706 67.7893 29.118L65.2273 14.922H64.8913L62.3713 29.118C62.2873 29.706 61.9513 30 61.3633 30ZM99.5115 30H90.2295C88.0175 30 86.3095 29.412 85.1055 28.236C83.9015 27.06 83.2995 25.366 83.2995 23.154V15.426C83.2995 13.214 83.9015 11.52 85.1055 10.344C86.3095 9.168 88.0175 8.58 90.2295 8.58H93.5475C95.7595 8.58 97.4675 9.168 98.6715 10.344C99.8755 11.52 100.477 13.214 100.477 15.426V20.76C100.477 21.348 100.183 21.642 99.5955 21.642H89.0535C88.7175 21.642 88.5495 21.796 88.5495 22.104V23.028C88.5495 23.896 88.7315 24.526 89.0955 24.918C89.4875 25.282 90.1315 25.464 91.0275 25.464H99.5115C100.099 25.464 100.393 25.772 100.393 26.388V29.16C100.393 29.468 100.323 29.692 100.183 29.832C100.071 29.944 99.8475 30 99.5115 30ZM89.0535 18.072H94.7655C95.0735 18.072 95.2275 17.918 95.2275 17.61V15.594C95.2275 14.698 95.0455 14.068 94.6815 13.704C94.3175 13.34 93.6875 13.158 92.7915 13.158H91.0275C90.1315 13.158 89.5015 13.34 89.1375 13.704C88.7735 14.068 88.5915 14.698 88.5915 15.594V17.61C88.5915 17.918 88.7455 18.072 89.0535 18.072ZM110.605 30H107.035C106.447 30 106.153 29.706 106.153 29.118V9.462C106.153 8.874 106.447 8.58 107.035 8.58H110.605C111.193 8.58 111.487 8.874 111.487 9.462V10.89H111.655C111.963 10.134 112.509 9.56 113.293 9.168C114.077 8.776 114.903 8.58 115.771 8.58H117.283C117.843 8.58 118.123 8.874 118.123 9.462V12.36C118.123 12.696 118.053 12.934 117.913 13.074C117.801 13.186 117.591 13.228 117.283 13.2H114.385C112.453 13.2 111.487 14.292 111.487 16.476V29.118C111.487 29.706 111.193 30 110.605 30Z" fill="#024639"/>
</svg>
