<svg width="70" height="70" viewBox="0 0 70 70" fill="none" xmlns="http://www.w3.org/2000/svg">
<path fill-rule="evenodd" clip-rule="evenodd" d="M64.0001 20.5165L49.4835 5.99986C41.4837 -1.99995 28.5163 -1.99995 20.5165 5.99986L5.99986 20.5165C-1.99995 28.5163 -1.99995 41.4837 5.99986 49.4835L20.5165 64.0001C28.5163 72 41.4837 72 49.4835 64.0001L64.0001 49.4835C72 41.4837 72 28.5163 64.0001 20.5165Z" fill="#FFA800"/>
<path d="M32.6852 44.0171C32.6852 39.0959 28.8219 35.0254 23.9065 34.7879C23.9065 34.7879 23.5455 39.6667 26.303 42C26.303 42 28.8485 44.0171 32.6852 44.0171Z" fill="white"/>
<path d="M33.5072 56.5895L33.6892 43.4014C33.7982 35.4945 40.1183 29.0777 48.0226 28.8485C48.0226 28.8485 48.0226 40.7273 38.4089 42V52.3237C38.4089 54.9388 36.0973 56.9505 33.5072 56.5895Z" fill="white"/>
<path d="M34.4085 8.10369C34.7897 8.10369 35.1709 8.10369 35.5781 8.12067C36.1258 8.17028 36.6056 8.35857 37.0403 8.62846C38.2126 9.35638 38.9154 10.4022 39.0166 11.8272C39.0215 11.8966 39.0546 11.9639 39.0811 12.0545C40.0633 11.5075 41.083 11.4397 42.1052 11.7349C43.1448 12.0351 43.9431 12.696 44.4663 13.6743C44.9403 14.5608 45.099 15.5082 44.8817 16.4918C44.6334 17.6153 44.0445 18.5195 43.0557 19.1301C44.8501 20.2808 45.4193 22.536 44.5965 24.3277C44.1462 25.3082 43.4376 26.0155 42.4541 26.4053C41.3173 26.8558 40.1861 26.7973 39.0724 26.2195C39.0497 26.3124 39.0199 26.3833 39.0166 26.4555C38.9864 27.1016 38.7948 27.6992 38.4591 28.2406C37.968 29.0326 37.2969 29.6164 36.4233 29.9327C36.1533 30.0304 35.8693 30.0882 35.5917 30.1643C35.1683 30.1643 34.7448 30.1643 34.2967 30.1485C34.2416 30.1172 34.2127 30.0948 34.1804 30.0874C33.3472 29.8965 32.6431 29.4825 32.0685 28.8358C31.5663 28.2705 31.2439 27.6167 31.1135 26.8661C31.0774 26.6585 31.0556 26.4484 31.0226 26.2052C30.1034 26.7105 29.1697 26.8009 28.2045 26.5864C27.2194 26.3675 26.3829 25.8485 25.8632 24.9848C24.4974 22.7146 25.0032 20.7611 26.9785 19.1034C26.0579 18.4968 25.4706 17.644 25.222 16.5551C24.9702 15.452 25.1627 14.4232 25.7441 13.465C26.2099 12.6972 26.8613 12.1455 27.6877 11.8384C28.8097 11.4215 29.9216 11.4768 31.0128 12.0506C31.0357 11.9549 31.0648 11.8837 31.0682 11.8113C31.0986 11.1654 31.2903 10.568 31.6261 10.0266C32.1173 9.23479 32.7893 8.65384 33.6613 8.33383C33.9058 8.24412 34.1592 8.17971 34.4085 8.10369ZM33.2428 15.9439C32.691 16.2454 32.2659 16.6849 31.9503 17.2281C31.4603 18.0715 31.2786 18.9797 31.5107 19.9421C31.75 20.9345 32.2788 21.7259 33.1476 22.2667C33.901 22.7356 34.7159 22.9382 35.5838 22.7879C36.4219 22.6428 37.1555 22.2662 37.7241 21.5932C38.4881 20.6889 38.8129 19.6641 38.5939 18.475C38.4053 17.4506 37.8906 16.643 37.0427 16.0697C36.3344 15.5908 35.5576 15.3684 34.6948 15.4655C34.1842 15.523 33.7148 15.6773 33.2428 15.9439Z" fill="white"/>
</svg>
