<svg width="219" height="70" viewBox="0 0 219 70" fill="none" xmlns="http://www.w3.org/2000/svg">
<g clip-path="url(#clip0_1981_2576)">
<path fill-rule="evenodd" clip-rule="evenodd" d="M142.991 30H140.938C139.361 30 138.132 29.5562 137.25 28.6686C136.369 27.7809 135.928 26.5405 135.928 24.9474V17.6415C135.928 16.0484 136.369 14.808 137.25 13.9203C138.132 13.0327 139.361 12.5889 140.938 12.5889H142.991C144.8 12.5889 145.995 13.192 146.575 14.3983H146.714V6C146.714 6 149.305 6.375 149.305 9.375C149.305 12.375 149.219 29.522 149.219 29.522C149.219 29.8407 149.068 30 148.767 30H147.166C146.865 30 146.714 29.8407 146.714 29.522V28.1906H146.575C145.995 29.3969 144.8 30 142.991 30ZM146.714 17.9146V24.6743C146.714 25.6757 146.435 26.4495 145.879 26.9957C145.322 27.542 144.522 27.8151 143.478 27.8151H141.356C139.431 27.8151 138.468 26.825 138.468 24.845V17.744C138.468 15.7639 139.431 14.7738 141.356 14.7738H143.478C144.522 14.7738 145.322 15.0469 145.879 15.5932C146.435 16.1394 146.714 16.9132 146.714 17.9146Z" fill="#024639" fill-opacity="0.8"/>
<path fill-rule="evenodd" clip-rule="evenodd" d="M82.6263 30H88.8193C92.1363 30 93.7947 28.6344 93.7947 25.9033C93.7947 24.5832 93.5743 23.5477 93.1336 22.7966C92.7161 22.0455 91.9042 21.4424 90.6981 20.9872L86.5926 19.1778C85.2705 18.6771 84.6094 17.9488 84.6094 16.9929V16.4125C84.6094 15.9573 84.8182 15.559 85.2357 15.2176C85.6764 14.8762 86.3143 14.7055 87.1493 14.7055H92.403C92.7277 14.7055 92.8901 14.5576 92.8901 14.2617V13.0669C92.8901 12.7482 92.7277 12.5889 92.403 12.5889H86.697C83.5657 12.5889 82 13.9886 82 16.788C82 17.8578 82.2551 18.7226 82.7654 19.3826C83.2757 20.0199 84.1223 20.5775 85.3053 21.0555L89.4108 22.7624C90.5938 23.2177 91.1852 24.0483 91.1852 25.2546V25.9033C91.1852 27.2233 90.2806 27.8834 88.4714 27.8834H82.6263C82.3015 27.8834 82.1392 28.0313 82.1392 28.3272V29.522C82.1392 29.8407 82.3015 30 82.6263 30ZM104.045 30H111.421C111.746 30 111.908 29.852 111.908 29.5562V28.3272C111.908 28.0085 111.746 27.8492 111.421 27.8492H104.323C102.375 27.8492 101.401 26.8592 101.401 24.8791V22.7966C101.401 22.5917 101.517 22.4893 101.749 22.4893H111.595C111.92 22.4893 112.082 22.3186 112.082 21.9772V17.6415C112.082 16.0484 111.63 14.808 110.725 13.9203C109.821 13.0327 108.568 12.5889 106.968 12.5889H104.045C102.445 12.5889 101.181 13.0327 100.253 13.9203C99.3481 14.808 98.8958 16.0484 98.8958 17.6415V24.9474C98.8958 26.5405 99.3481 27.7809 100.253 28.6686C101.181 29.5562 102.445 30 104.045 30ZM109.264 20.6799H101.749C101.517 20.6799 101.401 20.5661 101.401 20.3386V17.7098C101.401 15.7525 102.375 14.7738 104.323 14.7738H106.689C108.638 14.7738 109.612 15.7525 109.612 17.7098V20.3386C109.612 20.5661 109.496 20.6799 109.264 20.6799ZM122.561 30H129.937C130.262 30 130.424 29.852 130.424 29.5562V28.3272C130.424 28.0085 130.262 27.8492 129.937 27.8492H122.84C120.891 27.8492 119.917 26.8592 119.917 24.8791V22.7966C119.917 22.5917 120.033 22.4893 120.265 22.4893H130.111C130.436 22.4893 130.598 22.3186 130.598 21.9772V17.6415C130.598 16.0484 130.146 14.808 129.241 13.9203C128.337 13.0327 127.084 12.5889 125.484 12.5889H122.561C120.961 12.5889 119.697 13.0327 118.769 13.9203C117.864 14.808 117.412 16.0484 117.412 17.6415V24.9474C117.412 26.5405 117.864 27.7809 118.769 28.6686C119.697 29.5562 120.961 30 122.561 30ZM127.78 20.6799H120.265C120.033 20.6799 119.917 20.5661 119.917 20.3386V17.7098C119.917 15.7525 120.891 14.7738 122.84 14.7738H125.206C127.154 14.7738 128.128 15.7525 128.128 17.7098V20.3386C128.128 20.5661 128.012 20.6799 127.78 20.6799ZM165.737 29.5562V28.293C165.737 27.9744 165.575 27.8151 165.25 27.8151H160.483C158.558 27.8151 157.596 26.825 157.596 24.845V17.744C157.596 15.7639 158.558 14.7738 160.483 14.7738H165.25C165.575 14.7738 165.737 14.6259 165.737 14.33V13.0669C165.737 12.7482 165.575 12.5889 165.25 12.5889H160.205C158.605 12.5889 157.341 13.0327 156.413 13.9203C155.508 14.808 155.056 16.0484 155.056 17.6415V24.9474C155.056 26.5405 155.508 27.7809 156.413 28.6686C157.341 29.5562 158.605 30 160.205 30H165.25C165.575 30 165.737 29.852 165.737 29.5562ZM175.493 30H177.303C179.089 30 180.272 29.3969 180.852 28.1906H180.991V29.522C180.991 29.8407 181.153 30 181.478 30H183.043C183.368 30 183.531 29.8407 183.531 29.522V13.0669C183.531 12.7482 183.368 12.5889 183.043 12.5889H175.493C173.893 12.5889 172.629 13.0327 171.701 13.9203C170.796 14.808 170.344 16.0484 170.344 17.6415V24.9474C170.344 26.5405 170.796 27.7809 171.701 28.6686C172.629 29.5562 173.893 30 175.493 30ZM180.991 15.0811V24.6743C180.991 25.6757 180.712 26.4495 180.156 26.9957C179.599 27.542 178.799 27.8151 177.755 27.8151H175.772C173.847 27.8151 172.884 26.825 172.884 24.845V17.744C172.884 15.7639 173.847 14.7738 175.772 14.7738H180.643C180.874 14.7738 180.991 14.8762 180.991 15.0811ZM189.544 30H195.737C199.054 30 200.712 28.6344 200.712 25.9033C200.712 24.5832 200.492 23.5477 200.051 22.7966C199.633 22.0455 198.822 21.4424 197.616 20.9872L193.51 19.1778C192.188 18.6771 191.527 17.9488 191.527 16.9929V16.4125C191.527 15.9573 191.736 15.559 192.153 15.2176C192.594 14.8762 193.232 14.7055 194.067 14.7055H199.32C199.645 14.7055 199.807 14.5576 199.807 14.2617V13.0669C199.807 12.7482 199.645 12.5889 199.32 12.5889H193.614C190.483 12.5889 188.917 13.9886 188.917 16.788C188.917 17.8578 189.173 18.7226 189.683 19.3826C190.194 20.0199 191.04 20.5775 192.223 21.0555L196.328 22.7624C197.511 23.2177 198.103 24.0483 198.103 25.2546V25.9033C198.103 27.2233 197.198 27.8834 195.389 27.8834H189.544C189.22 27.8834 189.057 28.0313 189.057 28.3272V29.522C189.057 29.8407 189.22 30 189.544 30ZM210.963 30H218.339C218.664 30 218.826 29.852 218.826 29.5562V28.3272C218.826 28.0085 218.664 27.8492 218.339 27.8492H211.241C209.293 27.8492 208.319 26.8592 208.319 24.8791V22.7966C208.319 22.5917 208.435 22.4893 208.667 22.4893H218.513C218.838 22.4893 219 22.3186 219 21.9772V17.6415C219 16.0484 218.548 14.808 217.643 13.9203C216.738 13.0327 215.486 12.5889 213.885 12.5889H210.963C209.362 12.5889 208.098 13.0327 207.171 13.9203C206.266 14.808 205.814 16.0484 205.814 17.6415V24.9474C205.814 26.5405 206.266 27.7809 207.171 28.6686C208.098 29.5562 209.362 30 210.963 30ZM216.182 20.6799H208.667C208.435 20.6799 208.319 20.5661 208.319 20.3386V17.7098C208.319 15.7525 209.293 14.7738 211.241 14.7738H213.607C215.556 14.7738 216.53 15.7525 216.53 17.7098V20.3386C216.53 20.5661 216.413 20.6799 216.182 20.6799Z" fill="#024639" fill-opacity="0.8"/>
</g>
<path fill-rule="evenodd" clip-rule="evenodd" d="M64.0001 20.5165L49.4835 5.99986C41.4837 -1.99995 28.5163 -1.99995 20.5165 5.99986L5.99986 20.5165C-1.99995 28.5163 -1.99995 41.4837 5.99986 49.4835L20.5165 64.0001C28.5163 72 41.4837 72 49.4835 64.0001L64.0001 49.4835C72 41.4837 72 28.5163 64.0001 20.5165Z" fill="#FFA800"/>
<path d="M32.6852 44.0171C32.6852 39.0959 28.8219 35.0254 23.9065 34.7879C23.9065 34.7879 23.5455 39.6667 26.303 42C26.303 42 28.8485 44.0171 32.6852 44.0171Z" fill="white"/>
<path d="M33.5072 56.5895L33.6892 43.4014C33.7982 35.4945 40.1183 29.0777 48.0226 28.8485C48.0226 28.8485 48.0226 40.7273 38.4089 42V52.3237C38.4089 54.9388 36.0973 56.9505 33.5072 56.5895Z" fill="white"/>
<path d="M34.4085 8.10369C34.7897 8.10369 35.1709 8.10369 35.5781 8.12067C36.1258 8.17027 36.6056 8.35857 37.0403 8.62846C38.2126 9.35638 38.9154 10.4022 39.0166 11.8272C39.0215 11.8966 39.0546 11.9639 39.0811 12.0545C40.0633 11.5075 41.083 11.4397 42.1052 11.7349C43.1448 12.0351 43.9431 12.696 44.4663 13.6743C44.9403 14.5608 45.099 15.5082 44.8817 16.4918C44.6334 17.6153 44.0445 18.5195 43.0557 19.1301C44.8501 20.2808 45.4193 22.536 44.5965 24.3277C44.1462 25.3082 43.4376 26.0155 42.4541 26.4053C41.3173 26.8558 40.1861 26.7973 39.0724 26.2195C39.0497 26.3124 39.0199 26.3833 39.0166 26.4555C38.9864 27.1016 38.7948 27.6992 38.4591 28.2406C37.968 29.0326 37.2969 29.6164 36.4233 29.9327C36.1533 30.0304 35.8693 30.0882 35.5917 30.1643C35.1683 30.1643 34.7448 30.1643 34.2967 30.1485C34.2416 30.1172 34.2127 30.0948 34.1804 30.0874C33.3472 29.8965 32.6431 29.4825 32.0685 28.8358C31.5663 28.2705 31.2439 27.6166 31.1135 26.8661C31.0774 26.6585 31.0556 26.4484 31.0226 26.2052C30.1034 26.7105 29.1697 26.8009 28.2045 26.5864C27.2194 26.3675 26.3829 25.8485 25.8632 24.9848C24.4974 22.7146 25.0032 20.7611 26.9785 19.1034C26.0579 18.4968 25.4706 17.644 25.222 16.5551C24.9702 15.452 25.1627 14.4232 25.7441 13.465C26.2099 12.6972 26.8613 12.1455 27.6877 11.8384C28.8097 11.4215 29.9216 11.4768 31.0128 12.0506C31.0357 11.9549 31.0648 11.8837 31.0682 11.8113C31.0986 11.1654 31.2903 10.568 31.6261 10.0266C32.1173 9.23479 32.7893 8.65384 33.6613 8.33383C33.9058 8.24412 34.1592 8.17971 34.4085 8.10369ZM33.2428 15.9439C32.691 16.2454 32.2659 16.6849 31.9503 17.2281C31.4603 18.0715 31.2786 18.9797 31.5107 19.9421C31.75 20.9345 32.2788 21.7259 33.1476 22.2667C33.901 22.7356 34.7159 22.9382 35.5838 22.7879C36.4219 22.6428 37.1555 22.2662 37.7241 21.5932C38.4881 20.6889 38.8129 19.6641 38.5939 18.475C38.4053 17.4506 37.8906 16.643 37.0427 16.0697C36.3344 15.5908 35.5576 15.3684 34.6948 15.4655C34.1842 15.523 33.7148 15.6773 33.2428 15.9439Z" fill="white"/>
<path d="M91.1664 42.3102H94.6065C94.9504 42.3102 95.1798 42.3819 95.2944 42.5252C95.4378 42.6399 95.5094 42.8549 95.5094 43.1702V46.1372C95.5094 46.7392 95.2085 47.0402 94.6065 47.0402H91.1664C90.8511 47.0402 90.6934 47.1979 90.6934 47.5132V63.3372C90.6934 63.9392 90.3781 64.2402 89.7474 64.2402H86.1354C85.5334 64.2402 85.2324 63.9392 85.2324 63.3372V47.5132C85.2324 47.1979 85.0604 47.0402 84.7164 47.0402H82.7384C82.1364 47.0402 81.8354 46.7392 81.8354 46.1372V43.1702C81.8354 42.8262 81.8928 42.5969 82.0074 42.4822C82.1508 42.3676 82.3944 42.3102 82.7384 42.3102H84.7164C85.0604 42.3102 85.2324 42.1526 85.2324 41.8372V41.0202C85.2324 38.7556 85.8201 37.0212 86.9954 35.8172C88.1994 34.6132 89.9338 34.0112 92.1984 34.0112H94.6494C94.9934 34.0112 95.2228 34.0829 95.3375 34.2262C95.4521 34.3409 95.5094 34.5559 95.5094 34.8712V37.8382C95.5094 38.4402 95.2228 38.7412 94.6494 38.7412H93.0584C92.1411 38.7412 91.5104 38.9419 91.1664 39.3432C90.8511 39.7159 90.6934 40.3609 90.6934 41.2782V41.8372C90.6934 42.1526 90.8511 42.3102 91.1664 42.3102Z" fill="#024639"/>
<path d="M121.793 64.2402H117.966C115.701 64.2402 113.953 63.6382 112.72 62.4342C111.487 61.2302 110.871 59.4959 110.871 57.2312V49.3192C110.871 47.0546 111.487 45.3202 112.72 44.1162C113.953 42.9122 115.701 42.3102 117.966 42.3102H121.793C124.029 42.3102 125.763 42.9266 126.996 44.1592C128.257 45.3632 128.888 47.0832 128.888 49.3192V57.2312C128.888 59.4672 128.257 61.2016 126.996 62.4342C125.763 63.6382 124.029 64.2402 121.793 64.2402ZM118.783 59.5532H120.976C121.893 59.5532 122.538 59.3669 122.911 58.9942C123.312 58.6216 123.513 57.9766 123.513 57.0592V49.4912C123.513 48.5739 123.312 47.9289 122.911 47.5562C122.538 47.1836 121.893 46.9972 120.976 46.9972H118.783C117.866 46.9972 117.221 47.1836 116.848 47.5562C116.475 47.9289 116.289 48.5739 116.289 49.4912V57.0592C116.289 57.9766 116.475 58.6216 116.848 58.9942C117.221 59.3669 117.866 59.5532 118.783 59.5532Z" fill="#024639"/>
<path d="M143.671 64.2402H138.769C138.224 64.2402 137.88 63.9392 137.737 63.3372L133.437 43.2132C133.322 42.6112 133.537 42.3102 134.082 42.3102H138.21C138.84 42.3102 139.184 42.6112 139.242 43.2132L141.177 57.9192H141.521L144.574 43.2132C144.66 42.6112 144.989 42.3102 145.563 42.3102H149.347C149.949 42.3102 150.307 42.6112 150.422 43.2132L153.389 57.9192H153.733L155.711 43.2132C155.797 42.6112 156.141 42.3102 156.743 42.3102H160.871C161.444 42.3102 161.659 42.6112 161.516 43.2132L157.216 63.3372C157.101 63.9392 156.757 64.2402 156.184 64.2402H151.282C150.708 64.2402 150.364 63.9392 150.25 63.3372L147.627 48.8032H147.283L144.703 63.3372C144.617 63.9392 144.273 64.2402 143.671 64.2402Z" fill="#024639"/>
<path d="M182.727 64.2402H173.224C170.96 64.2402 169.211 63.6382 167.978 62.4342C166.746 61.2302 166.129 59.4959 166.129 57.2312V49.3192C166.129 47.0546 166.746 45.3202 167.978 44.1162C169.211 42.9122 170.96 42.3102 173.224 42.3102H176.621C178.886 42.3102 180.635 42.9122 181.867 44.1162C183.1 45.3202 183.716 47.0546 183.716 49.3192V54.7802C183.716 55.3822 183.415 55.6832 182.813 55.6832H172.02C171.676 55.6832 171.504 55.8409 171.504 56.1562V57.1022C171.504 57.9909 171.691 58.6359 172.063 59.0372C172.465 59.4099 173.124 59.5962 174.041 59.5962H182.727C183.329 59.5962 183.63 59.9116 183.63 60.5422V63.3802C183.63 63.6956 183.559 63.9249 183.415 64.0682C183.301 64.1829 183.071 64.2402 182.727 64.2402ZM172.02 52.0282H177.868C178.184 52.0282 178.341 51.8706 178.341 51.5552V49.4912C178.341 48.5739 178.155 47.9289 177.782 47.5562C177.41 47.1836 176.765 46.9972 175.847 46.9972H174.041C173.124 46.9972 172.479 47.1836 172.106 47.5562C171.734 47.9289 171.547 48.5739 171.547 49.4912V51.5552C171.547 51.8706 171.705 52.0282 172.02 52.0282Z" fill="#024639"/>
<path d="M194.085 64.2402H190.43C189.828 64.2402 189.527 63.9392 189.527 63.3372V43.2132C189.527 42.6112 189.828 42.3102 190.43 42.3102H194.085C194.687 42.3102 194.988 42.6112 194.988 43.2132V44.6752H195.16C195.476 43.9012 196.035 43.3136 196.837 42.9122C197.64 42.5109 198.486 42.3102 199.374 42.3102H200.922C201.496 42.3102 201.782 42.6112 201.782 43.2132V46.1802C201.782 46.5242 201.711 46.7679 201.567 46.9112C201.453 47.0259 201.238 47.0689 200.922 47.0402H197.955C195.977 47.0402 194.988 48.1582 194.988 50.3942V63.3372C194.988 63.9392 194.687 64.2402 194.085 64.2402Z" fill="#024639"/>
<path d="M105.006 64.232C105.667 64.232 105.997 63.9149 105.997 63.2835C105.997 63.2835 105.997 44.4642 105.997 39.4316C105.997 34.3991 101.864 34 101 34C100.136 34 100 34.23 100.003 34.8683C100.006 35.5066 100.003 43.6291 100.003 43.6291V63.2835C100.003 63.9149 100.333 64.232 100.994 64.232H105.006Z" fill="#024639"/>
<defs>
<clipPath id="clip0_1981_2576">
<rect width="137" height="24" fill="white" transform="translate(82 6)"/>
</clipPath>
</defs>
</svg>
