<svg width="219" height="70" viewBox="0 0 219 70" fill="none" xmlns="http://www.w3.org/2000/svg">
<path d="M105.693 63.9971C106.313 63.9971 106.622 63.6827 106.622 63.0568L106.625 63.0597C106.625 63.0597 106.625 42.0125 106.622 39C106.62 35.9875 104.137 34 101.003 34V43.5727V61.5791V63.0568C101.003 63.6827 101.313 63.9971 101.932 63.9971H105.693Z" fill="#024639"/>
<g clip-path="url(#clip0_1663_5370)">
<path fill-rule="evenodd" clip-rule="evenodd" d="M142.991 30H140.938C139.361 30 138.132 29.5562 137.25 28.6686C136.369 27.7809 135.928 26.5405 135.928 24.9474V17.6415C135.928 16.0484 136.369 14.808 137.25 13.9203C138.132 13.0327 139.361 12.5889 140.938 12.5889H142.991C144.8 12.5889 145.995 13.192 146.575 14.3983H146.714V6C146.714 6 149.305 6.375 149.305 9.375C149.305 12.375 149.219 29.522 149.219 29.522C149.219 29.8407 149.068 30 148.767 30H147.166C146.865 30 146.714 29.8407 146.714 29.522V28.1906H146.575C145.995 29.3969 144.8 30 142.991 30ZM146.714 17.9146V24.6743C146.714 25.6757 146.435 26.4495 145.879 26.9957C145.322 27.542 144.522 27.8151 143.478 27.8151H141.356C139.431 27.8151 138.468 26.825 138.468 24.845V17.744C138.468 15.7639 139.431 14.7738 141.356 14.7738H143.478C144.522 14.7738 145.322 15.0469 145.879 15.5932C146.435 16.1394 146.714 16.9132 146.714 17.9146Z" fill="#024639" fill-opacity="0.8"/>
<path fill-rule="evenodd" clip-rule="evenodd" d="M82.6263 30H88.8193C92.1363 30 93.7947 28.6344 93.7947 25.9033C93.7947 24.5832 93.5743 23.5477 93.1336 22.7966C92.7161 22.0455 91.9042 21.4424 90.6981 20.9872L86.5926 19.1778C85.2705 18.6771 84.6094 17.9488 84.6094 16.9929V16.4125C84.6094 15.9573 84.8182 15.559 85.2357 15.2176C85.6764 14.8762 86.3143 14.7055 87.1493 14.7055H92.403C92.7277 14.7055 92.8901 14.5576 92.8901 14.2617V13.0669C92.8901 12.7482 92.7277 12.5889 92.403 12.5889H86.697C83.5657 12.5889 82 13.9886 82 16.788C82 17.8578 82.2551 18.7226 82.7654 19.3826C83.2757 20.0199 84.1223 20.5775 85.3053 21.0555L89.4108 22.7624C90.5938 23.2177 91.1852 24.0483 91.1852 25.2546V25.9033C91.1852 27.2233 90.2806 27.8834 88.4714 27.8834H82.6263C82.3015 27.8834 82.1392 28.0313 82.1392 28.3272V29.522C82.1392 29.8407 82.3015 30 82.6263 30ZM104.045 30H111.421C111.746 30 111.908 29.852 111.908 29.5562V28.3272C111.908 28.0085 111.746 27.8492 111.421 27.8492H104.323C102.375 27.8492 101.401 26.8592 101.401 24.8791V22.7966C101.401 22.5917 101.517 22.4893 101.749 22.4893H111.595C111.92 22.4893 112.082 22.3186 112.082 21.9772V17.6415C112.082 16.0484 111.63 14.808 110.725 13.9203C109.821 13.0327 108.568 12.5889 106.968 12.5889H104.045C102.445 12.5889 101.181 13.0327 100.253 13.9203C99.3481 14.808 98.8958 16.0484 98.8958 17.6415V24.9474C98.8958 26.5405 99.3481 27.7809 100.253 28.6686C101.181 29.5562 102.445 30 104.045 30ZM109.264 20.6799H101.749C101.517 20.6799 101.401 20.5661 101.401 20.3386V17.7098C101.401 15.7525 102.375 14.7738 104.323 14.7738H106.689C108.638 14.7738 109.612 15.7525 109.612 17.7098V20.3386C109.612 20.5661 109.496 20.6799 109.264 20.6799ZM122.561 30H129.937C130.262 30 130.424 29.852 130.424 29.5562V28.3272C130.424 28.0085 130.262 27.8492 129.937 27.8492H122.84C120.891 27.8492 119.917 26.8592 119.917 24.8791V22.7966C119.917 22.5917 120.033 22.4893 120.265 22.4893H130.111C130.436 22.4893 130.598 22.3186 130.598 21.9772V17.6415C130.598 16.0484 130.146 14.808 129.241 13.9203C128.337 13.0327 127.084 12.5889 125.484 12.5889H122.561C120.961 12.5889 119.697 13.0327 118.769 13.9203C117.864 14.808 117.412 16.0484 117.412 17.6415V24.9474C117.412 26.5405 117.864 27.7809 118.769 28.6686C119.697 29.5562 120.961 30 122.561 30ZM127.78 20.6799H120.265C120.033 20.6799 119.917 20.5661 119.917 20.3386V17.7098C119.917 15.7525 120.891 14.7738 122.84 14.7738H125.206C127.154 14.7738 128.128 15.7525 128.128 17.7098V20.3386C128.128 20.5661 128.012 20.6799 127.78 20.6799ZM165.737 29.5562V28.293C165.737 27.9744 165.575 27.8151 165.25 27.8151H160.483C158.558 27.8151 157.596 26.825 157.596 24.845V17.744C157.596 15.7639 158.558 14.7738 160.483 14.7738H165.25C165.575 14.7738 165.737 14.6259 165.737 14.33V13.0669C165.737 12.7482 165.575 12.5889 165.25 12.5889H160.205C158.605 12.5889 157.341 13.0327 156.413 13.9203C155.508 14.808 155.056 16.0484 155.056 17.6415V24.9474C155.056 26.5405 155.508 27.7809 156.413 28.6686C157.341 29.5562 158.605 30 160.205 30H165.25C165.575 30 165.737 29.852 165.737 29.5562ZM175.493 30H177.303C179.089 30 180.272 29.3969 180.852 28.1906H180.991V29.522C180.991 29.8407 181.153 30 181.478 30H183.043C183.368 30 183.531 29.8407 183.531 29.522V13.0669C183.531 12.7482 183.368 12.5889 183.043 12.5889H175.493C173.893 12.5889 172.629 13.0327 171.701 13.9203C170.796 14.808 170.344 16.0484 170.344 17.6415V24.9474C170.344 26.5405 170.796 27.7809 171.701 28.6686C172.629 29.5562 173.893 30 175.493 30ZM180.991 15.0811V24.6743C180.991 25.6757 180.712 26.4495 180.156 26.9957C179.599 27.542 178.799 27.8151 177.755 27.8151H175.772C173.847 27.8151 172.884 26.825 172.884 24.845V17.744C172.884 15.7639 173.847 14.7738 175.772 14.7738H180.643C180.874 14.7738 180.991 14.8762 180.991 15.0811ZM189.544 30H195.737C199.054 30 200.712 28.6344 200.712 25.9033C200.712 24.5832 200.492 23.5477 200.051 22.7966C199.633 22.0455 198.822 21.4424 197.616 20.9872L193.51 19.1778C192.188 18.6771 191.527 17.9488 191.527 16.9929V16.4125C191.527 15.9573 191.736 15.559 192.153 15.2176C192.594 14.8762 193.232 14.7055 194.067 14.7055H199.32C199.645 14.7055 199.807 14.5576 199.807 14.2617V13.0669C199.807 12.7482 199.645 12.5889 199.32 12.5889H193.614C190.483 12.5889 188.917 13.9886 188.917 16.788C188.917 17.8578 189.173 18.7226 189.683 19.3826C190.194 20.0199 191.04 20.5775 192.223 21.0555L196.328 22.7624C197.511 23.2177 198.103 24.0483 198.103 25.2546V25.9033C198.103 27.2233 197.198 27.8834 195.389 27.8834H189.544C189.22 27.8834 189.057 28.0313 189.057 28.3272V29.522C189.057 29.8407 189.22 30 189.544 30ZM210.963 30H218.339C218.664 30 218.826 29.852 218.826 29.5562V28.3272C218.826 28.0085 218.664 27.8492 218.339 27.8492H211.241C209.293 27.8492 208.319 26.8592 208.319 24.8791V22.7966C208.319 22.5917 208.435 22.4893 208.667 22.4893H218.513C218.838 22.4893 219 22.3186 219 21.9772V17.6415C219 16.0484 218.548 14.808 217.643 13.9203C216.738 13.0327 215.486 12.5889 213.885 12.5889H210.963C209.362 12.5889 208.098 13.0327 207.171 13.9203C206.266 14.808 205.814 16.0484 205.814 17.6415V24.9474C205.814 26.5405 206.266 27.7809 207.171 28.6686C208.098 29.5562 209.362 30 210.963 30ZM216.182 20.6799H208.667C208.435 20.6799 208.319 20.5661 208.319 20.3386V17.7098C208.319 15.7525 209.293 14.7738 211.241 14.7738H213.607C215.556 14.7738 216.53 15.7525 216.53 17.7098V20.3386C216.53 20.5661 216.413 20.6799 216.182 20.6799Z" fill="#024639" fill-opacity="0.8"/>
</g>
<path d="M92.08 42.58H95.44C95.776 42.58 96 42.65 96.112 42.79C96.252 42.902 96.322 43.112 96.322 43.42V46.318C96.322 46.906 96.028 47.2 95.44 47.2H92.08C91.772 47.2 91.618 47.354 91.618 47.662V63.118C91.618 63.706 91.31 64 90.694 64H87.166C86.578 64 86.284 63.706 86.284 63.118V47.662C86.284 47.354 86.116 47.2 85.78 47.2H83.848C83.26 47.2 82.966 46.906 82.966 46.318V43.42C82.966 43.084 83.022 42.86 83.134 42.748C83.274 42.636 83.512 42.58 83.848 42.58H85.78C86.116 42.58 86.284 42.426 86.284 42.118V41.32C86.284 39.108 86.858 37.414 88.006 36.238C89.182 35.062 90.876 34.474 93.088 34.474H95.482C95.818 34.474 96.042 34.544 96.154 34.684C96.266 34.796 96.322 35.006 96.322 35.314V38.212C96.322 38.8 96.042 39.094 95.482 39.094H93.928C93.032 39.094 92.416 39.29 92.08 39.682C91.772 40.046 91.618 40.676 91.618 41.572V42.118C91.618 42.426 91.772 42.58 92.08 42.58ZM121.994 64H118.256C116.044 64 114.336 63.412 113.132 62.236C111.928 61.06 111.326 59.366 111.326 57.154V49.426C111.326 47.214 111.928 45.52 113.132 44.344C114.336 43.168 116.044 42.58 118.256 42.58H121.994C124.178 42.58 125.872 43.182 127.076 44.386C128.308 45.562 128.924 47.242 128.924 49.426V57.154C128.924 59.338 128.308 61.032 127.076 62.236C125.872 63.412 124.178 64 121.994 64ZM119.054 59.422H121.196C122.092 59.422 122.722 59.24 123.086 58.876C123.478 58.512 123.674 57.882 123.674 56.986V49.594C123.674 48.698 123.478 48.068 123.086 47.704C122.722 47.34 122.092 47.158 121.196 47.158H119.054C118.158 47.158 117.528 47.34 117.164 47.704C116.8 48.068 116.618 48.698 116.618 49.594V56.986C116.618 57.882 116.8 58.512 117.164 58.876C117.528 59.24 118.158 59.422 119.054 59.422ZM143.363 64H138.575C138.043 64 137.707 63.706 137.567 63.118L133.367 43.462C133.255 42.874 133.465 42.58 133.997 42.58H138.029C138.645 42.58 138.981 42.874 139.037 43.462L140.927 57.826H141.263L144.245 43.462C144.329 42.874 144.651 42.58 145.211 42.58H148.907C149.495 42.58 149.845 42.874 149.957 43.462L152.855 57.826H153.191L155.123 43.462C155.207 42.874 155.543 42.58 156.131 42.58H160.163C160.723 42.58 160.933 42.874 160.793 43.462L156.593 63.118C156.481 63.706 156.145 64 155.585 64H150.797C150.237 64 149.901 63.706 149.789 63.118L147.227 48.922H146.891L144.371 63.118C144.287 63.706 143.951 64 143.363 64ZM181.511 64H172.229C170.017 64 168.309 63.412 167.105 62.236C165.901 61.06 165.299 59.366 165.299 57.154V49.426C165.299 47.214 165.901 45.52 167.105 44.344C168.309 43.168 170.017 42.58 172.229 42.58H175.547C177.759 42.58 179.467 43.168 180.671 44.344C181.875 45.52 182.477 47.214 182.477 49.426V54.76C182.477 55.348 182.183 55.642 181.595 55.642H171.053C170.717 55.642 170.549 55.796 170.549 56.104V57.028C170.549 57.896 170.731 58.526 171.095 58.918C171.487 59.282 172.131 59.464 173.027 59.464H181.511C182.099 59.464 182.393 59.772 182.393 60.388V63.16C182.393 63.468 182.323 63.692 182.183 63.832C182.071 63.944 181.847 64 181.511 64ZM171.053 52.072H176.765C177.073 52.072 177.227 51.918 177.227 51.61V49.594C177.227 48.698 177.045 48.068 176.681 47.704C176.317 47.34 175.687 47.158 174.791 47.158H173.027C172.131 47.158 171.501 47.34 171.137 47.704C170.773 48.068 170.591 48.698 170.591 49.594V51.61C170.591 51.918 170.745 52.072 171.053 52.072ZM192.605 64H189.035C188.447 64 188.153 63.706 188.153 63.118V43.462C188.153 42.874 188.447 42.58 189.035 42.58H192.605C193.193 42.58 193.487 42.874 193.487 43.462V44.89H193.655C193.963 44.134 194.509 43.56 195.293 43.168C196.077 42.776 196.903 42.58 197.771 42.58H199.283C199.843 42.58 200.123 42.874 200.123 43.462V46.36C200.123 46.696 200.053 46.934 199.913 47.074C199.801 47.186 199.591 47.228 199.283 47.2H196.385C194.453 47.2 193.487 48.292 193.487 50.476V63.118C193.487 63.706 193.193 64 192.605 64Z" fill="#024639"/>
<path fill-rule="evenodd" clip-rule="evenodd" d="M64.0001 20.5165L49.4835 5.99986C41.4837 -1.99995 28.5163 -1.99995 20.5165 5.99986L5.99986 20.5165C-1.99995 28.5163 -1.99995 41.4837 5.99986 49.4835L20.5165 64.0001C28.5163 72 41.4837 72 49.4835 64.0001L64.0001 49.4835C72 41.4837 72 28.5163 64.0001 20.5165Z" fill="#FFA800"/>
<path d="M32.6852 44.0171C32.6852 39.0959 28.8219 35.0254 23.9065 34.7879C23.9065 34.7879 23.5455 39.6667 26.303 42C26.303 42 28.8485 44.0171 32.6852 44.0171Z" fill="white"/>
<path d="M33.5072 56.5895L33.6892 43.4014C33.7982 35.4945 40.1183 29.0777 48.0226 28.8485C48.0226 28.8485 48.0226 40.7273 38.4089 42V52.3237C38.4089 54.9388 36.0973 56.9505 33.5072 56.5895Z" fill="white"/>
<path d="M34.4085 8.10369C34.7897 8.10369 35.1709 8.10369 35.5781 8.12067C36.1258 8.17028 36.6056 8.35857 37.0403 8.62846C38.2126 9.35638 38.9154 10.4022 39.0166 11.8272C39.0215 11.8966 39.0546 11.9639 39.0811 12.0545C40.0633 11.5075 41.083 11.4397 42.1052 11.7349C43.1448 12.0351 43.9431 12.696 44.4663 13.6743C44.9403 14.5608 45.099 15.5082 44.8817 16.4918C44.6334 17.6153 44.0445 18.5195 43.0557 19.1301C44.8501 20.2808 45.4193 22.536 44.5965 24.3277C44.1462 25.3082 43.4376 26.0155 42.4541 26.4053C41.3173 26.8558 40.1861 26.7973 39.0724 26.2195C39.0497 26.3124 39.0199 26.3833 39.0166 26.4555C38.9864 27.1016 38.7948 27.6992 38.4591 28.2406C37.968 29.0326 37.2969 29.6164 36.4233 29.9327C36.1533 30.0304 35.8693 30.0882 35.5917 30.1643C35.1683 30.1643 34.7448 30.1643 34.2967 30.1485C34.2416 30.1172 34.2127 30.0948 34.1804 30.0874C33.3472 29.8965 32.6431 29.4825 32.0685 28.8358C31.5663 28.2705 31.2439 27.6167 31.1135 26.8661C31.0774 26.6585 31.0556 26.4484 31.0226 26.2052C30.1034 26.7105 29.1697 26.8009 28.2045 26.5864C27.2194 26.3675 26.3829 25.8485 25.8632 24.9848C24.4974 22.7146 25.0032 20.7611 26.9785 19.1034C26.0579 18.4968 25.4706 17.644 25.222 16.5551C24.9702 15.452 25.1627 14.4232 25.7441 13.465C26.2099 12.6972 26.8613 12.1455 27.6877 11.8384C28.8097 11.4215 29.9216 11.4768 31.0128 12.0506C31.0357 11.9549 31.0648 11.8837 31.0682 11.8113C31.0986 11.1654 31.2903 10.568 31.6261 10.0266C32.1173 9.23479 32.7893 8.65384 33.6613 8.33383C33.9058 8.24412 34.1592 8.17971 34.4085 8.10369ZM33.2428 15.9439C32.691 16.2454 32.2659 16.6849 31.9503 17.2281C31.4603 18.0715 31.2786 18.9797 31.5107 19.9421C31.75 20.9345 32.2788 21.7259 33.1476 22.2667C33.901 22.7356 34.7159 22.9382 35.5838 22.7879C36.4219 22.6428 37.1555 22.2662 37.7241 21.5932C38.4881 20.6889 38.8129 19.6641 38.5939 18.475C38.4053 17.4506 37.8906 16.643 37.0427 16.0697C36.3344 15.5908 35.5576 15.3684 34.6948 15.4655C34.1842 15.523 33.7148 15.6773 33.2428 15.9439Z" fill="white"/>
<defs>
<clipPath id="clip0_1663_5370">
<rect width="137" height="24" fill="white" transform="translate(82 6)"/>
</clipPath>
</defs>
</svg>
